<?xml version="1.0" encoding="utf-8"?>
<!-- Generator: Adobe Illustrator 19.2.0, SVG Export Plug-In . SVG Version: 6.00 Build 0)  -->
<!DOCTYPE svg PUBLIC "-//W3C//DTD SVG 1.1//EN" "http://www.w3.org/Graphics/SVG/1.1/DTD/svg11.dtd">
<svg version="1.1" id="Layer_1" xmlns="http://www.w3.org/2000/svg" xmlns:xlink="http://www.w3.org/1999/xlink" x="0px" y="0px"
	 width="1112px" height="320.5px" viewBox="0 0 1112 320.5" style="enable-background:new 0 0 1112 320.5;" xml:space="preserve">
<style type="text/css">
	.st0{fill:#333333;}
	.st1{fill:#FFFFFF;}
</style>
<g>
	<path class="st0" d="M1238.5-1871.2c-19.3-19.3-19.7-50.5-1.4-70.3l2.8-2.9c17.7-16.5,45.2-16.4,62.8,0.2l52.1,52
		c7.1,7.1,18.5,7.1,25.5,0l0,0c7-7,7-18.2,0.2-25.3l-55.3-55.3c-15.8-15.8-15.8-41.4,0-57.2l0,0l5.5-5.5c6-6,6-15.8,0-21.9l0,0
		c-5.9-5.9-15.3-6-21.4-0.5l0,0l-0.5,0.5l0,0l-33,33l0,0l-62.8,62.8c-29.9,29.9-29.9,78.8,0,108.6l52.2,52.2c6,6,15.8,6,21.9,0
		c6-6,6-15.8,0-21.9L1238.5-1871.2z"/>
	<path class="st0" d="M1425.3-1960.3l-19.2-19.2l-33-33c-6-6-15.8-6-21.9,0s-6,15.8,0,21.9l48.7,48.7c17.7,17.7,19.6,45.6,5.5,65.4
		c-1.6,2.3-3.3,4.4-5.4,6.4l0,0c-18.1,18.1-47.5,18.1-65.6,0l0,0l-49.7-49.7c-7.1-7.1-18.5-7.1-25.5,0c-7,7-7,18.2-0.2,25.3l0,0
		l53,53l0,0c16.4,16.4,16.4,43,0,59.4l-4.3,4.3c-6,6-6,15.8,0,21.9l0,0c6,6,15.6,6,21.7,0.2l0,0l0.2-0.2l33-33l0,0l62.8-62.8
		C1455.1-1881.5,1455.1-1930.4,1425.3-1960.3z"/>
</g>
<g>
	<path class="st0" d="M1573.2-1794.3c-13.9,0-24.6-3.9-32.1-11.8s-11.3-18.7-11.3-32.6v-89.6h-16.3c-2.1,0-3.9-0.7-5.4-2
		c-1.5-1.4-2.3-3.4-2.3-6.1v-15.3l25.8-4.2l8.1-43.8c0.4-2.1,1.4-3.7,2.9-4.8c1.5-1.1,3.4-1.7,5.7-1.7h20v50.5h42.2v27.5h-42.2v87
		c0,5,1.3,8.9,3.8,11.7c2.5,2.8,5.8,4.2,10,4.2c2.4,0,4.4-0.3,6-0.9s3-1.2,4.2-1.8c1.2-0.6,2.3-1.2,3.2-1.8c0.9-0.6,1.9-0.9,2.8-0.9
		c1.1,0,2.1,0.3,2.8,0.9c0.7,0.6,1.5,1.4,2.3,2.6l11.6,18.8c-5.6,4.7-12.1,8.2-19.4,10.6C1588.6-1795.5,1581-1794.3,1573.2-1794.3z"
		/>
	<path class="st0" d="M1622-1957.3h30.7c2.9,0,5.4,0.7,7.4,2c2,1.4,3.2,3.1,3.8,5.2l23,85.7c1.3,4.7,2.3,9.3,3,13.8
		c0.8,4.5,1.5,9,2.3,13.5c1.1-4.5,2.4-9,3.7-13.5c1.3-4.5,2.7-9.1,4.1-13.8l26.6-86c0.6-2.1,1.9-3.8,3.8-5.2c1.9-1.4,4.1-2,6.6-2h17
		c2.8,0,5.2,0.7,7,2c1.9,1.4,3.1,3.1,3.8,5.2l26.3,87.6c1.4,4.5,2.6,8.8,3.7,13.1c1.1,4.2,2.2,8.5,3.2,12.7c0.7-4.5,1.5-9,2.4-13.5
		s2-9.1,3.4-13.9l23.8-85.7c0.5-2.1,1.8-3.8,3.8-5.2c2-1.4,4.3-2,6.9-2h29.2l-50.8,160.5h-31.1c-3.3,0-5.7-2.3-7.2-6.9l-28.9-92.7
		c-0.9-3-1.8-6.1-2.6-9.1c-0.8-3.1-1.4-6.1-2-9.1c-0.6,3.1-1.3,6.2-2,9.3c-0.7,3.1-1.6,6.2-2.5,9.3l-29.2,92.4
		c-1.5,4.6-4.3,6.9-8.4,6.9h-29.6L1622-1957.3z"/>
	<path class="st0" d="M1935.9-2004.1c0,3.3-0.7,6.5-2,9.4c-1.4,2.9-3.2,5.5-5.4,7.7c-2.2,2.2-4.9,3.9-7.9,5.2c-3,1.3-6.3,2-9.7,2
		c-3.3,0-6.5-0.6-9.5-2c-3-1.3-5.6-3-7.7-5.2c-2.2-2.2-3.9-4.7-5.2-7.7c-1.3-2.9-2-6-2-9.4s0.7-6.7,2-9.7s3-5.6,5.2-7.8
		c2.2-2.2,4.8-3.9,7.7-5.2c3-1.3,6.1-2,9.5-2s6.7,0.7,9.7,2s5.7,3,7.9,5.2c2.2,2.2,4,4.8,5.4,7.8
		C1935.2-2010.8,1935.9-2007.5,1935.9-2004.1z M1930.1-1957.3v160.5h-38.6v-160.5H1930.1z"/>
	<path class="st0" d="M1973.8-1796.8v-160.5h23.6c5,0,8.3,2.3,9.9,7l2.7,12.7c3.2-3.3,6.6-6.4,10.2-9.1s7.4-5.1,11.4-7
		c4-2,8.3-3.5,12.9-4.5c4.6-1,9.6-1.6,15-1.6c8.8,0,16.5,1.5,23.3,4.5s12.4,7.1,17,12.5c4.5,5.4,8,11.8,10.3,19.2
		c2.3,7.5,3.5,15.7,3.5,24.6v102.1H2075V-1899c0-9.8-2.3-17.4-6.8-22.8s-11.3-8.1-20.4-8.1c-6.7,0-12.9,1.5-18.8,4.5
		c-5.8,3-11.4,7.1-16.6,12.4v116.1L1973.8-1796.8L1973.8-1796.8z"/>
	<path class="st0" d="M2214.9-1959.8c10.1,0,19.4,1.6,27.9,4.8c8.5,3.2,15.8,8,22,14.2s10.9,13.8,14.4,22.8c3.4,9,5.2,19.3,5.2,30.9
		c0,2.9-0.1,5.3-0.4,7.3c-0.3,1.9-0.7,3.4-1.4,4.5s-1.6,1.9-2.7,2.3c-1.1,0.5-2.6,0.7-4.4,0.7h-99.2c1.1,16.5,5.6,28.6,13.3,36.3
		c7.7,7.7,17.9,11.6,30.7,11.6c6.3,0,11.7-0.7,16.2-2.2s8.5-3.1,11.9-4.8c3.4-1.8,6.4-3.4,8.9-4.8c2.6-1.5,5-2.2,7.4-2.2
		c1.6,0,2.9,0.3,4.1,0.9c1.1,0.6,2.1,1.5,3,2.7l11.3,14.1c-4.3,5-9.1,9.2-14.4,12.6c-5.3,3.4-10.9,6.1-16.7,8.1s-11.7,3.5-17.7,4.3
		s-11.8,1.3-17.4,1.3c-11.2,0-21.5-1.9-31.1-5.6s-17.9-9.2-25-16.4c-7.1-7.2-12.7-16.2-16.7-26.9c-4.1-10.7-6.1-23.1-6.1-37.1
		c0-10.9,1.8-21.2,5.3-30.9c3.5-9.6,8.6-18,15.2-25.2c6.6-7.1,14.7-12.8,24.2-17C2192.1-1957.7,2202.9-1959.8,2214.9-1959.8z
		 M2215.7-1932.1c-11.3,0-20.1,3.2-26.4,9.5c-6.4,6.4-10.4,15.4-12.2,27.1h72.6c0-5-0.7-9.7-2-14.2c-1.4-4.4-3.4-8.3-6.3-11.7
		c-2.8-3.3-6.4-6-10.6-7.9C2226.4-1931.2,2221.4-1932.1,2215.7-1932.1z"/>
</g>
<g>
	<path class="st1" d="M59.7,195.8c-19.2-19.2-19.7-50.2-1.4-70l2.8-2.8c17.6-16.4,45-16.4,62.5,0.2l51.8,51.8c7,7,18.4,7,25.4,0l0,0
		c6.9-6.9,7-18.1,0.2-25.1l-55-55c-15.7-15.7-15.7-41.2,0-56.9l0,0l5.4-5.4c6-6,6-15.8,0-21.8l0,0c-5.9-5.9-15.2-6-21.3-0.5l0,0
		l-0.5,0.5l0,0L97,43.5l0,0L34.5,106c-29.7,29.7-29.7,78.4,0,108.1l52,52c6,6,15.8,6,21.8,0s6-15.8,0-21.8L59.7,195.8z"/>
	<path class="st1" d="M245.6,107.2L226.5,88l-32.8-32.8c-6-6-15.8-6-21.8,0s-6,15.8,0,21.8l48.4,48.5c17.7,17.6,19.5,45.3,5.4,65
		c-1.6,2.2-3.3,4.4-5.3,6.4l0,0c-18,18-47.2,18-65.2,0l0,0l-49.4-49.4c-7-7-18.4-7-25.4,0c-6.9,6.9-7,18.1-0.2,25.1l0,0l52.8,52.8
		l0,0c16.3,16.3,16.3,42.8,0,59.1l-4.3,4.3c-6,6-6,15.8,0,21.8l0,0c5.9,5.9,15.5,6,21.6,0.2l0,0l0.2-0.2l32.8-32.8l0,0l62.5-62.5
		C275.3,185.5,275.3,136.9,245.6,107.2z"/>
</g>
<path class="st1" d="M390.7,278.2c-13.9,0-24.6-3.9-32.1-11.8s-11.3-18.7-11.3-32.6v-86.4c0-1.8-1.4-3.2-3.2-3.2H331
	c-2.1,0-3.9-0.7-5.4-2c-1.5-1.4-2.3-3.4-2.3-6.1v-12.6c0-1.6,1.1-2.9,2.7-3.1l21-3.4c1.3-0.2,2.4-1.2,2.6-2.5l7.7-41.6
	c0.4-2.1,1.4-3.7,2.9-4.8c1.5-1.1,3.4-1.7,5.7-1.7h16.8c1.8,0,3.2,1.4,3.2,3.2v44.2c0,1.8,1.4,3.2,3.2,3.2H425
	c1.8,0,3.2,1.4,3.2,3.2V141c0,1.8-1.4,3.2-3.2,3.2h-35.9c-1.8,0-3.2,1.4-3.2,3.2v83.8c0,5,1.3,8.9,3.8,11.7s5.8,4.2,10,4.2
	c2.4,0,4.4-0.3,6-0.9c1.6-0.6,3-1.2,4.2-1.8s2.3-1.2,3.2-1.8c0.9-0.6,1.9-0.9,2.8-0.9c1.1,0,2.1,0.3,2.8,0.9
	c0.7,0.6,1.5,1.4,2.3,2.5c0.1,0.1,0.1,0.2,0.2,0.3l10,16.2c0.9,1.4,0.5,3.2-0.8,4.2c-5.1,3.8-10.8,6.8-17.1,8.8
	C406.1,277,398.5,278.2,390.7,278.2z"/>
<path class="st1" d="M440,116.9c-0.3-0.8,0.4-1.7,1.2-1.7h28.9c2.9,0,5.4,0.7,7.4,2c2,1.4,3.2,3.1,3.8,5.2l23,85.7
	c1.3,4.7,2.3,9.3,3,13.8c0.4,2.5,0.9,5.1,1.3,7.6c0.2,1.3,2.1,1.4,2.5,0.1c0.7-2.6,1.4-5.2,2.2-7.7c1.3-4.5,2.7-9.1,4.1-13.8
	l26.6-86c0.6-2.1,1.9-3.8,3.8-5.2c1.9-1.4,4.1-2,6.6-2h17c2.8,0,5.2,0.7,7,2c1.9,1.4,3.1,3.1,3.8,5.2l26.3,87.6
	c1.4,4.5,2.6,8.8,3.7,13.1c0.6,2.3,1.2,4.6,1.7,6.8c0.3,1.3,2.2,1.3,2.5-0.1c0.4-2.5,0.9-5,1.4-7.5c0.9-4.5,2-9.1,3.4-13.9
	l23.8-85.7c0.5-2.1,1.8-3.8,3.8-5.2c2-1.4,4.3-2,6.9-2H683c0.9,0,1.5,0.8,1.2,1.7l-50,157.9c-0.2,0.5-0.7,0.9-1.2,0.9h-30.2
	c-3.3,0-5.7-2.3-7.2-6.9l-28.9-92.7c-0.9-3-1.8-6.1-2.6-9.1c-0.3-1-0.5-2.1-0.8-3.1c-0.3-1.3-2.2-1.3-2.5,0
	c-0.2,1.1-0.5,2.2-0.8,3.3c-0.7,3.1-1.6,6.2-2.5,9.3l-29.2,92.4c-1.5,4.6-4.3,6.9-8.4,6.9h-28.6c-0.6,0-1-0.4-1.2-0.9L440,116.9z"/>
<path class="st1" d="M753.4,68.5c0,3.3-0.7,6.5-2,9.4c-1.4,2.9-3.2,5.5-5.4,7.7s-4.9,3.9-7.9,5.2c-3,1.3-6.3,2-9.7,2
	c-3.3,0-6.5-0.6-9.5-2c-3-1.3-5.6-3-7.7-5.2c-2.2-2.2-3.9-4.7-5.2-7.7c-1.3-2.9-2-6-2-9.4s0.7-6.7,2-9.7s3-5.6,5.2-7.8
	s4.8-3.9,7.7-5.2c3-1.3,6.1-2,9.5-2s6.7,0.7,9.7,2s5.7,3,7.9,5.2s4,4.8,5.4,7.8C752.7,61.8,753.4,65,753.4,68.5z M747.6,118.1v154.7
	c0,1.6-1.3,2.9-2.9,2.9h-32.8c-1.6,0-2.9-1.3-2.9-2.9V118.1c0-1.6,1.3-2.9,2.9-2.9h32.8C746.3,115.3,747.6,116.5,747.6,118.1z"/>
<path class="st1" d="M791.2,273.8V117.1c0-1,0.8-1.9,1.9-1.9h21.7c5,0,8.2,2.3,9.8,6.9c0,0.1,0.1,0.2,0.1,0.3l1.9,9.2
	c0.3,1.4,2.1,2,3.1,1c2.5-2.4,5.1-4.6,7.8-6.7c3.6-2.7,7.4-5.1,11.4-7c4-2,8.3-3.5,12.9-4.5c4.6-1,9.6-1.6,15-1.6
	c8.8,0,16.5,1.5,23.3,4.5s12.4,7.1,17,12.5c4.5,5.4,8,11.8,10.3,19.2c2.3,7.5,3.5,15.7,3.5,24.6v100.3c0,1-0.8,1.9-1.9,1.9h-34.9
	c-1,0-1.9-0.8-1.9-1.9V173.6c0-9.8-2.3-17.4-6.8-22.8c-4.5-5.4-11.3-8.1-20.4-8.1c-6.7,0-12.9,1.5-18.8,4.5c-5.6,2.9-11,6.8-16,11.8
	c-0.4,0.4-0.6,0.8-0.6,1.3v113.4c0,1-0.8,1.9-1.9,1.9h-34.9C792.1,275.7,791.2,274.9,791.2,273.8z"/>
<path class="st1" d="M1032.4,112.7c10.1,0,19.4,1.6,27.9,4.8c8.5,3.2,15.8,8,22,14.2s10.9,13.8,14.4,22.8c3.4,9,5.2,19.3,5.2,30.9
	c0,2.9-0.1,5.3-0.4,7.3c-0.3,1.9-0.7,3.4-1.4,4.5c-0.7,1.1-1.6,1.9-2.7,2.3c-1.1,0.5-2.6,0.7-4.4,0.7h-95.8c-1.8,0-3.3,1.6-3.1,3.4
	c1.5,14.7,5.8,25.7,13,32.9c7.7,7.7,17.9,11.6,30.7,11.6c6.3,0,11.7-0.7,16.2-2.2s8.5-3.1,11.9-4.8c3.4-1.8,6.4-3.4,8.9-4.8
	c2.6-1.5,5-2.2,7.4-2.2c1.6,0,2.9,0.3,4.1,0.9c1.1,0.6,2.1,1.5,3,2.7l9.6,12c1,1.2,0.9,2.9-0.2,4.1c-3.8,4.1-8,7.7-12.6,10.6
	c-5.3,3.4-10.9,6.1-16.7,8.1s-11.7,3.5-17.7,4.3s-11.8,1.3-17.4,1.3c-11.2,0-21.5-1.9-31.1-5.6s-17.9-9.2-25-16.4
	c-7.1-7.2-12.7-16.2-16.7-26.9c-4.1-10.7-6.1-23.1-6.1-37.1c0-10.9,1.8-21.2,5.3-30.9c3.5-9.6,8.6-18,15.2-25.2
	c6.6-7.1,14.7-12.8,24.2-17C1009.6,114.8,1020.4,112.7,1032.4,112.7z M1033.2,140.4c-11.3,0-20.1,3.2-26.4,9.5
	c-5.7,5.7-9.5,13.5-11.5,23.4c-0.4,1.9,1.1,3.7,3,3.7h65.7c1.8,0,3.2-1.5,3.1-3.3c-0.2-3.8-0.9-7.4-1.9-10.9
	c-1.4-4.4-3.4-8.3-6.3-11.7c-2.8-3.3-6.4-6-10.6-7.9C1043.9,141.4,1038.9,140.4,1033.2,140.4z"/>
<g>
	<path class="st0" d="M-1880.3-1496.2c-19.2-19.2-19.7-50.2-1.4-70l2.8-2.8c17.6-16.4,45-16.4,62.5,0.2l51.8,51.8c7,7,18.4,7,25.4,0
		l0,0c6.9-6.9,7-18.1,0.2-25.1l-55-55c-15.7-15.7-15.7-41.2,0-56.9l0,0l5.4-5.4c6-6,6-15.8,0-21.8l0,0c-5.9-5.9-15.2-6-21.3-0.5l0,0
		l-0.5,0.5l0,0l-32.8,32.8l0,0l-62.5,62.5c-29.7,29.7-29.7,78.4,0,108.1l52,52c6,6,15.8,6,21.8,0s6-15.8,0-21.8L-1880.3-1496.2z"/>
	<path class="st0" d="M-1694.4-1584.8l-19.1-19.1l-32.8-32.8c-6-6-15.8-6-21.8,0s-6,15.8,0,21.8l48.4,48.5
		c17.7,17.6,19.5,45.3,5.4,65c-1.6,2.2-3.3,4.4-5.3,6.4l0,0c-18,18-47.2,18-65.2,0l0,0l-49.4-49.4c-7-7-18.4-7-25.4,0
		c-6.9,6.9-7,18.1-0.2,25.1l0,0l52.8,52.8l0,0c16.3,16.3,16.3,42.8,0,59.1l-4.3,4.3c-6,6-6,15.8,0,21.8l0,0c5.9,5.9,15.5,6,21.6,0.2
		l0,0l0.2-0.2l32.8-32.8l0,0l62.5-62.5C-1664.7-1506.5-1664.7-1555.1-1694.4-1584.8z"/>
</g>
<g>
	<path class="st0" d="M-1556.3-1413.8c-13.9,0-24.6-3.9-32.1-11.8s-11.3-18.7-11.3-32.6v-89.6h-16.3c-2.1,0-3.9-0.7-5.4-2
		c-1.5-1.4-2.3-3.4-2.3-6.1v-15.3l25.8-4.2l8.1-43.8c0.4-2.1,1.4-3.7,2.9-4.8c1.5-1.1,3.4-1.7,5.7-1.7h20v50.5h42.2v27.5h-42.2v87
		c0,5,1.3,8.9,3.8,11.7c2.5,2.8,5.8,4.2,10,4.2c2.4,0,4.4-0.3,6-0.9s3-1.2,4.2-1.8c1.2-0.6,2.3-1.2,3.2-1.8c0.9-0.6,1.9-0.9,2.8-0.9
		c1.1,0,2.1,0.3,2.8,0.9c0.7,0.6,1.5,1.4,2.3,2.6l11.6,18.8c-5.6,4.7-12.1,8.2-19.4,10.6C-1540.9-1415-1548.5-1413.8-1556.3-1413.8z
		"/>
	<path class="st0" d="M-1507.5-1576.7h30.7c2.9,0,5.4,0.7,7.4,2c2,1.4,3.2,3.1,3.8,5.2l23,85.7c1.3,4.7,2.3,9.3,3,13.8
		c0.8,4.5,1.5,9,2.3,13.5c1.1-4.5,2.4-9,3.7-13.5c1.3-4.5,2.7-9.1,4.1-13.8l26.6-86c0.6-2.1,1.9-3.8,3.8-5.2c1.9-1.4,4.1-2,6.6-2h17
		c2.8,0,5.2,0.7,7,2c1.9,1.4,3.1,3.1,3.8,5.2l26.3,87.6c1.4,4.5,2.6,8.8,3.7,13.1c1.1,4.2,2.2,8.5,3.2,12.7c0.7-4.5,1.5-9,2.4-13.5
		s2-9.1,3.4-13.9l23.8-85.7c0.5-2.1,1.8-3.8,3.8-5.2c2-1.4,4.3-2,6.9-2h29.2l-50.8,160.5h-31.1c-3.3,0-5.7-2.3-7.2-6.9l-28.9-92.7
		c-0.9-3-1.8-6.1-2.6-9.1c-0.8-3.1-1.4-6.1-2-9.1c-0.6,3.1-1.3,6.2-2,9.3c-0.7,3.1-1.6,6.2-2.5,9.3l-29.2,92.4
		c-1.5,4.6-4.3,6.9-8.4,6.9h-29.6L-1507.5-1576.7z"/>
	<path class="st0" d="M-1193.6-1623.5c0,3.3-0.7,6.5-2,9.4c-1.4,2.9-3.2,5.5-5.4,7.7c-2.2,2.2-4.9,3.9-7.9,5.2c-3,1.3-6.3,2-9.7,2
		c-3.3,0-6.5-0.6-9.5-2c-3-1.3-5.6-3-7.7-5.2c-2.2-2.2-3.9-4.7-5.2-7.7c-1.3-2.9-2-6-2-9.4s0.7-6.7,2-9.7s3-5.6,5.2-7.8
		c2.2-2.2,4.8-3.9,7.7-5.2c3-1.3,6.1-2,9.5-2s6.7,0.7,9.7,2s5.7,3,7.9,5.2c2.2,2.2,4,4.8,5.4,7.8
		C-1194.3-1630.2-1193.6-1627-1193.6-1623.5z M-1199.4-1576.7v160.5h-38.6v-160.5H-1199.4z"/>
	<path class="st0" d="M-1155.8-1416.3v-160.5h23.6c5,0,8.3,2.3,9.9,7l2.7,12.7c3.2-3.3,6.6-6.4,10.2-9.1s7.4-5.1,11.4-7
		c4-2,8.3-3.5,12.9-4.5s9.6-1.6,15-1.6c8.8,0,16.5,1.5,23.3,4.5s12.4,7.1,17,12.5c4.5,5.4,8,11.8,10.3,19.2
		c2.3,7.5,3.5,15.7,3.5,24.6v102.1h-38.6v-102.1c0-9.8-2.3-17.4-6.8-22.8s-11.3-8.1-20.4-8.1c-6.7,0-12.9,1.5-18.8,4.5
		c-5.8,3-11.4,7.1-16.6,12.4v116.1h-38.6V-1416.3z"/>
	<path class="st0" d="M-914.6-1579.3c10.1,0,19.4,1.6,27.9,4.8c8.5,3.2,15.8,8,22,14.2s10.9,13.8,14.4,22.8c3.4,9,5.2,19.3,5.2,30.9
		c0,2.9-0.1,5.3-0.4,7.3c-0.3,1.9-0.7,3.4-1.4,4.5s-1.6,1.9-2.7,2.3c-1.1,0.5-2.6,0.7-4.4,0.7h-99.2c1.1,16.5,5.6,28.6,13.3,36.3
		c7.7,7.7,17.9,11.6,30.7,11.6c6.3,0,11.7-0.7,16.2-2.2s8.5-3.1,11.9-4.8c3.4-1.8,6.4-3.4,8.9-4.8c2.6-1.5,5-2.2,7.4-2.2
		c1.6,0,2.9,0.3,4.1,0.9c1.1,0.6,2.1,1.5,3,2.7l11.3,14.1c-4.3,5-9.1,9.2-14.4,12.6c-5.3,3.4-10.9,6.1-16.7,8.1s-11.7,3.5-17.7,4.3
		s-11.8,1.3-17.4,1.3c-11.2,0-21.5-1.9-31.1-5.6s-17.9-9.2-25-16.4c-7.1-7.2-12.7-16.2-16.7-26.9c-4.1-10.7-6.1-23.1-6.1-37.1
		c0-10.9,1.8-21.2,5.3-30.9c3.5-9.6,8.6-18,15.2-25.2c6.6-7.1,14.7-12.8,24.2-17C-937.4-1577.2-926.6-1579.3-914.6-1579.3z
		 M-913.8-1551.6c-11.3,0-20.1,3.2-26.4,9.5c-6.4,6.4-10.4,15.4-12.2,27.1h72.6c0-5-0.7-9.7-2-14.2c-1.4-4.4-3.4-8.3-6.3-11.7
		c-2.8-3.3-6.4-6-10.6-7.9C-903.1-1550.6-908.1-1551.6-913.8-1551.6z"/>
</g>
</svg>
