<?xml version="1.0" encoding="UTF-8" standalone="no"?>
<svg
   xmlns:dc="http://purl.org/dc/elements/1.1/"
   xmlns:cc="http://creativecommons.org/ns#"
   xmlns:rdf="http://www.w3.org/1999/02/22-rdf-syntax-ns#"
   xmlns:svg="http://www.w3.org/2000/svg"
   xmlns="http://www.w3.org/2000/svg"
   xmlns:sodipodi="http://sodipodi.sourceforge.net/DTD/sodipodi-0.dtd"
   xmlns:inkscape="http://www.inkscape.org/namespaces/inkscape"
   viewBox="0 0 800.00001 230"
   version="1.1"
   id="svg10"
   sodipodi:docname="webpack.svg"
   width="800"
   height="230"
   inkscape:version="0.92.2 2405546, 2018-03-11">
  <metadata
     id="metadata16">
    <rdf:RDF>
      <cc:Work
         rdf:about="">
        <dc:format>image/svg+xml</dc:format>
        <dc:type
           rdf:resource="http://purl.org/dc/dcmitype/StillImage" />
        <dc:title></dc:title>
      </cc:Work>
    </rdf:RDF>
  </metadata>
  <defs
     id="defs14" />
  <sodipodi:namedview
     pagecolor="#ffffff"
     bordercolor="#666666"
     borderopacity="1"
     objecttolerance="10"
     gridtolerance="10"
     guidetolerance="10"
     inkscape:pageopacity="0"
     inkscape:pageshadow="2"
     inkscape:window-width="707"
     inkscape:window-height="480"
     id="namedview12"
     showgrid="false"
     inkscape:zoom="0.09879542"
     inkscape:cx="1523.35"
     inkscape:cy="437.85001"
     inkscape:window-x="0"
     inkscape:window-y="0"
     inkscape:window-maximized="0"
     inkscape:current-layer="svg10" />
  <path
     d="m 387,-645.70002 387,218.90001 V 11.099988 L 387,229.99999 0,11.099988 V -426.80001 Z"
     id="path2"
     inkscape:connector-curvature="0"
     style="fill:#ffffff" />
  <path
     d="M 704.9,-4.0000122 399.8,168.59999 V 34.199988 l 190.1,-104.6 z M 725.8,-22.900012 V -383.80001 l -111.6,64.5 V -87.300012 Z M 67.9,-4.0000122 373,168.59999 V 34.199988 l -190.2,-104.6 z M 47,-22.900012 V -383.80001 l 111.6,64.5 V -87.300012 Z M 60.1,-407.20001 373,-584.20002 v 129.90001 l -200.5,110.3 -1.6,0.9 z m 652.6,0 -312.9,-177.00001 v 129.90001 l 200.5,110.2 1.6,0.9 z"
     id="path4"
     inkscape:connector-curvature="0"
     style="fill:#8ed6fb" />
  <path
     d="M 373,3.5999834 185.4,-99.600017 V -303.90002 l 187.6,108.3 z m 26.8,0 L 587.4,-99.500017 V -303.90002 l -187.6,108.3 z M 198.1,-327.50002 l 188.3,-103.5 188.3,103.5 -188.3,108.7 z"
     id="path6"
     inkscape:connector-curvature="0"
     style="fill:#1c78c0" />
  <path
     d="m 1164.3,-69.400017 h 82.5 l 84.1,-280.200003 h -80.4 l -49.8,198.8 -53.1,-198.8 H 1078 l -53.6,198.8 -49.3,-198.8 h -80.4 l 83.6,280.200003 h 82.5 l 52,-179.500003 z m 170.9,-139.300003 c 0,84.1 57.3,146.300003 147.4,146.300003 69.7,0 107.2,-41.800003 117.9,-61.600003 l -48.8,-37 c -8,11.8 -30,34.3 -68.1,34.3 -41.3,0 -71.3,-26.8 -72.9,-64.3 H 1608 c 0.5,-5.4 0.5,-10.7 0.5,-16.1 0,-91.6 -49.3,-149.5 -136.1,-149.5 -79.9,0 -137.2,63.2 -137.2,147.9 z m 77.7,-30.6 c 3.2,-32.1 25.7,-56.8 60.6,-56.8 33.8,0 58.4,22.5 60,56.8 z m 223.5,169.900003 h 69.7 v -28.9 c 7.5,9.1 35.4,35.9 83.1,35.9 80.4,0 137.2,-60.500003 137.2,-146.800003 0,-86.8 -52.5,-147.3 -132.9,-147.3 -48.2,0 -76.1,26.8 -83.1,36.4 v -136.7 h -73.9 v 387.400003 z m 71.8,-139.300003 c 0,-52.5 31.1,-82.5 71.8,-82.5 42.9,0 71.8,33.8 71.8,82.5 0,49.8 -30,80.9 -71.8,80.9 -45,0 -71.8,-36.5 -71.8,-80.9 z m 247,239.500003 h 73.9 v -129.2 c 7,9.1 34.8,35.9 83.1,35.9 80.4,0 132.9,-60.500003 132.9,-147.300003 0,-85.7 -56.8,-146.8 -137.2,-146.8 -47.7,0 -75.6,26.8 -83.1,36.4 v -29.5 h -69.7 V 30.799983 Z M 2027,-210.30002 c 0,-44.5 26.8,-80.9 71.8,-80.9 41.8,0 71.8,31.1 71.8,80.9 0,48.8 -28.9,82.5 -71.8,82.5 -40.7,0 -71.8,-30 -71.8,-82.5 z m 231.5,54.1 c 0,58.900003 48.2,93.800003 105,93.800003 32.2,0 53.6,-9.6 68.1,-25.2 l 4.8,18.2 h 65.4 V -246.80002 c 0,-62.7 -26.8,-109.8 -116.8,-109.8 -42.9,0 -85.2,16.1 -110.4,33.2 l 27.9,50.4 a 165.2,165.2 0 0 1 74.5,-19.8 c 32.7,0 50.9,16.6 50.9,41.3 v 18.2 c -10.2,-7 -32.2,-15.5 -60.6,-15.5 -65.4,-0.1 -108.8,37.4 -108.8,92.6 z m 73.9,-2.2 c 0,-23 19.8,-39.1 48.2,-39.1 28.4,0 48.8,14.5 48.8,39.1 0,23.6 -20.4,38.6 -48.2,38.6 -27.8,0 -48.8,-15.5 -48.8,-38.6 z m 348.9,30.6 c -46.6,0 -79.8,-33.8 -79.8,-81.4 0,-45 29.5,-82 77.2,-82 a 95.2,95.2 0 0 1 65.4,26.8 l 20.9,-62.2 a 142.6,142.6 0 0 0 -88.4,-30 c -85.2,0 -149,62.7 -149,147.9 0,85.2 62.2,146.300003 149.5,146.300003 a 141,141 0 0 0 87.3,-30 l -19.8,-60.500003 c -12.4,10.1 -34.9,25.1 -63.3,25.1 z m 110.9,58.400003 h 73.9 V -214.10002 l 93.8,144.700003 h 86.8 l -106.1,-153.300003 98.6,-127 h -83.1 l -90,117.9 v -225 h -73.9 z"
     id="path8"
     inkscape:connector-curvature="0"
     style="fill:#f5fafa" />
</svg>
