<svg xmlns="http://www.w3.org/2000/svg" version="1.1" width="1280" height="720">
<rect x="0" y="0" width="1280" height="720" fill="#21190c" />
<g transform="scale(5.000000) translate(0.5 0.5)">
<polygon fill="#fffc79" fill-opacity="0.501961" points="150.433054,70.287082,82.228420,103.535830,6.202408,91.637771,75.874687,46.623897" />
<polygon fill="#ffffe5" fill-opacity="0.501961" points="73.656343,65.266728,181.858584,72.231147,18.476636,87.503892,54.242130,76.219403" />
<polygon fill="#8ebbcd" fill-opacity="0.501961" points="240.353281,84.264962,264.859180,97.205910,243.289705,90.905951,123.045703,62.140922" />
<polygon fill="#a64400" fill-opacity="0.501961" points="83.286587,60.022723,12.491823,89.843067,68.370105,31.712915,152.929510,70.781349" />
<polygon fill="#9b4d00" fill-opacity="0.501961" points="108.529061,103.969955,69.503174,114.800494,28.438216,93.240949,145.318866,70.705399" />
<polygon fill="#ffea6c" fill-opacity="0.501961" points="115.151588,67.323076,75.526110,54.670440,38.731715,82.023283,90.360575,94.461591" />
<polygon fill="#000000" fill-opacity="0.501961" points="262.296614,97.119087,254.052035,159.000000,-16.000000,139.938147,177.011705,80.481508" />
<polygon fill="#000000" fill-opacity="0.501961" points="-3.348979,-16.000000,271.000000,0.833740,257.145410,83.415193,-11.964872,19.824255" />
<polygon fill="#f3ffff" fill-opacity="0.501961" points="69.773272,69.187955,69.511479,75.480204,48.840454,79.634403,161.100174,70.868253" />
<polygon fill="#000000" fill-opacity="0.501961" points="-0.161762,-16.000000,-16.000000,107.350869,53.566803,25.338327,271.000000,15.444102" />
<polygon fill="#8ec4e1" fill-opacity="0.501961" points="199.967848,78.579694,259.180572,92.691167,185.713171,72.071665,124.443017,70.311336" />
<polygon fill="#000000" fill-opacity="0.501961" points="-16.000000,111.226589,-9.027506,159.000000,262.345711,159.000000,269.155907,100.720850" />
<polygon fill="#0c3141" fill-opacity="0.501961" points="129.063711,71.780686,160.373049,73.327353,207.172883,80.364889,105.857600,87.119863" />
<polygon fill="#522b03" fill-opacity="0.501961" points="123.751148,106.275862,82.008513,124.174224,10.661997,92.525958,27.878506,87.048284" />
<polygon fill="#bed9e5" fill-opacity="0.501961" points="76.219796,72.840346,-16.000000,100.297714,-3.648328,106.010107,-16.000000,96.339858" />
<polygon fill="#542700" fill-opacity="0.501961" points="141.522642,70.110069,86.066832,18.363323,30.263161,51.922241,87.454778,53.091312" />
<polygon fill="#fffffc" fill-opacity="0.501961" points="77.514920,85.034611,93.715502,75.666826,80.869050,66.168661,64.247374,76.434781" />
<polygon fill="#e68c07" fill-opacity="0.501961" points="60.808023,99.998216,104.137644,91.141098,97.246153,84.881614,46.973607,82.131044" />
<polygon fill="#000000" fill-opacity="0.501961" points="26.098016,-1.247308,268.024383,-3.392405,270.579970,96.937129,140.789922,51.572168" />
<polygon fill="#e58517" fill-opacity="0.501961" points="80.538920,64.557929,127.405743,70.413779,76.362812,48.573054,35.411644,83.040144" />
<polygon fill="#29272a" fill-opacity="0.501961" points="256.598173,82.245395,140.291352,51.622667,110.199550,63.523847,226.892885,79.138492" />
<polygon fill="#000000" fill-opacity="0.501961" points="206.073088,80.092735,-3.506166,144.344499,271.000000,159.000000,231.556484,87.866303" />
<polygon fill="#4d3a26" fill-opacity="0.501961" points="-1.673208,84.854845,53.150948,60.381007,29.300914,83.101904,-7.777870,96.035077" />
<polygon fill="#934203" fill-opacity="0.501961" points="65.046425,56.490246,117.798981,57.734031,72.783576,41.129834,30.763342,76.457358" />
<polygon fill="#835c2a" fill-opacity="0.501961" points="115.119798,63.912897,85.923525,47.981209,147.521920,68.428958,96.790398,71.058909" />
<polygon fill="#392703" fill-opacity="0.501961" points="143.142470,78.085801,114.820150,77.434916,104.056471,117.681929,122.061239,112.254494" />
<polygon fill="#000000" fill-opacity="0.501961" points="-16.000000,157.010630,50.565884,159.000000,39.284275,103.218333,-16.000000,103.932235" />
<polygon fill="#000000" fill-opacity="0.501961" points="-9.236498,84.315052,31.861762,63.002986,39.902002,-1.103210,-2.612917,-16.000000" />
<polygon fill="#a15507" fill-opacity="0.501961" points="73.402264,105.557600,35.142361,90.274596,116.957975,92.862486,91.594814,101.807879" />
<polygon fill="#2c4543" fill-opacity="0.501961" points="42.012783,86.747755,33.762743,94.780208,-16.000000,99.442793,19.343188,89.232667" />
<polygon fill="#ffcc42" fill-opacity="0.501961" points="61.768158,62.152159,113.154274,71.150332,84.331594,58.522036,60.530118,77.098080" />
<polygon fill="#adc8b7" fill-opacity="0.501961" points="248.391813,88.566526,211.824946,80.066696,271.000000,99.118749,259.728573,93.571155" />
<polygon fill="#f7d543" fill-opacity="0.501961" points="69.432696,88.346300,80.056314,88.623265,120.997626,72.470952,63.560458,84.353397" />
<polygon fill="#fffee6" fill-opacity="0.501961" points="71.116429,75.546515,75.437356,63.948056,91.269835,77.350059,23.942661,84.337565" />
<polygon fill="#326e91" fill-opacity="0.501961" points="217.200768,81.162053,116.848913,73.264435,142.516554,71.643911,152.094942,72.158170" />
<polygon fill="#000000" fill-opacity="0.501961" points="266.814290,73.949142,139.351408,54.192519,97.332493,-16.000000,270.458001,-2.558341" />
<polygon fill="#112e3a" fill-opacity="0.501961" points="217.857552,90.229741,132.045870,72.955294,207.044988,79.756271,271.000000,99.613807" />
<polygon fill="#866924" fill-opacity="0.501961" points="108.694072,80.751654,101.559563,100.499606,128.051320,71.784807,94.783292,80.291469" />
<polygon fill="#4c3e2b" fill-opacity="0.501961" points="134.603341,68.023165,192.057730,74.057748,103.492124,52.524150,136.173233,70.412781" />
<polygon fill="#2a1200" fill-opacity="0.501961" points="21.271401,58.873109,24.762764,76.734208,96.574033,14.044808,38.238633,28.247017" />
<polygon fill="#000101" fill-opacity="0.501961" points="271.000000,125.362954,180.535959,78.058023,134.969327,83.950091,158.694068,158.787812" />
<polygon fill="#22242d" fill-opacity="0.501961" points="261.777606,81.763009,266.294814,100.194006,252.813147,89.413343,202.991298,76.187513" />
<polygon fill="#ffffe8" fill-opacity="0.501961" points="87.940016,76.621242,76.519528,83.865487,74.482178,72.119359,125.959565,69.377452" />
<polygon fill="#ffdb61" fill-opacity="0.501961" points="82.169551,60.666263,86.616325,72.275714,116.770073,69.893841,62.190287,66.012332" />
<polygon fill="#271b02" fill-opacity="0.501961" points="23.368184,90.442239,56.960264,103.856609,82.806931,128.332614,10.129121,99.487554" />
<polygon fill="#e2921c" fill-opacity="0.501961" points="64.792445,75.758075,56.252947,60.544890,94.247970,55.996890,35.085973,80.849203" />
<polygon fill="#1e0f00" fill-opacity="0.501961" points="102.926525,19.542880,70.214809,15.216818,118.431982,53.291431,141.888271,57.225712" />
<polygon fill="#683906" fill-opacity="0.501961" points="101.901806,96.362761,115.446176,76.536073,114.483226,102.864058,54.282855,106.119802" />
<polygon fill="#542a01" fill-opacity="0.501961" points="103.810082,43.624834,81.362122,30.579748,21.444823,80.802404,48.432268,46.874441" />
<polygon fill="#abc1bf" fill-opacity="0.501961" points="247.791975,89.152497,199.690705,76.259576,187.484269,74.748339,246.452196,90.011799" />
<polygon fill="#0d1713" fill-opacity="0.501961" points="271.000000,99.950900,207.540491,84.253096,138.263199,74.411286,190.997824,94.327764" />
<polygon fill="#0a0b14" fill-opacity="0.501961" points="135.486354,49.812788,221.884030,66.398722,271.000000,87.030774,151.470816,60.883595" />
<polygon fill="#e3a21c" fill-opacity="0.501961" points="56.800834,86.051019,76.416361,95.838013,110.118809,78.055779,70.099408,88.237347" />
<polygon fill="#a1d1e2" fill-opacity="0.501961" points="150.537568,70.561550,147.995711,69.500213,187.250386,74.421489,117.549809,71.568020" />
<polygon fill="#fff160" fill-opacity="0.501961" points="91.838771,82.153515,89.326028,82.964715,73.820112,85.833466,56.018445,80.760314" />
<polygon fill="#c4650e" fill-opacity="0.501961" points="80.098926,52.867423,91.492281,61.346589,58.020726,55.009158,47.145811,71.209015" />
<polygon fill="#a87724" fill-opacity="0.501961" points="59.423016,83.223092,41.511576,84.092460,39.039102,89.573445,57.083251,97.575411" />
<polygon fill="#4f3e25" fill-opacity="0.501961" points="-2.190485,93.270145,43.607062,79.192643,30.143707,82.658423,37.032052,64.713523" />
<polygon fill="#171002" fill-opacity="0.501961" points="131.984987,81.670933,167.486697,81.415182,62.865330,130.807600,129.140153,116.313393" />
<polygon fill="#ffffff" fill-opacity="0.501961" points="88.705755,73.296568,76.727545,80.640915,61.974406,77.209955,79.613727,71.714296" />
<polygon fill="#614f39" fill-opacity="0.501961" points="157.563236,68.889156,128.787302,69.807156,123.882099,69.184910,121.992289,65.001476" />
<polygon fill="#000000" fill-opacity="0.501961" points="2.793656,159.000000,-6.423715,103.119862,57.964488,130.768025,271.000000,127.986518" />
<polygon fill="#000000" fill-opacity="0.501961" points="0.367463,76.255986,-16.000000,-13.479274,271.000000,54.063202,59.666366,-16.000000" />
<polygon fill="#352d25" fill-opacity="0.501961" points="217.339508,78.404474,175.357168,72.605429,91.150600,47.242306,155.737090,63.136676" />
<polygon fill="#313c2b" fill-opacity="0.501961" points="130.643683,89.492864,150.247674,75.579013,126.387568,74.502309,138.877830,82.385300" />
<polygon fill="#fff7a1" fill-opacity="0.501961" points="64.844387,67.801781,92.127442,72.221480,82.890543,64.472618,71.528043,67.234116" />
<polygon fill="#bb9a3c" fill-opacity="0.501961" points="101.426366,76.449326,92.906634,89.643768,117.740080,75.567837,96.646063,75.980021" />
<polygon fill="#fffd8f" fill-opacity="0.501961" points="85.717093,82.946478,91.588520,74.973215,81.631221,81.267490,64.546740,81.753788" />
<polygon fill="#100900" fill-opacity="0.501961" points="24.018155,29.034884,12.368813,83.851250,48.654647,33.070754,114.368894,4.882890" />
<polygon fill="#cd9a3d" fill-opacity="0.501961" points="120.006834,63.601039,85.728858,71.719601,112.374138,66.960839,77.465297,57.937112" />
<polygon fill="#fdfff8" fill-opacity="0.501961" points="78.853779,73.098194,127.969278,70.096689,103.608136,74.286146,84.968695,74.629890" />
<polygon fill="#000000" fill-opacity="0.501961" points="271.000000,82.530270,254.803633,-16.000000,59.829423,-16.000000,172.089001,51.778468" />
<polygon fill="#2c2a2c" fill-opacity="0.501961" points="271.000000,98.115761,247.867371,84.435024,207.380533,76.205223,271.000000,96.307169" />
<polygon fill="#feca3e" fill-opacity="0.501961" points="71.533469,74.140473,52.336544,77.525520,82.097252,55.258483,69.801067,68.761710" />
<polygon fill="#76a79f" fill-opacity="0.501961" points="115.210443,72.966721,133.314301,71.141104,146.648403,73.084854,131.365401,74.802171" />
<polygon fill="#c0710d" fill-opacity="0.501961" points="106.814549,94.719889,85.998001,87.951445,71.591343,102.855969,72.970199,93.441246" />
<polygon fill="#863e04" fill-opacity="0.501961" points="91.660203,50.170567,84.044470,38.851599,29.430672,81.506799,55.527910,57.109533" />
<polygon fill="#864504" fill-opacity="0.501961" points="84.582845,96.950835,109.675801,91.952525,106.523672,84.137038,93.224732,104.035860" />
<polygon fill="#432602" fill-opacity="0.501961" points="129.555632,91.751297,108.130869,93.824032,125.266459,102.066309,65.253577,116.022079" />
<polygon fill="#acbbb7" fill-opacity="0.501961" points="243.390634,88.358304,259.578418,92.927262,257.830336,79.317643,271.000000,100.189833" />
<polygon fill="#bcdfe3" fill-opacity="0.501961" points="169.654759,73.432650,181.009117,72.845204,185.682978,74.737552,197.343446,77.022068" />
<polygon fill="#d2cf7b" fill-opacity="0.501961" points="123.471680,75.624982,128.743148,77.429168,122.449668,74.040502,85.439121,75.835789" />
<polygon fill="#a1b2bf" fill-opacity="0.501961" points="-14.786885,87.263917,-10.560359,96.910089,12.478595,89.730861,-16.000000,102.665318" />
<polygon fill="#734d14" fill-opacity="0.501961" points="43.662535,84.565199,51.420818,103.911398,72.085850,97.287000,23.303902,94.166748" />
<polygon fill="#000000" fill-opacity="0.501961" points="69.289593,137.534806,251.414003,159.000000,271.000000,107.515236,244.833823,94.948788" />
<polygon fill="#221d17" fill-opacity="0.501961" points="23.646808,75.562919,22.445285,71.344701,-16.000000,85.525669,8.017043,87.657850" />
<polygon fill="#335f72" fill-opacity="0.501961" points="-16.000000,100.291355,-16.000000,101.204172,21.477522,90.732847,17.164959,89.573691" />
<polygon fill="#190d00" fill-opacity="0.501961" points="61.025779,128.005211,132.523227,109.157756,71.849489,117.315566,14.714341,99.492185" />
<polygon fill="#44300d" fill-opacity="0.501961" points="38.493507,94.304970,75.874583,112.394527,13.701534,90.081493,21.681330,93.998138" />
<polygon fill="#5a2a00" fill-opacity="0.501961" points="57.496732,39.634438,113.235849,57.744133,86.196566,35.964211,43.558438,54.645264" />
<polygon fill="#3284be" fill-opacity="0.501961" points="142.872417,72.179392,161.638722,72.509811,174.876131,74.426533,169.978914,75.425956" />
<polygon fill="#976b31" fill-opacity="0.501961" points="28.586763,82.099055,32.263797,83.745588,57.194843,72.299904,9.953138,88.296677" />
<polygon fill="#102a46" fill-opacity="0.501961" points="204.700403,81.934215,170.715548,80.367769,165.657054,74.618581,186.988536,77.022024" />
<polygon fill="#cf720e" fill-opacity="0.501961" points="69.808385,55.995887,70.129840,45.148693,69.574739,63.490681,91.309912,53.361777" />
<polygon fill="#b7dde6" fill-opacity="0.501961" points="173.826551,72.866042,234.567992,85.346862,205.974625,78.526067,154.745311,71.339172" />
<polygon fill="#25230f" fill-opacity="0.501961" points="111.327006,94.045461,162.121028,81.862973,146.721412,78.043829,115.095603,91.115785" />
<polygon fill="#f8c834" fill-opacity="0.501961" points="77.194914,89.766972,80.022981,87.308044,64.526137,81.099057,55.530158,80.874235" />
<polygon fill="#e0f9f3" fill-opacity="0.501961" points="74.142455,72.173433,138.434209,70.526037,153.875301,72.755269,145.085516,70.859894" />
<polygon fill="#f9fcde" fill-opacity="0.501961" points="31.488645,84.626867,68.649136,77.696285,82.214103,79.064945,61.747489,75.979576" />
<polygon fill="#3b1f03" fill-opacity="0.501961" points="142.145263,61.803613,75.985161,29.282759,98.491878,46.675817,107.180487,53.475068" />
<polygon fill="#9f692b" fill-opacity="0.501961" points="95.335971,54.683164,105.648682,64.093151,120.427665,68.308554,119.944397,62.428351" />
<polygon fill="#829477" fill-opacity="0.501961" points="28.106742,84.887680,42.218201,87.627220,17.252994,89.554591,39.808894,84.640809" />
<polygon fill="#d3a23f" fill-opacity="0.501961" points="103.214719,69.774062,124.147226,69.832388,104.758426,66.983591,89.404104,61.142793" />
<polygon fill="#23252a" fill-opacity="0.501961" points="222.497291,80.786857,178.245397,61.875300,187.936600,60.987425,177.977131,71.831192" />
<polygon fill="#0d0800" fill-opacity="0.501961" points="112.863123,15.272132,146.254430,59.169893,91.537203,12.234971,67.222325,30.322452" />
<polygon fill="#254c4f" fill-opacity="0.501961" points="230.093259,88.515073,243.456166,92.712961,235.549035,87.738838,201.524844,80.007778" />
<polygon fill="#fde870" fill-opacity="0.501961" points="99.129272,74.550415,84.978756,77.461578,94.976704,81.328990,84.780480,83.038292" />
<polygon fill="#0e0e13" fill-opacity="0.501961" points="160.605134,50.968619,239.164771,85.441112,217.551985,80.310710,264.841354,84.675872" />
<polygon fill="#643f0b" fill-opacity="0.501961" points="122.084532,86.131501,117.935387,81.325497,104.431188,103.778068,108.055985,84.510175" />
<polygon fill="#3e2205" fill-opacity="0.501961" points="52.914824,40.209910,12.938676,84.563117,40.277727,65.198808,42.144327,64.948646" />
<polygon fill="#e6dc83" fill-opacity="0.501961" points="42.474013,85.528901,46.450338,82.283817,72.661548,78.336421,66.973520,80.627977" />
<polygon fill="#f3b42b" fill-opacity="0.501961" points="68.105906,61.603552,83.420360,59.446076,51.292002,74.811755,64.950228,74.971771" />
<polygon fill="#ffd657" fill-opacity="0.501961" points="75.055868,64.287280,77.486265,61.350088,79.238248,60.922574,102.912179,71.461624" />
<polygon fill="#a86a14" fill-opacity="0.501961" points="103.659072,96.642514,95.672320,84.256610,107.099903,82.737030,100.637863,97.588945" />
<polygon fill="#cf9220" fill-opacity="0.501961" points="67.885231,85.667454,45.940242,89.427015,67.555032,90.110923,54.534856,84.051936" />
<polygon fill="#0c1107" fill-opacity="0.501961" points="192.956963,87.322228,148.072292,84.646083,249.827919,103.838249,233.506799,90.115161" />
<polygon fill="#734a1c" fill-opacity="0.501961" points="119.447925,67.597001,114.818792,60.068888,120.369645,55.261770,130.126904,69.226612" />
<polygon fill="#893f02" fill-opacity="0.501961" points="90.141880,51.366737,51.069633,50.504504,53.656565,64.589741,83.156445,41.533763" />
<polygon fill="#fffff7" fill-opacity="0.501961" points="78.839450,65.444571,73.957316,73.958129,57.754079,78.256043,82.882100,77.002426" />
<polygon fill="#fff699" fill-opacity="0.501961" points="65.745200,73.573278,73.741752,73.768172,73.573746,74.928571,71.391399,66.732903" />
<polygon fill="#e69e27" fill-opacity="0.501961" points="78.079300,55.244274,93.987694,62.075480,59.697906,63.054592,80.008333,63.107224" />
<polygon fill="#d5e4e5" fill-opacity="0.501961" points="126.026128,71.063469,143.907309,70.681297,137.866979,71.550124,142.704149,69.312048" />
<polygon fill="#231200" fill-opacity="0.501961" points="104.915651,28.683538,124.014230,55.660740,87.465829,20.762652,32.472912,38.090124" />
<polygon fill="#9c5308" fill-opacity="0.501961" points="74.499908,101.478506,46.808632,89.085185,52.138844,99.556382,99.155375,94.017866" />
<polygon fill="#492600" fill-opacity="0.501961" points="33.144062,94.061401,88.591350,114.264167,110.638471,101.300932,65.339294,112.030905" />
<polygon fill="#195382" fill-opacity="0.501961" points="206.084444,82.014462,171.403794,74.086172,208.498758,80.545365,215.987448,83.273964" />
<polygon fill="#c9872b" fill-opacity="0.501961" points="55.838389,76.043998,61.256275,61.926508,46.768417,71.879394,34.992351,82.514016" />
<polygon fill="#414021" fill-opacity="0.501961" points="13.350303,93.592606,37.115908,97.964720,30.547533,87.294517,38.561280,87.457543" />
<polygon fill="#192314" fill-opacity="0.501961" points="25.704043,97.340099,-8.490592,108.937819,-9.876986,97.641560,25.061081,95.307780" />
<polygon fill="#ffffb4" fill-opacity="0.501961" points="81.046537,79.228634,57.483067,78.606800,80.322822,83.809726,82.223855,77.149925" />
<polygon fill="#875421" fill-opacity="0.501961" points="55.948919,57.807660,50.314466,63.529783,39.888464,77.275561,22.367578,86.199290" />
<polygon fill="#28414c" fill-opacity="0.501961" points="168.984352,74.959227,152.133426,77.460006,132.496961,75.300723,128.336259,74.000693" />
<polygon fill="#fefff5" fill-opacity="0.501961" points="77.329948,84.072781,77.040051,77.529206,103.196818,71.186262,70.378720,73.339421" />
<polygon fill="#aa5008" fill-opacity="0.501961" points="80.079752,54.943072,46.519324,63.447284,83.627873,48.022127,90.048304,55.867056" />
<polygon fill="#3d3424" fill-opacity="0.501961" points="5.345283,85.796367,28.714943,72.759672,21.392747,85.601938,-11.673527,95.087860" />
<polygon fill="#161000" fill-opacity="0.501961" points="129.718726,88.976096,117.088711,115.027871,146.972416,99.801581,138.429350,95.790695" />
<polygon fill="#8c884a" fill-opacity="0.501961" points="129.231135,72.970282,128.613121,75.780511,104.598969,80.599250,112.515199,76.597597" />
<polygon fill="#1d1d20" fill-opacity="0.501961" points="199.120492,67.297253,179.093251,65.041563,154.923940,62.570813,148.862527,68.761735" />
<polygon fill="#453015" fill-opacity="0.501961" points="126.989259,62.861192,111.336510,52.754960,132.438934,56.049626,138.280598,67.239891" />
<polygon fill="#2d1500" fill-opacity="0.501961" points="90.192821,32.978881,54.086786,30.850072,35.377361,64.636878,36.617002,39.326299" />
<polygon fill="#d1a033" fill-opacity="0.501961" points="99.775763,79.940929,92.056771,79.094836,101.449454,77.487856,96.954006,94.708606" />
<polygon fill="#0d171a" fill-opacity="0.501961" points="152.830522,86.818018,203.387881,81.142054,173.385314,78.529654,151.138436,78.961184" />
<polygon fill="#0b0800" fill-opacity="0.501961" points="19.479320,102.925716,47.940745,106.385450,1.682521,105.536713,86.551505,135.934632" />
<polygon fill="#9a6e1f" fill-opacity="0.501961" points="39.545864,92.672961,48.005304,83.489877,45.133836,84.365084,56.658400,94.805580" />
<polygon fill="#401e00" fill-opacity="0.501961" points="65.886501,33.672346,39.877535,50.666943,69.830789,41.479029,89.716520,32.488157" />
<polygon fill="#000000" fill-opacity="0.501961" points="70.581012,10.046569,24.354687,18.315860,-16.000000,108.224127,6.860003,-16.000000" />
<polygon fill="#131216" fill-opacity="0.501961" points="185.743296,71.626955,180.166459,74.093977,194.603346,63.361421,159.062721,54.838768" />
<polygon fill="#dae5da" fill-opacity="0.501961" points="93.870039,73.394137,44.728690,81.687991,-14.990575,97.938698,39.212561,81.872739" />
<polygon fill="#050408" fill-opacity="0.501961" points="162.993861,62.861959,149.014763,49.937216,237.668206,73.050602,184.584335,56.497975" />
<polygon fill="#6e3804" fill-opacity="0.501961" points="75.586255,108.517183,53.943379,99.190915,95.030929,103.808897,66.861553,107.973009" />
<polygon fill="#2c2c16" fill-opacity="0.501961" points="30.890001,96.118288,15.400516,91.755250,16.182006,98.097345,33.326907,100.146337" />
<polygon fill="#e29d17" fill-opacity="0.501961" points="98.034412,88.371070,89.633380,85.662132,73.232535,89.803270,73.269992,92.772650" />
<polygon fill="#36342f" fill-opacity="0.501961" points="181.224239,72.217667,153.538067,63.599106,144.155959,69.898027,157.910373,69.337276" />
<polygon fill="#281500" fill-opacity="0.501961" points="98.321372,120.375376,138.125980,92.850048,68.470362,122.363521,34.086586,103.297396" />
<polygon fill="#4a4827" fill-opacity="0.501961" points="143.574173,81.031316,129.257868,79.574814,113.468807,78.232621,133.787200,76.835121" />
<polygon fill="#0b0600" fill-opacity="0.501961" points="83.995603,120.655610,145.154166,104.219033,111.748060,128.362366,50.075620,126.361252" />
<polygon fill="#874607" fill-opacity="0.501961" points="91.477457,95.027879,79.514093,99.309096,68.636935,103.869519,109.803928,97.364968" />
<polygon fill="#a5bbb2" fill-opacity="0.501961" points="263.578344,94.200173,268.661586,99.098212,232.487162,84.979970,251.072119,90.778684" />
<polygon fill="#27618f" fill-opacity="0.501961" points="177.203334,75.580788,136.932550,72.295643,164.679492,73.584359,190.523583,79.010192" />
<polygon fill="#6c4011" fill-opacity="0.501961" points="38.329487,72.857377,27.351478,81.787098,38.313601,65.986085,54.651108,56.458065" />
<polygon fill="#c2750f" fill-opacity="0.501961" points="96.434394,92.378150,102.390464,95.901515,72.345051,93.583893,85.313722,89.756079" />
<polygon fill="#4c350c" fill-opacity="0.501961" points="110.457940,103.047373,110.183734,97.452709,117.410222,81.003116,126.565790,80.432284" />
<polygon fill="#f9cf3e" fill-opacity="0.501961" points="93.148220,83.627338,97.425318,80.320034,89.259409,80.431161,75.602568,86.294673" />
<polygon fill="#74612c" fill-opacity="0.501961" points="40.350159,84.984268,39.197493,92.577738,47.788914,94.248497,29.255261,90.051324" />
<polygon fill="#2970a4" fill-opacity="0.501961" points="172.924016,74.381025,202.604615,79.210063,172.172343,75.219677,165.837836,73.838650" />
<polygon fill="#b96815" fill-opacity="0.501961" points="85.293550,57.146982,58.698850,59.182662,97.977560,53.890670,100.117578,58.443416" />
<polygon fill="#284745" fill-opacity="0.501961" points="271.000000,97.509715,215.135404,84.868820,223.154936,86.335180,196.448399,78.985460" />
<polygon fill="#662f00" fill-opacity="0.501961" points="66.240505,43.932437,79.352175,47.318900,51.963513,49.172157,51.408942,58.253029" />
<polygon fill="#f9d55a" fill-opacity="0.501961" points="89.734007,63.593124,104.816832,70.947877,89.993496,70.517454,78.878956,62.932285" />
<polygon fill="#b9ae63" fill-opacity="0.501961" points="52.515610,85.143068,27.071256,85.655137,61.792543,82.581654,56.786632,84.044744" />
<polygon fill="#3d2001" fill-opacity="0.501961" points="70.220921,109.098646,74.729724,117.429444,57.572619,110.604616,36.712208,99.958927" />
<polygon fill="#291d0f" fill-opacity="0.501961" points="116.310236,50.393159,114.527733,51.736213,157.685292,66.342049,122.554073,48.150451" />
<polygon fill="#000200" fill-opacity="0.501961" points="156.515165,102.591440,157.857051,88.432212,218.877266,96.524940,271.000000,113.157831" />
<polygon fill="#a16222" fill-opacity="0.501961" points="35.035295,79.498559,64.107617,52.510536,40.711691,79.920183,24.807526,85.368765" />
<polygon fill="#000e13" fill-opacity="0.501961" points="271.000000,111.795436,221.083778,87.155646,193.424607,80.713642,270.570160,102.270104" />
<polygon fill="#ffffe5" fill-opacity="0.501961" points="60.553006,79.594233,47.800413,79.770653,84.928157,71.884669,59.244606,78.315520" />
<polygon fill="#14100c" fill-opacity="0.501961" points="10.944680,70.966031,20.725679,68.046798,10.712177,81.102619,-16.000000,90.772774" />
<polygon fill="#db871a" fill-opacity="0.501961" points="59.134977,68.660977,74.441411,57.262296,87.407376,56.431764,51.637653,68.128171" />
<polygon fill="#593104" fill-opacity="0.501961" points="74.795503,112.031206,30.194786,92.486025,78.050274,106.871867,94.560849,101.954333" />
<polygon fill="#ffffcf" fill-opacity="0.501961" points="58.941651,75.621234,85.194006,81.357498,86.590056,75.709347,74.848376,80.795971" />
<polygon fill="#f5f3a4" fill-opacity="0.501961" points="106.966418,73.484630,108.596890,73.195355,121.680315,75.234540,93.667189,74.298005" />
<polygon fill="#bc8f3c" fill-opacity="0.501961" points="104.825642,59.914456,103.565093,61.163153,118.826216,67.876572,104.623394,69.519772" />
<polygon fill="#000000" fill-opacity="0.501961" points="248.189455,-16.000000,271.000000,63.077335,170.764885,56.096901,134.496995,39.382345" />
<polygon fill="#000000" fill-opacity="0.501961" points="193.834125,144.604658,56.919327,136.427631,-13.701913,104.298214,-16.000000,159.000000" />
<polygon fill="#071a2b" fill-opacity="0.501961" points="224.772155,89.420977,210.536721,82.230157,200.996971,80.162610,200.864371,83.249660" />
<polygon fill="#e6b647" fill-opacity="0.501961" points="101.282607,70.601843,91.931543,64.675380,72.328437,61.968572,110.606397,66.729884" />
<polygon fill="#fdfffc" fill-opacity="0.501961" points="84.108361,72.561771,83.553570,79.022584,75.025323,80.510592,72.632366,74.461572" />
<polygon fill="#547366" fill-opacity="0.501961" points="271.000000,101.544566,251.760032,92.422480,253.310134,87.871457,251.154385,93.412115" />
<polygon fill="#0a0600" fill-opacity="0.501961" points="20.712755,25.190982,36.335861,35.892024,60.370528,9.778599,116.858320,15.291647" />
<polygon fill="#17181b" fill-opacity="0.501961" points="240.065717,84.197297,196.284200,72.623303,166.898244,61.209196,203.672432,69.694720" />
<polygon fill="#b3d6d5" fill-opacity="0.501961" points="125.992259,70.978525,116.575015,72.842716,139.254221,72.001001,172.892980,71.185898" />
<polygon fill="#bf831d" fill-opacity="0.501961" points="41.412331,90.310285,61.384062,90.141948,69.182304,93.766617,60.274422,84.945471" />
<polygon fill="#f7e583" fill-opacity="0.501961" points="50.039500,84.173437,69.632457,78.777703,66.460036,79.036563,60.364984,79.259448" />
<polygon fill="#6b7d62" fill-opacity="0.501961" points="29.554021,85.474826,17.000050,92.459888,39.510760,85.201119,31.397668,87.872615" />
<polygon fill="#fdde6f" fill-opacity="0.501961" points="65.584212,66.266005,82.885425,64.943030,66.072857,70.023407,69.668879,67.234757" />
<polygon fill="#aeccd0" fill-opacity="0.501961" points="243.195122,88.436284,196.993253,76.799413,183.006406,76.020932,208.487833,78.514309" />
<polygon fill="#7c652a" fill-opacity="0.501961" points="125.640497,76.269570,114.213610,77.242564,103.381955,86.590697,118.358012,79.537549" />
<polygon fill="#262814" fill-opacity="0.501961" points="126.607606,84.550455,129.441653,83.653283,145.023722,82.471651,124.444194,78.058990" />
<polygon fill="#14170d" fill-opacity="0.501961" points="190.302340,88.347655,138.559059,79.992758,196.287917,91.640510,228.656035,88.132317" />
<polygon fill="#643a07" fill-opacity="0.501961" points="87.108316,97.203559,116.444091,99.099046,116.324223,101.253755,96.993520,100.676031" />
<polygon fill="#06080f" fill-opacity="0.501961" points="238.830641,72.353559,271.000000,102.770062,271.000000,35.030169,262.347665,77.780914" />
<polygon fill="#100a03" fill-opacity="0.501961" points="130.768008,51.889486,109.417924,49.393255,171.602476,58.010856,117.686948,42.487350" />
<polygon fill="#392707" fill-opacity="0.501961" points="136.293776,81.001709,117.922319,87.702141,110.996354,103.165033,109.918276,108.784092" />
<polygon fill="#c0cecc" fill-opacity="0.501961" points="220.087265,81.076642,184.913029,74.322721,153.029153,70.708019,169.044506,72.672755" />
<polygon fill="#1e0f00" fill-opacity="0.501961" points="43.061150,34.837006,70.976903,21.134109,29.961915,52.284809,33.184361,65.384500" />
<polygon fill="#a2b2bb" fill-opacity="0.501961" points="-4.225682,97.308123,-10.941638,97.235409,-10.560762,97.146627,7.687899,91.573595" />
<polygon fill="#363536" fill-opacity="0.501961" points="230.793942,81.023593,269.073203,95.775801,268.097390,95.786795,246.693262,88.842720" />
<polygon fill="#2e4940" fill-opacity="0.501961" points="229.759985,89.694698,226.978803,88.510445,216.898624,84.508320,242.313094,89.660986" />
<polygon fill="#e8bd3b" fill-opacity="0.501961" points="48.455437,82.397195,71.460472,82.283998,56.658961,83.860671,85.189637,88.074139" />
<polygon fill="#070a02" fill-opacity="0.501961" points="250.529799,104.325020,142.402890,85.103359,143.387438,108.646668,162.229503,84.302941" />
<polygon fill="#fbd144" fill-opacity="0.501961" points="57.703306,76.215842,67.504279,69.887303,73.231091,60.209008,65.801547,75.602329" />
<polygon fill="#fefffa" fill-opacity="0.501961" points="76.133187,76.313148,75.880147,73.075005,109.920994,71.219285,103.757652,73.019328" />
<polygon fill="#c56a0f" fill-opacity="0.501961" points="64.003755,60.164338,67.422915,62.645895,84.540379,52.270038,54.832046,61.131865" />
<polygon fill="#ebad2f" fill-opacity="0.501961" points="70.224835,61.377055,58.681018,72.449170,61.371757,76.388144,49.439217,76.640368" />
<polygon fill="#484744" fill-opacity="0.501961" points="184.876369,72.230207,210.666109,77.834863,205.753555,78.129745,178.272326,70.489237" />
<polygon fill="#794708" fill-opacity="0.501961" points="44.013869,96.383807,46.360667,91.657809,62.633279,101.061273,64.152785,104.008336" />
<polygon fill="#4c2200" fill-opacity="0.501961" points="105.853661,52.576497,110.852191,52.269991,95.318693,40.631780,87.679928,42.052905" />
<polygon fill="#986b2f" fill-opacity="0.501961" points="118.022344,64.291884,113.105425,67.511736,121.608020,69.743568,124.159258,68.023176" />
<polygon fill="#bb7625" fill-opacity="0.501961" points="48.689318,78.774729,43.735203,72.066986,60.379419,61.878540,41.567195,80.210510" />
<polygon fill="#feea8e" fill-opacity="0.501961" points="46.123337,79.686349,63.682526,75.075242,73.628975,73.365956,68.965895,74.864491" />
<polygon fill="#eeb01c" fill-opacity="0.501961" points="83.964581,90.130017,68.204976,86.590430,70.152583,89.340355,88.272801,84.228295" />
<polygon fill="#2a2109" fill-opacity="0.501961" points="131.488370,75.244104,126.588591,91.311805,138.485841,97.669958,122.448514,97.587158" />
<polygon fill="#779d90" fill-opacity="0.501961" points="34.059190,85.950702,11.455503,91.497378,37.436861,83.652636,32.167354,87.597663" />
<polygon fill="#292b2c" fill-opacity="0.501961" points="170.101068,68.968578,214.349837,77.454294,175.298159,71.261112,176.804258,63.590340" />
<polygon fill="#d58e16" fill-opacity="0.501961" points="98.117929,87.823343,58.879864,91.961005,90.676098,91.360234,94.001485,91.657325" />
<polygon fill="#49473d" fill-opacity="0.501961" points="3.934053,95.763656,-16.000000,93.758483,16.487158,86.946198,-5.241644,95.405544" />
<polygon fill="#6e8266" fill-opacity="0.501961" points="141.270671,73.689592,134.423405,75.848513,144.500210,74.438773,111.477332,73.730413" />
<polygon fill="#3e2911" fill-opacity="0.501961" points="14.527252,84.348951,42.626571,64.107328,7.683636,80.892172,32.808508,66.581631" />
<polygon fill="#f5df69" fill-opacity="0.501961" points="87.299651,78.659915,91.183284,86.023027,85.491739,80.608826,103.888959,74.931637" />
<polygon fill="#c0bc7c" fill-opacity="0.501961" points="59.155664,79.248884,25.434848,88.533416,55.127407,81.871656,49.531344,82.827019" />
<polygon fill="#a25e0d" fill-opacity="0.501961" points="94.100739,95.403112,77.989114,93.814632,109.249505,94.303331,103.828154,91.752433" />
<polygon fill="#2c3f38" fill-opacity="0.501961" points="4.044571,95.710999,2.581802,95.064729,21.174597,90.625766,23.805393,92.420351" />
<polygon fill="#773601" fill-opacity="0.501961" points="86.937887,52.450211,82.729048,49.045076,103.390753,55.090049,86.769217,44.593958" />
<polygon fill="#371d00" fill-opacity="0.501961" points="122.351006,103.082715,62.715501,113.877006,71.000327,116.000821,103.171177,109.510432" />
<polygon fill="#1a1e1b" fill-opacity="0.501961" points="-14.504593,109.017851,15.979450,94.942032,-14.118038,98.574556,11.175360,75.167660" />
<polygon fill="#050300" fill-opacity="0.501961" points="127.850746,17.111929,66.342669,2.672124,118.498295,27.673421,138.022580,47.196707" />
<polygon fill="#de9f1d" fill-opacity="0.501961" points="55.972527,88.833643,67.541754,83.287305,77.091246,93.331378,71.510115,90.914495" />
<polygon fill="#945d13" fill-opacity="0.501961" points="105.377427,85.648788,112.511396,86.669163,108.617436,81.749517,92.564936,97.625425" />
<polygon fill="#644118" fill-opacity="0.501961" points="100.829737,54.922299,105.155006,51.634587,132.229398,69.782711,129.236482,61.300629" />
<polygon fill="#1b1714" fill-opacity="0.501961" points="166.403200,69.151303,162.353598,58.121118,165.596926,62.185686,128.141867,50.043329" />
<polygon fill="#c08c23" fill-opacity="0.501961" points="92.783144,94.176831,97.084284,84.783814,109.059517,82.574318,99.926857,80.789899" />
<polygon fill="#5d554f" fill-opacity="0.501961" points="155.703526,70.834114,168.013246,71.233976,181.464902,71.088801,165.189116,70.768270" />
<polygon fill="#221000" fill-opacity="0.501961" points="113.497142,36.094590,124.712901,52.954694,111.640637,49.962449,91.947707,24.040455" />
<polygon fill="#a35510" fill-opacity="0.501961" points="52.772586,65.641996,42.697294,74.581382,45.569908,68.610716,65.782273,52.405632" />
<polygon fill="#442804" fill-opacity="0.501961" points="122.423064,95.363499,105.528700,109.910591,114.216338,97.177396,101.979906,94.121042" />
<polygon fill="#030803" fill-opacity="0.501961" points="236.393462,94.815667,242.589735,95.126390,271.000000,107.807154,247.532306,104.642349" />
<polygon fill="#16180a" fill-opacity="0.501961" points="128.731519,86.700174,140.221869,95.112508,136.894071,80.763824,171.795614,86.365060" />
<polygon fill="#312d27" fill-opacity="0.501961" points="-16.000000,104.737333,12.676775,83.775663,1.204508,85.023121,-16.000000,142.811960" />
<polygon fill="#170c00" fill-opacity="0.501961" points="68.480209,123.235879,90.012109,123.900572,119.221805,113.008268,57.115795,120.878299" />
<polygon fill="#191806" fill-opacity="0.501961" points="36.955665,100.371936,-16.000000,110.649235,7.433412,99.479460,12.965036,100.010436" />
<polygon fill="#572d05" fill-opacity="0.501961" points="54.402767,56.063807,24.168067,79.007568,71.875648,34.339149,43.932693,63.735703" />
<polygon fill="#998546" fill-opacity="0.501961" points="46.183592,86.646179,51.782936,84.480790,42.525513,85.006956,37.554045,87.324473" />
<polygon fill="#c6892e" fill-opacity="0.501961" points="89.125581,58.924609,96.538413,57.089493,93.362146,61.993557,111.819251,64.564226" />
<polygon fill="#182e3c" fill-opacity="0.501961" points="129.407200,76.356369,192.076036,77.728604,212.468914,82.855719,178.890952,79.287909" />
<polygon fill="#15242a" fill-opacity="0.501961" points="136.220469,75.420225,155.121770,76.689602,214.808572,85.429038,164.672429,76.321985" />
<polygon fill="#121a16" fill-opacity="0.501961" points="229.130718,94.685927,176.046783,77.899939,228.614804,91.993327,229.350967,91.682132" />
</g>
</svg>