<svg xmlns="http://www.w3.org/2000/svg" version="1.1" width="1280" height="840">
<rect x="0" y="0" width="1280" height="840" fill="#c07c76" />
<g transform="scale(5.000000) translate(0.5 0.5)">
<polygon fill="#840703" fill-opacity="0.501961" points="133.608627,163.981940,7.805100,159.414564,5.099757,103.055660,271.000000,102.239660" />
<polygon fill="#ffffff" fill-opacity="0.501961" points="244.966264,6.730486,-16.000000,-16.000000,2.829074,183.000000,14.937820,12.742416" />
<polygon fill="#ffffff" fill-opacity="0.501961" points="249.125786,67.118186,-1.203614,70.869205,271.000000,43.847062,-16.000000,45.308368" />
<polygon fill="#ffffff" fill-opacity="0.501961" points="258.828789,182.301778,257.284383,-16.000000,64.965686,6.371566,239.704580,10.825934" />
<polygon fill="#8a0000" fill-opacity="0.501961" points="240.345692,49.412718,212.954152,141.047188,251.846108,137.417196,248.991737,57.793586" />
<polygon fill="#ffffff" fill-opacity="0.501961" points="124.727712,161.457997,-16.000000,164.107987,219.627713,183.000000,271.000000,160.158809" />
<polygon fill="#e2e7df" fill-opacity="0.501961" points="46.084506,120.117997,233.034695,119.048203,138.820527,133.526446,40.147462,132.184326" />
<polygon fill="#7c0000" fill-opacity="0.501961" points="49.210651,86.655637,268.197526,82.987374,201.829434,75.787030,-16.000000,78.633149" />
<polygon fill="#ffffff" fill-opacity="0.501961" points="91.351484,-16.000000,84.301817,42.365466,247.594756,51.426892,57.077485,54.163792" />
<polygon fill="#ffffff" fill-opacity="0.501961" points="160.904192,47.348880,165.494375,-12.579587,183.146823,-16.000000,175.267520,54.095437" />
<polygon fill="#d6cbc4" fill-opacity="0.501961" points="20.340289,140.509293,14.079833,153.354699,41.001639,154.510956,271.000000,146.592237" />
<polygon fill="#7b0000" fill-opacity="0.501961" points="45.495456,161.925148,208.558652,160.398203,247.418111,159.748053,251.738124,147.056004" />
<polygon fill="#790000" fill-opacity="0.501961" points="83.073582,53.056167,-12.293352,59.342129,266.899151,58.774944,170.290840,53.296695" />
<polygon fill="#e9eae3" fill-opacity="0.501961" points="89.468008,85.626992,125.664956,99.600157,236.172157,102.759948,242.006649,85.809549" />
<polygon fill="#790000" fill-opacity="0.501961" points="8.047083,165.272541,38.460331,121.183841,233.148536,102.899890,6.330440,104.223515" />
<polygon fill="#98180f" fill-opacity="0.501961" points="8.294824,11.281644,72.119936,8.951480,70.377900,44.108512,27.513163,44.338834" />
<polygon fill="#961506" fill-opacity="0.501961" points="142.723388,10.195158,88.109543,10.745696,84.418592,41.489887,149.271547,44.623758" />
<polygon fill="#ffffff" fill-opacity="0.501961" points="-16.000000,164.151767,9.110043,-16.000000,5.846087,156.003735,50.512764,183.000000" />
<polygon fill="#7a0000" fill-opacity="0.501961" points="7.107886,105.650749,7.495108,55.934391,18.913027,53.886136,-4.274596,155.778637" />
<polygon fill="#ffffff" fill-opacity="0.501961" points="28.070005,-9.039834,17.941046,49.099967,-6.558015,49.114067,25.833074,56.197973" />
<polygon fill="#8f0000" fill-opacity="0.501961" points="202.597161,161.853824,206.477809,130.525362,250.872801,144.923593,248.630290,70.210426" />
<polygon fill="#7b0000" fill-opacity="0.501961" points="115.973700,64.648292,76.471593,161.379706,182.808665,160.580463,95.879238,153.405577" />
<polygon fill="#ffffff" fill-opacity="0.501961" points="95.569201,6.535960,-16.000000,10.692659,101.920071,-16.000000,105.748519,59.745756" />
<polygon fill="#860000" fill-opacity="0.501961" points="171.527951,101.470409,2.231603,116.819267,180.154617,119.916568,172.972259,52.174011" />
<polygon fill="#f4fcf2" fill-opacity="0.501961" points="216.884390,119.725554,189.738027,125.766327,145.372088,132.100812,218.041531,131.668997" />
<polygon fill="#ffffff" fill-opacity="0.501961" points="253.399500,183.000000,271.000000,-15.338332,247.666052,3.021762,250.743417,128.349168" />
<polygon fill="#eeffff" fill-opacity="0.501961" points="43.029152,103.644222,79.822117,102.527902,81.469811,83.681055,42.306810,89.439142" />
<polygon fill="#a72f0c" fill-opacity="0.501961" points="193.192589,8.639196,192.595480,43.872328,238.856589,44.693857,244.397285,22.086838" />
<polygon fill="#ffffff" fill-opacity="0.501961" points="254.535889,56.075451,88.111899,44.311597,245.404566,44.692250,246.007843,-16.000000" />
<polygon fill="#ffffff" fill-opacity="0.501961" points="27.623209,44.267722,21.754777,13.620565,18.696584,54.493332,160.508127,53.097732" />
<polygon fill="#ffffff" fill-opacity="0.501961" points="242.756616,159.995482,271.000000,148.419022,243.211441,183.000000,9.358907,164.338499" />
<polygon fill="#dddad3" fill-opacity="0.501961" points="85.586370,77.279625,14.853744,74.754003,23.217149,58.804084,239.672785,73.938734" />
<polygon fill="#ffffff" fill-opacity="0.501961" points="123.980777,50.517190,134.295912,-7.002016,135.247893,6.703562,128.894805,54.447229" />
<polygon fill="#8e0000" fill-opacity="0.501961" points="172.041481,134.317477,190.590735,66.652258,172.125742,157.099476,123.469150,127.974388" />
<polygon fill="#7b0000" fill-opacity="0.501961" points="34.336739,85.234809,32.285572,145.813067,136.689495,136.179507,7.597022,132.565104" />
<polygon fill="#7e0000" fill-opacity="0.501961" points="136.527389,88.460153,126.653504,77.321280,124.345641,50.978487,130.359708,61.768029" />
<polygon fill="#ffffff" fill-opacity="0.501961" points="79.311053,46.156044,67.771716,55.495499,73.600368,6.199040,97.526057,-16.000000" />
<polygon fill="#950000" fill-opacity="0.501961" points="172.465233,97.051814,189.934480,134.509197,199.755407,94.142962,253.187567,141.341189" />
<polygon fill="#8b0000" fill-opacity="0.501961" points="79.558252,86.183424,-1.554412,83.597925,90.094895,77.538047,86.694284,111.457343" />
<polygon fill="#ffffff" fill-opacity="0.501961" points="44.956281,-15.972271,42.522899,44.564203,49.861406,49.625300,41.829792,-16.000000" />
<polygon fill="#8c0000" fill-opacity="0.501961" points="154.637246,38.797281,157.966169,46.863408,164.858197,8.856971,148.119691,8.993575" />
<polygon fill="#e4d7cf" fill-opacity="0.501961" points="160.337405,153.872608,83.182184,150.823619,168.593986,141.891102,127.872632,183.000000" />
<polygon fill="#8f0000" fill-opacity="0.501961" points="199.358740,75.641524,94.981856,81.425278,207.656146,84.083684,196.378258,46.370951" />
<polygon fill="#ffffff" fill-opacity="0.501961" points="192.597515,28.265361,195.368348,58.705542,186.262369,32.178938,195.439784,-15.860490" />
<polygon fill="#ffffff" fill-opacity="0.501961" points="5.659337,121.709888,8.540124,9.539098,179.130693,8.438892,-16.000000,-16.000000" />
<polygon fill="#eadcd4" fill-opacity="0.501961" points="245.525123,134.553504,237.201871,150.575259,171.393958,137.298452,174.120223,152.907193" />
<polygon fill="#830000" fill-opacity="0.501961" points="108.953351,145.168043,111.423740,124.822276,109.835621,51.274019,102.117193,89.264064" />
<polygon fill="#840200" fill-opacity="0.501961" points="128.323737,135.890294,146.043155,117.312928,152.010402,164.548483,135.075620,111.142494" />
<polygon fill="#ffffff" fill-opacity="0.501961" points="224.942774,-16.000000,232.892251,56.415876,234.088474,40.631286,231.843495,1.792377" />
<polygon fill="#ffffff" fill-opacity="0.501961" points="206.181797,-14.958966,211.035607,46.622553,215.268665,4.974501,271.000000,14.826887" />
<polygon fill="#ffffff" fill-opacity="0.501961" points="168.892608,-10.418361,159.446988,37.482383,171.983027,49.514056,180.745599,20.045161" />
<polygon fill="#950000" fill-opacity="0.501961" points="242.310856,154.801349,251.728691,158.547383,247.039153,49.464431,233.750713,58.879766" />
<polygon fill="#8d0000" fill-opacity="0.501961" points="190.724280,12.539964,181.968475,45.211923,176.896615,43.361578,181.897280,10.951657" />
<polygon fill="#860000" fill-opacity="0.501961" points="22.400947,10.624373,14.335538,10.983763,13.087872,40.815400,20.042453,45.935083" />
<polygon fill="#e8fcf4" fill-opacity="0.501961" points="64.838176,133.008087,94.132706,131.494066,94.292605,120.422406,55.807862,122.909022" />
<polygon fill="#ffffff" fill-opacity="0.501961" points="154.310865,31.269332,140.357028,-11.319477,142.338710,-3.427196,150.017288,51.589980" />
<polygon fill="#ecf0ea" fill-opacity="0.501961" points="50.245433,142.886873,26.697377,158.251458,33.414112,136.554154,15.217255,143.840503" />
<polygon fill="#ffffff" fill-opacity="0.501961" points="56.233102,10.682648,271.000000,3.251889,50.336043,-16.000000,53.064506,28.878062" />
<polygon fill="#f6ffff" fill-opacity="0.501961" points="13.222573,103.366768,8.326656,88.013870,17.078897,86.684016,28.013256,94.416433" />
<polygon fill="#8f0000" fill-opacity="0.501961" points="6.358431,99.864893,17.141978,83.049077,18.849117,55.674319,8.807401,56.787614" />
<polygon fill="#640000" fill-opacity="0.501961" points="40.261857,152.406027,12.039936,161.138529,73.681649,162.809324,70.022332,154.593765" />
<polygon fill="#e8e5dd" fill-opacity="0.501961" points="238.852456,78.245735,205.230035,71.770010,201.783017,59.448353,225.546813,59.251078" />
<polygon fill="#8c0000" fill-opacity="0.501961" points="256.335018,132.563285,153.798890,143.344984,122.432221,132.370798,200.931402,132.538366" />
<polygon fill="#820600" fill-opacity="0.501961" points="50.138623,88.607575,53.883424,140.899762,60.926449,141.721286,67.640333,162.755791" />
<polygon fill="#980000" fill-opacity="0.501961" points="241.266220,149.988554,136.873586,161.932722,244.702159,159.633561,251.055398,45.336125" />
<polygon fill="#fdffff" fill-opacity="0.501961" points="104.305741,142.982064,105.707018,138.802625,97.803814,138.993232,96.306180,155.140102" />
<polygon fill="#ffffff" fill-opacity="0.501961" points="209.249447,43.878099,271.000000,52.568862,214.771042,53.923552,212.375838,12.682016" />
<polygon fill="#940000" fill-opacity="0.501961" points="249.178259,61.824666,185.372574,55.165051,231.240444,52.598116,250.382620,137.269659" />
<polygon fill="#e6ebe6" fill-opacity="0.501961" points="110.437582,102.256812,109.804399,86.458527,149.245529,84.732525,149.526028,101.336245" />
<polygon fill="#ffffff" fill-opacity="0.501961" points="7.651729,183.000000,-16.000000,44.216053,189.704093,47.256939,4.171027,55.895935" />
<polygon fill="#920000" fill-opacity="0.501961" points="7.969246,57.985850,39.188584,62.177318,84.911127,54.362109,19.854009,54.636138" />
<polygon fill="#920000" fill-opacity="0.501961" points="174.256469,102.394691,33.802837,105.918031,237.323307,120.699047,249.005472,104.050933" />
<polygon fill="#ffffff" fill-opacity="0.501961" points="118.137834,4.379057,122.007078,23.287823,128.453045,-16.000000,231.189882,11.044650" />
<polygon fill="#e6dfd6" fill-opacity="0.501961" points="224.402777,101.039976,191.786296,84.168548,231.887009,85.669316,244.198212,102.997072" />
<polygon fill="#8b0000" fill-opacity="0.501961" points="26.845600,70.608732,26.333565,102.491644,17.765927,140.640304,43.304380,136.915492" />
<polygon fill="#ffffff" fill-opacity="0.501961" points="253.247595,18.483425,250.207042,158.221602,133.681070,168.547066,271.000000,168.879606" />
<polygon fill="#ffffff" fill-opacity="0.501961" points="83.058047,162.141093,270.165776,163.611892,13.370224,183.000000,-7.606375,161.879880" />
<polygon fill="#900000" fill-opacity="0.501961" points="205.233431,84.986615,203.157065,55.453630,194.963684,66.544752,193.208513,61.216373" />
<polygon fill="#ffffff" fill-opacity="0.501961" points="73.675488,-16.000000,63.485221,24.598063,60.719043,-16.000000,81.695578,27.711855" />
<polygon fill="#8c0500" fill-opacity="0.501961" points="100.984044,43.584162,98.537195,16.930438,88.874571,7.583617,83.876338,44.488315" />
<polygon fill="#9b1f00" fill-opacity="0.501961" points="230.620899,38.714442,227.198408,3.542400,214.186465,47.100256,212.812826,4.640332" />
<polygon fill="#f0f9f2" fill-opacity="0.501961" points="99.756819,87.672071,88.148581,108.980498,89.140725,84.133477,102.522658,101.927165" />
<polygon fill="#e7e7df" fill-opacity="0.501961" points="188.273407,118.402432,191.466771,130.264773,217.373800,126.321097,217.964146,119.203668" />
<polygon fill="#890000" fill-opacity="0.501961" points="169.969185,80.604659,182.135016,74.571742,180.188836,52.710041,175.668377,124.772085" />
<polygon fill="#dcd6ce" fill-opacity="0.501961" points="97.591226,153.451665,137.943149,136.790663,131.314611,147.400841,106.906607,152.784391" />
<polygon fill="#8d0000" fill-opacity="0.501961" points="71.318093,15.493094,68.450628,47.024333,43.889087,7.747915,51.697927,44.694619" />
<polygon fill="#951609" fill-opacity="0.501961" points="66.170874,61.331739,99.030568,55.446135,63.092141,55.500015,64.111015,130.080651" />
<polygon fill="#8d0400" fill-opacity="0.501961" points="130.389845,7.903932,105.778391,46.183200,103.560611,12.228733,126.183637,45.682544" />
<polygon fill="#980600" fill-opacity="0.501961" points="185.091644,53.678440,120.747719,54.154265,67.840900,53.714839,130.576479,60.762121" />
<polygon fill="#960000" fill-opacity="0.501961" points="224.859309,84.926476,240.706907,77.529446,224.179690,76.194912,129.716893,77.670327" />
<polygon fill="#910000" fill-opacity="0.501961" points="170.491646,152.957176,241.923360,156.940911,154.633293,161.950806,181.744925,119.636203" />
<polygon fill="#900100" fill-opacity="0.501961" points="29.659507,11.020942,42.478291,10.978222,40.470204,48.967761,26.655223,42.625270" />
<polygon fill="#e9eae4" fill-opacity="0.501961" points="156.139281,132.889894,171.857950,118.633474,151.260920,120.230572,145.384543,133.219914" />
<polygon fill="#ffffff" fill-opacity="0.501961" points="113.172648,-16.000000,111.311494,33.328338,108.199859,5.413462,263.210818,10.602751" />
<polygon fill="#faffff" fill-opacity="0.501961" points="63.470837,51.338146,58.060539,26.372479,57.337452,47.201373,2.891174,45.171671" />
<polygon fill="#e8f0e8" fill-opacity="0.501961" points="42.106918,105.132395,41.713511,104.692820,72.618664,85.636275,41.830861,85.314445" />
<polygon fill="#f9fcf8" fill-opacity="0.501961" points="89.810307,52.494770,93.025744,16.836255,95.393004,46.045219,-16.000000,48.119682" />
<polygon fill="#ffffff" fill-opacity="0.501961" points="12.674337,46.470510,13.288345,20.851649,-2.710615,-16.000000,-10.269276,116.413263" />
<polygon fill="#930d00" fill-opacity="0.501961" points="231.104517,57.240530,227.815104,82.288919,225.730538,51.716571,247.179099,56.317851" />
<polygon fill="#8f0000" fill-opacity="0.501961" points="145.490805,16.260818,148.313390,45.785847,132.847852,30.292183,137.762403,5.767460" />
<polygon fill="#930700" fill-opacity="0.501961" points="235.233653,42.272781,233.047875,11.685999,243.786778,8.564546,237.327817,36.807755" />
<polygon fill="#7a0000" fill-opacity="0.501961" points="98.561832,132.029431,175.562920,136.937494,76.948664,138.349312,92.579784,160.311320" />
<polygon fill="#dbd2cc" fill-opacity="0.501961" points="73.968762,59.534175,25.726970,60.463207,17.766747,77.446380,50.178492,75.737068" />
<polygon fill="#820f04" fill-opacity="0.501961" points="100.395648,136.395800,94.697145,79.464882,94.390040,47.782086,98.197711,88.923635" />
<polygon fill="#f9fffe" fill-opacity="0.501961" points="102.635223,49.617329,119.084750,40.165806,108.514036,49.491964,95.171429,-16.000000" />
<polygon fill="#ccc0b7" fill-opacity="0.501961" points="44.041602,153.133569,85.258207,151.341678,72.108106,161.156465,71.690328,140.304591" />
<polygon fill="#790200" fill-opacity="0.501961" points="69.201104,95.194005,73.609506,108.990329,71.584770,81.233316,70.429726,89.480815" />
<polygon fill="#ffffff" fill-opacity="0.501961" points="226.661426,47.592011,107.928084,52.102139,220.055288,54.133400,220.799404,38.381705" />
<polygon fill="#ede0d9" fill-opacity="0.501961" points="199.789775,3.537661,200.776302,40.170030,180.948613,53.190087,204.088840,36.664675" />
<polygon fill="#9a0e06" fill-opacity="0.501961" points="201.433160,91.333613,207.758274,134.265282,224.569166,130.564045,206.268642,154.261362" />
<polygon fill="#edeee9" fill-opacity="0.501961" points="14.102287,151.392981,32.935576,154.836215,29.340720,158.949747,21.810651,140.599106" />
<polygon fill="#7e0700" fill-opacity="0.501961" points="55.835905,90.778547,56.221503,58.765027,60.503650,64.592087,54.583282,88.494935" />
<polygon fill="#930000" fill-opacity="0.501961" points="128.715196,52.387620,134.776623,80.060414,57.919005,78.758374,123.433129,85.336029" />
<polygon fill="#8c271c" fill-opacity="0.501961" points="114.148768,60.900733,119.778080,57.103177,115.944100,55.840675,126.898434,137.217808" />
<polygon fill="#e6d3cb" fill-opacity="0.501961" points="233.609533,149.862166,230.577458,136.880971,216.577150,139.554000,210.896820,152.051125" />
<polygon fill="#ffffff" fill-opacity="0.501961" points="136.944582,34.892516,146.096155,47.333377,260.030032,46.404308,138.545694,44.058671" />
<polygon fill="#910000" fill-opacity="0.501961" points="193.298704,41.952243,202.632693,33.812230,204.778483,7.163947,211.013417,42.496067" />
<polygon fill="#f7fef6" fill-opacity="0.501961" points="34.481447,101.141851,34.626818,85.415392,38.851010,81.871944,37.955932,102.687639" />
<polygon fill="#bac8bb" fill-opacity="0.501961" points="35.832875,-6.576385,36.869349,36.788781,33.026882,38.799368,35.751239,-1.367077" />
<polygon fill="#910000" fill-opacity="0.501961" points="19.818311,85.420513,31.167318,86.224602,168.190731,77.902118,8.886894,77.221515" />
<polygon fill="#8f0000" fill-opacity="0.501961" points="183.658804,160.664720,186.341114,104.033060,143.548269,118.351023,190.802705,118.089842" />
<polygon fill="#890000" fill-opacity="0.501961" points="153.600557,33.889979,147.686717,8.276206,162.402245,41.572065,153.249248,44.945495" />
<polygon fill="#f4f4ed" fill-opacity="0.501961" points="209.180231,139.009976,176.009152,142.932064,181.872199,137.365077,198.323672,152.057592" />
<polygon fill="#ffffff" fill-opacity="0.501961" points="240.269122,31.521960,250.176889,50.191523,251.628410,160.872381,271.000000,-16.000000" />
<polygon fill="#e8e1da" fill-opacity="0.501961" points="197.371644,71.959421,190.809207,56.579813,193.040429,77.074880,127.695942,75.334029" />
<polygon fill="#8d1209" fill-opacity="0.501961" points="87.472909,98.013160,98.524661,124.221536,80.450482,105.309898,85.805012,52.874934" />
<polygon fill="#930700" fill-opacity="0.501961" points="208.600679,150.702628,211.536742,70.240112,212.170974,160.896272,201.746827,149.237340" />
<polygon fill="#820400" fill-opacity="0.501961" points="136.538324,132.173754,135.281630,85.709950,131.027651,106.277779,132.791829,129.028183" />
<polygon fill="#feffff" fill-opacity="0.501961" points="19.706750,34.498111,21.702102,12.308665,26.843806,21.763164,24.643540,41.999662" />
<polygon fill="#8d0000" fill-opacity="0.501961" points="11.491950,103.220741,8.790809,59.356876,7.201531,125.587950,90.103727,104.303020" />
<polygon fill="#e1e6df" fill-opacity="0.501961" points="55.641254,119.782915,40.751195,119.767652,43.798122,133.626321,39.333876,131.950312" />
<polygon fill="#e8eee6" fill-opacity="0.501961" points="55.076749,60.064022,94.714539,60.100043,71.752775,76.127558,125.712596,77.319056" />
<polygon fill="#750000" fill-opacity="0.501961" points="47.881408,83.252321,45.630889,69.191703,45.013701,53.972069,47.944554,56.871319" />
<polygon fill="#8d1d14" fill-opacity="0.501961" points="150.373841,99.793657,145.059021,58.015332,152.197301,88.464718,155.811273,135.845420" />
<polygon fill="#ffffff" fill-opacity="0.501961" points="154.397718,9.547042,-16.000000,3.916444,177.217581,-14.857511,155.850903,16.245142" />
<polygon fill="#dfe4dc" fill-opacity="0.501961" points="127.770703,120.239293,131.685482,132.348621,115.661701,132.110246,111.250267,123.538594" />
<polygon fill="#feffff" fill-opacity="0.501961" points="228.872572,55.189408,262.613010,46.308045,233.938744,44.810676,231.622176,-2.470846" />
<polygon fill="#940000" fill-opacity="0.501961" points="95.286804,116.842604,238.011096,115.947494,222.032219,162.987728,237.306353,100.354022" />
<polygon fill="#921711" fill-opacity="0.501961" points="37.960217,58.097059,35.573955,76.170661,14.876358,122.894255,39.114947,73.014670" />
<polygon fill="#950700" fill-opacity="0.501961" points="172.254135,53.825495,208.000694,53.449681,248.062256,54.370041,185.262900,58.209228" />
<polygon fill="#ffffff" fill-opacity="0.501961" points="69.426480,37.162746,84.012009,50.515059,87.941596,-2.239183,80.029167,-16.000000" />
<polygon fill="#fdffff" fill-opacity="0.501961" points="109.039500,12.614317,129.050371,-13.374167,130.630073,39.674764,138.430253,-16.000000" />
<polygon fill="#920700" fill-opacity="0.501961" points="62.054944,46.756028,69.906918,39.859848,59.006356,9.591055,54.843572,10.354391" />
<polygon fill="#880802" fill-opacity="0.501961" points="154.450862,159.614044,134.723147,153.392451,145.226014,121.785968,125.312804,160.289870" />
<polygon fill="#750000" fill-opacity="0.501961" points="16.222103,129.839643,15.884209,164.187074,7.408706,158.371743,7.232458,83.425382" />
<polygon fill="#7f0200" fill-opacity="0.501961" points="51.513049,144.384612,66.035334,135.525481,55.856734,160.146744,59.640525,99.650270" />
<polygon fill="#ecf1e9" fill-opacity="0.501961" points="28.146665,83.617557,20.601306,101.695822,26.506534,103.043420,16.171899,89.321764" />
<polygon fill="#830000" fill-opacity="0.501961" points="158.874412,135.993939,148.569233,152.207196,145.511373,111.662185,136.863174,141.354505" />
<polygon fill="#ece8df" fill-opacity="0.501961" points="164.510049,140.578676,160.327083,152.749391,158.790596,157.834445,151.580816,146.204555" />
<polygon fill="#9a0e00" fill-opacity="0.501961" points="189.486062,1.977258,181.419373,42.799192,191.443671,38.339034,175.290910,39.835376" />
<polygon fill="#820000" fill-opacity="0.501961" points="17.097510,132.849800,19.833238,87.921297,31.256988,143.531622,152.931916,134.755464" />
<polygon fill="#ffffff" fill-opacity="0.501961" points="171.791520,51.257484,159.853655,52.152792,163.804728,20.407124,181.707130,14.665272" />
<polygon fill="#f4fff9" fill-opacity="0.501961" points="10.519948,104.201345,25.830526,101.719798,15.196896,84.949628,12.217395,86.144210" />
<polygon fill="#991300" fill-opacity="0.501961" points="227.748615,47.874022,230.261012,6.356972,215.501850,46.603488,213.100535,19.569027" />
<polygon fill="#8f0000" fill-opacity="0.501961" points="120.378690,11.240388,114.947744,11.485616,105.192039,43.658457,110.985883,45.684122" />
<polygon fill="#fdffff" fill-opacity="0.501961" points="117.702095,35.684769,116.971838,26.750068,114.528693,46.354149,117.916973,53.016343" />
<polygon fill="#7d0000" fill-opacity="0.501961" points="99.865246,73.959925,103.912872,64.499225,90.655252,54.062587,101.183204,56.155705" />
<polygon fill="#9d372c" fill-opacity="0.501961" points="178.902245,129.134520,186.815969,68.502980,185.660578,60.268172,190.863512,67.766264" />
<polygon fill="#dbcbc4" fill-opacity="0.501961" points="103.324736,138.808773,106.600085,152.114511,155.369312,153.243460,90.219432,141.886435" />
<polygon fill="#ffffff" fill-opacity="0.501961" points="192.719575,32.028013,185.441045,39.363153,193.944373,-16.000000,192.178487,13.870958" />
<polygon fill="#92160f" fill-opacity="0.501961" points="120.504557,84.972104,141.095770,72.262183,145.170003,102.563406,145.049914,79.573528" />
<polygon fill="#840200" fill-opacity="0.501961" points="102.312266,100.639627,105.795227,75.724482,110.139912,88.883589,112.057389,158.964556" />
<polygon fill="#860100" fill-opacity="0.501961" points="201.885210,65.622360,205.544969,127.108672,204.613277,77.358406,202.199496,56.745476" />
<polygon fill="#fdfefb" fill-opacity="0.501961" points="102.073432,1.063468,223.184983,10.523641,223.043986,29.571030,215.696771,-10.369561" />
<polygon fill="#eef8f0" fill-opacity="0.501961" points="153.574380,84.141618,166.285634,100.856564,144.690665,102.868472,152.793805,100.361258" />
<polygon fill="#dad2c9" fill-opacity="0.501961" points="95.798000,133.044915,62.336732,131.687427,88.176541,125.376522,95.011838,117.611389" />
<polygon fill="#8c0000" fill-opacity="0.501961" points="248.250550,43.585192,234.523228,44.522640,234.597707,19.924649,235.476905,36.017358" />
<polygon fill="#ffffff" fill-opacity="0.501961" points="271.000000,100.404850,252.895508,43.683020,78.101702,50.378248,246.585948,54.101568" />
<polygon fill="#f9ffff" fill-opacity="0.501961" points="42.188608,-16.000000,44.779579,48.049000,50.596450,57.295620,41.028872,-16.000000" />
<polygon fill="#9b1500" fill-opacity="0.501961" points="198.958974,8.320045,192.458265,16.096590,196.594828,47.401493,202.250102,8.064968" />
<polygon fill="#940000" fill-opacity="0.501961" points="250.713869,138.620421,215.101183,99.388250,224.377025,131.010968,128.034251,136.508295" />
<polygon fill="#ffffff" fill-opacity="0.501961" points="252.012151,107.698784,271.000000,-16.000000,144.379067,7.919293,246.078704,10.374671" />
<polygon fill="#7c0600" fill-opacity="0.501961" points="85.249845,134.915252,66.212874,146.915839,94.221218,141.047043,80.349810,160.360618" />
<polygon fill="#950b03" fill-opacity="0.501961" points="223.750778,138.945425,214.411922,161.013506,219.622600,143.384899,241.573690,92.323838" />
<polygon fill="#fffffd" fill-opacity="0.501961" points="231.847932,84.997945,230.137304,86.393866,237.054066,82.796615,233.743018,102.992449" />
<polygon fill="#e6e2dc" fill-opacity="0.501961" points="85.043597,140.267002,78.349530,159.496389,75.127820,147.650727,72.866575,154.546390" />
<polygon fill="#720000" fill-opacity="0.501961" points="137.210978,154.405001,62.902695,161.090949,77.499994,133.127355,69.672431,158.796634" />
<polygon fill="#920a00" fill-opacity="0.501961" points="95.269041,7.191187,98.392734,11.493380,98.844465,45.838193,85.673862,27.252788" />
<polygon fill="#960100" fill-opacity="0.501961" points="22.648133,11.751613,14.567792,45.716513,11.384909,-2.667436,12.206995,9.768449" />
<polygon fill="#ffffff" fill-opacity="0.501961" points="105.055701,116.377517,101.565069,124.108171,100.281231,132.622037,105.634454,131.113966" />
<polygon fill="#8c1d0f" fill-opacity="0.501961" points="223.485936,80.924215,221.893216,66.232151,220.803960,81.139002,221.498956,113.638661" />
<polygon fill="#a84500" fill-opacity="0.501961" points="190.381313,11.884071,186.684954,21.933773,173.981444,8.559941,188.951697,9.174471" />
<polygon fill="#f4f0e6" fill-opacity="0.501961" points="220.438484,45.852847,223.279907,52.158570,222.858558,41.302971,219.731477,24.469116" />
<polygon fill="#ffffff" fill-opacity="0.501961" points="-16.000000,162.153871,78.034344,162.482383,8.715639,183.000000,1.887182,66.221644" />
<polygon fill="#e9e8de" fill-opacity="0.501961" points="198.894741,98.037639,210.208544,84.347785,177.147512,102.955129,196.448449,101.593394" />
<polygon fill="#feffff" fill-opacity="0.501961" points="137.944108,119.771113,141.936917,122.092251,138.788328,133.605547,137.771136,133.635129" />
<polygon fill="#9a0000" fill-opacity="0.501961" points="192.689384,160.486600,257.514923,151.776455,186.676867,155.980351,194.068177,141.072997" />
<polygon fill="#8f0000" fill-opacity="0.501961" points="176.950004,140.405906,172.119519,54.568097,180.204909,123.527398,160.574412,159.423304" />
<polygon fill="#83140d" fill-opacity="0.501961" points="21.959372,136.208447,43.316393,144.284934,51.889769,81.173472,46.528498,140.627653" />
<polygon fill="#fdffff" fill-opacity="0.501961" points="93.507361,82.570873,89.276226,89.721452,87.781782,101.251521,95.735691,99.954216" />
<polygon fill="#6f0500" fill-opacity="0.501961" points="6.142660,154.242121,25.114389,159.523001,36.033771,129.339454,19.356841,162.839634" />
<polygon fill="#e0d9d0" fill-opacity="0.501961" points="73.726435,136.981917,67.771133,151.547432,88.867717,150.256687,54.618384,151.968499" />
<polygon fill="#860000" fill-opacity="0.501961" points="72.803189,120.140136,88.900162,118.172848,85.120804,57.988848,83.307072,99.118375" />
<polygon fill="#950400" fill-opacity="0.501961" points="16.767022,54.743338,8.124174,84.915753,21.997048,85.733961,20.543043,104.650024" />
<polygon fill="#ffffff" fill-opacity="0.501961" points="233.553438,76.819677,233.156249,60.914074,230.739872,58.340041,229.791373,71.801134" />
<polygon fill="#ffffff" fill-opacity="0.501961" points="132.327993,-8.544004,126.836800,47.024878,77.752862,53.830449,131.024581,50.510871" />
<polygon fill="#8b241b" fill-opacity="0.501961" points="116.248634,141.813699,125.166341,104.879528,127.847199,147.854392,121.109257,91.894662" />
<polygon fill="#f3eee5" fill-opacity="0.501961" points="235.982030,153.638783,230.454291,142.354353,226.442747,153.953731,244.344927,135.903329" />
<polygon fill="#ffffff" fill-opacity="0.501961" points="138.757867,76.955961,131.701134,51.753473,133.218000,75.856868,134.187861,76.962026" />
<polygon fill="#930000" fill-opacity="0.501961" points="133.605860,58.288919,177.933711,58.449481,179.492914,65.945718,184.510304,53.386481" />
<polygon fill="#ffffff" fill-opacity="0.501961" points="198.335148,149.021771,192.147172,153.822172,199.427430,152.016970,207.193259,141.949468" />
<polygon fill="#8d0600" fill-opacity="0.501961" points="175.480163,136.378252,161.148870,131.711659,156.142629,100.104480,168.712079,159.320232" />
<polygon fill="#950700" fill-opacity="0.501961" points="193.488763,70.239847,193.578172,103.115663,249.591773,102.418937,196.956374,119.260284" />
<polygon fill="#890000" fill-opacity="0.501961" points="136.677398,84.293871,140.458157,61.390582,142.263525,83.957506,208.960494,82.572375" />
<polygon fill="#f9fffe" fill-opacity="0.501961" points="215.205830,68.508901,210.867525,58.498626,204.121412,78.005343,214.263093,73.713962" />
<polygon fill="#d3cac4" fill-opacity="0.501961" points="96.347102,128.863113,58.250876,133.907489,60.572563,120.259239,87.764407,119.451298" />
<polygon fill="#770200" fill-opacity="0.501961" points="148.678977,73.200173,147.968537,53.718373,146.793186,61.487770,145.853685,73.755702" />
<polygon fill="#790e07" fill-opacity="0.501961" points="101.396966,160.561619,105.175271,138.740502,100.094919,150.132596,98.892126,158.321674" />
<polygon fill="#e8e6e0" fill-opacity="0.501961" points="150.187864,75.491241,149.220136,62.665554,159.456049,66.495626,197.029653,76.407256" />
<polygon fill="#ffffff" fill-opacity="0.501961" points="151.678167,24.933492,153.953947,55.648888,150.258650,46.603155,143.456303,1.521755" />
<polygon fill="#7b0000" fill-opacity="0.501961" points="134.358235,102.200369,136.593110,136.736368,97.465188,137.491298,129.599191,142.841796" />
<polygon fill="#ffffff" fill-opacity="0.501961" points="185.896860,84.104048,187.673241,99.395639,195.348567,87.218204,199.279669,92.352481" />
<polygon fill="#8e0000" fill-opacity="0.501961" points="80.451089,58.980352,137.427497,58.167098,158.860526,54.204293,109.746453,54.136565" />
<polygon fill="#880000" fill-opacity="0.501961" points="175.385544,37.063356,183.364946,42.257971,190.813258,45.057364,189.442218,38.907123" />
<polygon fill="#8b0600" fill-opacity="0.501961" points="34.990605,151.533768,27.458973,62.630473,25.395943,89.089511,38.950740,111.869220" />
<polygon fill="#ffffff" fill-opacity="0.501961" points="182.300332,121.378352,179.500839,124.359122,184.925752,130.646991,184.203488,115.167120" />
<polygon fill="#910000" fill-opacity="0.501961" points="160.980715,77.737161,161.489016,114.850128,163.383787,82.378861,250.858348,77.846639" />
<polygon fill="#950000" fill-opacity="0.501961" points="229.927577,154.418660,246.702779,110.558995,230.875453,158.313601,127.872205,160.011888" />
<polygon fill="#95190f" fill-opacity="0.501961" points="157.798037,82.072603,88.287524,82.789367,160.127616,85.168254,157.144256,34.182266" />
<polygon fill="#730000" fill-opacity="0.501961" points="9.773854,161.665267,62.792358,161.336123,101.160212,161.512973,47.327624,153.651343" />
<polygon fill="#eeefe9" fill-opacity="0.501961" points="96.652873,89.551894,97.572448,85.488352,103.201283,105.030403,102.307026,84.584697" />
<polygon fill="#eff0e8" fill-opacity="0.501961" points="173.280869,116.204195,174.208596,132.008194,167.263082,130.609280,170.342312,117.881216" />
<polygon fill="#870000" fill-opacity="0.501961" points="37.842819,106.293870,185.659774,116.226957,40.886489,119.903701,41.065605,77.188172" />
<polygon fill="#eae3d9" fill-opacity="0.501961" points="198.090146,61.282509,195.927617,78.845071,188.842565,74.586535,192.767476,56.164656" />
<polygon fill="#f7fbf6" fill-opacity="0.501961" points="52.768694,131.565606,52.982603,118.323242,46.511395,129.004480,39.871015,125.264545" />
<polygon fill="#f7f6ea" fill-opacity="0.501961" points="202.624176,17.118763,182.572109,-10.918556,194.180561,-16.000000,202.489079,35.029026" />
<polygon fill="#991400" fill-opacity="0.501961" points="162.800024,12.702598,160.433049,38.690153,152.212407,36.338147,159.255925,8.782169" />
<polygon fill="#e8e2de" fill-opacity="0.501961" points="146.896472,142.980837,135.648589,142.932486,142.481814,151.602455,147.239563,150.702233" />
<polygon fill="#8a0000" fill-opacity="0.501961" points="162.796372,154.345488,158.622850,159.132981,170.580185,156.176928,166.809299,121.015029" />
<polygon fill="#931208" fill-opacity="0.501961" points="188.786729,133.160673,181.766156,107.217034,186.599193,97.704472,176.279368,47.061865" />
<polygon fill="#ffffff" fill-opacity="0.501961" points="257.761882,3.045577,237.689367,18.698903,262.257744,37.680146,241.092069,38.750608" />
<polygon fill="#81180f" fill-opacity="0.501961" points="113.438748,63.455498,116.880508,56.992209,116.854990,81.309662,114.831535,79.295777" />
<polygon fill="#991100" fill-opacity="0.501961" points="222.470065,35.054744,213.261576,19.749531,226.962205,23.695754,231.724624,47.066364" />
<polygon fill="#e8f0ed" fill-opacity="0.501961" points="19.275437,79.100278,18.214625,60.912239,26.066646,59.875203,26.775718,75.355463" />
<polygon fill="#f8ffff" fill-opacity="0.501961" points="80.944868,106.523403,77.671201,84.414619,82.453563,90.641753,80.869376,100.012789" />
<polygon fill="#f8f5ed" fill-opacity="0.501961" points="175.184519,147.492043,170.938212,146.169714,182.513221,139.133025,189.225307,137.205873" />
<polygon fill="#92362b" fill-opacity="0.501961" points="76.196747,68.767975,68.293291,124.747359,74.797443,64.183244,74.468119,52.853181" />
<polygon fill="#fcfffe" fill-opacity="0.501961" points="60.283340,-16.000000,64.907873,31.364674,66.267860,3.837711,130.978480,8.781882" />
<polygon fill="#e8ece5" fill-opacity="0.501961" points="27.377638,147.320389,48.814015,142.626108,41.564386,154.741993,36.479330,143.295872" />
<polygon fill="#931d12" fill-opacity="0.501961" points="233.114972,102.151130,231.706214,87.950259,226.625354,55.210769,232.562998,120.891608" />
<polygon fill="#8f0100" fill-opacity="0.501961" points="138.043839,40.661662,137.483760,36.344376,137.268604,2.383535,131.111802,41.969947" />
<polygon fill="#8f0400" fill-opacity="0.501961" points="249.182550,74.314144,243.002061,147.189288,228.923886,155.801494,251.111451,147.708955" />
<polygon fill="#ecf1ea" fill-opacity="0.501961" points="169.373133,102.737824,124.140338,99.782759,162.516554,100.906467,169.438577,84.772370" />
<polygon fill="#950000" fill-opacity="0.501961" points="63.072442,4.197987,48.623857,40.792988,47.112356,8.144580,54.617056,44.868740" />
<polygon fill="#fefef6" fill-opacity="0.501961" points="29.839428,148.317663,25.047863,159.094312,28.552304,159.855656,34.033252,143.221491" />
<polygon fill="#7e0400" fill-opacity="0.501961" points="50.815879,88.673837,48.841368,110.091308,58.826866,126.395369,54.338097,129.991631" />
<polygon fill="#830100" fill-opacity="0.501961" points="96.947743,106.970730,95.582187,134.489547,99.960925,139.267218,98.259176,76.331677" />
<polygon fill="#ece9e1" fill-opacity="0.501961" points="121.661065,24.696948,119.611332,9.928492,123.213195,1.963522,122.114753,34.269058" />
<polygon fill="#8c0000" fill-opacity="0.501961" points="129.001252,82.709277,125.735308,54.839889,131.817546,65.251794,129.222968,94.295657" />
<polygon fill="#f8fffd" fill-opacity="0.501961" points="56.583776,7.733928,52.693713,28.323966,51.883273,-5.998822,43.421887,8.925725" />
<polygon fill="#f7faf7" fill-opacity="0.501961" points="28.365739,58.950627,29.454888,77.595901,36.588230,77.059607,36.268199,67.210991" />
<polygon fill="#930600" fill-opacity="0.501961" points="112.102988,46.406591,108.055835,15.044866,107.347711,7.386487,101.596576,9.935730" />
<polygon fill="#890300" fill-opacity="0.501961" points="84.203564,105.022249,89.105219,133.236900,89.038191,117.663535,201.557350,117.846833" />
<polygon fill="#ebe7e0" fill-opacity="0.501961" points="223.187901,100.616530,224.104344,87.160500,237.318999,101.921821,201.728462,100.818044" />
<polygon fill="#7e0000" fill-opacity="0.501961" points="77.199516,156.460514,109.900302,162.160376,155.322991,160.824022,141.434940,153.368888" />
<polygon fill="#820c04" fill-opacity="0.501961" points="60.486978,147.129511,57.555031,111.074758,48.699974,156.042891,46.740260,127.451606" />
</g>
</svg>