<svg xmlns="http://www.w3.org/2000/svg" version="1.1" width="1280" height="965">
<rect x="0" y="0" width="1280" height="965" fill="#818588" />
<g transform="scale(5.000000) translate(0.5 0.5)">
<polygon fill="#ffffff" fill-opacity="0.501961" points="43.336932,188.910692,91.696395,4.405347,4.642702,81.038478,154.590435,125.657445" />
<polygon fill="#000b15" fill-opacity="0.501961" points="270.093947,-16.000000,271.000000,134.110303,170.839033,126.127198,225.676022,-16.000000" />
<polygon fill="#ffffff" fill-opacity="0.501961" points="256.029594,166.368217,146.068493,123.694576,150.981217,186.848401,230.567919,190.002675" />
<polygon fill="#060b14" fill-opacity="0.501961" points="82.900047,208.000000,136.385405,200.639936,114.203431,142.645710,90.299980,142.043787" />
<polygon fill="#383e3b" fill-opacity="0.501961" points="238.344036,-16.000000,55.603009,-16.000000,138.171317,149.972916,153.766780,88.602923" />
<polygon fill="#e3f2ff" fill-opacity="0.501961" points="51.559041,105.152200,5.739329,27.302311,-0.100791,-9.324551,89.406614,51.782946" />
<polygon fill="#ffffff" fill-opacity="0.501961" points="74.400424,99.803933,42.539578,159.200857,76.233687,194.301445,110.457332,113.372925" />
<polygon fill="#262a1f" fill-opacity="0.501961" points="54.012034,148.614571,23.614094,80.863653,-10.829348,-16.000000,-16.000000,107.682059" />
<polygon fill="#ffffff" fill-opacity="0.501961" points="2.665047,108.697298,2.425013,189.921893,23.191270,191.936322,5.788942,128.151180" />
<polygon fill="#ffffff" fill-opacity="0.501961" points="232.325108,182.010271,212.524324,155.964116,231.893904,118.208303,252.983857,140.583519" />
<polygon fill="#fffff5" fill-opacity="0.501961" points="157.229196,84.890089,214.766388,25.461488,181.091701,86.677860,155.429399,101.278292" />
<polygon fill="#000000" fill-opacity="0.501961" points="247.816954,208.000000,85.551716,189.575499,221.082964,190.653439,271.000000,168.811506" />
<polygon fill="#1f1e16" fill-opacity="0.501961" points="204.734783,160.412738,198.932650,162.548369,189.775366,76.056014,268.151067,58.897588" />
<polygon fill="#dcccbc" fill-opacity="0.501961" points="136.908926,27.487404,208.501031,14.826784,91.832039,69.523373,134.163944,68.397943" />
<polygon fill="#ffffff" fill-opacity="0.501961" points="142.262082,151.622491,116.851621,111.326940,72.347023,101.459422,139.009688,170.977607" />
<polygon fill="#ffffff" fill-opacity="0.501961" points="228.966280,181.949150,203.869427,190.375420,164.660629,157.355039,125.666171,107.771959" />
<polygon fill="#000000" fill-opacity="0.501961" points="-6.987071,1.994211,90.514510,2.791214,186.976168,2.111850,81.261145,-16.000000" />
<polygon fill="#3c434d" fill-opacity="0.501961" points="214.282658,143.750826,95.411433,49.252006,77.332983,77.990818,73.891638,100.211531" />
<polygon fill="#657c97" fill-opacity="0.501961" points="252.916168,66.325071,252.557251,2.166738,161.533839,4.173936,187.072988,35.672666" />
<polygon fill="#000000" fill-opacity="0.501961" points="2.363620,178.935955,3.944302,208.000000,-16.000000,122.714840,2.724627,89.691003" />
<polygon fill="#fdfdf7" fill-opacity="0.501961" points="13.010664,1.957568,42.405476,3.064313,12.679535,38.664949,63.796333,119.594415" />
<polygon fill="#000000" fill-opacity="0.501961" points="77.451730,190.225343,25.331398,189.705910,-16.000000,192.597306,182.831775,196.577836" />
<polygon fill="#72889b" fill-opacity="0.501961" points="4.827729,24.115409,48.622733,52.498865,97.698366,7.149521,38.898288,5.699868" />
<polygon fill="#282032" fill-opacity="0.501961" points="222.700661,170.257566,212.823044,178.161796,200.627189,158.065290,208.878204,157.175443" />
<polygon fill="#000000" fill-opacity="0.501961" points="253.988164,163.735591,254.122688,208.000000,271.000000,-16.000000,253.337616,19.930624" />
<polygon fill="#ffffff" fill-opacity="0.501961" points="61.907495,118.739154,57.179366,174.592482,80.637183,191.097702,91.335917,113.842786" />
<polygon fill="#565642" fill-opacity="0.501961" points="114.961810,77.516102,71.697330,105.816804,29.752439,168.726646,19.365421,132.447706" />
<polygon fill="#fffafd" fill-opacity="0.501961" points="125.513612,181.731376,138.875149,134.420818,137.776129,170.661080,170.798321,184.419244" />
<polygon fill="#393433" fill-opacity="0.501961" points="210.424164,193.955604,159.310670,157.175181,117.941328,94.753579,141.716315,147.710249" />
<polygon fill="#545e70" fill-opacity="0.501961" points="94.673110,140.594756,76.556868,177.575846,105.801222,190.188560,114.349472,139.852338" />
<polygon fill="#ffffff" fill-opacity="0.501961" points="3.298860,97.224385,2.337291,177.667852,18.575570,190.879611,6.661617,128.271680" />
<polygon fill="#3a4142" fill-opacity="0.501961" points="191.255639,36.408224,147.710631,35.491665,123.045281,86.574527,121.605017,129.365676" />
<polygon fill="#ffffff" fill-opacity="0.501961" points="227.696962,133.552025,254.290692,153.317789,207.528928,169.747340,209.582748,172.792599" />
<polygon fill="#1e1e1d" fill-opacity="0.501961" points="1.653574,-16.000000,-16.000000,113.385404,38.485310,78.297046,4.259677,78.800066" />
<polygon fill="#000000" fill-opacity="0.501961" points="210.941107,3.761135,271.000000,1.178661,238.849593,-1.040414,26.407566,-0.945756" />
<polygon fill="#e9dccf" fill-opacity="0.501961" points="178.080969,24.861618,130.339345,29.730265,198.787468,37.977236,197.343521,58.392911" />
<polygon fill="#bcbdb6" fill-opacity="0.501961" points="60.553765,145.225738,2.052953,46.765477,4.193182,76.415314,22.170009,51.998963" />
<polygon fill="#f7d4b7" fill-opacity="0.501961" points="108.220283,72.444925,136.154981,65.743408,140.658789,48.594655,116.753679,55.996120" />
<polygon fill="#ffffff" fill-opacity="0.501961" points="2.591920,24.895312,3.121014,3.201542,78.173108,3.575138,36.892883,3.586626" />
<polygon fill="#ffffff" fill-opacity="0.501961" points="159.260062,92.515841,170.914290,96.458722,169.997590,80.171488,154.304892,76.403841" />
<polygon fill="#3a4543" fill-opacity="0.501961" points="134.175488,38.674049,167.799553,80.498212,182.080020,60.513454,190.385021,32.595619" />
<polygon fill="#586884" fill-opacity="0.501961" points="217.305625,125.633374,245.365661,94.688593,254.803667,135.898787,249.102118,139.527136" />
<polygon fill="#ffffff" fill-opacity="0.501961" points="63.388154,92.938257,54.493361,111.034298,103.769974,107.469447,70.093347,206.152954" />
<polygon fill="#ffffff" fill-opacity="0.501961" points="164.961332,161.400466,135.011855,121.586550,196.149300,145.718754,146.333852,191.139588" />
<polygon fill="#06020e" fill-opacity="0.501961" points="190.170561,175.574877,192.059335,208.000000,198.384075,187.051419,176.515694,195.646578" />
<polygon fill="#ffffff" fill-opacity="0.501961" points="190.992396,183.684832,216.153429,189.822899,253.467901,174.056581,252.633675,163.921602" />
<polygon fill="#e3f1fa" fill-opacity="0.501961" points="86.606762,67.653892,81.372168,25.832095,39.118173,76.434641,24.191880,99.792580" />
<polygon fill="#383d3b" fill-opacity="0.501961" points="156.425493,99.728727,223.695355,143.252494,195.845361,34.715848,242.893341,63.762985" />
<polygon fill="#293736" fill-opacity="0.501961" points="157.358439,8.123756,180.008912,19.539240,126.017368,31.523033,99.096107,10.093578" />
<polygon fill="#9f9087" fill-opacity="0.501961" points="34.429774,146.775584,45.047354,190.692608,60.402727,183.533526,44.773892,139.682110" />
<polygon fill="#ffebd9" fill-opacity="0.501961" points="195.378449,65.593841,180.878036,89.542126,180.850429,71.055717,193.759376,28.885640" />
<polygon fill="#474c3b" fill-opacity="0.501961" points="58.031669,109.434868,45.603140,168.407614,55.536465,96.558532,-4.180391,107.606727" />
<polygon fill="#38342f" fill-opacity="0.501961" points="132.278278,208.000000,90.779551,142.735582,136.930725,157.153118,122.316435,139.358766" />
<polygon fill="#ffffff" fill-opacity="0.501961" points="111.719169,112.031689,138.046048,145.673186,71.039562,133.963301,85.627872,102.873558" />
<polygon fill="#000000" fill-opacity="0.501961" points="169.735404,208.000000,145.510732,187.601123,107.657894,190.357437,-10.931229,191.212445" />
<polygon fill="#020606" fill-opacity="0.501961" points="22.140284,52.771811,2.232804,43.219035,1.672945,-16.000000,-16.000000,60.581086" />
<polygon fill="#ffffff" fill-opacity="0.501961" points="206.098110,189.838007,225.432479,191.095225,152.612091,123.384723,158.899267,153.228451" />
<polygon fill="#7a89a0" fill-opacity="0.501961" points="157.796599,-4.468941,192.042705,26.664435,215.517052,54.554478,254.560932,51.602116" />
<polygon fill="#302c2c" fill-opacity="0.501961" points="142.926536,151.231794,137.511711,179.105065,153.453559,145.823064,136.397389,138.691089" />
<polygon fill="#71727e" fill-opacity="0.501961" points="195.776098,130.021797,200.919009,129.420901,180.513875,84.447286,163.994997,58.748880" />
<polygon fill="#ffffff" fill-opacity="0.501961" points="159.266539,77.787445,174.473528,78.598281,172.850438,94.072949,153.024762,99.318649" />
<polygon fill="#efecf0" fill-opacity="0.501961" points="140.892441,163.444805,128.150749,122.901037,137.677048,189.705042,118.392409,144.375490" />
<polygon fill="#ffffff" fill-opacity="0.501961" points="64.703175,186.321361,81.552456,191.393211,74.528452,101.424556,50.422308,149.567532" />
<polygon fill="#fffdff" fill-opacity="0.501961" points="181.696597,177.009059,150.163578,155.175730,152.612241,194.987513,143.182797,174.430229" />
<polygon fill="#6f7578" fill-opacity="0.501961" points="126.610946,107.142422,136.892861,107.700894,180.360144,115.263418,177.506716,143.158994" />
<polygon fill="#ffffff" fill-opacity="0.501961" points="208.901374,158.284064,208.751819,150.232454,235.424894,138.971147,243.223273,174.738400" />
<polygon fill="#3f3b40" fill-opacity="0.501961" points="177.520539,183.338486,145.600615,191.819120,127.423709,154.300074,160.030823,208.000000" />
<polygon fill="#000000" fill-opacity="0.501961" points="260.071372,186.161976,154.265131,198.744789,180.328328,188.971641,271.000000,199.294742" />
<polygon fill="#000000" fill-opacity="0.501961" points="-16.000000,2.795003,133.745752,-16.000000,73.810955,8.666508,64.902664,1.556510" />
<polygon fill="#363838" fill-opacity="0.501961" points="92.598350,145.703807,86.615269,165.601146,121.119036,146.115737,129.812923,175.823581" />
<polygon fill="#858d9b" fill-opacity="0.501961" points="19.717696,22.175524,70.256529,107.158621,150.643507,83.761563,82.276796,104.136133" />
<polygon fill="#000004" fill-opacity="0.501961" points="246.374492,89.451462,271.000000,10.047722,256.136480,194.211090,250.967044,98.596747" />
<polygon fill="#a5a29b" fill-opacity="0.501961" points="23.411888,189.521817,33.378484,183.635705,3.998926,96.825482,3.243448,116.809545" />
<polygon fill="#332f2f" fill-opacity="0.501961" points="238.430763,159.209235,240.164537,162.813639,263.757242,163.304254,244.525925,155.563686" />
<polygon fill="#dadad8" fill-opacity="0.501961" points="25.835669,92.358107,52.506227,113.614822,40.088186,120.027241,47.609438,56.644129" />
<polygon fill="#ffffff" fill-opacity="0.501961" points="61.392590,91.451492,20.434428,30.710998,11.156593,39.123702,52.916601,97.556865" />
<polygon fill="#7f8d96" fill-opacity="0.501961" points="39.524511,4.442137,-3.793075,31.023827,45.610416,37.764525,107.200117,2.704384" />
<polygon fill="#000000" fill-opacity="0.501961" points="2.179884,151.397172,1.561751,34.615233,-5.868073,208.000000,2.466223,178.025810" />
<polygon fill="#ffffff" fill-opacity="0.501961" points="7.381048,142.768939,2.207951,188.606949,14.763395,189.579173,18.642872,181.461685" />
<polygon fill="#6b6e6d" fill-opacity="0.501961" points="32.139687,84.565002,20.040291,86.924513,28.079835,65.085800,53.073045,108.732537" />
<polygon fill="#494a3d" fill-opacity="0.501961" points="188.464338,131.620654,192.976648,155.337492,198.413905,102.222041,230.279183,104.022196" />
<polygon fill="#7a89ab" fill-opacity="0.501961" points="104.351283,170.238388,103.453112,164.544286,85.733803,162.549417,86.919088,188.472855" />
<polygon fill="#3a4b59" fill-opacity="0.501961" points="182.922129,7.235311,255.102082,47.041677,238.359238,1.168094,190.081365,5.510266" />
<polygon fill="#505949" fill-opacity="0.501961" points="66.560089,92.440353,72.887332,102.857112,13.959991,148.484465,65.341226,115.465713" />
<polygon fill="#e1d8dc" fill-opacity="0.501961" points="120.873638,176.164742,126.465815,183.229501,141.925207,189.631721,138.387780,176.329446" />
<polygon fill="#aac5e6" fill-opacity="0.501961" points="31.570577,81.581430,59.782377,31.817948,54.146984,25.981847,85.493504,29.397269" />
<polygon fill="#5a5762" fill-opacity="0.501961" points="159.054510,155.251234,172.166800,185.762090,157.354063,155.784388,224.852312,208.000000" />
<polygon fill="#332e2a" fill-opacity="0.501961" points="221.892017,144.341617,215.843210,145.847977,169.576498,133.294904,218.170828,134.917117" />
<polygon fill="#a2a7a4" fill-opacity="0.501961" points="197.618740,30.371259,251.226389,58.633221,256.112005,65.054932,207.015698,40.694916" />
<polygon fill="#fcf9ff" fill-opacity="0.501961" points="200.224710,147.755068,193.214446,157.046439,195.042586,137.675268,197.009186,140.778904" />
<polygon fill="#ffffff" fill-opacity="0.501961" points="12.438428,18.047574,2.284907,26.007194,4.021229,5.389453,44.840815,3.152567" />
<polygon fill="#262928" fill-opacity="0.501961" points="231.503998,110.034773,259.304419,81.479676,221.163258,45.842929,179.484657,90.376631" />
<polygon fill="#464e57" fill-opacity="0.501961" points="193.711754,29.001005,186.171453,39.676619,174.690789,15.489667,264.771580,61.965035" />
<polygon fill="#c3c5d6" fill-opacity="0.501961" points="-2.958665,59.537341,20.647273,68.297181,15.068511,73.204286,10.057925,55.074894" />
<polygon fill="#484546" fill-opacity="0.501961" points="172.741438,203.649787,143.313391,165.160453,151.549340,167.289834,157.620122,208.000000" />
<polygon fill="#4d524a" fill-opacity="0.501961" points="5.665639,90.491444,57.708255,131.577636,33.423436,139.184971,40.013030,205.216436" />
<polygon fill="#7f7463" fill-opacity="0.501961" points="135.057929,61.797949,84.697308,12.909672,84.464454,56.080201,127.205151,37.998566" />
<polygon fill="#efd9c8" fill-opacity="0.501961" points="112.320769,66.614789,125.448671,50.475598,121.525316,70.644681,98.083090,69.630090" />
<polygon fill="#413734" fill-opacity="0.501961" points="201.659275,159.174056,213.620586,174.400845,204.250528,128.676180,196.259738,157.801145" />
<polygon fill="#2b3130" fill-opacity="0.501961" points="130.777891,67.820116,152.180741,46.544004,135.135858,78.785696,97.691262,79.031967" />
<polygon fill="#ebebe9" fill-opacity="0.501961" points="253.455140,178.080651,253.398702,153.097480,247.724337,146.761723,252.173348,170.004681" />
<polygon fill="#000000" fill-opacity="0.501961" points="145.205587,191.244141,96.127050,191.769254,271.000000,199.561206,249.455185,190.583690" />
<polygon fill="#fffffc" fill-opacity="0.501961" points="99.084998,126.422514,143.620243,154.449519,136.647367,166.430701,130.059525,125.251577" />
<polygon fill="#fdffff" fill-opacity="0.501961" points="212.211997,191.315145,153.502340,147.604895,132.064702,108.627734,187.859201,155.993864" />
<polygon fill="#393b27" fill-opacity="0.501961" points="122.649698,7.685965,136.861299,28.982363,132.105443,49.230090,106.669199,4.965249" />
<polygon fill="#ffffff" fill-opacity="0.501961" points="67.283599,188.835854,83.722680,190.645963,84.697975,185.783470,53.276127,144.038566" />
<polygon fill="#c9bfb0" fill-opacity="0.501961" points="129.327397,65.562093,138.213371,26.741136,188.545637,25.840381,139.498937,40.008211" />
<polygon fill="#f2ffff" fill-opacity="0.501961" points="77.189920,27.633023,84.341806,49.114446,84.605097,50.301100,49.176634,89.206439" />
<polygon fill="#454e5f" fill-opacity="0.501961" points="123.495876,119.219435,138.332952,138.151437,87.939644,50.118379,85.118066,92.837225" />
<polygon fill="#60755e" fill-opacity="0.501961" points="25.291647,110.073574,26.929689,116.591591,46.739928,110.365631,71.313288,94.556688" />
<polygon fill="#000000" fill-opacity="0.501961" points="253.112230,7.589010,254.275995,77.254001,254.424733,94.575416,261.574714,-16.000000" />
<polygon fill="#9f9ca0" fill-opacity="0.501961" points="45.745678,190.142350,35.609070,162.923296,40.651750,145.444124,69.092786,190.265917" />
<polygon fill="#858e93" fill-opacity="0.501961" points="1.876193,23.421835,3.354966,49.855727,4.816790,50.188204,33.532638,10.900444" />
<polygon fill="#7f858c" fill-opacity="0.501961" points="145.246534,65.734180,134.537746,76.681873,151.408707,74.077392,161.157909,61.106571" />
<polygon fill="#a4a6aa" fill-opacity="0.501961" points="152.755163,116.072582,154.204489,123.064445,168.765885,111.607061,156.189168,107.425020" />
<polygon fill="#282822" fill-opacity="0.501961" points="107.574836,208.000000,119.519156,166.755720,98.395349,139.389447,106.784074,139.547588" />
<polygon fill="#505453" fill-opacity="0.501961" points="171.126669,131.364511,158.959732,129.512118,177.342050,83.681048,177.045062,147.835462" />
<polygon fill="#504d55" fill-opacity="0.501961" points="217.045000,204.711289,183.429725,175.419170,153.616106,208.000000,182.988114,172.202786" />
<polygon fill="#000002" fill-opacity="0.501961" points="148.366656,-16.000000,218.416515,2.398736,143.641938,1.064884,158.120586,16.383438" />
<polygon fill="#000000" fill-opacity="0.501961" points="-16.000000,137.612979,0.939050,208.000000,2.315291,54.441799,1.909929,-16.000000" />
<polygon fill="#ffefdd" fill-opacity="0.501961" points="177.122987,69.806744,196.759911,32.931605,187.230489,70.593964,179.670763,80.209770" />
<polygon fill="#565168" fill-opacity="0.501961" points="210.727739,161.306591,205.097705,156.308648,219.674895,172.923251,228.778770,169.970573" />
<polygon fill="#f2f0f1" fill-opacity="0.501961" points="184.592756,180.950905,169.158415,189.192524,174.681017,191.455107,179.199314,189.447282" />
<polygon fill="#606c7f" fill-opacity="0.501961" points="223.009082,118.267592,254.334827,101.721250,252.080660,138.802865,232.831853,135.610036" />
<polygon fill="#51596b" fill-opacity="0.501961" points="53.924690,26.557355,37.552424,48.580463,29.553490,52.842152,73.480959,3.050821" />
<polygon fill="#fefefd" fill-opacity="0.501961" points="232.793995,178.832309,224.502787,191.116357,196.432979,190.635634,228.207383,172.731973" />
<polygon fill="#3e3a35" fill-opacity="0.501961" points="140.874055,167.171833,144.372703,149.988067,147.951628,139.080783,147.785697,180.035162" />
<polygon fill="#ebfcff" fill-opacity="0.501961" points="248.609911,6.325337,253.964726,5.650064,253.549537,3.268946,246.661326,3.621828" />
<polygon fill="#f2f0f4" fill-opacity="0.501961" points="253.865242,158.666757,235.424733,184.417142,210.783444,169.830427,251.045236,177.981358" />
<polygon fill="#4e4430" fill-opacity="0.501961" points="90.474969,56.925541,84.173820,68.389110,113.478028,65.608729,113.999781,48.860705" />
<polygon fill="#fffffe" fill-opacity="0.501961" points="58.178632,89.113414,44.091938,64.521856,35.581563,98.802786,25.184869,87.917574" />
<polygon fill="#8b929b" fill-opacity="0.501961" points="157.966515,135.613586,174.474223,127.385354,262.057487,131.098386,225.453622,128.885237" />
<polygon fill="#ffffff" fill-opacity="0.501961" points="61.574398,178.665733,51.585469,152.291726,76.291304,103.382079,118.418500,117.052507" />
<polygon fill="#fcfdfa" fill-opacity="0.501961" points="154.736147,154.675691,167.118388,184.301416,159.604035,189.046641,148.823298,155.450077" />
<polygon fill="#46464e" fill-opacity="0.501961" points="19.318090,63.229156,17.039595,48.828172,-1.827672,108.860159,11.572675,71.160608" />
<polygon fill="#657987" fill-opacity="0.501961" points="116.179358,5.156802,139.881936,1.403400,135.562220,44.479608,141.711712,19.472031" />
<polygon fill="#728ba8" fill-opacity="0.501961" points="174.232574,1.529802,230.221423,37.826135,196.466588,24.054261,155.184438,3.906966" />
<polygon fill="#ffffff" fill-opacity="0.501961" points="190.343052,140.241658,178.792498,137.600266,175.153401,167.890469,191.649004,167.535854" />
<polygon fill="#342d29" fill-opacity="0.501961" points="176.503544,77.154577,155.668341,69.101398,146.723101,86.018188,148.680562,77.405947" />
<polygon fill="#11180f" fill-opacity="0.501961" points="169.492938,46.675178,156.020254,43.712056,146.552602,39.932337,164.252279,35.601214" />
<polygon fill="#f5f7eb" fill-opacity="0.501961" points="65.872579,102.667810,58.568905,116.141871,60.732924,124.518480,59.528996,102.401342" />
<polygon fill="#f9fcf1" fill-opacity="0.501961" points="47.915389,109.105824,53.015016,118.000109,40.986133,116.515909,37.760217,114.826592" />
<polygon fill="#686958" fill-opacity="0.501961" points="22.107675,128.071413,53.166502,118.442215,52.079375,154.115212,15.108275,126.243749" />
<polygon fill="#000000" fill-opacity="0.501961" points="22.190585,192.002749,99.113233,190.469500,159.979758,192.539325,-16.000000,193.718241" />
<polygon fill="#808a87" fill-opacity="0.501961" points="206.926656,102.105462,209.447198,103.592603,214.778828,112.155064,202.539231,108.451183" />
<polygon fill="#f3f7f6" fill-opacity="0.501961" points="48.417826,45.069722,19.993977,60.084303,23.240679,31.704605,40.917887,64.317983" />
<polygon fill="#8e9da9" fill-opacity="0.501961" points="70.650510,9.427430,92.977165,10.576681,4.144986,34.274502,68.804623,1.656468" />
<polygon fill="#dbdada" fill-opacity="0.501961" points="26.216876,71.448075,19.066533,62.912418,10.901178,74.756187,28.772627,74.424020" />
<polygon fill="#78797e" fill-opacity="0.501961" points="158.029155,55.849861,168.655572,58.897420,198.393464,128.065825,169.717344,77.365401" />
<polygon fill="#45433f" fill-opacity="0.501961" points="234.965405,183.871076,231.317508,179.593023,228.311795,189.736979,271.000000,191.299907" />
<polygon fill="#000000" fill-opacity="0.501961" points="128.542218,1.540325,126.460788,-0.887427,-16.000000,-1.448520,34.255365,2.200605" />
<polygon fill="#4b545c" fill-opacity="0.501961" points="211.372424,61.993599,195.118534,54.397675,223.889082,80.368852,239.002015,78.209352" />
<polygon fill="#f7f5fd" fill-opacity="0.501961" points="150.170508,191.434354,155.296925,180.965763,142.227768,172.987435,142.043796,173.957352" />
<polygon fill="#ffffff" fill-opacity="0.501961" points="2.956932,124.850490,17.399744,182.627432,22.803682,190.727759,5.060193,189.749483" />
<polygon fill="#0e0e0e" fill-opacity="0.501961" points="271.000000,188.018682,185.179125,195.710127,198.002805,184.073551,203.479391,208.000000" />
<polygon fill="#313735" fill-opacity="0.501961" points="228.498022,74.690438,195.846223,28.129352,177.218181,44.336686,185.686337,24.098165" />
<polygon fill="#f6f5ec" fill-opacity="0.501961" points="156.627212,86.164073,178.040127,93.360059,171.527343,78.919539,154.665473,77.908312" />
<polygon fill="#fefffa" fill-opacity="0.501961" points="237.699188,142.046892,254.853542,155.886826,206.647393,157.391330,213.123649,149.276487" />
<polygon fill="#616061" fill-opacity="0.501961" points="165.992534,172.463291,169.306330,197.048293,169.441556,180.145435,167.394839,173.032847" />
<polygon fill="#f2e2d4" fill-opacity="0.501961" points="195.843444,33.750727,177.925979,77.709827,192.671698,65.655897,187.307228,34.124919" />
<polygon fill="#ffffff" fill-opacity="0.501961" points="202.425332,189.319156,181.411776,155.298950,214.360722,172.791255,219.662747,157.042574" />
<polygon fill="#a0aec3" fill-opacity="0.501961" points="226.263792,114.038102,240.588447,129.528887,242.011597,135.077939,227.981388,120.252740" />
<polygon fill="#403f3f" fill-opacity="0.501961" points="241.773768,157.219504,240.739915,165.406381,248.323770,163.607947,255.808642,159.035763" />
<polygon fill="#000001" fill-opacity="0.501961" points="254.467158,208.000000,253.690041,163.552551,254.764299,54.260035,271.000000,8.641277" />
<polygon fill="#292320" fill-opacity="0.501961" points="177.899944,93.110946,168.287556,94.780481,169.821657,100.930839,179.934330,100.131243" />
<polygon fill="#ffffff" fill-opacity="0.501961" points="172.126451,167.429802,175.753120,181.531296,170.129272,183.154207,165.676347,166.227250" />
<polygon fill="#35393b" fill-opacity="0.501961" points="20.695684,54.911583,18.514059,60.719896,3.006594,45.695814,14.709553,45.804732" />
<polygon fill="#3b373c" fill-opacity="0.501961" points="130.138297,181.067849,127.386215,208.000000,146.845196,175.504522,141.760833,193.596331" />
<polygon fill="#a7bdd6" fill-opacity="0.501961" points="39.632744,55.646441,45.531749,37.393489,56.160429,30.627560,77.024576,47.994163" />
<polygon fill="#7e7e7b" fill-opacity="0.501961" points="2.472533,121.522163,1.931419,105.690844,3.306394,77.513278,19.480790,140.277586" />
<polygon fill="#373a3c" fill-opacity="0.501961" points="3.173110,92.921270,8.633533,106.625170,39.388177,98.844815,20.128845,118.816015" />
<polygon fill="#ffffff" fill-opacity="0.501961" points="34.819136,2.625813,2.869615,7.292238,2.739529,21.799069,10.364812,21.657330" />
<polygon fill="#fffcff" fill-opacity="0.501961" points="138.344500,188.558176,139.748398,182.129570,131.663880,170.354651,129.050686,176.140457" />
<polygon fill="#142021" fill-opacity="0.501961" points="128.331757,-16.000000,73.756327,9.658333,68.898326,5.903356,85.689516,-16.000000" />
<polygon fill="#3c4243" fill-opacity="0.501961" points="224.064191,144.311811,199.624007,133.842763,257.459570,97.227584,221.686931,109.159778" />
<polygon fill="#576175" fill-opacity="0.501961" points="76.043514,78.822912,92.043097,61.598935,67.359928,105.452975,136.265621,92.544058" />
<polygon fill="#575450" fill-opacity="0.501961" points="168.212903,176.888394,160.093649,161.840361,111.105525,104.929725,159.136617,154.597649" />
<polygon fill="#d0cbc6" fill-opacity="0.501961" points="172.585265,19.841204,164.937053,23.780608,139.852675,32.645143,180.920818,31.534853" />
<polygon fill="#1c1a15" fill-opacity="0.501961" points="201.108638,126.973658,234.474468,93.190577,230.155280,64.817034,271.000000,73.791606" />
<polygon fill="#1d2d30" fill-opacity="0.501961" points="152.007957,5.559742,167.998888,18.110833,164.797802,23.811479,153.065843,25.320073" />
<polygon fill="#b6966b" fill-opacity="0.501961" points="33.350702,153.194081,31.493815,144.191211,53.030536,144.999914,47.760758,158.793318" />
<polygon fill="#f9faf7" fill-opacity="0.501961" points="138.704917,159.900002,142.194314,152.850451,137.238334,142.033417,111.527229,114.758360" />
<polygon fill="#625741" fill-opacity="0.501961" points="138.167638,29.752565,131.505174,57.962015,110.896942,38.487715,114.812213,56.602834" />
<polygon fill="#fbfcfb" fill-opacity="0.501961" points="220.839116,147.208959,241.212260,153.683475,236.034117,180.849334,243.910846,185.343604" />
<polygon fill="#dae1e6" fill-opacity="0.501961" points="85.959251,51.155696,42.791491,53.556401,7.063315,62.440508,29.647879,51.441431" />
<polygon fill="#5e5b5f" fill-opacity="0.501961" points="41.873511,178.221893,48.427546,192.285853,34.936397,184.944384,15.247329,117.520256" />
<polygon fill="#535051" fill-opacity="0.501961" points="118.435996,162.630763,127.366092,178.630508,130.119904,174.098109,122.962576,152.036322" />
<polygon fill="#293a46" fill-opacity="0.501961" points="212.313646,1.740887,236.619049,13.208342,253.542349,22.066211,255.360140,12.086608" />
<polygon fill="#fbffff" fill-opacity="0.501961" points="30.737936,100.598715,39.525932,97.456796,38.921061,96.580699,30.449282,83.337488" />
<polygon fill="#66748a" fill-opacity="0.501961" points="209.621086,25.222821,254.152535,44.520032,234.934651,61.229342,256.906954,69.806347" />
<polygon fill="#555957" fill-opacity="0.501961" points="8.522982,57.356796,11.150024,74.891298,35.116527,101.983302,6.292070,92.355876" />
<polygon fill="#000000" fill-opacity="0.501961" points="214.735440,193.270611,171.840036,190.901877,99.545024,191.549936,58.916029,193.457424" />
<polygon fill="#afa19f" fill-opacity="0.501961" points="122.633202,186.179034,113.525519,185.582343,118.192353,190.046297,142.430853,164.932786" />
<polygon fill="#ffffff" fill-opacity="0.501961" points="125.796701,130.668199,77.208813,106.514628,53.862017,135.684315,56.789401,155.130046" />
<polygon fill="#66788e" fill-opacity="0.501961" points="130.673650,106.758355,134.574568,120.292932,151.714946,122.857341,135.083759,107.609963" />
<polygon fill="#807c76" fill-opacity="0.501961" points="93.102455,53.870240,77.123605,1.392308,83.368227,43.821322,130.581251,31.154395" />
<polygon fill="#faf8f5" fill-opacity="0.501961" points="154.207474,129.231140,192.852213,144.110386,177.058045,137.383090,147.702069,144.083942" />
<polygon fill="#b1bbd1" fill-opacity="0.501961" points="97.724108,167.646846,102.888813,161.848473,85.829580,168.642927,79.631288,162.112207" />
<polygon fill="#adafbc" fill-opacity="0.501961" points="36.431574,161.661102,43.463479,185.434680,47.243665,160.757536,34.326243,157.542113" />
<polygon fill="#464040" fill-opacity="0.501961" points="248.913051,200.433948,238.382882,172.086803,271.000000,208.000000,245.402319,181.314626" />
<polygon fill="#3e464e" fill-opacity="0.501961" points="116.073186,73.218089,81.724829,64.545935,109.240166,83.377291,145.112318,141.058506" />
<polygon fill="#555c4e" fill-opacity="0.501961" points="41.304522,142.697992,20.485106,143.689625,73.112329,101.176175,57.445927,129.148718" />
<polygon fill="#000000" fill-opacity="0.501961" points="2.039558,62.814101,-16.000000,153.881461,6.364974,208.000000,1.862660,183.007753" />
<polygon fill="#6d8495" fill-opacity="0.501961" points="148.799331,10.013030,145.722712,19.034214,153.909261,20.311466,137.186613,-3.887496" />
<polygon fill="#444340" fill-opacity="0.501961" points="109.322898,106.967759,137.066335,129.945310,123.124376,124.835875,133.810020,98.834944" />
<polygon fill="#98a8ac" fill-opacity="0.501961" points="107.784820,4.268511,118.499417,4.042166,100.882158,2.149010,62.947021,20.060696" />
<polygon fill="#434a4c" fill-opacity="0.501961" points="108.115428,155.462969,108.791733,140.073515,86.511364,155.040286,86.562761,162.929720" />
<polygon fill="#2d2b24" fill-opacity="0.501961" points="125.524897,194.542479,109.075976,169.613545,107.690320,144.783910,121.801787,162.399788" />
<polygon fill="#4b494f" fill-opacity="0.501961" points="108.399172,71.228351,156.756007,86.478164,148.317227,110.461497,159.334182,130.118677" />
<polygon fill="#a5b2c0" fill-opacity="0.501961" points="58.118960,83.449146,73.466225,72.454934,75.666924,94.304004,45.429401,67.070006" />
<polygon fill="#5e5866" fill-opacity="0.501961" points="133.688555,172.311811,136.627028,170.141892,139.979515,172.246245,145.359452,192.050978" />
<polygon fill="#898491" fill-opacity="0.501961" points="60.874164,180.216275,46.940253,154.405770,51.957506,143.806926,45.922061,188.756097" />
<polygon fill="#5a576a" fill-opacity="0.501961" points="130.212970,155.622800,116.952107,139.549093,135.974043,155.253484,126.625205,152.358670" />
<polygon fill="#f7f8f5" fill-opacity="0.501961" points="92.243936,149.072719,84.774268,158.099454,60.728985,114.265658,58.221350,117.732045" />
<polygon fill="#fffdf6" fill-opacity="0.501961" points="158.791344,79.816101,175.343019,92.247400,162.236185,97.503293,154.480649,99.235104" />
<polygon fill="#fafafd" fill-opacity="0.501961" points="125.112137,149.585827,128.126690,155.591498,116.664199,145.762826,83.160029,106.706289" />
<polygon fill="#76839e" fill-opacity="0.501961" points="82.444605,88.072265,84.478032,51.854125,94.022340,65.551566,81.425818,51.254710" />
<polygon fill="#949391" fill-opacity="0.501961" points="20.352305,192.177513,26.970233,183.338451,7.060380,136.297626,17.138381,172.959671" />
<polygon fill="#e5cdbc" fill-opacity="0.501961" points="120.787364,51.500866,125.360957,57.218480,119.155256,71.911820,111.147834,68.578292" />
<polygon fill="#485351" fill-opacity="0.501961" points="174.574810,70.752263,185.981873,51.131339,141.760975,40.723204,138.839577,46.293872" />
<polygon fill="#333a3e" fill-opacity="0.501961" points="194.799343,63.128709,205.384918,120.368911,196.634278,130.442603,191.446637,160.845654" />
<polygon fill="#faf9fb" fill-opacity="0.501961" points="222.010911,181.807919,192.504531,161.324511,198.649284,135.370480,194.140190,182.355524" />
<polygon fill="#888a7f" fill-opacity="0.501961" points="17.649748,75.965759,23.317516,65.781639,3.125667,79.594571,2.846696,65.042062" />
<polygon fill="#f7fdfd" fill-opacity="0.501961" points="81.593164,51.884104,78.812763,69.586962,59.795354,51.362010,54.837481,79.147502" />
<polygon fill="#000002" fill-opacity="0.501961" points="204.553479,2.896145,176.221225,-0.021829,173.349319,-14.078706,268.067147,0.976448" />
<polygon fill="#1f2523" fill-opacity="0.501961" points="206.199913,122.936423,183.522077,89.570955,221.515313,92.698653,204.026969,102.513035" />
<polygon fill="#2c352f" fill-opacity="0.501961" points="145.649065,63.101943,148.877498,48.520118,137.201574,44.147240,142.833213,64.095099" />
<polygon fill="#4c4f4c" fill-opacity="0.501961" points="11.399202,93.163448,21.148811,91.644705,31.848978,83.340936,22.431697,75.848785" />
<polygon fill="#576756" fill-opacity="0.501961" points="47.791534,104.755379,38.604935,92.735384,59.863979,103.026386,17.378363,120.892823" />
<polygon fill="#f9fbf9" fill-opacity="0.501961" points="46.761594,2.603347,9.220416,14.987553,2.767491,13.694444,4.427721,2.921197" />
<polygon fill="#fefefa" fill-opacity="0.501961" points="35.864186,75.463537,49.198956,98.174455,65.054351,94.054784,45.293864,77.180678" />
<polygon fill="#6d8095" fill-opacity="0.501961" points="248.411447,2.213335,253.302655,11.889273,225.272366,2.912736,239.574731,2.740735" />
<polygon fill="#a5acb6" fill-opacity="0.501961" points="207.056901,42.719255,221.834056,47.575457,221.744972,43.638012,202.607417,32.180745" />
<polygon fill="#000001" fill-opacity="0.501961" points="5.016044,191.348315,-16.000000,200.023007,167.128524,192.577845,25.380518,190.688908" />
<polygon fill="#383843" fill-opacity="0.501961" points="211.839385,164.652798,213.696763,175.178325,203.303478,161.892276,215.162452,161.812982" />
<polygon fill="#eee9ed" fill-opacity="0.501961" points="124.542819,179.861567,123.302167,179.812951,125.409032,182.073470,143.598961,173.529608" />
<polygon fill="#6f787e" fill-opacity="0.501961" points="195.062069,134.321910,165.886081,128.196057,211.080990,126.754441,211.788457,129.949696" />
<polygon fill="#d6d2d8" fill-opacity="0.501961" points="142.559697,185.490630,126.962925,186.385541,158.643500,171.566484,126.639781,180.813739" />
<polygon fill="#556176" fill-opacity="0.501961" points="108.052697,188.371821,86.574082,191.889671,80.884866,172.427961,105.288146,173.256887" />
<polygon fill="#fbfbfb" fill-opacity="0.501961" points="225.617445,148.542844,249.640152,171.812392,211.421312,182.771921,254.280574,175.785692" />
<polygon fill="#32332a" fill-opacity="0.501961" points="127.563737,16.746052,129.976632,22.625481,97.231248,13.258807,109.774536,4.765855" />
<polygon fill="#fbfcfa" fill-opacity="0.501961" points="27.310011,34.486225,10.901911,38.725535,22.313273,55.219922,33.625191,52.702012" />
<polygon fill="#fefefe" fill-opacity="0.501961" points="57.339318,135.320332,98.308615,135.582917,62.892427,183.707734,50.414669,153.179692" />
<polygon fill="#e4e2dd" fill-opacity="0.501961" points="122.882777,170.324817,124.642211,178.980051,130.837328,179.842097,127.695320,181.624814" />
<polygon fill="#f3f6f4" fill-opacity="0.501961" points="51.221543,109.159575,65.996175,104.611275,63.088552,96.493874,62.172152,102.391325" />
<polygon fill="#161e1e" fill-opacity="0.501961" points="207.884191,56.654336,224.271313,68.823139,222.110717,62.661413,201.569092,39.696958" />
<polygon fill="#3c4645" fill-opacity="0.501961" points="170.576458,113.853496,156.518310,125.726464,203.412788,121.606741,170.938298,129.822424" />
<polygon fill="#ffffff" fill-opacity="0.501961" points="171.919838,169.188212,180.541692,176.532451,172.101038,182.678298,166.694608,166.898448" />
<polygon fill="#525b4a" fill-opacity="0.501961" points="55.009969,112.581333,46.415707,107.556640,61.787377,126.317952,35.324095,139.150762" />
<polygon fill="#4f5667" fill-opacity="0.501961" points="220.881213,59.807962,225.730470,62.142591,225.714231,40.968205,210.383801,52.191818" />
<polygon fill="#37423d" fill-opacity="0.501961" points="37.122793,111.971802,46.427401,124.178363,57.117280,124.132701,18.853829,121.920076" />
<polygon fill="#bdddfd" fill-opacity="0.501961" points="59.761546,29.943984,72.167210,51.684335,82.498696,28.062574,65.557111,31.611637" />
<polygon fill="#566173" fill-opacity="0.501961" points="105.739310,107.947999,75.768945,89.893104,72.003254,70.605483,108.477983,82.227539" />
<polygon fill="#686565" fill-opacity="0.501961" points="151.211772,172.080351,133.247004,124.431066,149.485922,170.094383,160.176091,162.084276" />
<polygon fill="#909693" fill-opacity="0.501961" points="183.249920,56.915219,193.517963,75.085697,174.041470,40.344547,176.055960,50.143943" />
<polygon fill="#b2c0d9" fill-opacity="0.501961" points="48.662611,34.416396,57.504269,65.598085,55.308262,78.197900,39.590900,48.869235" />
<polygon fill="#c9d2c9" fill-opacity="0.501961" points="222.784718,136.323027,253.570424,136.764406,250.789630,149.895327,245.917851,148.394489" />
<polygon fill="#576164" fill-opacity="0.501961" points="8.101342,22.355241,83.417278,-12.577523,34.688087,8.981517,60.283997,-4.996147" />
<polygon fill="#989895" fill-opacity="0.501961" points="27.063447,190.793497,34.873483,190.115858,7.868391,110.378391,2.364356,112.793125" />
<polygon fill="#515251" fill-opacity="0.501961" points="187.684835,79.648670,185.051127,83.573844,218.613338,82.255577,215.323335,86.942186" />
<polygon fill="#ffffff" fill-opacity="0.501961" points="3.294520,146.052272,5.232183,189.264366,15.675543,173.766909,2.551051,120.587435" />
<polygon fill="#888e93" fill-opacity="0.501961" points="165.478389,109.123068,154.143101,115.899313,157.503546,123.739118,175.203404,107.415551" />
<polygon fill="#6d5d29" fill-opacity="0.501961" points="236.655248,93.357396,212.394013,108.421574,211.245218,105.261602,209.286912,114.794742" />
<polygon fill="#f1f1f2" fill-opacity="0.501961" points="164.212654,172.342051,149.322284,150.011149,149.778330,169.469523,155.556253,165.952723" />
<polygon fill="#000000" fill-opacity="0.501961" points="-16.000000,2.150197,19.869183,1.895970,40.581416,1.913380,230.952663,-16.000000" />
<polygon fill="#565656" fill-opacity="0.501961" points="172.940168,187.989759,168.473616,193.054384,169.679128,186.859186,184.029648,174.748311" />
<polygon fill="#878b95" fill-opacity="0.501961" points="193.411309,122.510208,185.723242,99.123387,176.021273,83.093818,186.622884,108.998178" />
<polygon fill="#343438" fill-opacity="0.501961" points="155.286808,151.165444,141.833014,137.293652,147.216222,173.198879,148.379280,152.879040" />
<polygon fill="#858480" fill-opacity="0.501961" points="188.495177,34.789014,175.841993,32.903504,179.502549,24.600894,163.386243,3.486275" />
<polygon fill="#a8a6b0" fill-opacity="0.501961" points="228.644875,169.595056,236.257779,173.637217,232.180382,167.431110,224.753497,167.195633" />
<polygon fill="#908d8e" fill-opacity="0.501961" points="174.588648,119.307576,199.332197,124.814705,173.919455,115.966402,193.426100,50.117673" />
<polygon fill="#3f4a5e" fill-opacity="0.501961" points="252.904054,97.451952,254.564260,129.981952,241.554462,126.116166,238.470392,97.140717" />
<polygon fill="#8c8786" fill-opacity="0.501961" points="193.689064,153.626164,216.213860,145.010241,189.149082,155.562587,189.840148,163.528948" />
<polygon fill="#26231c" fill-opacity="0.501961" points="199.184009,138.540070,204.546568,150.944055,201.171109,146.522498,223.617580,133.348260" />
<polygon fill="#656355" fill-opacity="0.501961" points="138.806623,26.821743,134.620088,9.680391,110.824165,45.245386,86.163611,12.883401" />
<polygon fill="#fffeff" fill-opacity="0.501961" points="189.847997,180.085692,179.759438,139.814561,185.761423,136.757040,189.988159,143.982336" />
<polygon fill="#000000" fill-opacity="0.501961" points="169.396900,191.057179,242.328324,191.373188,271.000000,197.152982,131.702719,191.756565" />
<polygon fill="#616b7d" fill-opacity="0.501961" points="80.828757,18.468720,59.986000,19.551501,36.340362,50.773758,50.297913,25.858690" />
<polygon fill="#f8f7e8" fill-opacity="0.501961" points="20.919105,71.599862,26.238801,72.583644,19.507575,78.582410,19.022487,78.485457" />
<polygon fill="#303741" fill-opacity="0.501961" points="128.182407,68.172626,109.317502,84.478812,92.871108,70.440167,151.888211,81.401827" />
<polygon fill="#000000" fill-opacity="0.501961" points="254.350892,-1.429222,254.569241,60.073521,271.000000,44.489977,249.839744,-16.000000" />
<polygon fill="#fbfbfd" fill-opacity="0.501961" points="148.862566,175.688030,154.198078,191.922775,152.386699,190.201358,148.114245,190.172183" />
<polygon fill="#fafafc" fill-opacity="0.501961" points="218.371152,173.962551,212.542927,168.047808,224.270684,190.184943,238.061644,172.925785" />
<polygon fill="#475569" fill-opacity="0.501961" points="237.503310,50.830980,182.084792,20.399351,185.881653,28.878722,206.751439,28.731220" />
<polygon fill="#000107" fill-opacity="0.501961" points="132.489603,2.731071,199.555436,1.110635,177.708583,-16.000000,61.559377,0.919342" />
<polygon fill="#d5b8a4" fill-opacity="0.501961" points="114.979421,56.310006,135.062935,63.244562,139.721941,38.099184,124.369194,68.094500" />
<polygon fill="#383d47" fill-opacity="0.501961" points="23.740708,61.680707,14.863004,63.216122,19.130254,54.718979,3.428174,51.812616" />
<polygon fill="#000000" fill-opacity="0.501961" points="1.629312,141.132566,1.509730,195.554368,-6.348791,-16.000000,2.156801,21.349952" />
<polygon fill="#e7e5ee" fill-opacity="0.501961" points="173.793834,187.651119,178.967001,181.718879,185.300037,179.405665,189.610506,181.648071" />
<polygon fill="#95a5b2" fill-opacity="0.501961" points="61.647537,46.413198,45.496272,45.885993,57.166407,23.666429,59.800607,38.258054" />
<polygon fill="#37333b" fill-opacity="0.501961" points="208.064647,157.259398,205.201358,163.200925,207.391123,166.762425,216.520140,165.941533" />
<polygon fill="#302728" fill-opacity="0.501961" points="122.287976,182.333777,131.667088,181.894532,112.149490,201.121050,115.111669,200.908212" />
<polygon fill="#7a8188" fill-opacity="0.501961" points="58.925918,14.396225,28.506592,23.015704,29.168963,30.966363,-1.032967,38.606993" />
<polygon fill="#f3f1fb" fill-opacity="0.501961" points="119.962101,145.016095,130.895231,160.649446,137.305665,186.434139,127.310719,161.407966" />
<polygon fill="#b9c0cb" fill-opacity="0.501961" points="11.811907,58.887860,8.071351,52.440621,7.004380,61.175825,5.060064,57.284832" />
<polygon fill="#0a2536" fill-opacity="0.501961" points="147.318052,16.254246,118.638159,-16.000000,112.687469,-14.189362,144.751414,8.582352" />
<polygon fill="#b7b3a3" fill-opacity="0.501961" points="140.331528,34.538767,173.078598,29.244895,146.004371,39.983163,138.765882,16.704730" />
<polygon fill="#657089" fill-opacity="0.501961" points="241.913582,111.490925,224.600776,112.449851,224.004146,117.600723,236.428716,117.906843" />
<polygon fill="#2e3832" fill-opacity="0.501961" points="184.035572,53.845407,164.001623,55.781298,153.925749,43.269501,178.890568,63.023204" />
<polygon fill="#758e94" fill-opacity="0.501961" points="153.637443,12.534967,149.634254,14.507234,141.705527,3.911611,150.946182,10.079365" />
<polygon fill="#f9fdf9" fill-opacity="0.501961" points="70.305167,178.905202,62.818803,183.459420,82.112949,190.295849,83.900877,182.197940" />
<polygon fill="#52544c" fill-opacity="0.501961" points="102.071086,4.195164,94.797845,46.169051,91.196518,22.697792,116.027636,26.640212" />
<polygon fill="#555459" fill-opacity="0.501961" points="242.559517,155.096693,245.179211,154.549740,254.170071,164.541281,241.694050,154.999487" />
<polygon fill="#fcfcfc" fill-opacity="0.501961" points="58.466053,173.441241,71.392436,104.005757,101.323517,107.070789,51.334897,150.375057" />
<polygon fill="#fde4d7" fill-opacity="0.501961" points="180.268555,85.987228,187.830913,73.789070,193.482451,46.258012,175.383109,75.087982" />
<polygon fill="#fbfdfa" fill-opacity="0.501961" points="224.085616,144.982059,213.690848,168.810948,251.551353,148.826156,213.105718,149.678782" />
<polygon fill="#4a5f6b" fill-opacity="0.501961" points="73.826574,12.330284,75.518851,12.141520,94.888993,6.573969,84.095010,1.817749" />
<polygon fill="#687695" fill-opacity="0.501961" points="254.269605,47.972709,186.830267,12.708645,248.340315,55.837151,252.937282,67.244106" />
<polygon fill="#000000" fill-opacity="0.501961" points="252.360897,208.000000,254.186056,166.355980,254.516034,66.743499,271.000000,121.536110" />
<polygon fill="#1b2223" fill-opacity="0.501961" points="242.982952,82.002114,248.490373,68.157114,221.516862,52.409040,228.466976,50.729635" />
<polygon fill="#383648" fill-opacity="0.501961" points="125.404526,145.432770,134.133624,153.761043,132.387554,153.745757,126.272179,151.372795" />
<polygon fill="#4b4530" fill-opacity="0.501961" points="97.957433,65.232434,85.621547,49.424638,107.943960,59.655623,109.791805,66.999633" />
<polygon fill="#ab9a97" fill-opacity="0.501961" points="186.936600,74.051936,202.967740,40.716962,197.067983,62.533746,195.111072,63.446038" />
<polygon fill="#323a39" fill-opacity="0.501961" points="163.080233,132.272311,216.365405,75.773863,185.420321,108.114376,179.643664,107.116860" />
<polygon fill="#4f504e" fill-opacity="0.501961" points="120.531070,161.931445,124.900273,174.770148,129.267749,164.459054,108.201568,144.654299" />
<polygon fill="#4a4442" fill-opacity="0.501961" points="151.391601,103.562202,214.885656,78.812877,141.112045,105.767860,161.625361,113.777151" />
<polygon fill="#727975" fill-opacity="0.501961" points="134.620021,67.696988,137.062042,61.254310,154.851687,73.383238,149.304961,61.416889" />
<polygon fill="#9dadb1" fill-opacity="0.501961" points="100.717358,1.844380,79.961154,11.861719,86.808304,15.549227,87.819685,13.632837" />
<polygon fill="#cdcbce" fill-opacity="0.501961" points="20.449282,64.266931,14.862900,79.274139,13.960262,79.365766,18.271235,62.336020" />
<polygon fill="#404241" fill-opacity="0.501961" points="9.350583,108.563029,44.224194,97.917968,18.644022,113.881298,11.326062,114.571124" />
<polygon fill="#cfcdc7" fill-opacity="0.501961" points="145.269519,31.951612,176.814155,22.526863,137.481817,29.003292,141.300295,37.507359" />
<polygon fill="#7e8380" fill-opacity="0.501961" points="82.836570,43.888909,79.893325,11.733462,90.364789,23.618966,92.274657,51.137739" />
<polygon fill="#737c98" fill-opacity="0.501961" points="90.591372,163.912506,93.126666,181.687905,78.422782,177.444228,83.395070,167.431519" />
<polygon fill="#f3f6f1" fill-opacity="0.501961" points="139.853353,150.952593,131.468317,166.918229,130.098113,153.340832,142.213632,160.352041" />
<polygon fill="#babdb1" fill-opacity="0.501961" points="35.670728,104.832370,36.981251,107.858823,26.346391,117.511911,57.861449,83.479146" />
<polygon fill="#fdfffd" fill-opacity="0.501961" points="168.699565,145.544688,145.867648,137.122574,140.530279,122.431115,173.704153,138.823620" />
<polygon fill="#e1e1e8" fill-opacity="0.501961" points="167.654491,168.791195,185.403434,181.259556,160.451672,158.429276,160.235842,159.475847" />
<polygon fill="#262429" fill-opacity="0.501961" points="150.408598,208.000000,144.985863,181.636559,131.113724,208.000000,132.865174,183.405947" />
<polygon fill="#514e66" fill-opacity="0.501961" points="215.399054,173.242135,223.972034,168.107038,221.368376,173.316424,210.083114,172.015470" />
<polygon fill="#5d7083" fill-opacity="0.501961" points="99.492392,2.237271,116.737344,3.524352,143.367919,18.351320,134.245331,2.567868" />
<polygon fill="#2c2f2b" fill-opacity="0.501961" points="151.049958,78.514238,160.921183,77.324921,160.646034,63.013992,155.250026,70.330267" />
<polygon fill="#7a7883" fill-opacity="0.501961" points="190.096136,179.847971,149.852039,151.666279,173.333928,165.352923,179.055975,176.745010" />
<polygon fill="#576162" fill-opacity="0.501961" points="189.466689,45.463692,186.662430,50.770045,133.221708,41.625104,164.194020,51.901539" />
<polygon fill="#edfdfb" fill-opacity="0.501961" points="87.328328,53.368818,58.278117,49.201776,70.509303,71.549140,74.372583,32.309587" />
<polygon fill="#383840" fill-opacity="0.501961" points="138.915363,181.516200,162.070486,208.000000,145.659702,188.577588,143.103906,178.516716" />
<polygon fill="#7b91a6" fill-opacity="0.501961" points="174.128592,11.732814,159.003237,0.255976,198.389977,19.360014,194.033164,27.941175" />
<polygon fill="#675b52" fill-opacity="0.501961" points="197.855236,153.728357,217.112937,166.115775,206.493232,154.496735,231.683106,124.143208" />
<polygon fill="#fffffb" fill-opacity="0.501961" points="208.046200,153.384209,219.636411,146.654248,243.570502,163.928472,222.246306,167.006002" />
<polygon fill="#7c8087" fill-opacity="0.501961" points="28.238621,99.297856,28.008430,89.790678,18.394356,96.349285,29.561846,99.316224" />
<polygon fill="#9bb3be" fill-opacity="0.501961" points="83.782396,15.906319,62.721792,3.598205,61.150456,10.772611,69.050639,9.369683" />
<polygon fill="#26271a" fill-opacity="0.501961" points="249.907396,81.425324,219.755596,119.161703,207.458586,124.746099,202.007653,122.604707" />
<polygon fill="#1a2424" fill-opacity="0.501961" points="173.084096,45.616310,174.576870,45.876900,166.064515,35.884730,151.096522,43.474193" />
<polygon fill="#716867" fill-opacity="0.501961" points="22.877493,123.954160,47.981166,148.683076,54.810101,140.664676,28.421487,137.976374" />
<polygon fill="#5a626f" fill-opacity="0.501961" points="56.959250,99.590662,53.038946,101.189681,114.477861,85.870619,107.055402,106.592282" />
<polygon fill="#020205" fill-opacity="0.501961" points="248.985639,137.214450,271.000000,131.853768,253.858376,208.000000,254.411909,138.065864" />
<polygon fill="#eaebea" fill-opacity="0.501961" points="130.122052,128.485884,111.885701,148.530961,118.882936,130.556651,120.011595,124.532066" />
<polygon fill="#fdfdfd" fill-opacity="0.501961" points="16.273358,189.903041,3.250139,189.147528,2.645957,163.230212,4.973050,122.553878" />
<polygon fill="#6a5d4f" fill-opacity="0.501961" points="85.095715,55.363102,126.531577,53.206727,133.551534,56.078140,127.481008,37.722401" />
<polygon fill="#ffffff" fill-opacity="0.501961" points="66.840612,114.754836,121.302955,117.123588,114.467331,141.508074,109.286882,141.211885" />
<polygon fill="#494846" fill-opacity="0.501961" points="5.294138,64.835099,10.408719,72.271542,20.414754,59.848120,14.884529,64.858434" />
<polygon fill="#fcfdf7" fill-opacity="0.501961" points="166.276724,94.230544,152.658756,98.832253,165.879842,80.124698,177.775790,87.835640" />
<polygon fill="#7687a8" fill-opacity="0.501961" points="247.016835,133.645328,253.929208,126.898468,249.493737,127.255991,237.093863,129.047792" />
<polygon fill="#b3bec7" fill-opacity="0.501961" points="252.463766,3.451928,248.076774,1.304137,250.003906,2.609271,239.025513,4.618902" />
<polygon fill="#24201d" fill-opacity="0.501961" points="177.805654,90.733075,176.820605,101.508003,168.277019,96.490842,174.211521,93.426567" />
<polygon fill="#c8d1e0" fill-opacity="0.501961" points="73.701261,73.511393,90.238698,54.184108,49.349045,86.106187,73.941199,76.887312" />
<polygon fill="#f8fcff" fill-opacity="0.501961" points="29.299898,84.809609,38.001587,93.830859,42.604543,100.199139,29.641053,95.387446" />
<polygon fill="#929194" fill-opacity="0.501961" points="24.113385,62.348271,45.513481,96.326082,38.426832,93.772616,23.069122,64.921805" />
<polygon fill="#343732" fill-opacity="0.501961" points="17.080691,58.069799,8.563854,45.346717,-12.714299,50.556175,15.212076,44.298394" />
<polygon fill="#000000" fill-opacity="0.501961" points="37.887800,1.916408,-16.000000,1.941650,161.745660,-16.000000,107.941624,1.881441" />
<polygon fill="#8a96a1" fill-opacity="0.501961" points="22.122572,18.439587,70.729498,2.299526,35.606600,40.874844,3.337619,24.463248" />
<polygon fill="#919aa0" fill-opacity="0.501961" points="61.838504,92.660440,70.018170,84.080164,77.798732,90.243538,72.938378,101.182333" />
<polygon fill="#8d8273" fill-opacity="0.501961" points="123.744827,42.931068,114.001641,37.725790,116.049891,31.669898,122.492895,36.006671" />
<polygon fill="#63666b" fill-opacity="0.501961" points="96.529208,65.679979,174.036845,141.015599,169.257113,123.116405,179.223264,146.584095" />
<polygon fill="#585359" fill-opacity="0.501961" points="216.002768,177.890420,215.801333,175.535601,203.511481,145.655252,212.029722,175.750141" />
<polygon fill="#5c686d" fill-opacity="0.501961" points="216.651384,67.772668,202.658773,61.980955,205.985079,52.964919,204.117528,56.600582" />
<polygon fill="#797a80" fill-opacity="0.501961" points="169.542236,179.352568,160.338699,159.142282,144.829880,144.400208,164.666186,165.254784" />
<polygon fill="#546068" fill-opacity="0.501961" points="20.300381,20.458761,21.861123,19.940026,19.408781,22.178734,68.738623,-2.836974" />
<polygon fill="#909597" fill-opacity="0.501961" points="233.993765,115.120342,234.529599,111.339853,223.240098,139.658416,227.380983,116.298181" />
<polygon fill="#dfd0c3" fill-opacity="0.501961" points="112.480029,70.000796,97.789318,68.159653,126.576522,65.367250,120.447386,69.747306" />
<polygon fill="#434b4b" fill-opacity="0.501961" points="224.332586,118.498657,225.454623,120.254467,203.632813,126.486891,232.249110,127.724548" />
<polygon fill="#404741" fill-opacity="0.501961" points="45.656247,106.354205,12.291924,101.487093,39.002909,144.707273,25.106383,111.186371" />
<polygon fill="#495a68" fill-opacity="0.501961" points="210.982196,25.344469,253.999800,28.133412,214.524409,1.764564,184.329655,2.615071" />
<polygon fill="#fafbf9" fill-opacity="0.501961" points="136.728863,122.154410,156.411865,126.243601,187.875293,175.929030,157.216057,151.609030" />
<polygon fill="#787f90" fill-opacity="0.501961" points="253.522917,145.366553,253.402874,148.295796,241.976813,145.136022,246.550985,144.657833" />
<polygon fill="#4a4f57" fill-opacity="0.501961" points="82.623924,67.263152,152.360337,82.542859,106.234812,109.887359,123.361350,71.971019" />
<polygon fill="#4f5b6c" fill-opacity="0.501961" points="106.317927,191.692295,87.413504,187.162945,83.029140,187.548606,104.359422,160.943582" />
<polygon fill="#fdfdfc" fill-opacity="0.501961" points="158.784950,163.175128,167.414292,179.918950,160.195878,186.455059,156.783953,176.376402" />
<polygon fill="#f7f6f6" fill-opacity="0.501961" points="246.721525,163.434737,254.415537,177.755494,235.428495,170.644611,253.624760,172.571822" />
<polygon fill="#7f847b" fill-opacity="0.501961" points="247.794354,65.417313,243.655246,64.414575,253.596271,69.692677,251.025083,55.145949" />
<polygon fill="#fcfcfc" fill-opacity="0.501961" points="85.754266,163.125448,67.501103,188.262576,49.844038,159.139202,64.369486,117.068185" />
<polygon fill="#eef1ea" fill-opacity="0.501961" points="51.809713,107.675907,64.585643,102.518498,65.186158,106.275082,57.243067,110.617397" />
<polygon fill="#000000" fill-opacity="0.501961" points="-8.501606,191.092272,70.247539,191.328853,172.522000,191.000116,126.369801,208.000000" />
<polygon fill="#4e5948" fill-opacity="0.501961" points="57.871678,128.490652,41.547480,129.625041,59.056582,112.167222,44.616826,97.927277" />
<polygon fill="#212522" fill-opacity="0.501961" points="194.275683,83.734624,214.421097,107.877912,250.007110,67.211624,194.283784,107.285008" />
</g>
</svg>