<svg xmlns="http://www.w3.org/2000/svg" version="1.1" width="640" height="362">
<rect x="0" y="0" width="640" height="362" fill="#28271c" />
<g transform="scale(2.500000) translate(0.5 0.5)">
<polygon fill="#e5ffff" fill-opacity="0.501961" points="88.339394,52.652195,87.536334,3.963675,100.403280,12.658408,116.111053,95.419673" />
<polygon fill="#ffffca" fill-opacity="0.501961" points="34.971298,3.405925,19.058593,71.850436,7.808053,57.789942,5.181368,10.326782" />
<polygon fill="#ffffff" fill-opacity="0.501961" points="182.713500,6.601805,169.287101,3.134964,170.812516,37.543599,173.380975,45.243316" />
<polygon fill="#caa75b" fill-opacity="0.501961" points="36.616766,72.427329,63.633160,98.652784,21.606037,112.426125,24.619219,53.219740" />
<polygon fill="#ebecf6" fill-opacity="0.501961" points="239.467520,59.967706,238.106245,50.380492,245.316154,111.877205,250.739490,56.704594" />
<polygon fill="#9e9fa9" fill-opacity="0.501961" points="176.142359,89.670834,226.499312,78.174697,194.076815,96.612211,170.696589,13.196430" />
<polygon fill="#000000" fill-opacity="0.501961" points="269.853461,151.513145,117.496267,160.000000,81.023613,90.732656,271.000000,90.339845" />
<polygon fill="#537572" fill-opacity="0.501961" points="102.256306,-16.000000,117.590535,66.628919,145.300368,89.420794,98.129985,94.269653" />
<polygon fill="#000000" fill-opacity="0.501961" points="271.000000,2.659776,256.822920,56.134235,164.605777,63.325249,208.211331,-16.000000" />
<polygon fill="#000000" fill-opacity="0.501961" points="183.974995,-16.000000,118.099819,-16.000000,95.508668,64.255512,137.638189,77.489365" />
<polygon fill="#ffffff" fill-opacity="0.501961" points="87.464923,44.254784,97.067166,58.359302,103.371655,7.597689,88.886790,7.830503" />
<polygon fill="#aacfe8" fill-opacity="0.501961" points="86.542551,105.777066,107.723332,140.326954,93.173443,136.384645,89.386140,124.190822" />
<polygon fill="#ffffe5" fill-opacity="0.501961" points="17.674329,69.793593,6.289025,51.300402,6.868708,21.445234,19.297542,26.140661" />
<polygon fill="#fff7b9" fill-opacity="0.501961" points="20.928954,138.974725,8.673119,117.728372,7.769577,114.064490,6.823148,133.807335" />
<polygon fill="#cdcdd3" fill-opacity="0.501961" points="181.357679,132.109391,174.260727,116.362319,168.085172,112.436633,171.403254,132.449198" />
<polygon fill="#b0904a" fill-opacity="0.501961" points="69.931337,57.874908,81.840843,57.632294,78.570241,71.069435,51.553274,104.973144" />
<polygon fill="#201400" fill-opacity="0.501961" points="42.266001,-16.000000,19.372101,77.313828,21.039593,28.764926,104.416554,71.959935" />
<polygon fill="#93b6cf" fill-opacity="0.501961" points="107.298883,42.654039,115.109781,48.950716,105.524969,96.038094,99.714863,87.592626" />
<polygon fill="#8dab95" fill-opacity="0.501961" points="163.091155,77.276933,152.389115,49.378053,137.123211,87.806434,164.240668,42.476545" />
<polygon fill="#949498" fill-opacity="0.501961" points="178.914459,85.133980,179.477261,42.744089,188.538161,36.696851,192.769852,56.707014" />
<polygon fill="#dac9d0" fill-opacity="0.501961" points="123.719260,89.184242,136.317909,91.439601,134.439013,79.178937,110.778819,88.068547" />
<polygon fill="#f9fafe" fill-opacity="0.501961" points="248.337687,58.018298,224.844098,65.222450,236.802589,57.146713,248.165793,75.564034" />
<polygon fill="#000000" fill-opacity="0.501961" points="36.269868,8.295126,127.948717,5.831975,39.070385,-16.000000,21.763904,5.122883" />
<polygon fill="#f9e1bd" fill-opacity="0.501961" points="21.312006,96.400991,54.231331,97.901927,37.586963,101.689349,26.630393,77.739778" />
<polygon fill="#020000" fill-opacity="0.501961" points="99.327861,140.328807,75.716897,106.604372,-16.000000,158.205096,260.351516,138.539228" />
<polygon fill="#302500" fill-opacity="0.501961" points="44.044458,98.535792,87.623148,32.813422,32.084282,-5.513778,33.636792,91.615518" />
<polygon fill="#000000" fill-opacity="0.501961" points="252.618114,-16.000000,217.647426,88.205355,212.536959,79.295266,188.034132,-16.000000" />
<polygon fill="#000000" fill-opacity="0.501961" points="167.278369,48.345690,170.725360,-7.630011,97.677041,-16.000000,137.970903,53.005727" />
<polygon fill="#000000" fill-opacity="0.501961" points="84.677386,160.000000,89.098444,104.334722,85.971618,-2.281360,73.754193,150.148758" />
<polygon fill="#dff9e5" fill-opacity="0.501961" points="88.493193,34.300311,97.381924,48.110493,104.106633,5.158067,113.162389,10.730079" />
<polygon fill="#000000" fill-opacity="0.501961" points="4.873437,160.000000,7.971273,-16.000000,-16.000000,-6.519109,-13.123891,128.924768" />
<polygon fill="#000000" fill-opacity="0.501961" points="169.217633,77.109992,84.804528,104.563531,162.877998,160.000000,172.444011,99.015010" />
<polygon fill="#453400" fill-opacity="0.501961" points="78.087450,136.163045,80.938389,63.515372,29.804452,132.406375,38.561195,137.571466" />
<polygon fill="#9a9a9f" fill-opacity="0.501961" points="199.336275,90.517791,210.223771,70.908582,214.197301,95.801176,173.706086,67.341906" />
<polygon fill="#000000" fill-opacity="0.501961" points="271.000000,130.376325,183.070740,83.042822,180.223958,160.000000,262.478142,158.385128" />
<polygon fill="#000501" fill-opacity="0.501961" points="167.692419,20.509381,122.658334,83.430070,100.364412,58.730875,68.012625,90.765595" />
<polygon fill="#ffeecf" fill-opacity="0.501961" points="30.044648,30.353863,31.666264,18.756564,32.160386,5.714760,22.415844,7.423011" />
<polygon fill="#e0e1e4" fill-opacity="0.501961" points="175.735131,52.321818,170.185864,39.313785,170.771786,9.755237,177.193613,8.714843" />
<polygon fill="#000000" fill-opacity="0.501961" points="82.582512,-10.775045,117.112286,42.010071,98.494703,6.703322,271.000000,5.102744" />
<polygon fill="#ffffff" fill-opacity="0.501961" points="243.288120,83.680714,251.050297,58.880905,251.879262,60.141985,240.862840,62.554193" />
<polygon fill="#656569" fill-opacity="0.501961" points="233.888174,123.379888,242.211641,100.304337,248.819057,61.686703,249.903212,104.837027" />
<polygon fill="#c1d6e7" fill-opacity="0.501961" points="103.674556,135.147440,92.570755,117.382049,87.840461,118.863166,98.185898,139.017053" />
<polygon fill="#e8d2b0" fill-opacity="0.501961" points="41.543268,104.194269,57.190624,98.289795,53.322010,88.175664,50.205695,92.249138" />
<polygon fill="#bdbdc3" fill-opacity="0.501961" points="245.822398,-14.121298,248.533234,4.428146,242.217616,14.878985,249.593788,8.807290" />
<polygon fill="#4e3700" fill-opacity="0.501961" points="-9.971138,-16.000000,23.486804,32.630549,15.944079,58.465909,50.427117,58.433752" />
<polygon fill="#000d00" fill-opacity="0.501961" points="96.762729,81.965374,102.075488,27.156701,222.479336,64.475789,108.395925,24.144474" />
<polygon fill="#e0dbd7" fill-opacity="0.501961" points="99.614337,32.740108,86.563074,43.621177,112.670773,74.779760,100.898695,85.192453" />
<polygon fill="#d3af66" fill-opacity="0.501961" points="8.680974,102.187167,9.903079,93.104283,10.741265,89.769220,17.254268,91.514575" />
<polygon fill="#c9d2b1" fill-opacity="0.501961" points="152.787974,50.914664,162.600967,56.170582,157.638701,53.622583,145.476934,61.467324" />
<polygon fill="#358ba8" fill-opacity="0.501961" points="98.594253,49.415637,108.119177,41.671501,108.748828,40.694640,120.240432,72.258974" />
<polygon fill="#ffe3bf" fill-opacity="0.501961" points="6.661696,31.713807,6.662714,52.564705,20.036514,76.145350,17.500596,38.530962" />
<polygon fill="#000000" fill-opacity="0.501961" points="267.534444,-15.901584,247.705588,14.550989,249.995583,69.423396,252.074505,160.000000" />
<polygon fill="#000001" fill-opacity="0.501961" points="80.897042,26.653253,80.095803,85.821180,105.829182,63.873431,95.248198,59.639661" />
<polygon fill="#000000" fill-opacity="0.501961" points="216.596885,160.000000,113.349912,89.267827,117.520839,138.138151,-16.000000,138.669278" />
<polygon fill="#000000" fill-opacity="0.501961" points="133.402425,7.879073,26.509886,-16.000000,-10.327653,7.474376,74.536747,5.395212" />
<polygon fill="#000001" fill-opacity="0.501961" points="252.250648,39.809550,193.148384,160.000000,245.745754,89.855730,234.692384,67.355318" />
<polygon fill="#000005" fill-opacity="0.501961" points="160.711235,30.017884,166.541056,78.011119,180.501402,59.907651,207.637384,84.976239" />
<polygon fill="#91929a" fill-opacity="0.501961" points="168.662746,9.424073,185.433721,15.403487,191.407948,16.701393,194.205031,5.814648" />
<polygon fill="#edcca4" fill-opacity="0.501961" points="10.012036,124.186638,5.430853,122.716790,12.459645,137.438009,21.846245,136.072750" />
<polygon fill="#c3c3c2" fill-opacity="0.501961" points="175.434349,62.619867,175.137094,73.793222,187.868090,73.517729,185.499244,63.395101" />
<polygon fill="#000000" fill-opacity="0.501961" points="23.845309,160.000000,5.375738,127.104972,6.423501,-16.000000,-16.000000,135.390429" />
<polygon fill="#372900" fill-opacity="0.501961" points="22.571845,139.222682,14.625886,127.892841,-0.974907,103.878619,78.376014,103.486549" />
<polygon fill="#d0c2a2" fill-opacity="0.501961" points="80.181648,76.583023,79.105119,58.827858,66.136912,67.020604,73.955759,55.936088" />
<polygon fill="#f0fffe" fill-opacity="0.501961" points="90.973661,44.086499,98.161534,63.360267,100.312967,27.895111,87.704945,18.137900" />
<polygon fill="#585962" fill-opacity="0.501961" points="220.893556,72.363820,237.757543,52.356329,221.338639,99.369478,218.102672,87.760389" />
<polygon fill="#9d9da9" fill-opacity="0.501961" points="86.365461,83.796353,89.450387,77.239915,129.827707,89.733001,105.929788,75.960128" />
<polygon fill="#50745b" fill-opacity="0.501961" points="154.040943,110.729727,162.539760,97.571300,163.993504,104.301759,163.600006,110.131178" />
<polygon fill="#000000" fill-opacity="0.501961" points="270.127960,34.019748,191.863087,-12.137104,215.197102,88.645732,224.961523,63.393881" />
<polygon fill="#a3a2a2" fill-opacity="0.501961" points="132.671141,73.790679,125.577042,68.311172,136.727126,90.739434,120.937831,90.367401" />
<polygon fill="#000000" fill-opacity="0.501961" points="88.383283,-6.915386,83.186361,-16.000000,78.404845,44.619182,86.907304,43.150607" />
<polygon fill="#577b5a" fill-opacity="0.501961" points="91.552306,5.356153,104.090860,24.504824,119.813055,25.050803,110.707507,13.167308" />
<polygon fill="#e3e7e5" fill-opacity="0.501961" points="162.362551,47.809524,163.693128,77.639154,160.596057,67.354089,162.512672,60.171590" />
<polygon fill="#010e01" fill-opacity="0.501961" points="123.944913,95.531301,71.356734,88.362381,121.998814,157.441995,108.228980,81.590862" />
<polygon fill="#4f6f4d" fill-opacity="0.501961" points="157.148172,51.275185,141.067135,99.969530,140.322073,101.764887,141.261656,64.666465" />
<polygon fill="#3c2c00" fill-opacity="0.501961" points="15.300149,93.594225,51.317501,57.341377,43.547668,97.836144,19.606499,69.201755" />
<polygon fill="#000000" fill-opacity="0.501961" points="234.792289,150.412279,155.963057,68.211738,146.419196,75.221808,203.115778,160.000000" />
<polygon fill="#031904" fill-opacity="0.501961" points="112.592625,70.539823,112.054552,78.906428,126.022018,85.241142,130.433139,61.690269" />
<polygon fill="#b89c65" fill-opacity="0.501961" points="48.633523,93.684787,49.011800,91.161011,51.190056,79.428499,45.615789,80.576937" />
<polygon fill="#e0cdab" fill-opacity="0.501961" points="31.686142,93.645481,35.720923,99.950360,30.567185,81.709509,20.020687,85.133397" />
<polygon fill="#ffdee8" fill-opacity="0.501961" points="131.958438,80.150563,151.405811,101.978442,136.795295,85.575996,122.509691,89.374314" />
<polygon fill="#98773d" fill-opacity="0.501961" points="25.922430,39.899783,39.392614,41.486994,8.861669,6.072585,23.087041,6.742119" />
<polygon fill="#ddbb93" fill-opacity="0.501961" points="7.589788,42.331927,18.058312,39.132437,23.413421,34.145975,6.237440,7.606467" />
<polygon fill="#9f8b56" fill-opacity="0.501961" points="75.939380,15.962357,76.617967,5.153245,80.556438,6.099306,78.721571,13.177022" />
<polygon fill="#dfdfe0" fill-opacity="0.501961" points="241.058654,70.152837,244.945932,94.048450,244.459383,78.716627,246.915487,47.291840" />
<polygon fill="#c2aa80" fill-opacity="0.501961" points="28.151121,59.692978,33.927883,62.574461,26.814239,98.339655,32.477189,101.544054" />
<polygon fill="#302700" fill-opacity="0.501961" points="19.424089,34.579334,58.156621,95.171398,78.167866,12.264283,19.140305,66.112711" />
<polygon fill="#aaaaab" fill-opacity="0.501961" points="172.832269,116.026000,169.978311,122.626758,179.215449,131.597900,183.499994,133.995065" />
<polygon fill="#b4b4b6" fill-opacity="0.501961" points="168.830147,5.201955,169.943706,38.710767,180.195385,18.173186,184.002051,10.252456" />
<polygon fill="#000000" fill-opacity="0.501961" points="118.087446,11.540194,136.398572,81.361123,155.713320,30.811282,134.856252,-16.000000" />
<polygon fill="#6c6c73" fill-opacity="0.501961" points="204.967583,96.388992,205.799456,62.690135,210.929427,71.431690,204.190631,90.707974" />
<polygon fill="#000000" fill-opacity="0.501961" points="250.863107,-16.000000,250.941348,77.689986,243.754087,76.835731,271.000000,119.188687" />
<polygon fill="#24252b" fill-opacity="0.501961" points="185.160164,10.059720,177.378829,22.585761,176.214421,44.831514,204.055430,27.613950" />
<polygon fill="#000000" fill-opacity="0.501961" points="219.450138,-7.963873,198.492096,69.145503,234.462617,56.687434,251.971891,55.998457" />
<polygon fill="#83682f" fill-opacity="0.501961" points="60.019438,95.814823,61.224346,106.136221,68.979546,90.924778,63.280612,69.855784" />
<polygon fill="#9e9e9f" fill-opacity="0.501961" points="207.469968,78.410020,218.246017,90.031143,188.857527,83.653749,203.317174,89.501783" />
<polygon fill="#97a29d" fill-opacity="0.501961" points="156.523832,57.669377,165.421223,42.800009,159.308558,60.471994,156.681326,56.381680" />
<polygon fill="#4d4d50" fill-opacity="0.501961" points="170.291834,89.342501,215.933955,94.204396,175.357526,75.472245,175.134950,62.461753" />
<polygon fill="#000000" fill-opacity="0.501961" points="271.000000,6.215324,171.162798,-16.000000,104.692734,19.833621,159.670869,6.301286" />
<polygon fill="#182f1a" fill-opacity="0.501961" points="161.118430,64.948377,153.819593,69.427516,165.276040,53.466774,143.047148,64.496465" />
<polygon fill="#a2baa5" fill-opacity="0.501961" points="88.950807,53.285393,108.610555,13.405012,105.724794,7.736670,113.043580,4.543435" />
<polygon fill="#001101" fill-opacity="0.501961" points="99.254816,53.661003,103.395809,57.157482,80.569678,133.063667,97.934360,63.839877" />
<polygon fill="#000002" fill-opacity="0.501961" points="252.559922,107.307592,220.761881,111.837987,165.432888,160.000000,207.136824,90.018636" />
<polygon fill="#5c5c5f" fill-opacity="0.501961" points="248.266513,107.600279,235.091509,115.252437,233.043052,119.027387,250.414676,112.173507" />
<polygon fill="#564207" fill-opacity="0.501961" points="12.556279,88.341434,23.696827,55.266838,24.361342,123.137490,21.186047,139.886318" />
<polygon fill="#e4f1ea" fill-opacity="0.501961" points="94.837979,58.730176,98.381917,58.180425,95.697380,15.982899,87.952098,45.039873" />
<polygon fill="#dcdcdd" fill-opacity="0.501961" points="236.001900,56.427274,244.234988,77.708810,250.881681,65.666293,229.609582,59.715353" />
<polygon fill="#000000" fill-opacity="0.501961" points="167.538090,-4.574488,171.412249,108.187142,165.247521,97.185623,163.153130,60.659435" />
<polygon fill="#3f3003" fill-opacity="0.501961" points="66.621884,-0.103898,82.444739,88.911432,67.847973,67.458734,76.218420,63.306732" />
<polygon fill="#ffffee" fill-opacity="0.501961" points="28.098354,21.269302,23.706250,7.286242,30.348189,7.182256,31.817860,16.347491" />
<polygon fill="#fbe8c9" fill-opacity="0.501961" points="7.383940,38.043527,13.279107,64.573277,17.860638,58.525397,19.676537,32.765981" />
<polygon fill="#000602" fill-opacity="0.501961" points="114.953635,60.882882,111.087132,45.185451,166.633566,48.026770,171.127782,-5.730678" />
<polygon fill="#000000" fill-opacity="0.501961" points="6.968784,5.451224,172.374310,7.295846,-16.000000,-15.970879,3.014122,160.000000" />
<polygon fill="#06060a" fill-opacity="0.501961" points="268.790630,2.565864,214.569141,82.701519,182.795601,62.238521,200.016639,85.334397" />
<polygon fill="#000000" fill-opacity="0.501961" points="-16.000000,140.812877,172.149671,160.000000,106.877850,94.437012,105.588222,140.155760" />
<polygon fill="#091c01" fill-opacity="0.501961" points="102.334165,47.346990,117.717264,-6.087934,110.705175,23.193923,100.135929,30.359006" />
<polygon fill="#a48c5e" fill-opacity="0.501961" points="26.745234,109.770842,21.220974,88.633273,23.261471,82.353925,31.161020,109.589024" />
<polygon fill="#b3bbb7" fill-opacity="0.501961" points="160.330481,66.986609,157.873196,56.427681,162.420991,48.500106,163.522705,77.930606" />
<polygon fill="#295452" fill-opacity="0.501961" points="119.225697,62.742678,119.362063,74.061062,100.577353,46.064180,102.863107,66.668956" />
<polygon fill="#7c7c7c" fill-opacity="0.501961" points="242.891146,99.592456,246.277891,72.285914,248.020522,100.547191,242.370880,106.190559" />
<polygon fill="#000000" fill-opacity="0.501961" points="168.320635,49.652537,154.361396,61.705489,176.247068,52.326802,90.880239,-10.073704" />
<polygon fill="#000000" fill-opacity="0.501961" points="77.722960,94.563578,79.028216,89.154422,87.350454,5.222601,88.054284,151.884065" />
<polygon fill="#888889" fill-opacity="0.501961" points="172.394221,132.927231,182.316502,134.977926,169.659480,115.323898,170.896257,105.812403" />
<polygon fill="#000002" fill-opacity="0.501961" points="139.716777,160.000000,233.587577,151.809834,241.224021,58.348312,217.893136,109.010045" />
<polygon fill="#5e87b3" fill-opacity="0.501961" points="91.814711,81.111206,90.476736,73.734897,86.736998,88.605406,92.380865,82.369303" />
<polygon fill="#2d2500" fill-opacity="0.501961" points="21.841261,114.010046,79.233244,94.095080,81.077506,133.739346,24.869188,137.927181" />
<polygon fill="#b0955f" fill-opacity="0.501961" points="6.776936,99.823479,13.673679,87.633418,14.435397,89.549897,14.501388,100.026143" />
<polygon fill="#a8b0c9" fill-opacity="0.501961" points="105.264910,135.004602,87.178547,125.579427,89.011971,115.819627,103.078435,138.899811" />
<polygon fill="#4aa1da" fill-opacity="0.501961" points="106.972788,41.689455,105.123584,47.418229,111.451396,55.653966,113.216195,47.342975" />
<polygon fill="#271b00" fill-opacity="0.501961" points="5.216306,77.471694,5.845575,59.063230,23.633155,78.498602,20.227687,95.333120" />
<polygon fill="#777678" fill-opacity="0.501961" points="181.404895,50.387410,189.870729,54.677357,189.228926,39.915879,181.521114,38.109101" />
<polygon fill="#213517" fill-opacity="0.501961" points="102.725188,79.434551,100.891674,123.812803,86.094887,97.220291,93.299920,102.762420" />
<polygon fill="#2e503d" fill-opacity="0.501961" points="116.469237,56.079041,114.148100,53.603788,88.759034,-16.000000,111.355800,35.661532" />
<polygon fill="#8f8f8f" fill-opacity="0.501961" points="185.710304,73.962066,198.435299,89.029268,174.723304,73.956586,174.286199,72.335104" />
<polygon fill="#bfb4c0" fill-opacity="0.501961" points="102.431982,68.052553,108.909182,74.668220,120.418157,87.762982,107.392873,83.567943" />
<polygon fill="#8d9f8c" fill-opacity="0.501961" points="159.756239,54.794352,149.562870,53.697676,141.389659,68.352467,153.038891,56.042134" />
<polygon fill="#2e2700" fill-opacity="0.501961" points="43.129469,6.995556,33.135864,95.087599,81.504667,32.690796,73.587376,6.839411" />
<polygon fill="#67676b" fill-opacity="0.501961" points="231.014856,61.667906,219.962400,72.010393,239.458602,59.513823,236.868612,66.620484" />
<polygon fill="#fbdbf0" fill-opacity="0.501961" points="98.941010,69.823787,110.830755,76.171870,106.046117,67.857540,99.522390,71.138153" />
<polygon fill="#000000" fill-opacity="0.501961" points="78.926638,17.643531,80.922261,77.956927,89.112003,-7.925206,81.103256,2.660585" />
<polygon fill="#decaa6" fill-opacity="0.501961" points="48.980235,100.457218,48.835845,78.755971,48.108807,92.502231,56.532025,89.831449" />
<polygon fill="#534213" fill-opacity="0.501961" points="29.667236,81.767508,45.794468,70.853894,55.701119,88.542179,53.235894,90.236532" />
<polygon fill="#000302" fill-opacity="0.501961" points="181.584414,149.086166,170.149872,123.332735,77.112500,160.000000,151.522466,102.316383" />
<polygon fill="#868689" fill-opacity="0.501961" points="243.822072,16.274341,252.701321,0.938733,257.626810,-5.351834,242.916932,13.212418" />
<polygon fill="#adaa9b" fill-opacity="0.501961" points="79.364396,72.280035,79.907709,70.327686,75.825824,59.310980,81.033329,58.455628" />
<polygon fill="#a68d5f" fill-opacity="0.501961" points="35.717745,76.747194,30.485562,59.937274,25.678049,59.607868,31.165203,78.246683" />
<polygon fill="#000000" fill-opacity="0.501961" points="164.413975,35.660762,158.185638,53.889122,110.797821,12.776194,116.307511,-7.966987" />
<polygon fill="#000000" fill-opacity="0.501961" points="6.388927,58.972844,-0.167396,-14.109238,0.082577,158.408134,7.258126,114.969629" />
<polygon fill="#0c1511" fill-opacity="0.501961" points="121.958540,86.618128,125.791292,78.853916,114.149437,82.643442,109.066313,62.470963" />
<polygon fill="#c8b5b1" fill-opacity="0.501961" points="136.704259,85.796759,124.810668,87.896556,131.455275,80.563520,130.876527,70.894144" />
<polygon fill="#ffffff" fill-opacity="0.501961" points="241.998100,66.795043,247.400329,55.465342,244.133186,83.645716,241.016436,71.689878" />
<polygon fill="#070708" fill-opacity="0.501961" points="176.437437,23.677622,177.536116,45.885658,178.161674,34.968314,271.000000,35.593540" />
<polygon fill="#020b03" fill-opacity="0.501961" points="99.344101,71.392184,92.733770,95.290382,106.619099,123.596623,76.482776,20.717333" />
<polygon fill="#3e3e3e" fill-opacity="0.501961" points="195.254867,27.033628,188.343200,19.322580,183.326904,7.440715,197.942417,23.767622" />
<polygon fill="#414143" fill-opacity="0.501961" points="176.863507,63.048882,179.038658,39.272689,202.588177,88.409861,193.463561,58.113565" />
<polygon fill="#c6c6c6" fill-opacity="0.501961" points="169.636199,35.923765,171.727907,39.592987,181.353363,10.163270,171.394175,5.925622" />
<polygon fill="#000000" fill-opacity="0.501961" points="34.867408,160.000000,178.225135,138.363057,107.333028,137.938197,-13.389194,138.202577" />
<polygon fill="#b5b9d4" fill-opacity="0.501961" points="89.937163,122.082269,100.902067,135.640006,89.747951,113.383426,87.502810,113.692463" />
<polygon fill="#feeccf" fill-opacity="0.501961" points="30.523788,84.219319,24.162808,82.996168,28.597825,93.941471,31.315854,87.620631" />
<polygon fill="#000900" fill-opacity="0.501961" points="160.260072,76.665134,158.629182,60.992786,147.828773,81.008749,153.850383,143.380096" />
<polygon fill="#c5c5c5" fill-opacity="0.501961" points="182.735504,63.470607,177.132593,61.374580,180.757682,75.615111,185.573928,69.213077" />
<polygon fill="#0d333d" fill-opacity="0.501961" points="90.037666,138.808579,93.485158,159.933900,86.254587,119.554940,95.925365,137.882880" />
<polygon fill="#5d7a69" fill-opacity="0.501961" points="155.133231,113.634330,164.175512,102.478102,161.220094,100.996642,159.323366,105.881340" />
<polygon fill="#000001" fill-opacity="0.501961" points="259.964607,60.730021,248.592791,64.329252,257.523553,37.408880,203.152935,41.951560" />
<polygon fill="#988257" fill-opacity="0.501961" points="79.827882,58.029659,80.301198,54.928340,63.372225,70.466600,61.964020,72.863823" />
<polygon fill="#372b00" fill-opacity="0.501961" points="78.028882,57.462881,77.406345,75.223281,72.796845,28.085002,81.275718,4.636124" />
<polygon fill="#27272a" fill-opacity="0.501961" points="241.683217,60.969030,221.717193,82.284410,215.710059,99.418005,220.696294,105.317445" />
<polygon fill="#ac8e5f" fill-opacity="0.501961" points="12.972450,6.717280,26.421236,33.986752,29.704265,33.193701,31.200224,20.551678" />
<polygon fill="#000000" fill-opacity="0.501961" points="271.000000,148.419736,235.099784,155.423963,271.000000,49.926434,247.027520,75.412592" />
<polygon fill="#2b2200" fill-opacity="0.501961" points="32.548615,77.827557,-1.856827,92.640759,13.988013,75.681921,39.355709,86.990682" />
<polygon fill="#717163" fill-opacity="0.501961" points="101.859586,93.606139,113.160689,84.348974,97.648618,75.437748,102.086406,93.447508" />
<polygon fill="#a08b5e" fill-opacity="0.501961" points="49.698980,101.096384,46.174410,84.869889,51.734250,80.776522,47.538780,76.346884" />
<polygon fill="#0d0d13" fill-opacity="0.501961" points="193.344647,83.214851,198.075117,48.294812,205.686170,87.274371,184.563858,60.139537" />
<polygon fill="#98989b" fill-opacity="0.501961" points="247.752315,6.907246,249.263087,6.267445,250.405103,7.168803,243.621859,18.876898" />
<polygon fill="#a5a5a5" fill-opacity="0.501961" points="172.168137,124.596917,174.499756,132.132371,181.176717,133.351758,170.212187,113.915221" />
<polygon fill="#0e241e" fill-opacity="0.501961" points="128.359911,81.122815,129.380689,80.077192,128.457693,77.127432,142.308445,74.399175" />
<polygon fill="#90b4a1" fill-opacity="0.501961" points="101.689390,26.273120,96.038014,9.385096,118.683858,7.808854,91.213033,7.093006" />
<polygon fill="#d5bf9b" fill-opacity="0.501961" points="6.805969,17.806434,6.637340,24.941804,16.791570,41.832865,22.028766,35.796574" />
<polygon fill="#382c04" fill-opacity="0.501961" points="79.944801,69.408805,49.374467,127.807733,60.366589,106.279239,79.971576,141.374043" />
<polygon fill="#c7e1c9" fill-opacity="0.501961" points="90.453093,15.375973,95.893752,14.825382,103.304509,21.215908,99.376841,37.793086" />
<polygon fill="#af9664" fill-opacity="0.501961" points="19.141129,137.927545,5.993865,136.530576,16.139110,128.448385,7.587481,133.741408" />
<polygon fill="#050505" fill-opacity="0.501961" points="243.309075,79.750543,230.163635,93.164689,180.663016,139.600696,242.023355,106.509616" />
<polygon fill="#cdb893" fill-opacity="0.501961" points="33.105925,100.633997,40.420398,96.033891,27.399390,96.144341,30.271872,84.605746" />
<polygon fill="#000000" fill-opacity="0.501961" points="95.802710,59.105474,80.454236,41.472523,79.854613,45.319583,80.829243,87.805078" />
<polygon fill="#163125" fill-opacity="0.501961" points="162.977270,8.444536,153.585520,22.210175,158.051648,26.174290,156.355316,5.507935" />
<polygon fill="#806630" fill-opacity="0.501961" points="15.739243,6.589401,15.565468,8.127729,27.737648,42.068868,6.125929,6.989765" />
<polygon fill="#2b2400" fill-opacity="0.501961" points="56.321647,84.560362,61.160557,4.589928,20.189153,64.125832,18.572612,48.988149" />
<polygon fill="#010c00" fill-opacity="0.501961" points="107.835187,26.817330,127.066992,82.986091,118.418207,84.899321,139.715728,56.046070" />
<polygon fill="#372b03" fill-opacity="0.501961" points="39.986177,96.665797,47.691292,52.528637,21.109458,37.744402,48.682000,97.174809" />
<polygon fill="#a7bee7" fill-opacity="0.501961" points="134.328795,87.736283,126.633926,80.508659,125.989041,82.535054,127.315919,77.559714" />
<polygon fill="#273d19" fill-opacity="0.501961" points="146.117093,89.291552,149.961579,84.963836,119.664707,93.149389,145.915846,92.450659" />
<polygon fill="#000000" fill-opacity="0.501961" points="269.686945,4.480841,187.778458,-16.000000,217.029838,87.352929,220.783230,7.380982" />
<polygon fill="#372a00" fill-opacity="0.501961" points="23.741063,75.721849,21.232481,90.849371,18.935697,125.520831,7.235624,110.971435" />
<polygon fill="#152c57" fill-opacity="0.501961" points="129.885655,117.030913,135.341215,114.722839,133.328469,120.831942,133.453009,119.466814" />
<polygon fill="#010101" fill-opacity="0.501961" points="237.730072,58.980044,240.307200,62.867964,253.964456,42.347154,192.889662,12.003324" />
<polygon fill="#ead6b6" fill-opacity="0.501961" points="53.903273,92.310292,50.387625,91.510301,50.401975,99.107023,57.926050,93.600352" />
<polygon fill="#000000" fill-opacity="0.501961" points="271.000000,1.487758,48.980828,-16.000000,-16.000000,5.684421,173.698131,6.397199" />
<polygon fill="#727272" fill-opacity="0.501961" points="245.832664,110.493576,244.883091,113.160303,237.074035,115.125806,240.481191,109.841582" />
<polygon fill="#4c3a06" fill-opacity="0.501961" points="24.306841,136.871059,6.776022,118.528954,38.422064,104.785377,21.959802,119.656179" />
<polygon fill="#000000" fill-opacity="0.501961" points="121.966078,55.356286,138.239474,82.725988,149.898473,23.500395,154.975942,4.187226" />
<polygon fill="#396d80" fill-opacity="0.501961" points="117.896616,62.616507,117.135456,66.661241,104.102933,42.921438,102.472836,65.562204" />
<polygon fill="#1d3716" fill-opacity="0.501961" points="155.461712,72.814640,160.730868,78.894631,154.961169,55.567114,149.320045,60.625733" />
<polygon fill="#555556" fill-opacity="0.501961" points="234.652817,71.299879,220.055998,82.139415,228.369409,78.169134,225.554437,69.567792" />
<polygon fill="#d3bc95" fill-opacity="0.501961" points="19.688326,135.758794,7.377057,118.352737,10.401500,131.072312,12.770409,136.739236" />
<polygon fill="#86703f" fill-opacity="0.501961" points="20.546687,63.061684,40.132131,84.054367,27.966322,64.456039,28.078607,58.313452" />
<polygon fill="#b4b4b3" fill-opacity="0.501961" points="213.780746,86.747320,209.391667,86.450947,195.217887,88.283569,211.114217,81.633338" />
<polygon fill="#010102" fill-opacity="0.501961" points="186.463688,64.903279,193.571349,81.951597,191.239378,65.168095,188.043709,60.935989" />
<polygon fill="#1e1e1f" fill-opacity="0.501961" points="207.648490,80.590484,212.935128,77.286650,227.361380,112.594538,208.075335,73.801922" />
<polygon fill="#f6f6f5" fill-opacity="0.501961" points="247.708937,73.663036,241.641171,73.170487,240.839817,62.393036,249.645644,58.439831" />
<polygon fill="#66511d" fill-opacity="0.501961" points="59.904539,91.832085,60.182043,107.425670,62.729030,108.790584,71.659095,74.395763" />
<polygon fill="#10250d" fill-opacity="0.501961" points="99.824816,53.084132,90.936167,91.119304,101.451938,66.395928,103.665116,22.974712" />
<polygon fill="#9b9b9e" fill-opacity="0.501961" points="201.401122,70.476163,206.518228,70.638032,211.173520,74.055967,209.581819,69.882179" />
<polygon fill="#392a02" fill-opacity="0.501961" points="68.938761,68.871307,50.343977,88.415400,59.992012,89.114962,60.211507,84.546732" />
<polygon fill="#e9e9f7" fill-opacity="0.501961" points="97.315084,49.666864,97.939968,61.251282,88.895396,44.161737,89.200368,10.619584" />
<polygon fill="#08080c" fill-opacity="0.501961" points="212.434049,67.575022,200.247796,58.852714,183.596639,5.775027,197.358569,68.487785" />
<polygon fill="#919192" fill-opacity="0.501961" points="171.268114,111.608399,169.044789,108.997499,171.836723,126.801985,172.372874,112.748965" />
<polygon fill="#000001" fill-opacity="0.501961" points="169.288856,119.112368,167.979502,152.697899,162.286532,127.261066,169.315075,-16.000000" />
<polygon fill="#5b745e" fill-opacity="0.501961" points="129.469279,93.858610,154.779586,63.691895,145.187216,68.227391,135.872888,86.283188" />
<polygon fill="#000000" fill-opacity="0.501961" points="79.700852,88.016010,87.680618,136.451027,87.951053,85.136045,87.219270,23.370697" />
<polygon fill="#edc7cb" fill-opacity="0.501961" points="109.068699,74.599224,106.810419,65.626566,100.513265,70.131261,105.419286,81.448763" />
<polygon fill="#313131" fill-opacity="0.501961" points="179.509804,78.559205,199.800399,91.455159,184.514830,93.035901,182.383886,90.111500" />
<polygon fill="#c4af8b" fill-opacity="0.501961" points="21.136284,138.399353,14.905741,130.560689,6.157234,118.369074,9.157099,134.918383" />
<polygon fill="#253a2c" fill-opacity="0.501961" points="161.902623,87.176691,160.874146,105.352517,160.164145,99.919034,165.017896,94.715917" />
<polygon fill="#a48f65" fill-opacity="0.501961" points="67.080084,72.336790,66.250998,71.594334,73.034904,58.992107,61.329425,74.809171" />
<polygon fill="#c5c597" fill-opacity="0.501961" points="153.725359,51.144729,156.735185,53.685433,154.817693,55.056028,147.806901,56.165128" />
<polygon fill="#f8e8ca" fill-opacity="0.501961" points="17.549996,46.135559,18.705535,65.927961,14.905348,66.599807,7.044692,31.952639" />
<polygon fill="#243512" fill-opacity="0.501961" points="138.408546,99.573021,145.660265,102.160882,140.827837,88.162955,137.902833,81.716630" />
<polygon fill="#131316" fill-opacity="0.501961" points="228.123409,9.661285,239.674814,6.029903,237.927207,30.452511,256.526864,16.096358" />
<polygon fill="#000000" fill-opacity="0.501961" points="214.994716,93.001567,175.765040,98.680622,194.534555,146.808364,217.419150,98.761510" />
<polygon fill="#292400" fill-opacity="0.501961" points="28.497804,2.159859,78.199816,37.102092,28.899775,34.851636,35.470476,13.105990" />
<polygon fill="#aeaeae" fill-opacity="0.501961" points="252.548111,4.220409,242.534191,13.864521,250.230783,8.803823,249.623981,7.006692" />
<polygon fill="#abbdce" fill-opacity="0.501961" points="90.565873,125.356477,101.073535,137.467101,104.576378,138.305888,88.489346,111.938059" />
<polygon fill="#dccfb3" fill-opacity="0.501961" points="75.947977,62.284764,70.685180,58.066965,79.238379,60.841956,79.219136,70.108219" />
<polygon fill="#2e2400" fill-opacity="0.501961" points="37.178692,9.059759,68.107783,5.794964,77.046220,67.438716,81.453294,27.399269" />
<polygon fill="#020703" fill-opacity="0.501961" points="143.180913,33.749936,167.143030,26.206525,159.854163,51.927293,157.822408,55.008363" />
<polygon fill="#09090a" fill-opacity="0.501961" points="224.455345,81.508586,228.127948,82.248322,220.585913,115.961137,236.849016,74.247896" />
<polygon fill="#5f5f5f" fill-opacity="0.501961" points="245.521573,98.789663,244.019745,97.726445,250.268905,104.774478,247.108602,71.123396" />
<polygon fill="#7f8081" fill-opacity="0.501961" points="205.418467,66.536729,209.353738,73.394762,211.280128,68.102873,210.936038,69.792474" />
<polygon fill="#000001" fill-opacity="0.501961" points="134.219526,80.352965,116.719298,-1.642396,110.781555,11.733293,162.764365,26.441510" />
<polygon fill="#202023" fill-opacity="0.501961" points="172.956749,66.292522,169.008741,61.680915,170.308632,97.929089,173.780536,119.013412" />
<polygon fill="#7d9b8d" fill-opacity="0.501961" points="98.262893,6.028242,102.465248,7.748593,113.237583,6.436128,109.264068,17.078795" />
<polygon fill="#7d7d7d" fill-opacity="0.501961" points="177.663838,72.369299,171.871270,67.241263,210.193136,92.781083,174.746469,77.641217" />
<polygon fill="#d0d0d1" fill-opacity="0.501961" points="207.985782,85.381041,212.647307,82.421829,210.568850,80.722639,208.019978,82.625909" />
<polygon fill="#182817" fill-opacity="0.501961" points="120.136453,-2.353445,127.649209,85.756066,116.956910,83.550849,127.026654,57.645041" />
<polygon fill="#292300" fill-opacity="0.501961" points="32.898642,25.916361,57.837110,94.843595,62.169961,74.271867,82.170650,33.723710" />
<polygon fill="#000000" fill-opacity="0.501961" points="167.518005,64.232138,164.066565,105.202022,163.989981,18.278239,175.825943,64.574508" />
<polygon fill="#b6bae4" fill-opacity="0.501961" points="94.159016,6.399076,92.770691,17.986691,90.062035,25.936203,89.863557,8.503008" />
<polygon fill="#c9c5c1" fill-opacity="0.501961" points="160.104073,63.462223,161.642895,70.228728,163.322009,70.124713,162.894869,60.215185" />
<polygon fill="#332700" fill-opacity="0.501961" points="27.177399,72.264905,15.739834,72.340432,9.884279,64.880384,5.924615,95.358015" />
<polygon fill="#a89268" fill-opacity="0.501961" points="9.823686,97.553925,13.225383,97.251894,15.335065,88.189906,8.644849,95.664149" />
<polygon fill="#0e210d" fill-opacity="0.501961" points="100.283869,36.067699,102.948018,24.220412,105.615700,37.078411,124.151383,54.289868" />
<polygon fill="#000000" fill-opacity="0.501961" points="105.940757,99.817423,110.325709,151.921337,123.822218,128.683626,139.904559,89.449203" />
<polygon fill="#2f2400" fill-opacity="0.501961" points="43.888077,97.059972,31.618732,79.560378,36.271970,95.617144,48.058245,87.590453" />
<polygon fill="#554311" fill-opacity="0.501961" points="8.615262,4.549821,41.041199,60.014172,8.133465,8.557060,8.795050,0.951574" />
<polygon fill="#d4d4d3" fill-opacity="0.501961" points="170.326359,5.404986,170.444922,23.020747,170.665594,37.674459,175.973758,44.772995" />
<polygon fill="#1c1c1f" fill-opacity="0.501961" points="194.433139,86.273790,199.587886,73.935204,200.950889,28.762325,207.659142,62.907667" />
<polygon fill="#27272a" fill-opacity="0.501961" points="237.210202,81.519838,265.112246,140.359599,230.179204,66.678958,239.166545,62.494975" />
<polygon fill="#000000" fill-opacity="0.501961" points="88.107813,48.690140,84.505198,-16.000000,80.050678,13.622189,80.519738,76.654818" />
<polygon fill="#ffffff" fill-opacity="0.501961" points="245.183945,56.386866,241.046735,72.829577,245.363384,76.677712,246.908925,59.215742" />
<polygon fill="#4e6d65" fill-opacity="0.501961" points="91.161355,35.605755,114.272111,46.586068,105.116065,25.592705,110.698361,44.753908" />
<polygon fill="#dabfc5" fill-opacity="0.501961" points="132.582236,84.639135,135.951689,86.555304,121.618881,86.960514,118.940680,85.503408" />
<polygon fill="#fffae6" fill-opacity="0.501961" points="32.592373,11.159855,26.951588,17.946392,25.100157,8.614420,29.134891,6.819185" />
<polygon fill="#3a3a3b" fill-opacity="0.501961" points="177.050541,21.257104,198.974619,25.352922,183.770117,6.178803,184.527772,11.669876" />
<polygon fill="#01070b" fill-opacity="0.501961" points="114.694247,78.634939,110.902156,66.780457,104.640794,63.362130,118.153292,75.169248" />
<polygon fill="#c6a195" fill-opacity="0.501961" points="105.917911,79.410637,102.640999,70.438662,99.997335,77.461053,104.062865,83.078619" />
<polygon fill="#5d7fa0" fill-opacity="0.501961" points="93.529156,73.160215,92.991958,74.026896,89.305707,89.594723,88.010964,76.980888" />
<polygon fill="#59595b" fill-opacity="0.501961" points="212.121314,92.395745,214.474374,84.956906,216.854500,89.367878,236.702523,57.939007" />
<polygon fill="#868170" fill-opacity="0.501961" points="78.710378,3.706418,76.772919,11.655793,80.177881,6.244723,72.150345,-7.773331" />
<polygon fill="#243b2a" fill-opacity="0.501961" points="106.347937,60.285295,89.041464,88.617359,99.874887,70.277621,101.428320,46.002367" />
<polygon fill="#0e1711" fill-opacity="0.501961" points="109.628423,32.176253,90.438951,-2.480444,152.166609,25.260346,91.993439,-3.633617" />
<polygon fill="#4c5539" fill-opacity="0.501961" points="144.059010,83.263104,138.888825,80.573834,139.527491,97.485221,146.652868,75.933696" />
<polygon fill="#decaa6" fill-opacity="0.501961" points="22.303887,30.723547,17.758870,48.868387,6.567017,26.145247,16.860715,34.018654" />
<polygon fill="#040404" fill-opacity="0.501961" points="232.698583,33.247034,212.179361,105.804122,219.347165,68.196726,227.805556,64.325351" />
<polygon fill="#000000" fill-opacity="0.501961" points="43.767081,-16.000000,22.954744,9.242287,24.484995,2.685795,115.084247,5.301912" />
<polygon fill="#9e885e" fill-opacity="0.501961" points="29.475304,34.474510,20.772405,24.427782,11.593850,6.681827,22.625106,6.618953" />
<polygon fill="#2b2400" fill-opacity="0.501961" points="38.485439,109.028432,22.329012,133.308359,80.750960,138.156730,30.546307,99.415646" />
<polygon fill="#000000" fill-opacity="0.501961" points="7.428973,85.176169,-8.594186,-10.159917,5.221838,160.000000,6.552750,92.807583" />
<polygon fill="#514010" fill-opacity="0.501961" points="43.302559,89.504250,78.498314,63.332647,78.249562,84.785756,72.595104,66.008478" />
<polygon fill="#efdfc1" fill-opacity="0.501961" points="19.247324,71.653620,6.709055,29.796116,7.795151,55.758890,15.455095,36.081314" />
<polygon fill="#ebfceb" fill-opacity="0.501961" points="98.023827,59.942365,99.430281,49.504428,89.396058,43.730347,97.735820,22.844762" />
<polygon fill="#1f1f1f" fill-opacity="0.501961" points="185.806955,31.223410,182.961746,-9.546539,186.010166,14.253547,190.719679,44.553921" />
<polygon fill="#000000" fill-opacity="0.501961" points="251.103467,6.636186,250.518660,103.849122,271.000000,-0.520523,197.155962,-16.000000" />
<polygon fill="#5a5959" fill-opacity="0.501961" points="182.664128,39.425087,178.394990,38.349449,183.064442,62.165031,191.334636,53.613497" />
<polygon fill="#8b7443" fill-opacity="0.501961" points="62.974965,88.123092,61.812262,85.787544,72.502535,72.831295,61.653650,73.821428" />
<polygon fill="#051309" fill-opacity="0.501961" points="85.089273,105.954744,97.497135,123.336045,87.546436,85.799411,107.513325,104.443798" />
<polygon fill="#a18a5f" fill-opacity="0.501961" points="52.034438,83.414585,52.486829,81.271949,49.120659,81.980017,47.538476,84.598314" />
<polygon fill="#011500" fill-opacity="0.501961" points="101.531403,42.794440,102.306756,27.999081,106.523920,40.442730,117.062000,41.520939" />
<polygon fill="#1b3d41" fill-opacity="0.501961" points="85.813275,121.705518,91.003986,139.687032,87.954201,136.785727,99.302673,138.460197" />
<polygon fill="#e7cacc" fill-opacity="0.501961" points="126.898692,87.669859,133.115390,87.316697,136.915034,83.890436,132.227148,79.037856" />
<polygon fill="#151316" fill-opacity="0.501961" points="160.067329,54.286865,160.337428,58.867350,174.419280,77.936810,168.880905,75.962495" />
<polygon fill="#000000" fill-opacity="0.501961" points="212.284435,59.075197,205.306913,68.000829,232.058047,59.588926,227.641662,1.916622" />
<polygon fill="#332a06" fill-opacity="0.501961" points="52.697809,88.202639,74.685364,61.968381,49.669743,93.286137,72.334676,-3.979992" />
<polygon fill="#5297bf" fill-opacity="0.501961" points="108.442825,42.597135,113.573406,50.567979,104.617196,46.444322,99.235771,46.884315" />
<polygon fill="#4c4c4d" fill-opacity="0.501961" points="169.327992,64.774004,176.787116,92.935038,176.618861,92.487567,182.770112,91.734073" />
<polygon fill="#101010" fill-opacity="0.501961" points="170.113847,78.142666,180.263988,42.408561,164.219467,61.595793,173.464948,44.885957" />
<polygon fill="#4f3a06" fill-opacity="0.501961" points="73.582808,19.809093,80.360138,17.191375,74.232258,9.625857,68.224093,8.650457" />
<polygon fill="#000000" fill-opacity="0.501961" points="80.976799,58.155001,79.699686,147.866497,-10.729094,139.760264,86.178728,138.023224" />
<polygon fill="#5c4511" fill-opacity="0.501961" points="11.316321,135.210111,6.249017,129.376102,5.054725,124.301200,8.306889,138.496169" />
<polygon fill="#000000" fill-opacity="0.501961" points="235.287738,135.371994,238.447924,117.170271,133.547466,155.064498,271.000000,143.945760" />
<polygon fill="#e4d1af" fill-opacity="0.501961" points="34.319489,87.857455,24.662575,81.882832,25.129373,92.307775,34.128570,87.348203" />
<polygon fill="#c6c6c5" fill-opacity="0.501961" points="171.615803,18.354173,170.493723,34.549350,173.428792,46.119014,177.332455,44.244635" />
<polygon fill="#332702" fill-opacity="0.501961" points="6.381360,98.133095,5.547138,107.094042,10.042611,122.028223,21.586306,105.826653" />
<polygon fill="#426258" fill-opacity="0.501961" points="120.190262,72.741213,119.150193,73.167256,118.288010,86.376675,117.584404,89.674642" />
<polygon fill="#8b7243" fill-opacity="0.501961" points="55.164341,101.886943,20.414908,98.608958,27.908145,111.210835,31.375216,101.105008" />
<polygon fill="#abc3b3" fill-opacity="0.501961" points="109.623746,6.850822,111.540561,8.348515,105.657648,14.351745,105.105467,11.978675" />
<polygon fill="#767676" fill-opacity="0.501961" points="190.975280,56.642477,185.183845,41.140871,186.001088,38.817217,190.716773,43.874521" />
<polygon fill="#2a3d19" fill-opacity="0.501961" points="123.447846,35.659478,122.441409,38.701883,123.401768,45.695719,126.447403,48.888404" />
<polygon fill="#edefec" fill-opacity="0.501961" points="159.129899,54.484620,162.830595,54.964578,159.816268,48.152875,163.034616,50.507419" />
<polygon fill="#020401" fill-opacity="0.501961" points="161.033662,40.659801,160.975100,49.981681,134.959859,47.109763,148.114503,55.659398" />
<polygon fill="#302702" fill-opacity="0.501961" points="20.432121,69.650777,23.417961,57.684092,73.924525,32.234572,18.626448,46.263665" />
<polygon fill="#425133" fill-opacity="0.501961" points="104.495109,93.557020,106.191570,83.510967,124.923178,94.988329,117.888796,88.501219" />
<polygon fill="#624f19" fill-opacity="0.501961" points="40.521608,38.098005,25.749172,29.924524,20.490836,38.009172,27.170205,41.300136" />
<polygon fill="#010101" fill-opacity="0.501961" points="67.615937,4.999966,-16.000000,6.927261,40.119442,-16.000000,31.020047,7.355199" />
<polygon fill="#163016" fill-opacity="0.501961" points="113.448475,55.736000,115.282079,69.461130,116.343126,44.906700,113.959732,43.244685" />
<polygon fill="#d2c0a2" fill-opacity="0.501961" points="71.215420,56.710911,81.357632,63.949396,75.095664,60.084006,70.518397,64.515350" />
<polygon fill="#8b8b8b" fill-opacity="0.501961" points="191.365349,84.448639,216.530998,86.667371,208.243111,90.456159,203.872606,89.469343" />
<polygon fill="#000101" fill-opacity="0.501961" points="19.186354,5.632615,226.951869,-16.000000,110.023082,17.233742,112.780691,6.200090" />
<polygon fill="#a68b5a" fill-opacity="0.501961" points="13.829038,67.221315,19.387322,74.792725,7.679394,53.210787,12.001819,63.997319" />
<polygon fill="#7ca282" fill-opacity="0.501961" points="159.808401,107.548533,162.863138,105.296712,163.074669,108.272238,158.894278,108.427402" />
<polygon fill="#2d2300" fill-opacity="0.501961" points="63.514833,85.624293,72.386534,77.302815,68.669869,139.740468,79.403754,80.520968" />
<polygon fill="#b8a27b" fill-opacity="0.501961" points="32.846359,63.239547,27.333801,66.480091,27.264250,64.846306,26.488832,59.209937" />
<polygon fill="#ab946a" fill-opacity="0.501961" points="49.370090,101.224060,28.383972,91.223141,41.877312,103.315371,56.126978,96.956072" />
<polygon fill="#52a8e4" fill-opacity="0.501961" points="112.559978,53.117621,105.600789,45.499206,109.195878,43.780042,111.346883,47.362283" />
<polygon fill="#172c11" fill-opacity="0.501961" points="92.919734,118.630035,97.330553,99.542553,105.914915,130.731018,94.836357,121.667822" />
<polygon fill="#030303" fill-opacity="0.501961" points="230.583128,109.556765,240.455298,90.977078,217.030827,107.177250,263.659637,103.242957" />
<polygon fill="#b5b5b5" fill-opacity="0.501961" points="184.143594,9.259946,170.529642,6.310746,170.175714,28.789252,170.797271,17.747168" />
<polygon fill="#030a03" fill-opacity="0.501961" points="143.034566,129.220886,157.508278,53.234419,161.359224,98.373911,164.095430,96.823553" />
<polygon fill="#030304" fill-opacity="0.501961" points="222.776158,47.069059,221.079126,80.255266,192.255792,42.287485,190.806622,58.292124" />
<polygon fill="#302502" fill-opacity="0.501961" points="14.440458,70.313417,20.553464,78.498229,4.069503,50.380649,20.007568,100.029460" />
<polygon fill="#62501f" fill-opacity="0.501961" points="40.096116,83.121847,42.974857,103.946492,37.730639,87.366616,36.513502,77.045761" />
<polygon fill="#848484" fill-opacity="0.501961" points="206.515992,72.566374,208.411518,83.318662,205.545193,81.375954,205.188641,76.227324" />
<polygon fill="#3d3006" fill-opacity="0.501961" points="39.179546,35.070873,44.519972,78.734757,42.424211,93.316782,31.913093,62.606239" />
<polygon fill="#2a2400" fill-opacity="0.501961" points="35.865891,35.634965,60.019618,61.016371,75.283924,57.235891,68.006928,17.225120" />
<polygon fill="#ceba99" fill-opacity="0.501961" points="13.945576,129.998469,16.495377,138.379999,6.369667,127.907583,9.604299,126.751535" />
<polygon fill="#253e24" fill-opacity="0.501961" points="153.036679,53.723063,166.471340,84.701172,147.635407,58.945499,158.054137,76.337619" />
<polygon fill="#8f9ca7" fill-opacity="0.501961" points="107.984466,75.152508,121.869263,86.755091,116.259887,84.763149,106.838873,78.807964" />
<polygon fill="#5d4915" fill-opacity="0.501961" points="39.486641,76.021753,22.977672,77.794277,25.272885,67.393390,21.181510,74.198930" />
<polygon fill="#000001" fill-opacity="0.501961" points="172.471890,67.501546,168.331976,96.877936,153.219502,71.484185,152.839650,106.792528" />
<polygon fill="#2a2200" fill-opacity="0.501961" points="24.274213,114.452597,26.559400,132.705013,71.418133,121.753244,52.752953,102.214057" />
<polygon fill="#000000" fill-opacity="0.501961" points="239.779570,85.123052,241.705960,97.947167,232.388593,121.831003,230.454929,75.702390" />
<polygon fill="#2b2b2d" fill-opacity="0.501961" points="190.642212,49.851968,199.400252,69.041640,196.179559,81.627509,192.143646,54.798917" />
<polygon fill="#d6bf9b" fill-opacity="0.501961" points="28.745024,21.843816,33.357383,15.593209,24.113267,15.041515,27.952201,24.374723" />
<polygon fill="#000101" fill-opacity="0.501961" points="80.943667,107.836755,87.231387,160.000000,88.164891,95.618145,101.005440,66.963838" />
<polygon fill="#739294" fill-opacity="0.501961" points="103.614474,5.238185,91.069090,19.028014,98.711446,10.112152,104.626892,14.463024" />
<polygon fill="#789c91" fill-opacity="0.501961" points="162.180890,100.979303,163.138661,106.697195,160.042353,108.535816,160.232557,105.880678" />
<polygon fill="#656566" fill-opacity="0.501961" points="173.456016,70.943363,177.239814,90.668060,178.833796,84.916340,175.409946,65.237532" />
<polygon fill="#e8d7b8" fill-opacity="0.501961" points="13.217583,64.596619,16.917137,70.015644,6.263473,24.251649,8.438185,49.594827" />
<polygon fill="#3d7491" fill-opacity="0.501961" points="117.101732,66.186150,104.306026,43.209095,107.464058,64.674045,118.258225,63.232167" />
<polygon fill="#3d4a28" fill-opacity="0.501961" points="110.561240,15.018400,103.995442,23.790659,102.247551,20.083446,121.458361,28.482215" />
<polygon fill="#403309" fill-opacity="0.501961" points="56.202845,45.533150,43.049723,97.916608,31.181942,92.447747,44.003763,94.748649" />
<polygon fill="#0f0f10" fill-opacity="0.501961" points="212.525844,1.951017,186.091406,22.546760,175.706936,46.775827,179.949834,25.079598" />
<polygon fill="#bebebe" fill-opacity="0.501961" points="178.382508,15.902418,170.004240,34.833934,172.723583,48.611238,172.354938,47.663358" />
<polygon fill="#beaa89" fill-opacity="0.501961" points="7.174401,122.042288,6.632789,116.887630,18.195511,138.701965,6.705959,128.671031" />
<polygon fill="#bfaa83" fill-opacity="0.501961" points="47.423615,96.848928,50.975828,102.490289,25.268972,92.062266,42.834533,101.169246" />
<polygon fill="#030d01" fill-opacity="0.501961" points="124.286804,83.845642,109.010130,21.843733,121.135677,36.595702,125.223259,83.336600" />
<polygon fill="#4b3b0b" fill-opacity="0.501961" points="62.390631,115.530960,68.829314,80.218268,78.436555,79.710725,77.878826,61.559074" />
<polygon fill="#0a1210" fill-opacity="0.501961" points="154.445339,38.800285,107.918021,66.528010,121.353784,86.161614,111.110923,64.918171" />
<polygon fill="#1d1e1e" fill-opacity="0.501961" points="271.000000,21.695088,243.855143,78.995813,129.534850,124.996620,244.121291,79.016892" />
<polygon fill="#f4edff" fill-opacity="0.501961" points="108.492648,70.505030,109.630648,73.910025,104.678028,72.206759,104.493494,66.383600" />
<polygon fill="#1b1b1b" fill-opacity="0.501961" points="190.596642,132.363080,165.396826,133.841085,172.933193,129.225812,177.321214,135.600970" />
<polygon fill="#f6e5c6" fill-opacity="0.501961" points="18.408054,71.127708,18.564827,64.388920,12.874128,32.398494,8.114924,51.940302" />
<polygon fill="#322807" fill-opacity="0.501961" points="59.158805,92.300340,62.175352,137.948798,66.172704,128.109643,51.920069,131.884179" />
<polygon fill="#aaaaa9" fill-opacity="0.501961" points="170.708663,115.486786,170.591152,118.365477,169.316648,124.433143,178.115312,127.480870" />
<polygon fill="#28516f" fill-opacity="0.501961" points="107.125549,63.318098,114.435616,77.639528,107.839094,77.731441,111.776222,74.027831" />
<polygon fill="#242425" fill-opacity="0.501961" points="216.096286,79.910442,223.588084,72.603105,220.266782,73.575298,236.931912,62.260476" />
<polygon fill="#111111" fill-opacity="0.501961" points="198.998781,65.583926,205.923543,85.228185,200.026362,81.591586,193.037024,51.262393" />
<polygon fill="#47390c" fill-opacity="0.501961" points="12.778323,122.942876,12.721532,94.712204,26.889977,103.374856,16.447199,98.980077" />
<polygon fill="#091d10" fill-opacity="0.501961" points="152.324518,7.009943,158.394789,6.301765,163.223761,5.551076,162.658627,32.937301" />
<polygon fill="#e3fbe8" fill-opacity="0.501961" points="99.725845,39.240420,96.655627,61.496764,92.959178,24.161573,96.567683,21.100937" />
<polygon fill="#a4a994" fill-opacity="0.501961" points="154.606621,52.894445,162.391956,60.759918,158.858222,58.768264,151.823430,51.177228" />
<polygon fill="#030f04" fill-opacity="0.501961" points="93.871819,82.382784,97.339605,84.965889,97.412599,74.954974,94.470649,56.483118" />
<polygon fill="#8f9091" fill-opacity="0.501961" points="212.193858,72.286976,209.793793,71.828752,205.568351,67.588370,206.187072,71.062527" />
<polygon fill="#15250f" fill-opacity="0.501961" points="116.113351,55.422101,118.182145,64.573897,119.844943,68.294096,132.654786,79.943030" />
<polygon fill="#cccccc" fill-opacity="0.501961" points="169.916052,27.027147,176.795210,11.993440,175.088357,45.389672,170.374380,28.621663" />
<polygon fill="#4d401d" fill-opacity="0.501961" points="80.429797,121.449307,10.539801,61.610029,77.761106,119.182097,79.586736,96.920472" />
<polygon fill="#332906" fill-opacity="0.501961" points="57.588725,93.246482,39.613273,-16.000000,56.282987,87.465290,68.355504,68.188099" />
<polygon fill="#717272" fill-opacity="0.501961" points="244.652720,61.946661,227.258699,59.892822,230.174829,59.227911,225.103117,67.153422" />
<polygon fill="#434343" fill-opacity="0.501961" points="190.308820,22.227335,198.651699,25.826217,196.630201,19.812440,191.932314,20.337579" />
<polygon fill="#0c0b0b" fill-opacity="0.501961" points="180.043299,51.788597,159.589742,55.975256,171.294761,60.759259,174.908130,60.195164" />
<polygon fill="#6f5821" fill-opacity="0.501961" points="57.106180,101.451923,44.381545,102.610239,24.820561,101.089107,31.134562,106.238775" />
<polygon fill="#000000" fill-opacity="0.501961" points="191.612628,18.876275,197.433077,4.270544,218.788686,82.352195,231.858577,13.478275" />
<polygon fill="#071300" fill-opacity="0.501961" points="108.170300,39.993113,106.428482,31.303944,108.935320,27.046019,103.415971,31.573996" />
<polygon fill="#010601" fill-opacity="0.501961" points="172.494679,108.162761,173.270937,107.633231,160.798889,109.138660,138.750229,145.465294" />
<polygon fill="#b8b8b8" fill-opacity="0.501961" points="241.808248,15.728175,249.464650,6.407724,243.982942,11.669412,245.288164,12.083900" />
<polygon fill="#111113" fill-opacity="0.501961" points="162.526245,79.999197,168.277601,93.083814,173.562884,116.635983,188.757308,139.219401" />
<polygon fill="#070707" fill-opacity="0.501961" points="191.542818,22.862325,186.960746,19.641464,196.624052,65.371329,200.111963,64.953808" />
<polygon fill="#0e0e0d" fill-opacity="0.501961" points="183.215730,62.507692,190.043260,66.864837,188.532383,61.191673,215.123725,53.709096" />
<polygon fill="#c7b28e" fill-opacity="0.501961" points="6.274024,14.962562,7.211791,23.783936,18.964837,35.057910,23.192006,33.870337" />
<polygon fill="#555555" fill-opacity="0.501961" points="219.267161,80.213445,227.984409,70.592949,228.247462,68.973223,234.537768,72.072250" />
<polygon fill="#112a12" fill-opacity="0.501961" points="122.551811,84.748710,118.353739,81.340861,113.313658,50.626118,116.057946,82.065366" />
<polygon fill="#102505" fill-opacity="0.501961" points="95.347163,94.674524,119.486920,93.313193,111.786598,89.887302,99.921035,99.315033" />
<polygon fill="#070f08" fill-opacity="0.501961" points="104.080740,46.754064,97.509024,63.248838,85.251172,49.833694,95.748720,84.398072" />
<polygon fill="#d0bc99" fill-opacity="0.501961" points="73.722480,57.669048,66.128025,64.809483,67.399724,64.873952,75.969454,59.394515" />
<polygon fill="#0e0e10" fill-opacity="0.501961" points="252.270006,137.781413,249.950420,139.702132,249.934484,113.057832,239.730132,135.141163" />
<polygon fill="#979796" fill-opacity="0.501961" points="192.282233,82.781953,177.835627,67.176074,176.004580,63.693361,178.842277,76.766246" />
<polygon fill="#3c2e06" fill-opacity="0.501961" points="70.815684,37.833131,79.824626,14.342217,52.365619,10.996591,76.694513,5.913724" />
<polygon fill="#251f02" fill-opacity="0.501961" points="19.170435,118.304179,20.651566,93.385478,12.941026,112.615386,-4.087791,97.920708" />
<polygon fill="#000100" fill-opacity="0.501961" points="130.720845,92.224907,105.572226,126.844028,98.943414,93.790423,145.052545,109.977150" />
<polygon fill="#000000" fill-opacity="0.501961" points="250.051671,160.000000,250.437283,90.768881,250.772400,2.622571,271.000000,76.368266" />
<polygon fill="#bad2c2" fill-opacity="0.501961" points="162.832796,77.053680,162.063628,73.489392,160.489312,72.482489,163.213415,62.077685" />
<polygon fill="#161617" fill-opacity="0.501961" points="241.460935,64.283159,247.647356,10.923478,239.289826,22.744112,251.985413,9.207143" />
<polygon fill="#12290e" fill-opacity="0.501961" points="156.174916,61.914830,146.277777,63.627245,151.593573,60.006573,154.450420,58.654236" />
<polygon fill="#f3f3f3" fill-opacity="0.501961" points="244.699160,55.961436,241.517612,64.878150,242.968088,69.466280,246.767370,67.894249" />
<polygon fill="#7d6738" fill-opacity="0.501961" points="61.323456,92.639340,69.519793,85.145862,63.962588,82.169013,60.541123,86.327581" />
<polygon fill="#172812" fill-opacity="0.501961" points="134.136966,87.158198,137.701018,95.643061,136.864022,81.674043,151.693885,119.926691" />
<polygon fill="#e4d1b1" fill-opacity="0.501961" points="28.845245,83.219780,22.945884,88.454104,32.771790,90.405393,30.540478,82.170789" />
<polygon fill="#000000" fill-opacity="0.501961" points="-14.562374,138.574275,26.516189,137.766565,119.124930,138.786031,31.503182,160.000000" />
<polygon fill="#b0b5d9" fill-opacity="0.501961" points="88.686165,29.151868,90.147424,6.304024,88.361315,7.723979,88.314629,18.633934" />
<polygon fill="#483807" fill-opacity="0.501961" points="16.594440,114.087052,49.769442,105.321548,40.744697,111.348500,56.180151,100.208807" />
<polygon fill="#060607" fill-opacity="0.501961" points="253.209555,47.523794,238.805294,63.493124,243.061347,18.294594,264.360897,101.811431" />
<polygon fill="#68828b" fill-opacity="0.501961" points="126.970457,82.447873,129.116315,89.167658,125.775169,76.304251,130.284825,73.268813" />
<polygon fill="#060606" fill-opacity="0.501961" points="207.693355,75.132654,208.004240,80.904894,234.324578,51.492278,214.688871,80.620775" />
<polygon fill="#7f683b" fill-opacity="0.501961" points="20.672703,98.156064,39.713292,100.192532,25.588162,104.251186,21.249527,89.972722" />
<polygon fill="#accdd4" fill-opacity="0.501961" points="93.757972,121.804301,101.315081,131.648172,100.377752,136.010079,98.177486,135.766238" />
<polygon fill="#000101" fill-opacity="0.501961" points="163.018242,73.856496,163.944929,78.333962,164.969235,46.738087,172.571282,55.108198" />
<polygon fill="#313132" fill-opacity="0.501961" points="250.165842,63.235579,247.306689,62.188969,265.734556,54.117041,251.166195,60.900149" />
<polygon fill="#fefefe" fill-opacity="0.501961" points="244.165284,62.354684,243.210200,76.693826,244.414860,78.493008,240.535410,72.674492" />
<polygon fill="#d2c9b1" fill-opacity="0.501961" points="73.650589,59.917583,77.279127,59.869393,79.292269,71.234515,79.806243,60.379929" />
<polygon fill="#727274" fill-opacity="0.501961" points="188.798761,13.846713,188.519942,10.414081,189.639531,5.764939,193.035392,7.308930" />
<polygon fill="#121214" fill-opacity="0.501961" points="186.259522,89.071326,216.572789,95.397165,189.017987,93.565694,170.433234,95.991960" />
<polygon fill="#1e2c12" fill-opacity="0.501961" points="126.894995,67.116793,131.250436,81.793060,120.798139,63.445272,127.637324,63.480076" />
<polygon fill="#020005" fill-opacity="0.501961" points="115.651753,69.307643,112.678374,67.123537,107.290299,64.210761,114.413497,73.109171" />
<polygon fill="#887246" fill-opacity="0.501961" points="29.492422,63.460658,35.861297,79.257473,27.674735,79.981095,28.149478,74.757064" />
<polygon fill="#dac6a3" fill-opacity="0.501961" points="55.080657,98.796335,48.330764,89.256126,48.652129,98.731959,53.719570,88.953565" />
<polygon fill="#d4c1a0" fill-opacity="0.501961" points="20.000963,137.164668,15.539465,131.923053,6.211538,120.246007,13.593407,137.112694" />
<polygon fill="#b1a3ca" fill-opacity="0.501961" points="88.551866,115.931645,88.188521,124.293050,95.210165,128.382224,92.330865,119.508839" />
<polygon fill="#031106" fill-opacity="0.501961" points="101.816174,130.512340,88.925724,108.214859,106.526751,129.597370,119.451550,143.124735" />
<polygon fill="#555556" fill-opacity="0.501961" points="180.290406,13.760860,181.624887,8.590259,178.792343,26.857445,184.775756,12.647198" />
<polygon fill="#010302" fill-opacity="0.501961" points="124.348381,72.504061,126.507764,52.838544,133.026766,56.463590,116.005597,48.328136" />
<polygon fill="#000000" fill-opacity="0.501961" points="167.985758,66.124044,168.857301,5.621198,247.851916,5.889660,163.751013,-3.053399" />
<polygon fill="#8f9d89" fill-opacity="0.501961" points="155.593864,51.174105,154.111803,54.676824,140.679518,69.753718,146.672915,60.639418" />
<polygon fill="#1f3516" fill-opacity="0.501961" points="155.824017,67.392325,156.714521,55.466108,160.413510,69.480681,144.925038,71.439475" />
<polygon fill="#000000" fill-opacity="0.501961" points="119.397804,7.119946,137.703087,81.882287,148.826942,6.354934,106.961214,20.385184" />
<polygon fill="#6f796b" fill-opacity="0.501961" points="140.528557,61.105244,143.475777,76.532254,113.305775,93.876771,145.065472,75.649034" />
<polygon fill="#284f4c" fill-opacity="0.501961" points="118.683442,82.632255,118.603551,72.232503,113.638312,49.941597,120.913667,76.782272" />
<polygon fill="#080808" fill-opacity="0.501961" points="202.584505,75.959114,202.372273,80.985963,200.296475,84.256357,198.222630,77.543091" />
<polygon fill="#3d300a" fill-opacity="0.501961" points="45.916137,89.748547,49.703467,96.176860,34.823008,91.490132,34.910052,94.640249" />
<polygon fill="#2f2601" fill-opacity="0.501961" points="59.199207,91.603005,52.455971,89.027279,48.633284,88.137221,56.491478,74.732837" />
<polygon fill="#1c3754" fill-opacity="0.501961" points="91.067941,123.995148,87.689885,135.382067,88.842083,138.440211,89.468601,140.146693" />
<polygon fill="#777777" fill-opacity="0.501961" points="182.901251,41.150195,188.372053,41.025460,191.102810,49.318179,188.038902,52.130481" />
<polygon fill="#998355" fill-opacity="0.501961" points="9.914515,6.665031,29.470023,33.472417,32.243753,14.466268,30.862666,27.792259" />
<polygon fill="#313133" fill-opacity="0.501961" points="250.299932,70.017076,247.761245,75.318295,245.240705,77.416190,250.146281,86.544144" />
<polygon fill="#2e2503" fill-opacity="0.501961" points="31.678757,84.293680,67.462251,19.209210,34.463065,69.718414,38.627586,93.402326" />
<polygon fill="#877e77" fill-opacity="0.501961" points="101.511075,67.256017,98.047388,80.279949,104.688924,83.361644,101.466120,85.877721" />
<polygon fill="#252525" fill-opacity="0.501961" points="230.493289,67.494989,238.102693,64.757390,234.083006,62.883418,214.145818,80.833831" />
<polygon fill="#0f230c" fill-opacity="0.501961" points="158.015349,62.185863,163.305444,89.368058,155.325104,59.259226,146.181007,61.728899" />
<polygon fill="#13365e" fill-opacity="0.501961" points="130.515718,114.562856,131.090331,114.428721,135.023296,118.280425,130.386873,117.923906" />
<polygon fill="#2f2f30" fill-opacity="0.501961" points="191.105600,26.797150,185.091401,26.076148,199.421487,86.278933,187.866524,27.660462" />
<polygon fill="#b3a9a9" fill-opacity="0.501961" points="100.177789,72.357274,122.831945,87.684001,112.958764,83.022488,98.169844,72.867770" />
<polygon fill="#2c2d2f" fill-opacity="0.501961" points="214.798706,79.369931,195.183588,70.070673,194.876243,68.084865,206.521093,72.433334" />
<polygon fill="#9f895b" fill-opacity="0.501961" points="16.264652,93.687205,12.884617,86.754607,8.502278,101.003626,8.903127,96.178751" />
<polygon fill="#9c8760" fill-opacity="0.501961" points="61.560763,75.816715,74.501266,53.940366,69.381084,63.556729,72.399925,62.915091" />
<polygon fill="#2d555a" fill-opacity="0.501961" points="112.509887,45.138581,113.105318,51.553165,108.067059,26.803594,108.066016,39.173409" />
<polygon fill="#010000" fill-opacity="0.501961" points="78.932798,100.300376,92.002548,88.484762,84.698807,86.033098,82.891959,150.888338" />
<polygon fill="#060b05" fill-opacity="0.501961" points="157.831504,55.195672,166.009662,38.314945,143.177152,59.664463,166.437586,19.562955" />
<polygon fill="#555555" fill-opacity="0.501961" points="241.846674,111.417941,234.191437,119.361299,248.981238,92.971234,241.141995,105.030860" />
<polygon fill="#000301" fill-opacity="0.501961" points="85.430286,86.859522,81.046671,37.908618,97.831533,64.969027,89.668766,73.715352" />
<polygon fill="#374031" fill-opacity="0.501961" points="165.061107,62.942224,152.806038,65.963554,160.033404,64.170187,151.088826,63.370772" />
<polygon fill="#fffdeb" fill-opacity="0.501961" points="30.357565,7.424894,31.518890,18.594554,24.423019,12.425067,27.565483,16.856745" />
<polygon fill="#8c8c8d" fill-opacity="0.501961" points="209.609411,68.501845,210.586093,74.415849,209.409357,73.848211,208.387758,72.546057" />
<polygon fill="#e0dff5" fill-opacity="0.501961" points="95.797553,28.400064,88.755722,46.955994,88.593841,26.615291,90.809766,15.664827" />
<polygon fill="#b7a17b" fill-opacity="0.501961" points="25.101814,98.304985,29.487894,97.060290,43.981497,103.185536,24.970048,91.156251" />
<polygon fill="#2d2302" fill-opacity="0.501961" points="71.580618,74.737933,80.771017,86.591397,76.524873,121.444875,65.872885,133.581020" />
<polygon fill="#2d2500" fill-opacity="0.501961" points="57.819835,12.773594,29.272764,37.403791,34.462194,8.282027,43.646281,7.106188" />
<polygon fill="#020d05" fill-opacity="0.501961" points="112.455990,78.657115,113.336325,69.843312,117.621480,77.621717,114.233651,79.590182" />
<polygon fill="#516863" fill-opacity="0.501961" points="115.046940,89.352347,141.454264,90.219516,95.546116,86.131334,113.454324,82.877033" />
<polygon fill="#3d666e" fill-opacity="0.501961" points="112.089989,58.545839,101.585516,63.496052,113.429631,64.699603,101.897857,55.058921" />
<polygon fill="#564510" fill-opacity="0.501961" points="17.343628,123.507423,22.460857,108.817852,22.321557,86.928797,22.517249,136.125988" />
<polygon fill="#8c7747" fill-opacity="0.501961" points="75.678943,70.021756,67.396451,76.133667,59.735737,91.907824,62.623538,80.720189" />
<polygon fill="#000000" fill-opacity="0.501961" points="169.487830,128.335998,168.406096,40.353999,163.406109,114.335896,168.467511,156.239125" />
<polygon fill="#455539" fill-opacity="0.501961" points="112.495467,18.383496,106.811222,27.955616,101.274095,16.555419,117.089521,25.584981" />
<polygon fill="#000000" fill-opacity="0.501961" points="5.908436,10.086913,-16.000000,-15.672884,2.850189,160.000000,5.913917,66.571352" />
<polygon fill="#408fbe" fill-opacity="0.501961" points="105.391672,48.492285,111.351919,48.454673,112.569828,56.290508,111.347379,58.958990" />
<polygon fill="#725e2d" fill-opacity="0.501961" points="19.282840,35.942188,16.260753,36.284203,34.636969,33.554450,38.082872,40.073680" />
<polygon fill="#0d130f" fill-opacity="0.501961" points="114.425856,72.266219,120.686387,71.965704,77.631013,54.893680,113.114028,68.401164" />
<polygon fill="#eadcf3" fill-opacity="0.501961" points="108.450103,69.314807,102.886785,66.038017,104.500399,74.612998,109.281924,74.137445" />
<polygon fill="#b6a179" fill-opacity="0.501961" points="10.188051,95.372360,13.224701,95.252462,13.711509,94.128504,13.427809,87.772102" />
<polygon fill="#e8dfc9" fill-opacity="0.501961" points="27.460631,7.420630,33.464902,13.406663,26.173015,13.266628,33.130176,15.278170" />
<polygon fill="#0d0d0c" fill-opacity="0.501961" points="170.762517,58.650747,150.522838,24.912912,167.644709,51.371644,181.823903,42.698335" />
<polygon fill="#a3b29a" fill-opacity="0.501961" points="148.862749,57.274256,144.668014,64.673100,153.867079,52.276493,145.977075,59.261015" />
<polygon fill="#4b4b4a" fill-opacity="0.501961" points="218.324725,94.350108,226.730295,83.890444,209.521356,86.440383,220.530428,83.681603" />
<polygon fill="#081706" fill-opacity="0.501961" points="114.138349,42.139710,131.773925,51.877597,103.747481,37.971116,102.263659,43.036019" />
<polygon fill="#614a10" fill-opacity="0.501961" points="10.939471,87.963047,7.494574,106.005210,7.367905,96.230619,11.249609,90.303840" />
<polygon fill="#030303" fill-opacity="0.501961" points="194.051281,136.014115,179.274926,131.073149,225.185798,113.215684,193.662477,92.499800" />
<polygon fill="#353535" fill-opacity="0.501961" points="173.972034,81.137678,194.587877,89.374824,170.275594,76.624725,169.839143,60.412444" />
<polygon fill="#9ea4b5" fill-opacity="0.501961" points="125.234832,89.324459,103.245193,76.552614,119.701135,88.406885,137.450757,86.746215" />
<polygon fill="#998f6d" fill-opacity="0.501961" points="79.212371,8.236914,81.418007,9.539401,75.481380,12.203910,79.647481,5.163123" />
<polygon fill="#dfcfb0" fill-opacity="0.501961" points="71.714789,60.332708,69.622532,59.358235,72.078469,59.134940,77.383715,61.164221" />
<polygon fill="#000001" fill-opacity="0.501961" points="118.352513,10.049543,74.259720,-16.000000,82.736821,18.859636,97.565467,-16.000000" />
<polygon fill="#bbbaba" fill-opacity="0.501961" points="174.193934,21.259269,172.769414,40.372384,170.748861,26.371258,174.324558,51.892038" />
<polygon fill="#020902" fill-opacity="0.501961" points="165.234198,87.761949,135.228588,126.399131,160.475221,68.586660,154.678311,59.444222" />
<polygon fill="#0c170d" fill-opacity="0.501961" points="137.220675,79.418166,149.549999,41.217804,138.520809,73.822036,149.538148,61.473578" />
<polygon fill="#828283" fill-opacity="0.501961" points="178.584936,79.463023,188.398986,67.501548,185.875736,80.156438,178.523333,75.882781" />
<polygon fill="#403207" fill-opacity="0.501961" points="20.296124,47.582353,40.824190,36.145796,28.130671,55.209137,28.729377,32.336419" />
<polygon fill="#2b2203" fill-opacity="0.501961" points="13.929040,99.515458,3.859111,122.980400,22.798721,83.962865,22.372561,71.446424" />
<polygon fill="#465a3e" fill-opacity="0.501961" points="153.510247,69.737070,154.843675,54.167949,155.184743,56.813950,151.618445,67.271436" />
<polygon fill="#101011" fill-opacity="0.501961" points="239.412526,34.879498,220.240658,-16.000000,237.057612,18.767458,245.246826,4.762052" />
<polygon fill="#969695" fill-opacity="0.501961" points="243.549338,94.178626,245.091840,102.040613,246.638615,62.875948,243.350919,107.068571" />
<polygon fill="#a3bba1" fill-opacity="0.501961" points="95.804775,9.593208,104.379922,24.167119,91.257919,11.012036,93.785914,6.730297" />
<polygon fill="#58664b" fill-opacity="0.501961" points="119.115748,23.275739,97.843891,19.629061,120.007115,24.746572,108.429875,10.825397" />
<polygon fill="#213519" fill-opacity="0.501961" points="99.842723,87.244785,89.530687,83.266073,97.480947,90.977769,98.782513,120.537278" />
<polygon fill="#f3f3f3" fill-opacity="0.501961" points="241.404614,80.953147,247.035731,70.741060,245.930713,64.658395,244.664728,64.563094" />
<polygon fill="#99999b" fill-opacity="0.501961" points="250.684058,5.991213,247.566869,6.411437,243.627665,11.066201,249.546339,11.679718" />
<polygon fill="#5b4710" fill-opacity="0.501961" points="31.560016,82.373041,23.948721,78.192651,20.976124,63.044715,31.368779,84.023568" />
<polygon fill="#192b1f" fill-opacity="0.501961" points="153.674594,24.984882,157.162755,14.682523,158.718012,15.577588,154.094041,26.455288" />
<polygon fill="#687d6e" fill-opacity="0.501961" points="145.029804,73.880299,146.690186,66.925243,132.934411,90.664558,134.242599,86.155699" />
<polygon fill="#071707" fill-opacity="0.501961" points="136.899764,113.984024,157.252438,58.175738,148.485070,99.070383,128.742826,107.391292" />
<polygon fill="#888889" fill-opacity="0.501961" points="208.044105,67.775455,209.785054,74.206119,205.465538,68.662207,203.599414,68.775272" />
<polygon fill="#ffffff" fill-opacity="0.501961" points="242.878373,66.218711,242.967264,74.584081,244.825487,72.447908,249.382792,58.200445" />
<polygon fill="#1c2f13" fill-opacity="0.501961" points="99.400329,47.961281,109.654465,22.377371,124.311069,30.075260,107.298553,26.546417" />
<polygon fill="#2b2401" fill-opacity="0.501961" points="63.344324,70.136418,76.370539,49.612134,69.254329,7.472621,46.865573,79.138173" />
<polygon fill="#2a2a2c" fill-opacity="0.501961" points="198.989887,76.317113,197.876548,83.946646,193.641142,82.800999,195.604109,69.965926" />
<polygon fill="#b7a27a" fill-opacity="0.501961" points="26.439674,106.376063,29.372212,107.417512,25.000873,96.911673,25.931970,80.746902" />
</g>
</svg>