<svg xmlns="http://www.w3.org/2000/svg" version="1.1" width="1280" height="820">
<rect x="0" y="0" width="1280" height="820" fill="#badbba" />
<g transform="scale(5.000000) translate(0.5 0.5)">
<polygon fill="#15a717" fill-opacity="0.501961" points="201.553742,22.134026,67.737097,16.859519,59.786699,130.160875,199.252950,128.291509" />
<polygon fill="#fffdff" fill-opacity="0.501961" points="184.240768,173.946519,187.282966,50.518531,168.101421,5.251083,167.947227,167.910166" />
<polygon fill="#ffe3ff" fill-opacity="0.501961" points="113.849743,122.932214,77.546457,113.074611,79.250472,39.737011,113.211071,22.281455" />
<polygon fill="#fff2ff" fill-opacity="0.501961" points="153.066003,165.035736,153.739856,37.855815,150.394801,-16.000000,136.929205,81.450850" />
<polygon fill="#fffbff" fill-opacity="0.501961" points="62.730399,179.000000,-16.000000,176.216606,0.761743,-16.000000,64.319378,-1.833860" />
<polygon fill="#009800" fill-opacity="0.501961" points="64.322616,99.657853,62.544024,10.890892,82.482234,66.196414,108.370458,70.204526" />
<polygon fill="#fffbff" fill-opacity="0.501961" points="271.000000,170.069256,246.286997,-16.000000,200.513855,129.599410,-16.000000,162.170253" />
<polygon fill="#00a000" fill-opacity="0.501961" points="105.577718,131.130762,144.608320,119.838127,105.898693,24.223002,149.440586,25.748663" />
<polygon fill="#ffffff" fill-opacity="0.501961" points="122.995943,21.482487,-16.000000,15.757231,234.942955,-16.000000,270.555986,20.019224" />
<polygon fill="#009900" fill-opacity="0.501961" points="153.850052,18.904150,168.293257,35.276538,165.574169,130.605085,154.133315,128.177507" />
<polygon fill="#00a200" fill-opacity="0.501961" points="191.779872,145.869765,204.063552,38.146680,217.296876,21.145546,182.734047,22.852902" />
<polygon fill="#009f00" fill-opacity="0.501961" points="81.346576,116.038620,126.473424,129.899305,64.540010,131.065029,65.788935,1.868700" />
<polygon fill="#fff2ff" fill-opacity="0.501961" points="201.802474,173.920721,258.566225,179.000000,256.647562,-16.000000,200.591595,39.781308" />
<polygon fill="#00a300" fill-opacity="0.501961" points="132.514203,29.141205,110.131642,117.730185,147.828025,133.761247,132.008373,59.704620" />
<polygon fill="#ffe5ff" fill-opacity="0.501961" points="103.909222,134.397470,100.359187,31.860222,109.889972,28.013774,120.571155,74.745749" />
<polygon fill="#ffe7ff" fill-opacity="0.501961" points="167.664456,14.062405,178.379950,36.396296,187.743018,43.738205,170.901820,179.000000" />
<polygon fill="#009f00" fill-opacity="0.501961" points="101.040099,21.047788,65.237618,18.444671,64.314559,40.356543,100.394448,32.413715" />
<polygon fill="#fffbff" fill-opacity="0.501961" points="4.600418,179.000000,39.365585,23.282177,271.000000,5.446494,-16.000000,-16.000000" />
<polygon fill="#00a400" fill-opacity="0.501961" points="200.014923,29.020097,185.596961,19.035723,187.831683,131.052805,200.756246,127.458198" />
<polygon fill="#f5ddf3" fill-opacity="0.501961" points="118.262512,177.083461,126.338803,113.011432,134.550159,132.561774,9.177738,127.994534" />
<polygon fill="#009800" fill-opacity="0.501961" points="101.119179,67.261762,61.411023,72.238304,83.753590,80.846440,103.482146,82.901564" />
<polygon fill="#fee0fc" fill-opacity="0.501961" points="153.195245,65.719542,151.566699,167.396523,136.660179,64.454934,150.517561,12.027164" />
<polygon fill="#ffebff" fill-opacity="0.501961" points="78.027232,34.113792,102.399776,35.054646,111.267944,64.871928,78.746190,68.548474" />
<polygon fill="#00ac00" fill-opacity="0.501961" points="108.141905,14.607250,122.397998,90.570183,136.688778,134.586115,135.679316,45.261384" />
<polygon fill="#00aa00" fill-opacity="0.501961" points="211.544640,21.924792,178.233306,21.322589,174.316003,36.517980,211.721041,36.096355" />
<polygon fill="#fadff6" fill-opacity="0.501961" points="79.244489,82.081349,77.212705,115.770451,100.608051,111.802913,110.500607,83.128050" />
<polygon fill="#00a900" fill-opacity="0.501961" points="167.884712,18.684893,156.807898,22.052126,152.105804,96.365725,166.649345,134.232514" />
<polygon fill="#00a400" fill-opacity="0.501961" points="79.573178,116.195282,109.089120,117.076219,64.162640,129.509465,75.063134,12.049879" />
<polygon fill="#fbf2fb" fill-opacity="0.501961" points="138.169631,-16.000000,127.820251,44.508372,121.758209,16.579520,264.300244,26.490611" />
<polygon fill="#e6dde5" fill-opacity="0.501961" points="101.821421,129.893854,266.416100,130.522784,114.887586,179.000000,101.228474,42.073615" />
<polygon fill="#00ae00" fill-opacity="0.501961" points="146.960973,17.525104,139.435047,21.367704,119.376814,49.893761,130.874995,100.154337" />
<polygon fill="#ffffff" fill-opacity="0.501961" points="8.637212,-16.000000,19.555246,153.942303,259.808713,158.593126,-16.000000,179.000000" />
<polygon fill="#efe4ed" fill-opacity="0.501961" points="169.612383,160.515176,167.388917,35.281536,187.426670,35.216836,184.513591,131.330725" />
<polygon fill="#ffffff" fill-opacity="0.501961" points="212.504483,6.129326,210.256791,85.117093,271.000000,-16.000000,-16.000000,5.596938" />
<polygon fill="#e8e0e6" fill-opacity="0.501961" points="120.140965,87.557417,94.494016,1.154123,127.553890,11.914954,109.108246,22.036077" />
<polygon fill="#00a800" fill-opacity="0.501961" points="65.992108,20.548148,65.122292,33.916464,101.483390,34.389571,103.809762,23.533410" />
<polygon fill="#e2d7e0" fill-opacity="0.501961" points="64.242040,159.816433,63.965448,81.945469,16.335958,-16.000000,16.024547,125.335448" />
<polygon fill="#00a700" fill-opacity="0.501961" points="199.758942,121.054771,198.533635,135.108423,185.211818,111.404317,198.036522,19.249460" />
<polygon fill="#009400" fill-opacity="0.501961" points="74.049841,127.138539,101.406521,129.730661,100.663506,115.189810,77.422029,117.998219" />
<polygon fill="#00aa00" fill-opacity="0.501961" points="168.395891,130.070919,156.886408,130.348389,152.270028,130.615685,163.822445,13.670576" />
<polygon fill="#dad9d8" fill-opacity="0.501961" points="247.052697,155.100129,35.093339,154.705497,200.427820,129.289515,245.048568,53.039891" />
<polygon fill="#e3dfe2" fill-opacity="0.501961" points="105.028384,3.177151,228.467525,20.594300,174.690970,21.384536,-14.761557,19.039896" />
<polygon fill="#00a400" fill-opacity="0.501961" points="79.625517,69.197541,67.763302,82.465208,100.520927,82.194250,102.839436,70.555249" />
<polygon fill="#00aa00" fill-opacity="0.501961" points="141.169788,102.297682,111.564371,122.671583,120.409898,77.747523,117.466492,12.273644" />
<polygon fill="#ffffff" fill-opacity="0.501961" points="254.424288,-16.000000,271.000000,179.000000,246.159273,163.095312,246.920978,44.054253" />
<polygon fill="#dcd9d9" fill-opacity="0.501961" points="114.471200,102.219843,120.546216,70.704102,103.502867,19.434568,102.276048,156.285069" />
<polygon fill="#e0dedf" fill-opacity="0.501961" points="141.645151,107.983197,153.367202,108.435283,154.022444,5.840019,134.983213,74.434484" />
<polygon fill="#00ac02" fill-opacity="0.501961" points="176.910244,21.484169,173.150031,33.334427,212.143974,36.550695,211.317827,25.834255" />
<polygon fill="#00ae02" fill-opacity="0.501961" points="63.973371,32.029390,63.683406,70.080054,70.310890,135.845398,78.901217,30.150330" />
<polygon fill="#efe9ec" fill-opacity="0.501961" points="200.719951,35.119807,242.675895,36.904793,248.019994,72.936308,200.465233,123.992178" />
<polygon fill="#00ad01" fill-opacity="0.501961" points="139.813910,51.517344,108.041333,18.595959,120.183672,73.503173,135.464512,17.793763" />
<polygon fill="#e2dce1" fill-opacity="0.501961" points="140.963883,161.912172,127.972708,112.145699,111.545266,171.704736,120.955709,134.002418" />
<polygon fill="#009e00" fill-opacity="0.501961" points="146.815238,130.455650,139.942638,102.177952,137.494217,85.663994,131.230036,130.823404" />
<polygon fill="#009e00" fill-opacity="0.501961" points="114.264761,102.740697,122.864181,129.579738,116.594664,131.268161,109.547380,130.000806" />
<polygon fill="#ffffff" fill-opacity="0.501961" points="14.749319,9.316214,15.301177,179.000000,-16.000000,-11.152105,190.739718,3.224429" />
<polygon fill="#00a501" fill-opacity="0.501961" points="193.530963,123.278444,189.435367,61.930429,185.487363,128.867375,202.964570,129.648166" />
<polygon fill="#dedddd" fill-opacity="0.501961" points="85.673331,90.880093,78.444855,121.240677,78.117649,83.513675,115.415326,81.129073" />
<polygon fill="#ffffff" fill-opacity="0.501961" points="215.286506,155.714582,271.000000,163.526531,36.959997,166.327061,74.540542,155.731937" />
<polygon fill="#00ae00" fill-opacity="0.501961" points="156.879806,125.112616,167.203852,23.987236,154.467948,20.661824,153.362552,49.868203" />
<polygon fill="#00a400" fill-opacity="0.501961" points="75.120170,127.724529,64.249547,16.264401,64.241990,122.561601,94.412324,130.250158" />
<polygon fill="#00a903" fill-opacity="0.501961" points="129.504990,94.811397,129.164342,41.879788,132.071244,20.845495,146.361856,22.682725" />
<polygon fill="#e7e0e5" fill-opacity="0.501961" points="79.702113,66.347587,110.949128,69.052183,78.024465,32.302133,78.242583,68.154627" />
<polygon fill="#ece5ea" fill-opacity="0.501961" points="186.153157,149.102659,203.884146,130.092748,166.672681,132.249199,185.265538,64.238071" />
<polygon fill="#ece7ec" fill-opacity="0.501961" points="109.969655,2.447524,107.451821,49.528246,97.529077,6.530771,120.598995,20.203977" />
<polygon fill="#00a804" fill-opacity="0.501961" points="123.362109,25.976574,122.988325,21.421901,112.029695,19.662670,119.866909,75.520246" />
<polygon fill="#f9e7f7" fill-opacity="0.501961" points="127.191007,33.638618,124.992643,30.950124,125.473227,22.148309,138.055485,6.218692" />
<polygon fill="#e8e2e6" fill-opacity="0.501961" points="62.553729,106.025549,63.342157,23.412050,70.187003,3.942445,15.948847,10.984304" />
<polygon fill="#f0f0ef" fill-opacity="0.501961" points="173.135759,3.562199,170.227186,33.214530,187.236444,37.924919,178.173005,79.275091" />
<polygon fill="#00a300" fill-opacity="0.501961" points="65.846322,100.692132,64.535637,120.161994,68.089131,129.627069,90.647119,129.176974" />
<polygon fill="#dedbdd" fill-opacity="0.501961" points="9.702392,155.205766,95.451080,130.111400,164.134678,130.600934,246.048907,155.657644" />
<polygon fill="#ffffff" fill-opacity="0.501961" points="13.412499,-9.693279,-16.000000,179.000000,225.846811,158.265759,17.458653,157.309453" />
<polygon fill="#00a400" fill-opacity="0.501961" points="100.276918,82.965585,96.995124,69.785852,63.690959,66.343271,81.509671,81.828484" />
<polygon fill="#e2e3e2" fill-opacity="0.501961" points="170.078190,5.863611,38.201101,18.833037,122.187079,20.009922,188.237046,21.875406" />
<polygon fill="#02a405" fill-opacity="0.501961" points="102.606651,20.314285,99.676459,35.515604,60.621112,23.657007,86.237487,20.634028" />
<polygon fill="#dfe1de" fill-opacity="0.501961" points="147.159514,20.312810,20.838934,20.125545,161.069570,9.166955,142.765602,41.045675" />
<polygon fill="#ffffff" fill-opacity="0.501961" points="246.242852,17.899386,138.518818,-0.169473,271.000000,-3.305668,248.491184,179.000000" />
<polygon fill="#00a801" fill-opacity="0.501961" points="122.937712,131.225531,126.011349,111.975819,124.144620,49.088562,111.704778,126.933097" />
<polygon fill="#dbddda" fill-opacity="0.501961" points="100.986319,59.079226,103.230894,97.583216,109.611538,34.735050,76.458178,33.898977" />
<polygon fill="#00ad07" fill-opacity="0.501961" points="187.221672,22.586742,186.708388,49.589655,198.186450,132.321514,200.891591,70.102312" />
<polygon fill="#dbd9d9" fill-opacity="0.501961" points="15.855830,108.462305,18.218073,150.444247,199.301734,130.680210,46.124136,129.948560" />
<polygon fill="#00a100" fill-opacity="0.501961" points="67.900394,118.742078,101.931396,117.885299,101.864317,127.256802,64.531576,130.038888" />
<polygon fill="#d9d7d7" fill-opacity="0.501961" points="86.239716,87.814317,78.630623,115.818325,102.618939,116.293993,117.244044,73.996578" />
<polygon fill="#f2f0f1" fill-opacity="0.501961" points="203.892225,78.861130,257.369105,10.197500,210.644675,8.192477,212.907328,34.755699" />
<polygon fill="#ebebea" fill-opacity="0.501961" points="174.031200,35.100733,185.992748,128.145117,185.944397,45.371421,186.557192,36.330121" />
<polygon fill="#e2e4e1" fill-opacity="0.501961" points="75.935759,33.334845,114.462308,59.973664,102.461089,-15.492621,101.266553,40.068192" />
<polygon fill="#02a506" fill-opacity="0.501961" points="167.849818,126.965837,154.858603,130.259618,153.544382,114.503663,167.204011,46.080822" />
<polygon fill="#00ab05" fill-opacity="0.501961" points="63.636211,55.138552,83.615146,21.037548,75.794429,41.198234,78.626704,126.709270" />
<polygon fill="#f3f1f2" fill-opacity="0.501961" points="224.310462,35.900159,213.315157,17.098544,209.062063,108.689229,199.930238,36.256777" />
<polygon fill="#06b00c" fill-opacity="0.501961" points="136.091910,20.225280,147.498349,24.105665,118.667946,42.337553,134.129352,128.308060" />
<polygon fill="#ffffff" fill-opacity="0.501961" points="244.802236,154.645801,251.123465,35.619837,271.000000,164.696438,119.589546,163.627329" />
<polygon fill="#ebeaea" fill-opacity="0.501961" points="135.332093,11.136681,127.904652,35.775670,121.116006,14.875302,225.668994,19.763372" />
<polygon fill="#01ab07" fill-opacity="0.501961" points="208.878128,21.550479,210.351635,36.255236,175.355252,20.713724,179.218512,35.410468" />
<polygon fill="#dfdfdf" fill-opacity="0.501961" points="131.235414,137.192414,219.621371,139.712552,123.961356,129.545668,129.183623,112.036515" />
<polygon fill="#dfdddd" fill-opacity="0.501961" points="63.873958,99.467687,63.197474,10.182667,17.297811,157.800652,16.111856,74.912298" />
<polygon fill="#e3e1e3" fill-opacity="0.501961" points="152.664054,0.856706,137.903080,69.683029,134.309854,75.419630,152.866279,124.192463" />
<polygon fill="#e5e5e5" fill-opacity="0.501961" points="239.275823,109.779472,202.686300,54.408965,199.938779,123.223786,201.586713,153.204840" />
<polygon fill="#04a507" fill-opacity="0.501961" points="211.781337,23.325129,181.244240,33.518272,174.164279,23.474135,187.294279,22.683567" />
<polygon fill="#03a605" fill-opacity="0.501961" points="200.136458,125.254007,185.611286,129.881676,188.718476,109.652255,198.208943,34.419913" />
<polygon fill="#079f07" fill-opacity="0.501961" points="122.579227,37.492869,109.177884,26.142941,108.698937,20.992147,124.396333,21.926974" />
<polygon fill="#dfe1de" fill-opacity="0.501961" points="185.901593,79.469764,170.652998,16.464935,167.617041,124.966922,186.339679,148.688777" />
<polygon fill="#dbd9da" fill-opacity="0.501961" points="116.846216,86.950691,104.781946,146.269813,101.895421,57.538426,117.723012,65.034020" />
<polygon fill="#ffffff" fill-opacity="0.501961" points="71.574837,-16.000000,-16.000000,4.907145,116.663986,6.394782,271.000000,4.507847" />
<polygon fill="#dddcdc" fill-opacity="0.501961" points="111.895211,68.506654,78.083641,67.744885,79.220838,43.581283,108.743314,30.560298" />
<polygon fill="#d8d9d7" fill-opacity="0.501961" points="101.978933,113.615508,80.348874,116.388234,77.769608,81.418340,114.452960,84.452386" />
<polygon fill="#01a604" fill-opacity="0.501961" points="132.854379,64.064228,145.761274,130.308770,127.979373,111.204165,144.808894,18.651405" />
<polygon fill="#dfdcdd" fill-opacity="0.501961" points="14.927941,151.117622,19.045161,153.935365,64.249124,155.999083,63.273099,82.434879" />
<polygon fill="#049f05" fill-opacity="0.501961" points="85.055556,73.818798,72.753324,68.526856,103.232229,68.660965,64.521836,90.672528" />
<polygon fill="#029b02" fill-opacity="0.501961" points="84.551565,115.812569,93.806815,130.646949,99.990874,127.504645,102.114969,116.909262" />
<polygon fill="#05af0b" fill-opacity="0.501961" points="186.757001,97.237812,195.100157,132.106300,200.968198,27.823028,187.559941,34.894064" />
<polygon fill="#08b50f" fill-opacity="0.501961" points="213.965141,32.066870,175.818765,23.262611,175.030532,32.885999,199.328108,36.612052" />
<polygon fill="#02a805" fill-opacity="0.501961" points="129.091458,101.098591,147.586908,127.864456,131.963729,128.276497,125.610448,97.528668" />
<polygon fill="#d9dad8" fill-opacity="0.501961" points="143.879079,147.898435,161.394619,154.754638,153.718379,129.412339,152.350315,88.075286" />
<polygon fill="#e6e5e5" fill-opacity="0.501961" points="234.363116,13.383317,246.981532,103.600666,246.809219,16.343929,246.332333,8.510360" />
<polygon fill="#038b00" fill-opacity="0.501961" points="147.511447,21.245010,143.472609,27.489966,131.443521,24.536285,133.075235,21.311075" />
<polygon fill="#05ac09" fill-opacity="0.501961" points="75.154287,123.414766,77.217911,38.764704,63.489185,18.845776,66.736232,73.316152" />
<polygon fill="#03a806" fill-opacity="0.501961" points="133.027194,95.832627,120.578049,81.728770,108.613381,128.239892,120.248224,131.299292" />
<polygon fill="#e8e7e7" fill-opacity="0.501961" points="68.019774,11.334630,26.784353,119.587025,19.774044,36.676143,13.860974,6.078986" />
<polygon fill="#d7d7d7" fill-opacity="0.501961" points="246.397116,89.572875,243.269483,93.961539,232.643365,156.372492,244.170364,155.061734" />
<polygon fill="#04ae0a" fill-opacity="0.501961" points="154.525616,23.523623,153.799718,130.550149,167.367197,46.556567,166.944490,29.766714" />
<polygon fill="#ffffff" fill-opacity="0.501961" points="-16.000000,179.000000,4.156551,-16.000000,16.207924,157.371407,86.962192,156.110756" />
<polygon fill="#00a802" fill-opacity="0.501961" points="72.765635,21.458739,64.000783,42.337514,97.667405,24.472380,96.854987,21.785966" />
<polygon fill="#07a407" fill-opacity="0.501961" points="164.185188,130.477816,162.546098,120.422305,153.055310,99.803094,155.013523,129.221508" />
<polygon fill="#00a302" fill-opacity="0.501961" points="101.842120,81.937944,69.398196,81.102273,90.866509,68.486779,100.919082,71.602861" />
<polygon fill="#0a9a08" fill-opacity="0.501961" points="109.178351,22.101731,124.865585,27.739451,121.086492,48.177037,123.460713,20.134223" />
<polygon fill="#edeeed" fill-opacity="0.501961" points="155.027093,6.324284,251.170922,24.880343,147.131156,17.904407,143.880547,41.690155" />
<polygon fill="#d9d9d8" fill-opacity="0.501961" points="128.745990,128.921356,119.014850,129.859943,57.715086,154.268631,154.481866,151.480657" />
<polygon fill="#05af0a" fill-opacity="0.501961" points="124.117134,29.294138,110.281962,19.667618,111.253234,31.621930,127.366308,101.148953" />
<polygon fill="#e6e8e5" fill-opacity="0.501961" points="87.509802,36.093705,78.116327,34.051568,78.180114,60.782362,78.762891,68.913571" />
<polygon fill="#ffffff" fill-opacity="0.501961" points="246.531493,179.000000,271.000000,139.043220,254.903581,-16.000000,247.265220,13.255447" />
<polygon fill="#069906" fill-opacity="0.501961" points="167.665610,37.748325,154.186812,22.883104,158.945723,21.386146,166.255316,20.930843" />
<polygon fill="#02a504" fill-opacity="0.501961" points="187.872487,65.859541,200.116314,109.162533,193.739486,130.209148,187.488785,129.488845" />
<polygon fill="#ffffff" fill-opacity="0.501961" points="15.260055,4.883441,14.944571,105.814335,-16.000000,-14.958005,160.622116,5.407882" />
<polygon fill="#02b006" fill-opacity="0.501961" points="75.463929,33.778580,101.552700,33.830617,97.585848,21.515919,64.576107,29.724575" />
<polygon fill="#0aa40b" fill-opacity="0.501961" points="186.559714,129.727944,200.125665,57.729805,199.599999,119.639100,199.121999,130.646023" />
<polygon fill="#ecedeb" fill-opacity="0.501961" points="185.759971,34.335584,185.830712,61.311844,173.560599,40.150253,183.849384,35.190980" />
<polygon fill="#07a209" fill-opacity="0.501961" points="145.439739,123.964912,144.869263,129.829967,133.445131,130.071863,135.316997,80.103877" />
<polygon fill="#dcdddb" fill-opacity="0.501961" points="110.330272,117.534319,120.085672,73.855253,112.926161,49.492589,99.737914,1.034312" />
<polygon fill="#dcdbdb" fill-opacity="0.501961" points="117.346204,145.035469,101.461290,150.492269,102.297096,116.516740,131.636861,171.708920" />
<polygon fill="#e3e3e2" fill-opacity="0.501961" points="189.873835,158.223970,181.523484,91.769861,164.934315,136.664723,226.879971,124.425642" />
<polygon fill="#e1e3e1" fill-opacity="0.501961" points="135.348391,5.121430,119.257492,19.309378,110.788491,-0.939617,129.359547,33.115030" />
<polygon fill="#e0dfdf" fill-opacity="0.501961" points="16.591141,154.901457,15.576628,40.343178,65.136825,130.239738,86.609459,135.424489" />
<polygon fill="#f3f3f2" fill-opacity="0.501961" points="201.811073,35.123178,206.955347,38.847671,243.205533,8.360329,201.323648,62.846463" />
<polygon fill="#0ab20f" fill-opacity="0.501961" points="207.407756,28.550189,174.904511,35.421186,176.375077,27.737525,211.352530,24.439741" />
<polygon fill="#ffffff" fill-opacity="0.501961" points="-16.000000,156.876477,116.352346,155.737265,192.004314,156.548722,271.000000,177.716339" />
<polygon fill="#dad7d8" fill-opacity="0.501961" points="109.443205,115.708043,78.656905,114.221207,78.781974,95.869727,114.657387,79.269548" />
<polygon fill="#dadbd9" fill-opacity="0.501961" points="135.811871,75.680666,140.720919,52.001396,153.283694,87.037828,151.847191,144.955894" />
<polygon fill="#eaeae9" fill-opacity="0.501961" points="168.304596,23.797387,165.176222,13.963006,176.163410,11.495827,171.030093,61.935845" />
<polygon fill="#e5e6e5" fill-opacity="0.501961" points="133.811067,8.768562,128.153991,37.101959,117.461370,5.303902,164.249327,7.504968" />
<polygon fill="#e3e2e3" fill-opacity="0.501961" points="169.970345,19.509065,126.273973,19.883463,52.167687,20.088556,68.806885,5.739236" />
<polygon fill="#06a308" fill-opacity="0.501961" points="67.145702,121.270400,102.742468,115.795577,83.021048,130.306505,64.490090,129.333859" />
<polygon fill="#dbdbda" fill-opacity="0.501961" points="127.641493,113.127157,119.626338,148.308048,137.995870,147.104165,140.876998,161.995765" />
<polygon fill="#08b10c" fill-opacity="0.501961" points="120.161576,53.756227,132.794911,80.508215,139.679236,54.452203,138.323051,19.172108" />
<polygon fill="#098406" fill-opacity="0.501961" points="96.611089,21.768466,101.604710,23.071292,64.025556,22.179580,70.614447,20.682214" />
<polygon fill="#02a705" fill-opacity="0.501961" points="76.511292,38.550304,65.426821,121.231397,77.712849,127.992768,77.598991,80.149022" />
<polygon fill="#02a704" fill-opacity="0.501961" points="157.873797,114.271017,154.020677,129.787673,166.040824,128.479398,167.381785,41.977822" />
<polygon fill="#01a504" fill-opacity="0.501961" points="76.385504,84.558049,65.410164,128.216926,101.902406,130.345927,77.826524,115.589760" />
<polygon fill="#049d03" fill-opacity="0.501961" points="121.618913,21.413182,111.223743,21.147571,125.036656,31.229603,129.655456,54.336464" />
<polygon fill="#169012" fill-opacity="0.501961" points="211.774905,36.165643,211.739808,22.075526,181.298096,23.222339,208.152946,23.405752" />
<polygon fill="#04a606" fill-opacity="0.501961" points="123.042123,65.735141,123.454123,120.792251,120.938516,129.091250,108.984064,129.715212" />
<polygon fill="#09b50f" fill-opacity="0.501961" points="196.452837,49.755717,174.565542,20.957413,178.361351,34.849557,199.568174,30.707824" />
<polygon fill="#e5e8e5" fill-opacity="0.501961" points="179.128286,40.524767,171.104363,28.906264,186.627514,109.516334,183.369567,63.308624" />
<polygon fill="#f1f1f0" fill-opacity="0.501961" points="243.900277,57.617255,238.848778,9.397696,211.178798,21.876759,216.257315,59.084718" />
<polygon fill="#e6e6e6" fill-opacity="0.501961" points="172.811941,86.421177,169.728638,12.333519,178.471775,46.779726,186.720152,113.456655" />
<polygon fill="#07b10b" fill-opacity="0.501961" points="153.173426,69.756838,166.947846,28.039365,163.557145,99.682419,154.142212,59.786028" />
<polygon fill="#02a803" fill-opacity="0.501961" points="131.944911,127.275039,146.453221,128.929564,131.216952,82.350520,135.053542,65.613153" />
<polygon fill="#e0e0df" fill-opacity="0.501961" points="141.573071,155.810391,168.034475,134.852784,167.776591,115.266115,209.064816,156.048105" />
<polygon fill="#dedede" fill-opacity="0.501961" points="237.953205,101.004778,247.651412,37.829218,243.036847,155.740404,226.062191,155.850537" />
<polygon fill="#d9d9d7" fill-opacity="0.501961" points="103.017123,117.846145,77.906740,85.800179,81.819372,82.806269,107.771328,82.032207" />
<polygon fill="#e2e3e0" fill-opacity="0.501961" points="144.077139,33.697381,151.513776,7.319835,153.433063,47.649570,150.696949,90.916059" />
<polygon fill="#ffffff" fill-opacity="0.501961" points="202.800936,179.000000,30.751147,156.312422,161.750590,157.066307,271.000000,155.590906" />
<polygon fill="#ededed" fill-opacity="0.501961" points="191.859331,22.145259,148.930154,5.747892,236.378009,13.730805,155.359002,16.351140" />
<polygon fill="#ffffff" fill-opacity="0.501961" points="247.419985,7.786764,250.065686,99.385129,271.000000,-16.000000,110.932288,6.122628" />
<polygon fill="#09b10d" fill-opacity="0.501961" points="63.651717,54.809563,79.237968,33.601212,96.656846,25.339952,67.387324,27.155106" />
<polygon fill="#08aa0a" fill-opacity="0.501961" points="66.138614,115.206699,76.759818,33.581399,77.907177,56.157888,63.842997,27.775754" />
<polygon fill="#e9e9e9" fill-opacity="0.501961" points="139.702605,7.657957,123.761184,6.122256,193.882281,11.723157,172.028586,23.689166" />
<polygon fill="#03a807" fill-opacity="0.501961" points="199.477109,129.073978,187.975250,130.575191,187.150723,112.457249,187.135453,73.915629" />
<polygon fill="#ffffff" fill-opacity="0.501961" points="16.739089,153.139137,46.764201,172.234342,-16.000000,166.216326,15.176252,47.789580" />
<polygon fill="#e3e3e2" fill-opacity="0.501961" points="159.919458,131.645924,203.210564,154.268706,233.036360,132.475591,181.100013,129.867120" />
<polygon fill="#e4e3e3" fill-opacity="0.501961" points="111.466244,45.245759,104.902879,4.987281,101.725675,35.646116,77.086262,42.190133" />
<polygon fill="#e8e7e7" fill-opacity="0.501961" points="53.135690,44.441956,68.113421,8.409129,15.294799,11.242797,21.381632,81.882367" />
<polygon fill="#09b30f" fill-opacity="0.501961" points="174.776473,25.574095,177.962486,33.097044,196.846373,35.819476,212.882618,34.247870" />
<polygon fill="#e0e1df" fill-opacity="0.501961" points="81.683031,20.685051,123.746824,17.764867,80.887370,10.899526,45.252647,13.158706" />
<polygon fill="#dadbda" fill-opacity="0.501961" points="79.395842,65.718789,82.675329,68.498700,110.498850,65.050748,104.190277,36.267578" />
<polygon fill="#e6e5e5" fill-opacity="0.501961" points="200.369589,146.236258,244.262420,83.026726,230.002798,67.787395,201.067027,110.861263" />
<polygon fill="#e3e2e2" fill-opacity="0.501961" points="60.614254,12.814234,56.005650,84.787805,65.894133,69.010942,28.552658,114.919541" />
<polygon fill="#dbdbda" fill-opacity="0.501961" points="174.470842,141.793739,126.946010,145.433370,130.750899,118.651169,121.212205,132.823904" />
<polygon fill="#05aa08" fill-opacity="0.501961" points="121.462003,86.867232,137.314602,86.331849,120.843922,129.986412,110.498652,130.900235" />
<polygon fill="#0a9f0a" fill-opacity="0.501961" points="67.165755,26.922371,94.505570,24.674031,64.270144,20.289321,64.421823,75.606178" />
<polygon fill="#009900" fill-opacity="0.501961" points="82.867757,68.738904,99.285114,71.334910,99.727293,80.064276,78.884248,71.393096" />
<polygon fill="#08aa0b" fill-opacity="0.501961" points="200.115489,21.901279,186.189702,92.138306,189.052375,42.253653,199.590911,94.765652" />
<polygon fill="#dadad9" fill-opacity="0.501961" points="90.176948,153.242834,105.353945,122.066390,111.870593,144.508196,40.341180,123.197172" />
<polygon fill="#06a808" fill-opacity="0.501961" points="200.126836,130.771086,191.537024,123.094592,186.012828,121.465064,195.325092,76.161604" />
<polygon fill="#dadada" fill-opacity="0.501961" points="245.921023,53.237681,245.779425,151.904600,224.510789,154.877977,243.173419,134.562490" />
<polygon fill="#e1e3e0" fill-opacity="0.501961" points="78.535344,62.515355,89.860858,39.498170,102.350176,34.752942,78.513848,35.354387" />
<polygon fill="#dbdbd9" fill-opacity="0.501961" points="167.331071,109.326874,171.664362,160.172399,171.269468,147.492543,175.020617,73.951177" />
<polygon fill="#dedfdd" fill-opacity="0.501961" points="78.500648,104.584444,80.202831,109.637964,79.067226,82.834024,90.997919,83.663474" />
<polygon fill="#dbdbda" fill-opacity="0.501961" points="153.941261,129.103855,155.907202,154.661271,110.061417,130.229626,137.105326,132.109781" />
<polygon fill="#01a400" fill-opacity="0.501961" points="154.236247,77.034850,154.405420,123.567101,156.811780,126.480733,154.709607,52.854344" />
<polygon fill="#04ac08" fill-opacity="0.501961" points="133.894224,17.816350,123.726611,126.436807,121.804428,130.136028,115.516731,125.892817" />
<polygon fill="#04a907" fill-opacity="0.501961" points="85.606279,75.272584,76.734052,83.124016,64.303933,127.379876,66.155759,56.155456" />
<polygon fill="#06b20c" fill-opacity="0.501961" points="120.137955,41.017747,109.557539,29.159990,128.905385,72.942045,143.629280,31.693114" />
<polygon fill="#dcdddb" fill-opacity="0.501961" points="139.784729,54.697934,153.172676,137.453337,152.017817,63.444509,137.530932,89.283576" />
<polygon fill="#07af0b" fill-opacity="0.501961" points="162.447732,23.475298,166.043719,47.132052,156.027897,100.944120,153.522120,22.640359" />
<polygon fill="#efeeed" fill-opacity="0.501961" points="245.548665,66.826375,200.458528,37.106379,206.553962,83.011212,217.512494,88.185680" />
<polygon fill="#d7ded6" fill-opacity="0.501961" points="124.523309,21.386609,122.908566,1.649586,126.353633,37.836213,129.942589,33.688413" />
<polygon fill="#f2f2f2" fill-opacity="0.501961" points="241.236460,10.305274,233.484648,28.253478,178.418697,13.764734,173.862470,12.475724" />
<polygon fill="#dad9d9" fill-opacity="0.501961" points="25.027499,154.170206,17.203570,153.461900,16.622225,74.750471,22.287141,152.832781" />
<polygon fill="#e9e8e8" fill-opacity="0.501961" points="63.821598,21.073594,22.582231,27.087454,20.774384,10.761147,93.325253,5.029894" />
<polygon fill="#029c01" fill-opacity="0.501961" points="73.882154,116.361857,66.097188,117.215091,98.946688,116.464018,101.495569,128.952305" />
<polygon fill="#07af0a" fill-opacity="0.501961" points="128.626702,39.988823,119.009726,25.136277,112.149753,33.997354,127.118579,105.357241" />
<polygon fill="#08b00c" fill-opacity="0.501961" points="211.627317,33.959655,192.938057,35.505406,176.550496,34.519420,209.561202,24.505760" />
<polygon fill="#08a408" fill-opacity="0.501961" points="82.572885,24.374681,101.957400,33.599376,100.374325,24.400630,98.483604,21.871000" />
<polygon fill="#06a107" fill-opacity="0.501961" points="167.126121,129.265454,166.496439,41.319042,165.758336,100.563162,158.595304,129.681417" />
<polygon fill="#dee0dd" fill-opacity="0.501961" points="119.981429,77.143475,113.827906,76.989541,97.890959,38.488024,108.183078,24.380450" />
<polygon fill="#e4e5e4" fill-opacity="0.501961" points="119.985687,155.745910,137.725163,153.810620,44.010684,154.145784,87.455937,156.155297" />
<polygon fill="#d7d8d6" fill-opacity="0.501961" points="101.938918,105.143511,101.765127,38.084886,109.257267,160.349583,103.440213,126.152978" />
<polygon fill="#07a106" fill-opacity="0.501961" points="140.103675,21.473847,145.459650,21.534329,129.159736,39.001229,133.408907,20.754025" />
<polygon fill="#06ab08" fill-opacity="0.501961" points="117.988545,105.490211,130.144706,114.556696,140.845444,32.137518,138.866469,55.776919" />
<polygon fill="#0d9c0a" fill-opacity="0.501961" points="197.562815,28.440479,172.977578,21.698568,198.675155,23.332065,210.650157,23.560572" />
<polygon fill="#dadbd9" fill-opacity="0.501961" points="118.466387,154.029418,128.044704,112.118942,129.568745,127.030645,152.164189,148.710958" />
<polygon fill="#e2e1e1" fill-opacity="0.501961" points="137.279465,84.398143,136.323693,69.562397,151.923385,57.576652,153.381898,15.111975" />
<polygon fill="#f2f2f1" fill-opacity="0.501961" points="211.058192,70.031943,211.691617,33.581540,213.887239,11.809466,230.665890,35.005885" />
<polygon fill="#039803" fill-opacity="0.501961" points="65.787034,72.014334,102.724022,70.580896,100.483020,69.101809,100.303711,69.063727" />
<polygon fill="#dcdcdb" fill-opacity="0.501961" points="62.968167,83.657501,62.854053,143.836852,42.922225,140.050223,63.109942,64.482075" />
<polygon fill="#0e940c" fill-opacity="0.501961" points="156.750567,20.579247,167.366848,23.175045,155.450575,27.277678,154.108994,25.672065" />
<polygon fill="#07ac0b" fill-opacity="0.501961" points="175.901211,34.899674,177.800382,23.845418,211.883869,23.053131,211.142319,31.838551" />
<polygon fill="#e4e5e4" fill-opacity="0.501961" points="149.089095,12.454161,100.288475,7.001769,134.670841,19.858462,186.249129,21.077710" />
<polygon fill="#0ab511" fill-opacity="0.501961" points="200.939228,51.367733,181.667802,25.916126,204.705772,25.254131,185.933698,38.967414" />
<polygon fill="#04ac07" fill-opacity="0.501961" points="120.304938,110.805818,134.271869,114.928687,141.959366,105.762917,129.081791,81.875236" />
<polygon fill="#009b00" fill-opacity="0.501961" points="166.763891,27.888065,161.127183,26.611865,164.534891,22.100853,166.969608,22.361592" />
<polygon fill="#ffffff" fill-opacity="0.501961" points="15.465801,-12.341361,12.185787,175.506578,-16.000000,0.303923,76.286877,7.077695" />
<polygon fill="#06ab09" fill-opacity="0.501961" points="153.629762,29.874267,156.165741,130.292825,166.623233,126.438366,164.088183,116.017418" />
<polygon fill="#04ac07" fill-opacity="0.501961" points="100.512023,79.826829,101.488107,78.605490,89.938909,72.654494,75.238052,81.754366" />
<polygon fill="#e8eae7" fill-opacity="0.501961" points="186.112774,36.564477,185.708593,81.364279,170.813753,40.149126,182.242666,35.342262" />
<polygon fill="#089305" fill-opacity="0.501961" points="97.355607,20.612194,102.012574,22.262724,93.062978,24.324761,70.887958,22.972483" />
<polygon fill="#e4e4e4" fill-opacity="0.501961" points="102.252294,18.307330,102.515272,35.241310,110.073485,9.250499,53.882334,8.614306" />
<polygon fill="#06ae0a" fill-opacity="0.501961" points="194.069306,129.623796,186.446968,50.118533,201.393739,31.168438,200.388186,32.664146" />
<polygon fill="#ffffff" fill-opacity="0.501961" points="227.354406,11.993325,186.306318,5.624245,20.374163,5.136918,266.748823,-16.000000" />
<polygon fill="#06af09" fill-opacity="0.501961" points="131.375998,25.935681,144.923627,24.722097,124.372688,115.561498,129.174871,35.258142" />
<polygon fill="#08b00e" fill-opacity="0.501961" points="94.288335,34.642465,64.140776,24.655653,65.483528,45.314438,77.573059,32.825614" />
<polygon fill="#dedfdd" fill-opacity="0.501961" points="77.049886,34.829677,79.514477,44.053196,101.801676,36.403463,97.374265,53.875777" />
<polygon fill="#dedddd" fill-opacity="0.501961" points="205.622713,155.428711,243.643400,155.981347,231.462779,137.658876,231.662130,139.966048" />
<polygon fill="#d9d7d7" fill-opacity="0.501961" points="87.506305,99.160288,116.495286,78.317235,110.215922,118.118253,86.003447,112.977559" />
<polygon fill="#04a505" fill-opacity="0.501961" points="152.976888,129.302863,154.163743,127.220669,154.375610,98.998684,166.405548,128.512257" />
<polygon fill="#04a706" fill-opacity="0.501961" points="132.444174,129.835302,143.444889,128.903163,140.345027,105.779660,127.826261,102.151440" />
<polygon fill="#ffffff" fill-opacity="0.501961" points="232.380274,178.163370,259.783948,126.009991,271.000000,157.603568,170.174379,155.888500" />
<polygon fill="#0c9f0b" fill-opacity="0.501961" points="199.342025,47.804142,197.419476,118.602858,200.342707,92.973470,198.481729,56.691297" />
<polygon fill="#e3e2e2" fill-opacity="0.501961" points="236.775238,122.840807,217.033606,145.197041,199.504365,111.832830,210.516539,103.190328" />
<polygon fill="#04a507" fill-opacity="0.501961" points="188.450998,128.554349,197.748105,129.997897,187.519771,88.077512,186.853397,129.612290" />
<polygon fill="#02a505" fill-opacity="0.501961" points="128.761436,97.069437,108.448905,128.276295,121.746973,130.002798,130.240961,93.023510" />
<polygon fill="#05ac09" fill-opacity="0.501961" points="76.347229,34.553440,72.515260,125.282237,66.507505,27.797724,63.590154,58.997541" />
<polygon fill="#039502" fill-opacity="0.501961" points="63.211928,21.524448,69.664457,24.507645,98.169393,23.233282,101.318321,21.179547" />
<polygon fill="#08a609" fill-opacity="0.501961" points="145.354997,24.356244,127.800161,99.696770,144.816972,21.126414,146.772466,24.097880" />
<polygon fill="#04a207" fill-opacity="0.501961" points="199.454649,129.225558,188.271915,122.289710,187.187200,130.530152,198.098831,116.144999" />
<polygon fill="#dedede" fill-opacity="0.501961" points="137.968008,67.634419,149.936479,53.298602,153.633113,86.610795,136.009171,77.964568" />
<polygon fill="#e6e6e5" fill-opacity="0.501961" points="63.920082,12.906974,14.376667,8.103187,63.897350,25.568724,59.926882,10.717147" />
</g>
</svg>