<svg xmlns="http://www.w3.org/2000/svg" version="1.1" width="1280" height="1095">
<rect x="0" y="0" width="1280" height="1095" fill="#25242f" />
<g transform="scale(5.000000) translate(0.5 0.5)">
<polygon fill="#deb391" fill-opacity="0.501961" points="106.680251,156.694045,118.751348,27.362892,89.639727,4.094886,62.716651,27.086844" />
<polygon fill="#c3c1a5" fill-opacity="0.501961" points="260.987247,234.000000,268.658131,166.846696,209.133409,169.961422,215.514504,234.000000" />
<polygon fill="#ffffff" fill-opacity="0.501961" points="254.639800,-16.000000,271.000000,215.039039,253.569464,220.031337,253.637963,49.242985" />
<polygon fill="#aa7353" fill-opacity="0.501961" points="183.462749,163.772547,229.071741,134.066409,134.910790,146.351427,159.500465,109.459075" />
<polygon fill="#000018" fill-opacity="0.501961" points="-16.000000,-2.039368,76.726857,-0.143277,5.884689,234.000000,-1.141016,157.722760" />
<polygon fill="#ebfbff" fill-opacity="0.501961" points="67.276219,46.680536,97.406812,117.474151,95.700234,109.781694,96.769412,87.400994" />
<polygon fill="#000014" fill-opacity="0.501961" points="252.983334,-3.892829,126.348569,-16.000000,123.162040,105.767517,253.102162,140.095794" />
<polygon fill="#5a595e" fill-opacity="0.501961" points="144.298167,178.797596,29.496235,86.595548,72.064159,76.394649,161.399451,191.724796" />
<polygon fill="#010405" fill-opacity="0.501961" points="-11.201202,128.124687,73.010501,125.116696,83.934370,218.187941,10.343772,215.251179" />
<polygon fill="#b8a89c" fill-opacity="0.501961" points="197.872820,129.007351,234.229984,143.029626,204.940494,124.350910,203.422735,57.836499" />
<polygon fill="#6d4227" fill-opacity="0.501961" points="111.078980,94.948871,129.413381,28.434345,94.417169,33.119932,82.079338,65.507885" />
<polygon fill="#4f5458" fill-opacity="0.501961" points="100.613215,222.916939,53.764192,179.819206,158.194193,209.838832,227.715697,220.753968" />
<polygon fill="#00000f" fill-opacity="0.501961" points="144.707446,177.920473,253.978365,163.477476,240.033009,-16.000000,231.897008,144.155249" />
<polygon fill="#bd957d" fill-opacity="0.501961" points="68.884995,17.471606,98.307966,14.733308,78.880926,79.772295,65.490148,44.993566" />
<polygon fill="#000100" fill-opacity="0.501961" points="44.303979,132.327614,68.457029,182.395788,114.714599,198.004185,146.098632,185.117796" />
<polygon fill="#ffffff" fill-opacity="0.501961" points="253.852622,59.889468,254.714710,171.821956,271.000000,73.005004,253.062993,-12.905701" />
<polygon fill="#000121" fill-opacity="0.501961" points="164.283134,-16.000000,254.020330,68.128454,111.634233,96.067557,92.811101,115.971717" />
<polygon fill="#000225" fill-opacity="0.501961" points="-3.161053,-16.000000,-16.000000,115.380228,80.976381,64.567921,95.705360,77.153932" />
<polygon fill="#785741" fill-opacity="0.501961" points="130.537688,172.855975,151.605274,110.516578,162.728763,127.493001,148.241340,183.018792" />
<polygon fill="#00021c" fill-opacity="0.501961" points="100.494721,11.883315,-16.000000,3.001307,253.655238,-10.213545,253.359960,59.485423" />
<polygon fill="#6e6c6e" fill-opacity="0.501961" points="125.755946,139.080312,127.679004,107.816133,89.341461,74.375749,124.596666,144.438392" />
<polygon fill="#ae785e" fill-opacity="0.501961" points="196.806794,158.077539,151.576496,108.979393,167.453344,149.615348,212.131000,138.298412" />
<polygon fill="#a9b7bc" fill-opacity="0.501961" points="151.323106,172.108377,142.436212,170.997559,130.435168,165.121014,139.368013,181.266636" />
<polygon fill="#bdc5d0" fill-opacity="0.501961" points="85.713900,70.472006,40.333569,89.950270,78.821588,66.457705,100.733612,131.180458" />
<polygon fill="#94aeac" fill-opacity="0.501961" points="228.258219,138.159188,231.617621,144.959919,209.050837,134.331032,185.631438,119.025367" />
<polygon fill="#2f2b2f" fill-opacity="0.501961" points="114.451772,166.061998,100.887948,80.720756,94.885835,124.582218,165.928131,136.946747" />
<polygon fill="#b18062" fill-opacity="0.501961" points="127.326291,47.604438,128.005927,51.453185,72.042083,44.733757,116.206877,38.701668" />
<polygon fill="#d7e3e3" fill-opacity="0.501961" points="104.368741,105.092640,109.254096,128.425026,106.729204,81.733610,106.888889,94.905707" />
<polygon fill="#030924" fill-opacity="0.501961" points="200.806136,54.129901,103.587192,58.820500,182.675122,139.179805,194.163677,147.049176" />
<polygon fill="#737b91" fill-opacity="0.501961" points="168.083437,182.368902,96.599324,208.041672,108.325869,197.177676,109.397404,198.081857" />
<polygon fill="#dee9ee" fill-opacity="0.501961" points="108.901555,92.974691,106.769624,85.872289,94.138192,97.521684,81.389422,81.475106" />
<polygon fill="#000000" fill-opacity="0.501961" points="39.714094,181.012555,94.029070,216.455229,75.181603,217.488534,-16.000000,218.169494" />
<polygon fill="#babbb6" fill-opacity="0.501961" points="269.763176,218.452945,-12.337236,219.261142,98.088241,217.644635,159.830739,218.076281" />
<polygon fill="#292a2c" fill-opacity="0.501961" points="34.680040,63.627715,20.444051,128.377029,37.488052,179.862644,66.870658,196.439095" />
<polygon fill="#ffffff" fill-opacity="0.501961" points="254.164314,205.480518,253.103781,234.000000,271.000000,131.641945,254.606685,78.339430" />
<polygon fill="#00021f" fill-opacity="0.501961" points="148.199999,177.555092,149.669246,186.966051,203.886559,161.690662,156.229304,148.934013" />
<polygon fill="#6c7994" fill-opacity="0.501961" points="204.948546,169.850228,217.420460,177.958599,196.811849,168.188137,144.984207,189.086335" />
<polygon fill="#b68d72" fill-opacity="0.501961" points="68.350516,21.942100,75.872955,12.679545,124.483058,26.562409,123.053724,36.016523" />
<polygon fill="#7e6557" fill-opacity="0.501961" points="197.468904,111.692389,205.618998,71.057096,202.730381,130.241166,183.309477,120.421129" />
<polygon fill="#150d07" fill-opacity="0.501961" points="94.251499,33.065883,139.344959,35.791031,129.640916,34.189688,98.537442,41.562273" />
<polygon fill="#000413" fill-opacity="0.501961" points="237.525544,167.522386,198.370896,171.060391,211.625905,137.664316,249.077389,154.182833" />
<polygon fill="#674225" fill-opacity="0.501961" points="92.280262,5.736716,94.294312,22.627834,119.738792,26.036590,109.224117,11.891793" />
<polygon fill="#c7be89" fill-opacity="0.501961" points="233.033048,185.412396,231.098324,213.183061,244.238418,199.662489,249.068718,234.000000" />
<polygon fill="#000000" fill-opacity="0.501961" points="119.840480,151.245509,140.695288,185.461077,119.032739,198.133376,111.552429,196.437390" />
<polygon fill="#525454" fill-opacity="0.501961" points="216.655638,216.664109,205.356980,166.437123,220.441606,182.628859,242.301208,218.259412" />
<polygon fill="#00031a" fill-opacity="0.501961" points="250.748581,-16.000000,199.024519,115.346477,224.610819,135.882707,253.505518,149.058316" />
<polygon fill="#e5ecee" fill-opacity="0.501961" points="97.155979,108.232495,96.274427,115.906059,78.100459,70.901029,81.365637,66.227285" />
<polygon fill="#02072a" fill-opacity="0.501961" points="163.817704,68.721055,133.163903,152.625706,128.536861,91.790177,131.237361,-16.000000" />
<polygon fill="#aa765b" fill-opacity="0.501961" points="91.044920,64.199424,98.358493,79.951737,105.312258,79.089177,122.110599,65.527899" />
<polygon fill="#c1c3c1" fill-opacity="0.501961" points="-0.949083,218.273247,13.018344,234.000000,126.523234,227.240994,44.983795,218.140115" />
<polygon fill="#403a3d" fill-opacity="0.501961" points="67.074049,127.920559,103.211993,174.855778,107.378401,151.075406,81.542264,79.881456" />
<polygon fill="#707484" fill-opacity="0.501961" points="47.180778,82.817620,68.583474,80.799505,49.394374,90.708827,33.270561,89.611374" />
<polygon fill="#6f7a86" fill-opacity="0.501961" points="110.819733,126.444293,107.603751,117.339505,101.267541,117.359678,101.214353,171.976883" />
<polygon fill="#859392" fill-opacity="0.501961" points="210.889492,130.935338,196.566252,129.507987,235.003942,145.861378,237.705027,143.136162" />
<polygon fill="#2a2e31" fill-opacity="0.501961" points="203.837807,175.144922,104.027365,205.635998,91.193056,217.783636,215.794187,212.615807" />
<polygon fill="#513524" fill-opacity="0.501961" points="168.574237,155.138815,138.967783,124.485663,201.501054,157.347871,181.050395,161.004176" />
<polygon fill="#030b31" fill-opacity="0.501961" points="75.379325,70.509483,43.278525,-16.000000,21.378295,90.691174,65.112078,76.261945" />
<polygon fill="#000408" fill-opacity="0.501961" points="111.007097,120.602216,110.969486,106.409514,109.676643,98.007318,107.863355,103.831848" />
<polygon fill="#00031b" fill-opacity="0.501961" points="-8.817806,-4.062569,2.565954,206.503158,17.449708,216.749962,25.158100,-9.644842" />
<polygon fill="#442a1a" fill-opacity="0.501961" points="99.025110,50.023517,118.838386,80.211096,88.698507,53.967845,128.658681,51.132362" />
<polygon fill="#b8816b" fill-opacity="0.501961" points="178.172553,145.862048,189.445352,151.588650,208.959111,146.010794,206.268205,138.341156" />
<polygon fill="#000313" fill-opacity="0.501961" points="153.560251,107.230068,203.670654,132.382026,194.709218,140.043363,183.854486,142.231439" />
<polygon fill="#000623" fill-opacity="0.501961" points="113.440789,94.660486,105.792995,82.762752,131.171373,70.951069,134.486433,111.244205" />
<polygon fill="#a0796c" fill-opacity="0.501961" points="205.082415,94.629817,200.201840,131.854300,200.670377,80.349151,201.910404,74.618026" />
<polygon fill="#d0c98a" fill-opacity="0.501961" points="235.057251,212.012693,238.169016,187.421324,233.649981,187.771273,232.452945,209.558363" />
<polygon fill="#b78b71" fill-opacity="0.501961" points="110.726425,54.654894,79.926659,27.471498,105.579128,57.669806,119.337094,55.589648" />
<polygon fill="#6d6143" fill-opacity="0.501961" points="251.112563,169.342150,226.715327,223.047758,245.588555,199.653742,254.229607,234.000000" />
<polygon fill="#bba798" fill-opacity="0.501961" points="72.009947,46.032917,65.965385,29.966355,75.772601,19.259356,83.901722,16.043413" />
<polygon fill="#161615" fill-opacity="0.501961" points="33.649664,112.609802,40.909831,135.749908,120.075231,182.565346,60.493535,115.540218" />
<polygon fill="#a57a5d" fill-opacity="0.501961" points="120.196378,67.242263,123.663952,46.207137,111.720456,44.921187,114.949480,22.445745" />
<polygon fill="#050b2e" fill-opacity="0.501961" points="89.548519,-16.000000,24.536066,-8.666805,28.633585,95.020404,58.277174,43.203678" />
<polygon fill="#ffffff" fill-opacity="0.501961" points="254.660109,102.598235,253.985618,-2.580997,271.000000,19.243294,254.646735,120.411870" />
<polygon fill="#8f878a" fill-opacity="0.501961" points="110.689048,202.855615,139.453242,188.131646,121.396874,200.464648,98.753582,194.407994" />
<polygon fill="#5a5e65" fill-opacity="0.501961" points="211.470172,211.249127,208.478381,175.447136,197.298696,170.337352,249.374471,171.540326" />
<polygon fill="#38373b" fill-opacity="0.501961" points="39.370183,178.243926,53.933194,177.402814,31.863361,125.346113,51.380083,145.013661" />
<polygon fill="#aeaeac" fill-opacity="0.501961" points="208.219251,217.473090,226.726686,218.257661,265.627531,218.936397,131.118488,219.587288" />
<polygon fill="#00090e" fill-opacity="0.501961" points="97.355516,137.984253,99.943957,106.273467,100.174081,94.855413,96.930161,95.954187" />
<polygon fill="#9d6d59" fill-opacity="0.501961" points="154.800627,111.243617,181.987190,145.176482,161.323467,132.360114,146.450878,121.434120" />
<polygon fill="#b9bec2" fill-opacity="0.501961" points="100.677193,88.664419,109.655917,93.260481,90.005213,93.733107,78.475064,64.035351" />
<polygon fill="#00051a" fill-opacity="0.501961" points="208.447042,128.738010,231.276502,-16.000000,186.910731,55.553477,248.763532,145.126810" />
<polygon fill="#030819" fill-opacity="0.501961" points="160.695730,139.069565,158.764398,161.375690,136.742711,189.252846,172.199952,177.813131" />
<polygon fill="#02122d" fill-opacity="0.501961" points="109.072189,209.766290,75.843267,216.924873,133.077830,195.086507,187.527947,176.784434" />
<polygon fill="#593928" fill-opacity="0.501961" points="146.335491,117.799212,132.594595,163.573126,138.291872,171.622091,160.650643,142.455664" />
<polygon fill="#16111d" fill-opacity="0.501961" points="125.844866,53.759599,104.275198,52.197892,112.810356,47.681546,199.485703,100.477776" />
<polygon fill="#bda290" fill-opacity="0.501961" points="99.106161,26.295928,88.532187,15.706132,78.424597,18.795590,95.404227,35.372557" />
<polygon fill="#e5ecee" fill-opacity="0.501961" points="84.063522,72.189674,86.321850,82.293205,75.425852,70.646331,77.947837,63.639830" />
<polygon fill="#0a1317" fill-opacity="0.501961" points="104.064094,171.845053,111.187606,186.548647,111.438973,130.861916,107.887852,141.852284" />
<polygon fill="#fbfdfc" fill-opacity="0.501961" points="254.536299,53.315483,271.000000,210.166173,253.758104,221.187460,254.587332,173.819432" />
<polygon fill="#a3765e" fill-opacity="0.501961" points="70.413102,60.219854,66.512936,36.116184,106.283168,81.839636,113.156723,65.795304" />
<polygon fill="#111228" fill-opacity="0.501961" points="66.371520,75.908634,37.039998,36.437502,95.900984,75.612259,81.934512,61.088131" />
<polygon fill="#bc9484" fill-opacity="0.501961" points="200.077712,110.522450,201.513885,79.596856,205.603661,85.112941,203.024979,98.976478" />
<polygon fill="#050921" fill-opacity="0.501961" points="204.635477,59.995887,219.993683,-3.354362,89.514879,-16.000000,194.819926,120.921127" />
<polygon fill="#0e0a0e" fill-opacity="0.501961" points="100.439330,61.572752,97.489592,57.881314,111.190716,60.023204,157.125838,73.183320" />
<polygon fill="#dee0df" fill-opacity="0.501961" points="92.112608,94.219149,85.851453,83.219254,95.365801,119.131300,97.717155,122.898090" />
<polygon fill="#27180d" fill-opacity="0.501961" points="109.003263,41.397338,112.633419,34.133260,101.828964,32.893337,90.518236,39.473195" />
<polygon fill="#959a98" fill-opacity="0.501961" points="151.869728,173.441408,152.976168,162.197811,148.616991,170.111084,131.036040,174.539404" />
<polygon fill="#53575c" fill-opacity="0.501961" points="1.369774,196.796627,0.037263,232.342436,-1.842026,165.560895,-4.858117,128.068673" />
<polygon fill="#33353d" fill-opacity="0.501961" points="74.258518,66.917472,87.249772,92.772930,90.527160,106.216369,69.319120,106.721454" />
<polygon fill="#c7c9cc" fill-opacity="0.501961" points="135.545082,170.418583,151.509140,172.553034,144.447562,173.395075,140.362423,175.674642" />
<polygon fill="#000000" fill-opacity="0.501961" points="39.234659,218.012506,83.338896,217.913082,33.833721,187.662340,21.083745,156.607705" />
<polygon fill="#090c2c" fill-opacity="0.501961" points="132.083620,42.745698,154.947714,-16.000000,156.389941,111.192466,130.431938,131.785547" />
<polygon fill="#000515" fill-opacity="0.501961" points="223.165263,167.988567,190.065624,171.292401,250.882448,139.272699,251.497188,167.685177" />
<polygon fill="#0d1318" fill-opacity="0.501961" points="240.774128,152.815346,194.651430,158.327151,213.443406,145.375497,194.145550,126.950471" />
<polygon fill="#8e9899" fill-opacity="0.501961" points="231.315033,138.468471,224.919069,136.142388,200.587840,129.621686,228.130841,142.191618" />
<polygon fill="#37373e" fill-opacity="0.501961" points="64.493870,200.001767,54.048758,188.624640,58.259695,178.395194,82.649669,187.106327" />
<polygon fill="#653f28" fill-opacity="0.501961" points="117.104820,75.865722,122.706864,61.665941,103.648792,70.071154,85.931387,56.609936" />
<polygon fill="#040607" fill-opacity="0.501961" points="47.128088,168.247193,24.196715,136.541289,43.825880,152.470828,50.805578,163.499355" />
<polygon fill="#d1d5d4" fill-opacity="0.501961" points="110.132880,129.510492,109.441484,119.657846,107.812615,109.172424,106.793765,123.193383" />
<polygon fill="#867f87" fill-opacity="0.501961" points="143.517485,190.058014,96.614965,205.679920,124.546958,198.010843,133.499331,189.494119" />
<polygon fill="#bf9d87" fill-opacity="0.501961" points="110.699450,75.117228,109.522153,78.922718,97.273641,75.528741,97.051900,69.622980" />
<polygon fill="#767c86" fill-opacity="0.501961" points="195.519042,170.678207,185.375109,172.876176,184.525501,174.624662,230.504471,169.255019" />
<polygon fill="#504a2d" fill-opacity="0.501961" points="230.402438,210.460266,239.499973,219.088656,240.543991,198.129975,229.792647,234.000000" />
<polygon fill="#707381" fill-opacity="0.501961" points="55.682962,92.925479,55.860293,80.314736,62.178720,77.965602,37.578066,86.296835" />
<polygon fill="#b0b1b3" fill-opacity="0.501961" points="57.357045,221.762543,224.510814,218.596475,152.915789,218.224386,94.010657,218.120933" />
<polygon fill="#232325" fill-opacity="0.501961" points="52.402023,96.555396,59.515987,157.273032,29.781512,94.800424,41.328699,87.402830" />
<polygon fill="#684538" fill-opacity="0.501961" points="83.080538,45.751707,85.527361,26.233327,77.779755,39.470953,133.641237,98.765972" />
<polygon fill="#987060" fill-opacity="0.501961" points="199.156489,133.496585,200.486318,134.663082,210.105039,143.604628,200.221103,155.372726" />
<polygon fill="#b48975" fill-opacity="0.501961" points="196.695019,109.111973,204.715104,91.542379,202.580793,79.811203,198.723097,117.235364" />
<polygon fill="#070c25" fill-opacity="0.501961" points="215.025759,166.292069,159.604476,156.303665,141.951274,184.590296,145.784771,179.574388" />
<polygon fill="#4a4147" fill-opacity="0.501961" points="130.653191,133.654574,113.655529,146.363354,110.951737,97.304015,132.330896,156.241978" />
<polygon fill="#949dae" fill-opacity="0.501961" points="97.313832,208.005376,94.514598,207.788746,115.114186,201.297940,113.725032,197.504408" />
<polygon fill="#524135" fill-opacity="0.501961" points="94.285998,83.147969,103.714062,90.509354,108.441828,82.478950,100.021311,79.617329" />
<polygon fill="#000000" fill-opacity="0.501961" points="57.582420,175.589636,67.646934,180.535244,64.157229,112.292017,62.443588,132.128144" />
<polygon fill="#2f3033" fill-opacity="0.501961" points="188.127073,180.560656,217.731457,217.469901,149.545821,217.213594,91.813055,217.151733" />
<polygon fill="#473e43" fill-opacity="0.501961" points="102.330994,127.153816,56.023576,92.643362,78.404709,148.732465,79.394271,137.121557" />
<polygon fill="#987e44" fill-opacity="0.501961" points="248.391704,194.905985,255.173888,222.967732,237.035565,173.193135,238.590385,194.569089" />
<polygon fill="#19171a" fill-opacity="0.501961" points="75.491026,209.756700,86.818303,210.432051,91.814911,208.307944,81.527917,197.324804" />
<polygon fill="#2f383b" fill-opacity="0.501961" points="104.606614,89.587893,102.556888,116.156160,104.415961,111.182748,94.617489,98.186399" />
<polygon fill="#292629" fill-opacity="0.501961" points="94.555119,184.350627,72.087854,147.275526,81.560573,121.732149,91.206714,142.640416" />
<polygon fill="#000000" fill-opacity="0.501961" points="140.032594,180.024473,124.632446,195.969177,113.575261,199.014164,108.636823,174.589901" />
<polygon fill="#3f4130" fill-opacity="0.501961" points="229.881076,231.071014,228.996286,194.470095,232.160494,184.214121,228.842843,232.139917" />
<polygon fill="#151b1a" fill-opacity="0.501961" points="197.532578,127.485539,176.205971,112.562953,189.485946,143.159495,208.369230,116.891575" />
<polygon fill="#dbe2dc" fill-opacity="0.501961" points="111.264385,199.017122,109.214276,200.880001,110.297772,206.178111,108.207114,195.925722" />
<polygon fill="#f1ecdc" fill-opacity="0.501961" points="252.409176,218.214783,271.000000,212.278371,253.990251,234.000000,240.280839,218.108974" />
<polygon fill="#687394" fill-opacity="0.501961" points="193.607020,170.023142,195.719440,170.365672,139.830826,192.392135,122.807994,197.751652" />
<polygon fill="#82573a" fill-opacity="0.501961" points="91.061564,65.137768,124.991304,48.749307,125.620894,58.474323,70.544229,61.645207" />
<polygon fill="#4e362a" fill-opacity="0.501961" points="180.807982,162.389593,145.528146,134.530082,183.465376,151.520523,202.663878,151.134412" />
<polygon fill="#555a64" fill-opacity="0.501961" points="238.929618,183.712904,228.221412,172.016312,250.042105,171.003604,253.550900,198.762692" />
<polygon fill="#010202" fill-opacity="0.501961" points="65.792987,156.817669,45.918611,140.386788,32.512181,120.989587,46.913646,133.695802" />
<polygon fill="#1c1b1e" fill-opacity="0.501961" points="131.318088,166.471045,126.830727,140.205350,122.286406,141.769662,105.819906,188.082528" />
<polygon fill="#af846a" fill-opacity="0.501961" points="76.421417,47.677516,112.691448,25.035959,124.259698,34.137813,95.659986,26.180290" />
<polygon fill="#45444d" fill-opacity="0.501961" points="35.303643,163.705184,37.608685,167.618596,45.499752,172.861444,58.445376,170.712438" />
<polygon fill="#bdb987" fill-opacity="0.501961" points="229.999284,199.798768,237.860664,185.983285,234.850746,200.453610,238.119865,222.412509" />
<polygon fill="#37393e" fill-opacity="0.501961" points="27.993940,120.762314,41.916750,127.224340,24.938965,103.381664,29.700897,120.800403" />
<polygon fill="#060a29" fill-opacity="0.501961" points="29.296683,-16.000000,32.176830,48.795175,81.561485,8.328535,161.755169,1.228017" />
<polygon fill="#04071b" fill-opacity="0.501961" points="6.273351,199.140117,21.077361,88.267492,56.186864,152.791319,-7.878847,10.425907" />
<polygon fill="#0d1a32" fill-opacity="0.501961" points="192.992944,172.377612,197.475452,171.990264,184.257917,179.773939,92.445030,212.053330" />
<polygon fill="#996d5b" fill-opacity="0.501961" points="158.255724,116.206842,165.467745,130.781269,188.677862,158.638108,161.728009,116.609002" />
<polygon fill="#090d2e" fill-opacity="0.501961" points="25.755076,-13.599919,29.898993,91.805820,68.160457,64.871668,65.126806,8.152000" />
<polygon fill="#654630" fill-opacity="0.501961" points="89.955621,12.990090,77.175880,11.630183,95.698465,6.790294,129.775445,31.780230" />
<polygon fill="#373337" fill-opacity="0.501961" points="53.069260,148.880620,57.071260,170.524534,37.226261,141.531006,33.047072,125.019602" />
<polygon fill="#e8edef" fill-opacity="0.501961" points="80.941760,77.890093,78.336206,75.581490,79.563253,63.800603,84.553164,79.405349" />
<polygon fill="#454c50" fill-opacity="0.501961" points="180.236890,119.595945,174.944827,122.185618,186.465795,116.461533,212.176108,125.615866" />
<polygon fill="#050824" fill-opacity="0.501961" points="131.533660,145.114464,201.118115,25.742175,196.717095,119.179980,132.785684,101.610779" />
<polygon fill="#ac856f" fill-opacity="0.501961" points="113.886852,33.961708,112.380290,48.204757,124.147376,49.856497,117.734483,41.873966" />
<polygon fill="#191407" fill-opacity="0.501961" points="131.920799,48.636434,115.803130,36.752568,132.738808,31.481042,123.838840,18.595059" />
<polygon fill="#7f807f" fill-opacity="0.501961" points="134.102115,157.778034,131.322466,163.228800,137.706006,178.802280,133.001419,176.597000" />
<polygon fill="#d3c4a6" fill-opacity="0.501961" points="246.676798,209.994070,238.361934,231.165955,258.890824,234.000000,239.880642,212.434797" />
<polygon fill="#060a25" fill-opacity="0.501961" points="228.892417,135.675541,207.068810,127.445729,209.603749,78.664390,201.355812,114.347981" />
<polygon fill="#050920" fill-opacity="0.501961" points="9.724037,118.354272,0.425559,131.933152,1.121245,216.270196,22.991890,216.848226" />
<polygon fill="#3c3c42" fill-opacity="0.501961" points="39.860488,106.110485,30.289778,92.863460,34.868497,103.151752,54.663238,144.200440" />
<polygon fill="#606268" fill-opacity="0.501961" points="-16.000000,156.083893,0.804847,172.552451,0.675659,216.567329,2.772645,234.000000" />
<polygon fill="#515360" fill-opacity="0.501961" points="51.544589,97.290713,45.264514,90.951517,73.728644,73.080957,77.954293,75.280351" />
<polygon fill="#2b2c32" fill-opacity="0.501961" points="81.506317,82.405681,73.409441,99.944905,59.889040,82.758658,91.982947,107.418950" />
<polygon fill="#805c4e" fill-opacity="0.501961" points="196.620477,115.827946,199.956833,95.840728,202.940093,116.487698,208.670250,129.992527" />
<polygon fill="#04061c" fill-opacity="0.501961" points="159.758682,139.305233,155.895247,133.072820,169.927764,174.679692,152.252679,161.217265" />
<polygon fill="#0a0d0f" fill-opacity="0.501961" points="126.374415,175.707999,87.584133,190.568621,128.740124,162.837364,142.962895,192.177364" />
<polygon fill="#a57359" fill-opacity="0.501961" points="74.689577,36.612574,111.159748,44.756991,106.781329,46.355480,87.781756,52.364661" />
<polygon fill="#040606" fill-opacity="0.501961" points="94.851796,97.429458,97.381787,99.258538,99.831938,103.994381,102.157670,96.238391" />
<polygon fill="#877e78" fill-opacity="0.501961" points="92.919626,86.968709,90.618792,70.795223,92.928342,75.835263,99.426183,89.728252" />
<polygon fill="#2f220d" fill-opacity="0.501961" points="127.788865,58.859262,123.416018,28.262400,102.413435,5.869450,126.517500,19.488884" />
<polygon fill="#848899" fill-opacity="0.501961" points="186.279015,172.378873,195.612891,170.691109,189.091042,173.606088,172.458778,178.746440" />
<polygon fill="#141619" fill-opacity="0.501961" points="19.552072,133.164270,28.790710,115.097471,38.754121,143.240136,21.825954,217.361409" />
<polygon fill="#e9e9e3" fill-opacity="0.501961" points="94.363235,111.900156,93.255180,91.762776,107.349663,88.675434,89.533855,99.376335" />
<polygon fill="#ffffff" fill-opacity="0.501961" points="255.423701,-16.000000,254.723208,50.856441,255.832961,163.125838,271.000000,-7.772627" />
<polygon fill="#777d87" fill-opacity="0.501961" points="223.421701,169.666231,256.252031,169.760961,238.995434,167.668756,196.932016,175.901785" />
<polygon fill="#838e8d" fill-opacity="0.501961" points="224.032787,142.771099,241.630665,144.891016,204.777622,131.425584,226.781234,140.060285" />
<polygon fill="#070c2c" fill-opacity="0.501961" points="213.752955,159.800795,213.586881,167.193351,193.054842,172.041252,215.054726,136.844988" />
<polygon fill="#404144" fill-opacity="0.501961" points="103.577254,91.314095,96.840230,113.295960,106.464449,100.418003,114.529310,108.071015" />
<polygon fill="#4f3830" fill-opacity="0.501961" points="185.700379,162.290504,148.109723,103.482152,179.206138,159.280010,130.979028,112.314945" />
<polygon fill="#ab836e" fill-opacity="0.501961" points="93.333115,67.329867,69.311766,54.634043,78.920528,52.252843,82.068344,49.697785" />
<polygon fill="#0e0c14" fill-opacity="0.501961" points="113.252206,57.815768,98.902860,62.748692,132.085485,65.539057,132.768720,84.795916" />
<polygon fill="#b69986" fill-opacity="0.501961" points="85.209907,36.291832,102.604800,45.561955,92.284699,45.313986,89.675455,16.720840" />
<polygon fill="#42424d" fill-opacity="0.501961" points="54.179507,174.999355,109.509603,201.453439,105.551082,191.405159,101.308753,205.252904" />
<polygon fill="#8d8d8b" fill-opacity="0.501961" points="229.775057,140.144262,208.963215,134.395285,200.022061,109.409382,203.312527,126.010534" />
<polygon fill="#bfbdb9" fill-opacity="0.501961" points="231.689097,218.119632,220.413711,218.354584,174.701516,220.495278,270.123824,219.327363" />
<polygon fill="#020517" fill-opacity="0.501961" points="220.391452,-7.276675,222.946919,136.933465,204.626891,88.336394,202.940692,67.836399" />
<polygon fill="#080c28" fill-opacity="0.501961" points="111.050088,78.465160,153.656554,37.327980,145.753802,116.105034,107.896056,91.134011" />
<polygon fill="#060a24" fill-opacity="0.501961" points="191.880856,141.598408,198.719222,138.553211,152.665556,104.353913,178.793807,139.950824" />
<polygon fill="#a99f76" fill-opacity="0.501961" points="245.447172,195.593654,242.365143,192.198429,244.010489,200.021312,231.027749,199.473076" />
<polygon fill="#826a40" fill-opacity="0.501961" points="237.215243,205.476543,235.495900,196.227751,238.077769,192.117446,240.932041,188.909251" />
<polygon fill="#070d29" fill-opacity="0.501961" points="65.823788,58.201664,62.659080,38.259608,63.058509,77.981270,78.838441,64.624242" />
<polygon fill="#55555c" fill-opacity="0.501961" points="131.149984,139.589335,127.408078,154.547145,130.723669,155.495076,132.384700,147.536461" />
<polygon fill="#9f705b" fill-opacity="0.501961" points="190.679453,152.552329,182.141613,141.658110,173.418746,135.652521,153.966444,128.454314" />
<polygon fill="#090e24" fill-opacity="0.501961" points="215.683918,113.363221,202.460417,128.586863,244.352919,112.728212,231.662129,141.988748" />
<polygon fill="#0a0e31" fill-opacity="0.501961" points="136.028282,43.268850,146.152808,114.561557,134.414793,153.636068,133.163966,158.828424" />
<polygon fill="#4f464c" fill-opacity="0.501961" points="89.759936,101.196058,75.852973,107.581817,92.703012,145.047223,91.261554,102.146298" />
<polygon fill="#040600" fill-opacity="0.501961" points="179.468918,124.903287,182.020088,132.690889,204.118363,133.614388,191.844782,128.148036" />
<polygon fill="#030402" fill-opacity="0.501961" points="44.062848,178.254604,68.125374,171.378240,63.232743,170.483881,50.929444,173.589274" />
<polygon fill="#4f4932" fill-opacity="0.501961" points="242.706737,200.266870,235.613382,202.866335,247.085024,202.224167,252.000287,214.339414" />
<polygon fill="#5a626a" fill-opacity="0.501961" points="104.906889,107.141784,97.033459,102.368522,108.623894,136.846402,98.987572,125.840860" />
<polygon fill="#333536" fill-opacity="0.501961" points="149.066906,186.740598,154.823461,176.651600,139.054926,177.730222,134.847891,175.839331" />
<polygon fill="#151c21" fill-opacity="0.501961" points="96.931401,129.036948,99.379449,131.002801,99.998803,106.065523,98.857002,104.594947" />
<polygon fill="#070a0b" fill-opacity="0.501961" points="103.597644,180.038103,148.211508,185.593984,159.476952,151.631602,142.260720,189.031741" />
<polygon fill="#222a2e" fill-opacity="0.501961" points="104.229625,100.145998,103.493257,111.558646,99.054372,98.408605,105.842832,119.334730" />
<polygon fill="#493226" fill-opacity="0.501961" points="138.728419,142.838035,138.290484,135.379813,134.915239,167.172922,148.187714,172.412384" />
<polygon fill="#b58c75" fill-opacity="0.501961" points="105.463359,24.397706,111.811063,27.648161,126.823357,31.575385,101.129402,31.533660" />
<polygon fill="#69473b" fill-opacity="0.501961" points="138.781644,137.870802,142.421451,136.651248,154.185714,118.959867,145.410193,122.304068" />
<polygon fill="#a97c62" fill-opacity="0.501961" points="103.715781,58.628545,102.064932,50.241117,110.427525,54.226610,121.016327,55.748332" />
<polygon fill="#5c5e68" fill-opacity="0.501961" points="121.750477,101.805864,130.857596,111.821238,106.905431,93.749786,113.492019,95.841288" />
<polygon fill="#d2d1cc" fill-opacity="0.501961" points="106.568462,90.877630,90.459952,93.836525,107.226977,87.796052,106.944519,118.362015" />
<polygon fill="#797983" fill-opacity="0.501961" points="48.881650,84.798584,78.281777,71.741895,34.741928,88.689088,51.197564,88.556319" />
<polygon fill="#0a0b0a" fill-opacity="0.501961" points="117.966710,199.200921,99.734146,192.879015,86.612780,133.502409,103.031368,191.593243" />
<polygon fill="#352a0a" fill-opacity="0.501961" points="248.783660,205.834438,241.877330,194.483188,242.472760,194.032098,244.834489,197.214159" />
<polygon fill="#494f67" fill-opacity="0.501961" points="99.028357,207.636256,100.607811,194.268106,106.691389,198.511181,86.117576,212.108027" />
<polygon fill="#cccca7" fill-opacity="0.501961" points="234.850429,205.460418,234.090387,203.262024,231.393209,196.612539,237.342677,188.958440" />
<polygon fill="#9b9da5" fill-opacity="0.501961" points="25.167686,218.899190,20.655511,218.434080,-16.000000,217.756863,1.413101,226.327373" />
<polygon fill="#080708" fill-opacity="0.501961" points="50.325623,115.246423,50.855437,120.363255,51.134488,133.305791,43.170523,113.695409" />
<polygon fill="#000317" fill-opacity="0.501961" points="240.646680,166.447876,232.155471,100.064504,252.279433,133.932922,252.138180,167.396758" />
<polygon fill="#99684c" fill-opacity="0.501961" points="90.769956,10.483639,80.817713,9.382120,72.872730,18.806750,89.843496,13.401696" />
<polygon fill="#71503d" fill-opacity="0.501961" points="90.494262,77.755291,90.865174,48.004120,97.194119,67.025600,81.130237,66.437131" />
<polygon fill="#82878f" fill-opacity="0.501961" points="219.042461,172.581799,196.963957,170.005774,235.417735,170.864900,238.280903,167.218032" />
<polygon fill="#563727" fill-opacity="0.501961" points="107.161182,49.663309,92.026290,63.599585,90.995287,50.187366,144.693679,49.219466" />
<polygon fill="#353628" fill-opacity="0.501961" points="229.585104,217.858288,230.042997,194.317704,232.608471,234.000000,264.664273,231.326664" />
<polygon fill="#3a343a" fill-opacity="0.501961" points="92.405901,152.366283,90.509515,107.378730,97.796511,130.498731,105.184844,168.203995" />
<polygon fill="#050816" fill-opacity="0.501961" points="135.191828,166.726033,126.997613,69.202906,129.974143,-7.696330,132.115673,16.528534" />
<polygon fill="#d9d9d5" fill-opacity="0.501961" points="106.428194,95.531604,108.814810,116.335430,105.386783,110.328624,107.523259,90.671050" />
<polygon fill="#322e34" fill-opacity="0.501961" points="138.490126,77.320710,115.024484,121.842598,97.830782,76.373504,114.471220,124.861722" />
<polygon fill="#694938" fill-opacity="0.501961" points="149.270383,140.038139,149.280035,152.965844,139.409700,171.343321,144.594273,143.880177" />
<polygon fill="#000001" fill-opacity="0.501961" points="70.122287,147.791594,61.558124,152.838215,62.292331,116.354752,66.538464,130.500978" />
<polygon fill="#050921" fill-opacity="0.501961" points="18.436076,-16.000000,15.888236,108.763687,35.721931,87.231762,29.434365,61.391040" />
<polygon fill="#000000" fill-opacity="0.501961" points="43.085799,188.490372,35.065535,191.870577,38.006965,214.716447,87.898424,215.921293" />
<polygon fill="#a0a3a3" fill-opacity="0.501961" points="141.481823,175.665098,152.953167,165.711475,143.007946,180.294548,145.425412,174.501987" />
<polygon fill="#0b1337" fill-opacity="0.501961" points="35.950805,98.178954,20.636525,-16.000000,28.265657,-16.000000,33.186852,-16.000000" />
<polygon fill="#99674c" fill-opacity="0.501961" points="105.978516,67.975216,118.931231,66.697343,101.416025,62.920188,92.353416,76.231791" />
<polygon fill="#2a292a" fill-opacity="0.501961" points="110.859089,124.477028,107.748813,95.074050,111.461601,101.416465,111.494364,150.152401" />
<polygon fill="#3e362a" fill-opacity="0.501961" points="237.036130,215.051124,239.098942,205.074587,242.988560,234.000000,255.905668,234.000000" />
<polygon fill="#75787e" fill-opacity="0.501961" points="100.242755,126.921385,100.351667,112.055047,109.934440,136.795548,109.007197,124.040437" />
<polygon fill="#956950" fill-opacity="0.501961" points="125.237862,25.727989,96.260967,20.591286,84.036550,57.937215,99.820740,26.961465" />
<polygon fill="#211e1f" fill-opacity="0.501961" points="56.541157,101.002864,61.061947,163.418587,44.161373,148.263290,56.577007,148.895105" />
<polygon fill="#906551" fill-opacity="0.501961" points="173.975769,149.301719,157.916633,132.835416,160.954917,128.763204,156.628311,123.470820" />
<polygon fill="#0c0d06" fill-opacity="0.501961" points="215.913440,145.505248,239.758404,147.255562,222.882417,166.131841,218.914565,168.761924" />
<polygon fill="#9ea3a7" fill-opacity="0.501961" points="130.111628,158.792085,133.628644,170.166965,145.779630,175.081306,139.861217,176.985552" />
<polygon fill="#e0e3e1" fill-opacity="0.501961" points="91.525757,101.855463,86.516632,83.685404,97.916595,105.842023,94.360753,104.831563" />
<polygon fill="#6f768e" fill-opacity="0.501961" points="162.130698,184.574570,170.645432,177.933872,192.572047,171.896124,187.464561,173.272063" />
<polygon fill="#ccd1d1" fill-opacity="0.501961" points="108.740881,197.718025,117.699755,200.384423,106.305813,199.876944,113.083653,200.705073" />
<polygon fill="#131d25" fill-opacity="0.501961" points="173.009096,182.087286,131.429999,201.078531,163.046729,190.373637,194.870685,178.036157" />
<polygon fill="#ffffff" fill-opacity="0.501961" points="255.584202,147.929852,260.168335,117.660081,255.685505,228.208151,254.226267,159.954880" />
<polygon fill="#6a6c74" fill-opacity="0.501961" points="99.170200,126.796522,104.278707,170.968477,106.265771,107.723671,108.547886,130.058499" />
<polygon fill="#b49d8d" fill-opacity="0.501961" points="77.623046,25.667578,96.108194,18.954383,71.432472,21.153187,66.732886,47.080478" />
<polygon fill="#af9550" fill-opacity="0.501961" points="248.741521,202.295730,248.133009,194.885464,241.783547,191.498949,248.582811,202.836140" />
<polygon fill="#322e34" fill-opacity="0.501961" points="76.057104,107.189235,63.887676,91.913812,95.325899,150.409662,73.054329,104.579280" />
<polygon fill="#020517" fill-opacity="0.501961" points="158.737615,-16.000000,155.282464,98.471504,165.353550,120.460728,165.536178,28.149184" />
<polygon fill="#1f2127" fill-opacity="0.501961" points="18.850872,134.004427,35.409531,146.536961,29.429734,129.738526,24.095025,102.221265" />
<polygon fill="#0a0d2e" fill-opacity="0.501961" points="166.045516,-16.000000,177.456281,138.152474,166.104785,121.295828,168.414641,109.384605" />
<polygon fill="#030611" fill-opacity="0.501961" points="132.542408,31.650062,118.681392,7.304977,114.536539,-16.000000,115.452927,15.465022" />
</g>
</svg>