<svg xmlns="http://www.w3.org/2000/svg" version="1.1" width="1280" height="815">
<rect x="0" y="0" width="1280" height="815" fill="#584e49" />
<g transform="scale(5.000000) translate(0.5 0.5)">
<polygon fill="#ffffff" fill-opacity="0.501961" points="127.840622,25.838388,-16.000000,113.446063,-3.942269,178.000000,124.357009,124.908083" />
<polygon fill="#000000" fill-opacity="0.501961" points="203.896938,54.398955,251.096559,178.000000,271.000000,-16.000000,-16.000000,8.681994" />
<polygon fill="#ff942c" fill-opacity="0.501961" points="187.675379,26.656611,151.152232,34.033502,172.055452,101.122897,218.672405,76.665066" />
<polygon fill="#ffffff" fill-opacity="0.501961" points="-5.490731,178.000000,119.776268,115.360684,96.530063,29.316916,-16.000000,137.637030" />
<polygon fill="#000000" fill-opacity="0.501961" points="85.419491,36.596969,271.000000,8.272570,0.129997,-16.000000,-16.000000,113.332130" />
<polygon fill="#020000" fill-opacity="0.501961" points="202.887085,93.094114,35.526872,166.594520,271.000000,164.682610,250.643524,-16.000000" />
<polygon fill="#000000" fill-opacity="0.501961" points="-11.173192,100.818199,-16.000000,-3.645950,118.040347,-14.378418,47.029092,74.705258" />
<polygon fill="#ffffdf" fill-opacity="0.501961" points="73.187950,142.019175,47.429010,80.937277,133.867337,47.308497,105.862863,141.244325" />
<polygon fill="#190102" fill-opacity="0.501961" points="117.386969,127.345148,131.819408,99.309627,139.766783,64.785944,271.000000,169.056812" />
<polygon fill="#9efbff" fill-opacity="0.501961" points="38.823283,178.000000,67.262340,95.209284,-2.533532,95.418458,-16.000000,159.029949" />
<polygon fill="#ff873b" fill-opacity="0.501961" points="218.837807,88.677442,174.123249,22.607102,154.273164,52.514752,161.994337,79.748886" />
<polygon fill="#eadcb7" fill-opacity="0.501961" points="72.232076,74.642814,62.933385,75.888328,57.779484,46.156204,152.204863,61.800400" />
<polygon fill="#000000" fill-opacity="0.501961" points="260.763851,-16.000000,251.927307,84.766274,190.056835,30.309128,-16.000000,34.181302" />
<polygon fill="#c79265" fill-opacity="0.501961" points="127.031235,112.851387,105.092184,147.365722,118.224140,45.890627,134.271457,79.172093" />
<polygon fill="#fffffe" fill-opacity="0.501961" points="46.229805,94.272736,95.056632,52.944842,115.903637,111.657401,57.112154,130.127859" />
<polygon fill="#130b17" fill-opacity="0.501961" points="50.654046,153.102926,69.782746,142.033352,132.272375,178.000000,44.376313,165.815395" />
<polygon fill="#b7d6d2" fill-opacity="0.501961" points="84.738927,31.327461,82.822593,29.654960,109.521129,40.171610,75.506070,61.306285" />
<polygon fill="#8b3318" fill-opacity="0.501961" points="183.282126,17.480590,220.848334,94.299159,172.966538,112.348518,217.785193,56.491070" />
<polygon fill="#000002" fill-opacity="0.501961" points="50.991786,77.126140,76.286527,-10.766893,-16.000000,2.980238,11.066189,92.081263" />
<polygon fill="#130002" fill-opacity="0.501961" points="138.460247,104.762979,134.406503,67.668760,166.440196,73.329566,163.655153,108.278330" />
<polygon fill="#5d97b6" fill-opacity="0.501961" points="39.347904,75.879100,0.104859,106.358187,29.374431,106.463409,52.146984,78.454770" />
<polygon fill="#000000" fill-opacity="0.501961" points="71.679353,-14.964171,271.000000,0.393930,166.842263,25.677941,109.494813,40.089972" />
<polygon fill="#f57c3c" fill-opacity="0.501961" points="185.585028,22.946402,203.337790,92.732301,157.081849,73.120495,157.612731,31.243159" />
<polygon fill="#72a2bc" fill-opacity="0.501961" points="82.131046,131.754146,19.555818,178.000000,34.836563,178.000000,38.130973,139.327478" />
<polygon fill="#7a9197" fill-opacity="0.501961" points="147.500756,71.689250,92.584537,35.574962,150.905838,40.089174,133.516642,54.948777" />
<polygon fill="#402c26" fill-opacity="0.501961" points="225.926920,91.646616,109.928594,178.000000,111.631431,140.155426,110.130153,124.020174" />
<polygon fill="#050002" fill-opacity="0.501961" points="116.612962,-9.258708,159.165696,58.076267,138.133389,63.580489,195.046335,-16.000000" />
<polygon fill="#f0c59a" fill-opacity="0.501961" points="81.170533,56.016320,113.214207,86.284028,129.890104,84.871011,133.942014,75.531375" />
<polygon fill="#cedad6" fill-opacity="0.501961" points="126.084447,56.889568,153.419060,68.947248,123.762174,65.488388,72.388479,49.237491" />
<polygon fill="#fad3a5" fill-opacity="0.501961" points="90.140837,142.659566,108.272561,132.635094,122.370271,90.007087,66.265823,143.678599" />
<polygon fill="#17090d" fill-opacity="0.501961" points="194.927694,178.000000,185.139719,153.605337,270.711876,13.207052,253.059995,176.197772" />
<polygon fill="#000002" fill-opacity="0.501961" points="-16.000000,97.351142,69.442024,58.607544,33.547508,47.382062,15.593326,-16.000000" />
<polygon fill="#bc4526" fill-opacity="0.501961" points="181.076599,103.213829,161.789032,79.941772,154.116946,69.098100,198.644733,92.233020" />
<polygon fill="#bdf4ff" fill-opacity="0.501961" points="7.219498,108.870408,-9.879021,178.000000,66.820961,128.659464,46.808689,98.928691" />
<polygon fill="#e4ae74" fill-opacity="0.501961" points="71.452293,52.246773,75.644244,65.237212,47.935168,84.066015,47.998866,73.173045" />
<polygon fill="#23445f" fill-opacity="0.501961" points="12.838875,100.237350,11.021876,93.141814,34.123362,72.929535,43.205845,75.390986" />
<polygon fill="#1c1211" fill-opacity="0.501961" points="184.626554,112.196121,123.316917,65.147898,156.463450,79.339119,120.047044,90.407888" />
<polygon fill="#fc9440" fill-opacity="0.501961" points="159.745511,43.616896,156.220123,61.876695,199.523488,85.489339,200.746568,47.854054" />
<polygon fill="#76553f" fill-opacity="0.501961" points="101.907244,162.699677,132.503610,108.591397,125.032056,102.838117,104.790232,147.245034" />
<polygon fill="#67241d" fill-opacity="0.501961" points="223.041143,62.202879,168.448633,26.926950,193.833476,20.227187,216.711829,98.507989" />
<polygon fill="#010000" fill-opacity="0.501961" points="191.620495,24.514228,266.271775,60.333734,254.527877,-16.000000,0.066071,4.000387" />
<polygon fill="#f5e6c0" fill-opacity="0.501961" points="81.863167,49.585041,46.646186,82.068947,145.956265,59.441949,90.309193,58.890211" />
<polygon fill="#4f3731" fill-opacity="0.501961" points="76.138121,143.669262,43.304927,156.861894,104.944938,138.445191,146.824614,178.000000" />
<polygon fill="#fcfefb" fill-opacity="0.501961" points="89.070610,128.509176,104.565611,114.591884,94.747999,65.662564,43.768457,101.262213" />
<polygon fill="#9dd2e9" fill-opacity="0.501961" points="28.230920,156.979758,70.688652,137.202339,3.380040,101.659452,44.845724,86.478967" />
<polygon fill="#7b5b53" fill-opacity="0.501961" points="164.797974,73.195043,166.368502,95.829739,167.439964,66.157474,114.565251,50.377039" />
<polygon fill="#7a878d" fill-opacity="0.501961" points="54.131661,50.786582,83.440968,42.538864,14.559318,111.140585,63.306786,61.805257" />
<polygon fill="#e0bb96" fill-opacity="0.501961" points="103.558249,61.803839,113.470300,109.631965,129.214610,102.221938,115.766394,63.546483" />
<polygon fill="#b54e36" fill-opacity="0.501961" points="176.947008,25.295447,213.212683,60.900429,182.674289,41.337779,142.448841,45.473589" />
<polygon fill="#b2c4bc" fill-opacity="0.501961" points="107.439849,48.865377,109.459032,38.003835,83.426553,34.232273,82.320290,56.062845" />
<polygon fill="#040007" fill-opacity="0.501961" points="66.855419,-5.683327,-3.379174,-16.000000,14.745584,59.531589,81.359525,43.078989" />
<polygon fill="#678ea5" fill-opacity="0.501961" points="23.978075,103.789202,-16.000000,87.980466,-5.721328,91.105246,28.502779,95.806870" />
<polygon fill="#f9ea89" fill-opacity="0.501961" points="157.953461,48.413961,160.125266,52.281818,163.059213,62.247916,159.220617,64.000331" />
<polygon fill="#aa8a6c" fill-opacity="0.501961" points="106.840571,124.620702,120.759510,128.007293,124.556629,82.052399,128.871203,111.284688" />
<polygon fill="#697472" fill-opacity="0.501961" points="128.107553,36.256319,104.297907,49.895765,116.544438,33.851281,135.725152,34.174702" />
<polygon fill="#221414" fill-opacity="0.501961" points="243.821210,143.357445,233.029960,78.694918,151.563651,136.555047,151.743861,153.604281" />
<polygon fill="#7f543d" fill-opacity="0.501961" points="53.982159,72.544104,46.384048,72.031080,69.158069,52.050567,69.631184,57.010668" />
<polygon fill="#360f0d" fill-opacity="0.501961" points="191.016844,26.123650,150.487037,28.892723,198.923859,15.452390,221.666548,68.790240" />
<polygon fill="#944323" fill-opacity="0.501961" points="208.231105,84.784329,185.660356,105.049365,157.599517,65.888062,165.373539,93.869911" />
<polygon fill="#140a12" fill-opacity="0.501961" points="83.747953,161.528876,65.795723,144.363565,43.217238,178.000000,57.376344,162.968922" />
<polygon fill="#170f14" fill-opacity="0.501961" points="142.633288,77.520763,123.065686,68.415272,154.922308,70.260141,131.478450,142.952664" />
<polygon fill="#c9f8fd" fill-opacity="0.501961" points="27.039923,165.601428,38.279530,129.517197,19.848028,105.677988,-0.229288,168.999062" />
<polygon fill="#b8c8c3" fill-opacity="0.501961" points="117.308891,46.569029,140.879635,44.771089,129.683376,44.453705,81.365135,41.180512" />
<polygon fill="#321916" fill-opacity="0.501961" points="207.333604,43.390299,224.744973,113.569712,224.821336,35.651921,235.024881,60.164175" />
<polygon fill="#865e44" fill-opacity="0.501961" points="135.774166,80.666364,136.521614,77.049463,138.684050,88.024738,117.564425,89.183864" />
<polygon fill="#3d241e" fill-opacity="0.501961" points="198.044406,88.942656,204.844030,119.789829,146.336809,141.904169,226.661412,93.266040" />
<polygon fill="#797e80" fill-opacity="0.501961" points="142.619605,63.736980,123.061396,61.591737,135.055899,67.199757,161.978562,69.413630" />
<polygon fill="#faf3ca" fill-opacity="0.501961" points="114.074349,105.178862,79.848043,144.525035,107.292766,72.002228,108.184530,76.932693" />
<polygon fill="#2b3640" fill-opacity="0.501961" points="144.962682,12.558778,145.981826,52.423693,121.447372,55.464702,146.098515,60.197998" />
<polygon fill="#73251e" fill-opacity="0.501961" points="148.946727,37.101383,195.894434,23.063157,161.556171,29.011062,154.900331,58.016272" />
<polygon fill="#010001" fill-opacity="0.501961" points="103.097406,29.269016,144.913043,39.009115,157.574308,34.886480,175.368377,-16.000000" />
<polygon fill="#4a342e" fill-opacity="0.501961" points="151.070828,136.820125,108.962380,126.625611,113.923786,124.632487,110.067992,143.333381" />
<polygon fill="#8ab8cf" fill-opacity="0.501961" points="50.156731,90.290442,39.837411,80.526963,-4.653324,122.731664,-16.000000,102.784708" />
<polygon fill="#c56b36" fill-opacity="0.501961" points="191.916277,98.885585,200.886071,73.054987,215.188218,85.001640,170.104605,84.217026" />
<polygon fill="#332220" fill-opacity="0.501961" points="130.600207,87.635193,155.067022,145.655249,117.916126,107.592963,133.486425,139.237843" />
<polygon fill="#fba342" fill-opacity="0.501961" points="182.699011,38.198346,172.838265,76.903201,166.412609,71.060385,193.886307,61.154448" />
<polygon fill="#414a4f" fill-opacity="0.501961" points="132.542734,47.073496,115.251083,47.161641,143.806690,54.532840,156.658332,79.789469" />
<polygon fill="#aa542e" fill-opacity="0.501961" points="201.535338,44.022385,208.486019,49.576417,209.217011,83.440389,193.184991,51.653352" />
<polygon fill="#6d7e81" fill-opacity="0.501961" points="143.769234,50.231092,87.689799,33.272276,140.012350,44.162736,150.640953,42.368419" />
<polygon fill="#85adbf" fill-opacity="0.501961" points="55.338435,145.935802,41.400446,134.527416,42.026275,145.484567,28.758450,178.000000" />
<polygon fill="#fafce3" fill-opacity="0.501961" points="104.916338,55.823009,91.127804,52.073578,106.919937,79.501403,87.353708,73.252516" />
<polygon fill="#ebc46d" fill-opacity="0.501961" points="157.979891,45.932767,163.484382,50.127196,155.214053,70.915192,161.130001,60.379371" />
<polygon fill="#15090a" fill-opacity="0.501961" points="137.685023,100.517303,123.328166,86.246975,163.090301,97.192699,153.829716,70.950162" />
<polygon fill="#456271" fill-opacity="0.501961" points="42.038928,168.582235,67.035495,144.314985,63.918062,143.314794,46.036906,156.121535" />
<polygon fill="#152234" fill-opacity="0.501961" points="-13.972128,98.142355,47.924651,72.860893,19.330372,91.091252,-16.000000,98.100231" />
<polygon fill="#c4c7c9" fill-opacity="0.501961" points="115.198297,58.778049,139.089713,63.143714,119.006606,51.085750,134.911300,51.656095" />
<polygon fill="#372c2a" fill-opacity="0.501961" points="111.276252,20.811762,118.999851,20.201580,118.739226,18.958687,119.544018,11.876862" />
<polygon fill="#040103" fill-opacity="0.501961" points="98.564057,35.429627,90.880671,36.435674,151.085012,-13.163585,20.255896,-10.728933" />
<polygon fill="#080105" fill-opacity="0.501961" points="189.671670,10.646875,227.768115,71.833896,212.461183,-16.000000,270.996665,44.790267" />
<polygon fill="#e1e2db" fill-opacity="0.501961" points="121.383977,65.387526,85.119395,58.114041,143.936229,61.883893,121.469630,56.978782" />
<polygon fill="#967a68" fill-opacity="0.501961" points="125.388781,54.202484,122.772767,68.121947,139.883157,90.848430,117.818079,53.598912" />
<polygon fill="#deb8a0" fill-opacity="0.501961" points="74.934413,126.628665,67.290587,140.124917,112.523579,131.089802,81.018157,145.295974" />
<polygon fill="#f07438" fill-opacity="0.501961" points="194.664986,83.551467,153.183193,35.412986,185.787909,41.601469,157.953921,63.232307" />
<polygon fill="#3b242f" fill-opacity="0.501961" points="0.132498,-16.000000,1.153460,18.234230,-0.647405,62.127377,-0.508067,-16.000000" />
<polygon fill="#2f2322" fill-opacity="0.501961" points="86.691891,141.661812,229.352445,156.682229,107.705067,156.883768,104.360526,139.910825" />
<polygon fill="#4f3e2f" fill-opacity="0.501961" points="157.973240,104.445730,154.901888,106.505959,156.817565,120.505001,167.651028,121.050982" />
<polygon fill="#c4f2fd" fill-opacity="0.501961" points="50.053058,95.594168,46.832838,93.172844,31.982793,108.765807,59.786741,142.249441" />
<polygon fill="#291d22" fill-opacity="0.501961" points="237.416689,155.667398,224.276068,135.955250,261.824322,168.113817,216.594660,159.241292" />
<polygon fill="#130a0c" fill-opacity="0.501961" points="209.972314,153.326816,245.735215,84.442877,204.165400,120.695583,271.000000,136.576433" />
<polygon fill="#381b15" fill-opacity="0.501961" points="225.310001,93.224917,171.960128,113.040648,158.328022,79.898433,199.957864,127.574449" />
<polygon fill="#c3d5d0" fill-opacity="0.501961" points="102.265845,48.126225,66.517733,54.847010,70.833970,50.973366,85.172190,47.988290" />
<polygon fill="#353941" fill-opacity="0.501961" points="139.848020,36.532247,157.602334,44.174544,117.561862,37.670480,147.372432,32.278186" />
<polygon fill="#652f21" fill-opacity="0.501961" points="207.250318,77.748594,206.147568,37.678359,214.651154,61.823681,215.028555,82.686912" />
<polygon fill="#612b19" fill-opacity="0.501961" points="182.872939,110.345265,227.990583,91.044047,180.024795,99.431753,159.261805,81.323953" />
<polygon fill="#524239" fill-opacity="0.501961" points="94.970902,154.667958,132.245529,159.638253,114.629921,178.000000,105.655983,145.553958" />
<polygon fill="#303d47" fill-opacity="0.501961" points="29.320371,78.223267,32.344278,70.394378,41.243872,73.824961,47.624984,81.841330" />
<polygon fill="#f9f2c8" fill-opacity="0.501961" points="50.810436,93.728039,67.474828,79.010161,116.539311,52.103160,51.910588,76.795325" />
<polygon fill="#020007" fill-opacity="0.501961" points="55.350931,60.771712,-16.000000,103.005886,12.652306,60.397699,70.560913,56.102179" />
<polygon fill="#b3af98" fill-opacity="0.501961" points="112.882856,43.331938,94.953804,51.108484,125.085317,59.404630,102.093260,36.925584" />
<polygon fill="#0c0a15" fill-opacity="0.501961" points="77.059579,45.213914,62.896750,48.560417,44.645404,14.007809,83.246636,26.310880" />
<polygon fill="#f8f9fd" fill-opacity="0.501961" points="60.385977,80.605665,55.876344,119.843751,109.182700,90.419177,89.492482,80.645195" />
<polygon fill="#1b1216" fill-opacity="0.501961" points="156.284297,161.241564,166.824493,122.396932,146.685203,132.437756,145.212275,65.506043" />
<polygon fill="#c0a185" fill-opacity="0.501961" points="117.714676,77.958714,127.157402,102.316886,115.530962,114.767388,119.777564,130.982153" />
<polygon fill="#dbb490" fill-opacity="0.501961" points="108.746359,114.776222,101.185721,140.045326,86.807425,136.788872,109.547620,137.545315" />
<polygon fill="#8f6341" fill-opacity="0.501961" points="102.718256,137.016166,84.768004,144.005370,68.063240,143.243782,67.644674,150.135730" />
<polygon fill="#eccfab" fill-opacity="0.501961" points="93.100566,108.906721,107.163375,116.076370,120.232697,56.494628,116.292925,120.007924" />
<polygon fill="#3d2e2b" fill-opacity="0.501961" points="144.830717,163.515971,111.637793,127.480357,146.255346,132.641203,156.620735,178.000000" />
<polygon fill="#6b4a39" fill-opacity="0.501961" points="132.131512,65.685010,121.544895,70.040672,134.197378,72.452716,135.210652,94.668641" />
<polygon fill="#0d0a12" fill-opacity="0.501961" points="116.019066,32.904798,50.096532,14.747744,114.884645,37.943659,117.516846,29.251248" />
<polygon fill="#825a3c" fill-opacity="0.501961" points="131.699190,93.293833,131.226178,106.980791,119.083133,115.681903,125.906242,108.847682" />
<polygon fill="#879292" fill-opacity="0.501961" points="123.694376,39.874713,126.053817,47.805813,135.377374,51.776585,131.813622,41.016438" />
<polygon fill="#d3b08f" fill-opacity="0.501961" points="122.115735,111.091081,105.420099,60.896469,133.484797,77.021143,115.625365,72.242935" />
<polygon fill="#c6a789" fill-opacity="0.501961" points="45.835214,83.111495,70.749569,57.775295,72.684862,53.073368,41.397394,84.339465" />
<polygon fill="#371f21" fill-opacity="0.501961" points="69.425924,149.489614,64.704031,152.487281,85.108214,142.436867,130.500303,178.000000" />
<polygon fill="#d47036" fill-opacity="0.501961" points="202.983166,62.037341,205.046572,83.357754,178.880258,29.422880,187.483799,36.134207" />
<polygon fill="#b14e2b" fill-opacity="0.501961" points="170.444658,85.272514,194.549910,103.810862,157.251101,70.727609,164.899053,63.015732" />
<polygon fill="#1d0f0f" fill-opacity="0.501961" points="242.700931,74.954851,238.831515,118.638164,211.440179,75.898308,231.872770,58.202554" />
<polygon fill="#000004" fill-opacity="0.501961" points="-13.926368,48.492011,46.665545,76.601811,46.428955,70.922113,61.269645,39.138417" />
<polygon fill="#eaecdf" fill-opacity="0.501961" points="97.134593,56.070128,144.475672,62.717339,92.701331,59.032387,77.321369,92.019897" />
<polygon fill="#e9c7a2" fill-opacity="0.501961" points="90.262860,52.975808,89.269781,66.207789,73.331981,55.786136,43.281494,83.024312" />
<polygon fill="#69483a" fill-opacity="0.501961" points="46.091172,79.852603,46.725879,72.359905,58.258806,66.344917,61.056944,54.098923" />
<polygon fill="#f9f9e1" fill-opacity="0.501961" points="54.237333,94.726820,79.038888,132.749201,106.025169,111.998475,79.367429,122.405548" />
<polygon fill="#f9daba" fill-opacity="0.501961" points="97.274684,137.862698,72.135808,125.074126,69.290813,115.407710,82.121593,141.545817" />
<polygon fill="#4f585b" fill-opacity="0.501961" points="119.790113,34.888054,154.985366,47.086679,143.633165,53.135578,141.247365,44.263499" />
<polygon fill="#afc2c1" fill-opacity="0.501961" points="81.918551,47.818850,83.750399,35.004244,106.709790,39.939169,95.968163,49.673466" />
<polygon fill="#371210" fill-opacity="0.501961" points="186.071499,21.130485,196.269632,25.504049,195.405045,41.588486,215.710427,44.271936" />
<polygon fill="#5b4539" fill-opacity="0.501961" points="138.364176,115.209751,152.699342,113.511627,115.619587,102.215076,140.832076,109.488990" />
<polygon fill="#501814" fill-opacity="0.501961" points="151.662807,35.752359,156.190581,57.889177,152.430131,39.249156,180.199189,18.917647" />
<polygon fill="#949189" fill-opacity="0.501961" points="103.443530,51.750572,149.266292,63.008969,132.977429,58.596292,117.032540,50.712285" />
<polygon fill="#a8def7" fill-opacity="0.501961" points="4.874948,134.093808,9.826257,113.200569,15.581508,100.769965,-4.187593,124.276370" />
<polygon fill="#984c2f" fill-opacity="0.501961" points="210.227614,80.312700,201.566464,57.123608,217.615621,65.859902,202.150042,72.748018" />
<polygon fill="#221416" fill-opacity="0.501961" points="137.919849,78.718648,134.095990,116.717998,139.716776,136.912882,142.051512,133.462237" />
<polygon fill="#773a1d" fill-opacity="0.501961" points="188.693265,104.863804,200.074068,83.369964,208.616611,84.533823,206.035625,91.263433" />
<polygon fill="#859fa9" fill-opacity="0.501961" points="76.882890,136.153390,44.024549,152.368900,33.452069,165.509346,81.948149,133.316975" />
<polygon fill="#a3dbf2" fill-opacity="0.501961" points="46.091616,122.959959,21.632320,178.000000,43.754202,144.669501,25.818530,104.475220" />
<polygon fill="#dd6a38" fill-opacity="0.501961" points="184.400598,90.257869,185.149360,79.645929,186.008556,72.578969,165.377455,80.690466" />
<polygon fill="#2a1619" fill-opacity="0.501961" points="156.610741,61.532615,152.110716,49.359488,143.661887,56.080623,134.378746,50.295904" />
<polygon fill="#5f2318" fill-opacity="0.501961" points="167.303477,81.343760,158.160780,82.233070,166.619142,93.961405,154.314794,69.156616" />
<polygon fill="#759bb1" fill-opacity="0.501961" points="-16.000000,114.340757,6.059748,93.954909,15.709296,101.143174,33.295067,85.625994" />
<polygon fill="#7f644a" fill-opacity="0.501961" points="115.178643,105.955285,128.596198,134.936280,118.656538,114.172199,125.798363,121.528703" />
<polygon fill="#828e8e" fill-opacity="0.501961" points="131.791659,67.123134,123.386684,68.402401,140.663691,59.045318,145.697585,60.677628" />
<polygon fill="#2a1d1f" fill-opacity="0.501961" points="143.536734,142.087805,129.424161,134.214722,139.001565,162.787894,109.841348,142.757547" />
<polygon fill="#5e4739" fill-opacity="0.501961" points="107.398030,149.202461,97.328019,147.113390,107.934279,157.090841,112.929084,146.589169" />
<polygon fill="#9dccdc" fill-opacity="0.501961" points="52.923520,93.636170,38.771610,85.101232,32.579506,106.176441,-8.312393,106.114246" />
<polygon fill="#1a1316" fill-opacity="0.501961" points="234.934073,178.000000,198.079491,116.720326,180.558653,150.469633,165.162215,114.922979" />
<polygon fill="#f7b857" fill-opacity="0.501961" points="169.217781,69.792443,167.447013,78.730479,173.072807,72.008327,171.901558,70.378246" />
<polygon fill="#949c95" fill-opacity="0.501961" points="110.727405,43.338671,128.657532,56.093868,109.361785,46.523922,61.943525,47.805606" />
<polygon fill="#8d9b9e" fill-opacity="0.501961" points="56.732330,46.140832,61.507716,57.423487,60.502014,49.703753,81.822848,58.147800" />
<polygon fill="#09060b" fill-opacity="0.501961" points="174.590619,16.966081,161.706413,27.734174,130.271777,37.473756,140.985818,38.693397" />
<polygon fill="#dff6f8" fill-opacity="0.501961" points="59.179719,122.605239,70.256754,125.959630,45.887305,90.643074,46.443221,105.823203" />
<polygon fill="#2d1e1c" fill-opacity="0.501961" points="144.731660,97.172287,155.917601,95.371585,222.873954,129.905719,187.980351,127.262687" />
<polygon fill="#eec8a3" fill-opacity="0.501961" points="110.476456,89.023483,128.289403,80.428740,119.520567,71.767827,107.527075,78.152706" />
<polygon fill="#666145" fill-opacity="0.501961" points="141.918996,177.666961,158.047359,173.349180,121.801744,178.000000,126.056380,156.992333" />
<polygon fill="#55656c" fill-opacity="0.501961" points="108.739115,37.996532,87.246408,35.650941,86.669996,29.726766,80.649944,28.716227" />
<polygon fill="#f1f5ee" fill-opacity="0.501961" points="77.167258,61.075287,84.296400,126.586603,76.769670,77.189690,83.642207,38.933278" />
<polygon fill="#efc7a5" fill-opacity="0.501961" points="97.733338,138.944965,107.152084,138.340190,79.477888,131.128097,108.299905,123.830624" />
<polygon fill="#c5d9d6" fill-opacity="0.501961" points="79.310321,56.147945,90.100012,34.419332,91.471561,38.129402,85.464560,49.463020" />
<polygon fill="#f8d575" fill-opacity="0.501961" points="160.262176,47.962755,157.110493,50.319044,164.614382,63.623218,159.461321,59.424113" />
<polygon fill="#120807" fill-opacity="0.501961" points="241.068791,15.124965,242.625951,130.277894,260.319130,154.432018,252.233758,75.556832" />
<polygon fill="#282626" fill-opacity="0.501961" points="227.328220,51.864842,228.637777,48.726479,224.519911,32.784456,223.571118,51.411984" />
<polygon fill="#9b785f" fill-opacity="0.501961" points="131.808971,92.171365,132.959715,71.790912,113.442232,69.019834,132.063530,74.424815" />
<polygon fill="#d4e4eb" fill-opacity="0.501961" points="139.025247,60.392165,135.190947,61.960275,117.739732,58.358227,129.928228,58.101948" />
<polygon fill="#c2d5da" fill-opacity="0.501961" points="58.847254,129.723848,54.880289,129.372332,73.453430,130.944167,72.456618,142.394675" />
<polygon fill="#44362e" fill-opacity="0.501961" points="175.691506,169.739881,162.340120,144.629084,173.678333,151.908563,165.308466,178.000000" />
<polygon fill="#281714" fill-opacity="0.501961" points="226.578843,114.638577,233.035064,125.705589,249.620102,98.912545,260.991629,106.418924" />
<polygon fill="#53666c" fill-opacity="0.501961" points="151.690085,61.764679,156.199485,68.437667,143.188822,63.098043,129.215852,56.287769" />
<polygon fill="#292223" fill-opacity="0.501961" points="209.953485,166.188492,209.354613,158.040730,196.825603,142.214062,190.474674,167.581317" />
<polygon fill="#0f0c15" fill-opacity="0.501961" points="69.951772,50.846292,61.492793,17.842242,56.196774,60.446579,66.402220,15.356504" />
<polygon fill="#e1c1a0" fill-opacity="0.501961" points="99.377470,127.155056,127.363616,93.638281,128.015531,101.565265,122.026319,99.738190" />
<polygon fill="#482419" fill-opacity="0.501961" points="177.900756,114.718850,222.852116,94.967460,198.426193,28.831027,218.895326,86.517707" />
<polygon fill="#3a2a26" fill-opacity="0.501961" points="155.297034,130.753811,183.451592,115.111265,140.892049,118.928679,116.207814,94.058205" />
<polygon fill="#44322d" fill-opacity="0.501961" points="164.410342,131.882947,170.773262,130.599519,171.423760,135.955718,157.119406,134.484356" />
<polygon fill="#22151a" fill-opacity="0.501961" points="60.949098,151.681491,65.910837,146.612538,104.941286,157.745609,59.351258,155.366756" />
<polygon fill="#c2835c" fill-opacity="0.501961" points="155.196184,65.242580,155.877949,69.201624,165.799453,62.284187,153.630210,61.399903" />
<polygon fill="#bef2f9" fill-opacity="0.501961" points="20.700155,118.240614,-16.000000,141.228618,35.974448,162.523593,21.892899,178.000000" />
<polygon fill="#4c362e" fill-opacity="0.501961" points="112.050548,144.543584,96.388382,142.686499,126.746889,133.246211,148.915788,134.142912" />
<polygon fill="#1b151d" fill-opacity="0.501961" points="140.024798,81.367771,131.367398,68.357980,150.792392,69.648479,154.626107,76.469249" />
<polygon fill="#000000" fill-opacity="0.501961" points="236.407680,37.663006,192.845529,-16.000000,218.748247,44.961186,227.345461,-16.000000" />
<polygon fill="#6f422b" fill-opacity="0.501961" points="130.922102,101.715534,124.758788,88.399039,128.569547,85.701250,134.039113,104.921441" />
<polygon fill="#c5bda9" fill-opacity="0.501961" points="117.247459,50.093792,102.945994,53.371161,132.703422,65.800915,105.140396,47.116361" />
<polygon fill="#000003" fill-opacity="0.501961" points="1.956679,91.470670,-5.347836,86.488326,40.724159,69.296558,1.201281,-10.908581" />
<polygon fill="#10070a" fill-opacity="0.501961" points="145.960404,99.258851,156.637092,78.398276,130.892918,92.565492,127.277752,88.849802" />
<polygon fill="#3f352f" fill-opacity="0.501961" points="140.921579,150.399807,152.535915,140.333001,141.844135,124.630514,144.105176,178.000000" />
<polygon fill="#698189" fill-opacity="0.501961" points="40.437799,84.849745,38.176203,80.798142,43.998048,76.519971,46.727985,78.773916" />
<polygon fill="#283848" fill-opacity="0.501961" points="46.203378,159.069189,27.800036,178.000000,54.298679,160.367504,62.217124,149.924091" />
<polygon fill="#23252d" fill-opacity="0.501961" points="142.188674,55.620593,155.939561,61.789539,144.435122,52.549432,132.466372,52.384707" />
<polygon fill="#b9ccc9" fill-opacity="0.501961" points="110.543590,42.879164,97.076125,42.195526,130.043543,44.543363,120.346763,46.958616" />
<polygon fill="#7dadbf" fill-opacity="0.501961" points="25.712428,105.626320,35.621036,80.314279,36.493670,81.741818,15.814868,101.141632" />
<polygon fill="#c24d30" fill-opacity="0.501961" points="170.089339,26.165117,155.621631,39.270924,160.321518,47.692088,169.211848,32.516776" />
<polygon fill="#edf1e8" fill-opacity="0.501961" points="91.089681,66.139765,105.192530,57.618210,89.201162,48.735748,95.298243,63.452405" />
<polygon fill="#bbecf8" fill-opacity="0.501961" points="58.463921,132.546528,54.799334,139.705150,40.475947,125.940771,63.931879,123.911196" />
<polygon fill="#f17a34" fill-opacity="0.501961" points="170.341053,51.476265,154.515273,54.430215,157.669089,54.741108,178.274362,61.749743" />
<polygon fill="#261819" fill-opacity="0.501961" points="157.049266,178.000000,146.697596,104.429902,158.899021,117.852155,151.771516,121.721782" />
<polygon fill="#784b38" fill-opacity="0.501961" points="105.936977,138.240871,77.449469,150.503263,96.701645,142.330662,82.208260,143.290324" />
<polygon fill="#7aa1b3" fill-opacity="0.501961" points="50.863260,174.811690,39.152825,145.344725,34.653656,174.436172,41.588875,149.921152" />
<polygon fill="#f9e8be" fill-opacity="0.501961" points="44.511764,85.264983,83.610911,58.509940,106.412154,70.819185,77.278415,68.837057" />
<polygon fill="#9ecee0" fill-opacity="0.501961" points="41.761729,178.000000,41.992561,162.500709,43.953844,127.852651,38.582383,127.306844" />
<polygon fill="#c4f4f8" fill-opacity="0.501961" points="36.685616,149.358627,8.941808,111.771107,19.176677,107.290673,30.942113,113.105480" />
<polygon fill="#efdeb8" fill-opacity="0.501961" points="109.163146,104.089975,118.835505,108.932637,120.876952,100.304443,99.187257,119.851037" />
<polygon fill="#152334" fill-opacity="0.501961" points="17.311781,92.551223,3.218200,93.707331,12.807749,89.108160,40.352265,68.366826" />
<polygon fill="#9e462c" fill-opacity="0.501961" points="165.688895,80.064970,158.644555,64.854184,184.279604,101.708040,164.183368,87.310199" />
<polygon fill="#f8fbe6" fill-opacity="0.501961" points="106.010573,72.031487,83.181775,118.514071,73.574619,129.952409,101.144756,119.419957" />
<polygon fill="#574234" fill-opacity="0.501961" points="147.509768,142.155220,146.567707,142.214071,148.344381,146.805453,132.753936,144.569856" />
<polygon fill="#2d3543" fill-opacity="0.501961" points="85.097916,25.300892,83.090201,40.475700,75.491721,45.032682,87.064470,22.912268" />
<polygon fill="#a2866a" fill-opacity="0.501961" points="125.531569,124.469546,110.959623,120.534433,108.287162,126.035235,111.151618,126.010334" />
<polygon fill="#010000" fill-opacity="0.501961" points="146.356865,31.009809,129.515491,1.322545,107.929857,31.752591,129.140706,33.628191" />
<polygon fill="#c8c9bc" fill-opacity="0.501961" points="84.780843,30.598271,84.479372,48.972659,92.334799,58.817014,85.560555,59.202522" />
<polygon fill="#944229" fill-opacity="0.501961" points="182.139137,27.433620,204.349066,52.080180,216.835409,53.713311,190.066404,44.816865" />
<polygon fill="#09050a" fill-opacity="0.501961" points="60.363487,39.762530,61.630848,57.928232,60.995469,18.364079,1.100749,3.777970" />
<polygon fill="#282127" fill-opacity="0.501961" points="132.238201,38.035954,139.786570,38.484917,141.632358,31.308654,157.288632,42.097386" />
<polygon fill="#314e63" fill-opacity="0.501961" points="11.199981,90.835323,-14.594470,100.754485,-16.000000,97.014943,15.570110,94.299251" />
<polygon fill="#fcb748" fill-opacity="0.501961" points="166.519965,59.871568,160.128138,63.547046,161.365815,57.302310,157.221183,52.456670" />
<polygon fill="#282021" fill-opacity="0.501961" points="7.701684,178.000000,101.971235,178.000000,115.067530,142.593813,135.890115,149.069385" />
<polygon fill="#ad9484" fill-opacity="0.501961" points="78.469902,132.346882,74.689199,130.127367,73.944452,138.956111,66.996755,151.613326" />
<polygon fill="#b58b6e" fill-opacity="0.501961" points="102.477240,137.975260,101.357624,141.666953,107.120129,135.323744,100.575002,133.210043" />
<polygon fill="#f6863b" fill-opacity="0.501961" points="190.677897,60.531181,196.315486,57.490458,201.583738,80.928374,167.863241,76.500926" />
<polygon fill="#312221" fill-opacity="0.501961" points="134.044282,135.043240,132.223109,115.415543,114.632106,146.182103,115.320992,128.172120" />
<polygon fill="#fbd4a1" fill-opacity="0.501961" points="76.865118,59.230212,54.550431,74.019634,61.968562,73.584933,76.502857,67.309526" />
<polygon fill="#08040b" fill-opacity="0.501961" points="60.325380,45.612020,18.047990,28.379710,79.395459,27.628477,79.122320,42.615997" />
<polygon fill="#df6b34" fill-opacity="0.501961" points="182.394600,74.182063,168.369313,64.597483,167.434729,79.757015,162.024213,60.123975" />
<polygon fill="#0a0408" fill-opacity="0.501961" points="241.877247,26.223288,239.776867,-14.145247,226.330426,67.787830,271.000000,26.014325" />
<polygon fill="#270f11" fill-opacity="0.501961" points="210.150589,55.858645,226.707304,66.708259,213.611695,43.717319,215.209196,63.848565" />
<polygon fill="#160b0e" fill-opacity="0.501961" points="219.812817,121.322859,236.103764,117.154826,188.106006,142.158411,254.857770,132.873743" />
<polygon fill="#201514" fill-opacity="0.501961" points="247.509555,120.171470,211.623166,117.393624,202.571745,110.923319,220.256197,99.051189" />
<polygon fill="#39474f" fill-opacity="0.501961" points="99.068321,36.930220,87.242532,31.509353,105.025149,32.798403,108.378834,32.208418" />
<polygon fill="#4d353f" fill-opacity="0.501961" points="-6.591492,65.722865,-0.700659,14.283501,-1.020004,3.743793,-0.531712,-7.539460" />
<polygon fill="#d1f9f9" fill-opacity="0.501961" points="-5.675772,175.991386,27.454517,145.845699,24.319815,178.000000,9.159081,178.000000" />
<polygon fill="#3a302b" fill-opacity="0.501961" points="118.927309,12.358277,115.380361,19.296426,119.315243,17.983183,119.324960,20.447412" />
<polygon fill="#f9a941" fill-opacity="0.501961" points="175.151288,59.883414,185.606456,64.321843,189.582311,55.958668,182.841584,50.611015" />
<polygon fill="#566063" fill-opacity="0.501961" points="150.668497,47.918694,132.943501,53.821068,148.235596,40.077743,151.141412,42.065139" />
<polygon fill="#97a8a7" fill-opacity="0.501961" points="80.928337,34.269546,95.700754,35.452084,96.073451,40.677326,116.009186,43.318923" />
<polygon fill="#040107" fill-opacity="0.501961" points="57.270511,50.539192,32.447843,54.302082,-1.354401,90.720646,10.881674,91.643663" />
<polygon fill="#25191c" fill-opacity="0.501961" points="227.349598,136.821544,242.328109,147.581018,250.198626,178.000000,226.980603,142.215797" />
<polygon fill="#9e7e62" fill-opacity="0.501961" points="130.535164,114.197410,109.441291,117.402451,125.143563,114.815291,125.306662,109.691710" />
<polygon fill="#2b2021" fill-opacity="0.501961" points="209.831778,141.193260,214.761502,145.909061,184.685406,143.525598,196.058614,145.407486" />
<polygon fill="#3d3332" fill-opacity="0.501961" points="82.429102,178.000000,124.136415,166.646722,126.966942,117.484839,130.716369,145.163309" />
<polygon fill="#f9f9fe" fill-opacity="0.501961" points="86.103813,112.907549,77.323635,124.037721,55.075575,91.473030,85.683776,77.952621" />
<polygon fill="#bdd4d2" fill-opacity="0.501961" points="130.492292,54.288391,130.173846,50.186112,128.902998,51.139834,122.324026,50.647625" />
<polygon fill="#494448" fill-opacity="0.501961" points="128.171467,56.785567,157.954989,45.639833,133.594862,57.771375,122.764480,57.854243" />
<polygon fill="#352b2a" fill-opacity="0.501961" points="191.791933,116.417448,191.540326,125.617119,171.848951,127.850873,178.109847,127.780144" />
<polygon fill="#571f16" fill-opacity="0.501961" points="170.424645,95.348459,158.559917,76.122328,158.149894,70.759791,152.653164,71.145662" />
<polygon fill="#d2bda7" fill-opacity="0.501961" points="132.466678,66.682588,101.280250,64.846066,97.950492,67.504699,103.644156,61.874293" />
<polygon fill="#13151f" fill-opacity="0.501961" points="58.450569,32.986487,63.315467,50.809660,66.490426,25.510856,64.598161,52.566103" />
<polygon fill="#92a1a2" fill-opacity="0.501961" points="56.635983,56.003123,85.909260,43.473704,68.836854,55.101407,60.374296,50.023514" />
<polygon fill="#190f13" fill-opacity="0.501961" points="178.923032,111.869129,182.368564,113.628761,179.259427,150.287162,177.359673,136.875851" />
<polygon fill="#f8f9db" fill-opacity="0.501961" points="82.500458,65.652957,110.544080,74.450774,71.538435,77.693897,80.467992,64.561709" />
</g>
</svg>