<svg xmlns="http://www.w3.org/2000/svg" version="1.1" width="1280" height="1055">
<rect x="0" y="0" width="1280" height="1055" fill="#535353" />
<g transform="scale(5.000000) translate(0.5 0.5)">
<polygon fill="#aeaeae" fill-opacity="0.501961" points="253.572471,221.809939,217.099465,73.757259,97.606044,53.660729,94.502254,210.264720" />
<polygon fill="#000000" fill-opacity="0.501961" points="-9.921807,-1.058615,-1.123927,226.000000,60.871953,201.846545,65.604551,-0.461733" />
<polygon fill="#bcbcbc" fill-opacity="0.501961" points="147.302850,226.000000,107.276632,165.605516,60.759475,120.744334,164.484434,106.775942" />
<polygon fill="#9a9a9a" fill-opacity="0.501961" points="49.832619,16.037809,42.813281,116.029900,10.769563,78.281655,103.388372,53.285872" />
<polygon fill="#0d0d0d" fill-opacity="0.501961" points="253.315231,-16.000000,-16.000000,3.750406,115.471041,35.731492,151.765422,62.197021" />
<polygon fill="#000000" fill-opacity="0.501961" points="44.862392,-16.000000,21.595434,217.285603,-12.108107,226.000000,-8.071799,-11.101461" />
<polygon fill="#4a4a4a" fill-opacity="0.501961" points="244.405360,179.245115,223.505119,105.364067,160.765211,87.570409,189.626839,178.044405" />
<polygon fill="#141414" fill-opacity="0.501961" points="61.029945,111.038866,140.729263,89.774348,85.407327,59.216814,48.506693,61.682918" />
<polygon fill="#717171" fill-opacity="0.501961" points="127.047137,148.917248,20.808745,67.146673,7.987943,94.980340,27.246996,106.225053" />
<polygon fill="#cacaca" fill-opacity="0.501961" points="212.355621,92.382876,113.449680,54.119533,91.149115,60.183562,204.390561,98.917401" />
<polygon fill="#262626" fill-opacity="0.501961" points="266.250528,-16.000000,210.045254,12.848455,240.662432,86.763676,271.000000,61.937004" />
<polygon fill="#8c8c8c" fill-opacity="0.501961" points="73.877991,66.662605,76.784648,21.020040,84.452357,2.614579,34.073345,41.425918" />
<polygon fill="#656565" fill-opacity="0.501961" points="123.184667,5.241732,203.399455,6.023264,271.000000,195.182843,169.457173,11.185910" />
<polygon fill="#080808" fill-opacity="0.501961" points="98.586792,43.419903,41.117398,88.343001,87.857542,72.734474,79.286433,-16.000000" />
<polygon fill="#000000" fill-opacity="0.501961" points="-8.090854,213.237208,-3.211146,97.941398,56.415415,120.494870,48.954147,124.332949" />
<polygon fill="#000000" fill-opacity="0.501961" points="-5.114426,-16.000000,-7.058494,114.894724,53.173757,15.638938,162.587418,-16.000000" />
<polygon fill="#000000" fill-opacity="0.501961" points="130.155478,27.713992,151.829261,8.614468,170.873170,14.326248,172.985265,34.677731" />
<polygon fill="#6c6c6c" fill-opacity="0.501961" points="56.007447,32.288459,47.041067,76.678196,58.169951,107.089954,15.076497,112.234324" />
<polygon fill="#c4c4c4" fill-opacity="0.501961" points="159.702627,194.147987,131.873520,130.560939,112.652733,164.074982,123.090472,184.304501" />
<polygon fill="#656565" fill-opacity="0.501961" points="89.338349,52.710156,144.210601,87.187277,71.838853,120.366533,106.486889,143.200440" />
<polygon fill="#4e4e4e" fill-opacity="0.501961" points="131.421224,5.757330,98.039885,6.599811,98.292604,46.979035,136.910172,55.550518" />
<polygon fill="#5e5e5e" fill-opacity="0.501961" points="101.716827,157.418695,121.295526,226.000000,80.176264,201.929222,47.063674,205.227288" />
<polygon fill="#9a9a9a" fill-opacity="0.501961" points="54.483030,116.009346,50.426147,100.354333,88.220831,130.487013,123.537065,182.516254" />
<polygon fill="#989898" fill-opacity="0.501961" points="158.805397,164.622743,177.373109,147.815748,139.764783,71.079364,118.434333,117.165154" />
<polygon fill="#6a6a6a" fill-opacity="0.501961" points="150.358864,170.001157,264.028353,70.710787,260.444151,140.981849,175.137718,215.256708" />
<polygon fill="#080808" fill-opacity="0.501961" points="73.275737,73.678698,55.619541,56.243677,53.442933,104.746772,71.008646,109.563951" />
<polygon fill="#323232" fill-opacity="0.501961" points="79.417408,177.719195,72.114128,131.186491,44.063543,108.444066,45.940026,211.532063" />
<polygon fill="#444444" fill-opacity="0.501961" points="151.023115,71.329082,164.360074,35.987604,268.061017,-16.000000,233.566006,38.510942" />
<polygon fill="#7a7a7a" fill-opacity="0.501961" points="192.237761,55.896873,177.327199,41.810119,241.620940,58.512355,237.913868,66.344405" />
<polygon fill="#000000" fill-opacity="0.501961" points="-16.000000,94.723373,18.926289,-16.000000,63.302443,26.731499,82.087499,-16.000000" />
<polygon fill="#7d7d7d" fill-opacity="0.501961" points="271.000000,225.905046,190.013548,174.904741,205.782594,160.745442,271.000000,190.670829" />
<polygon fill="#8f8f8f" fill-opacity="0.501961" points="87.466455,44.622274,157.130331,68.575530,63.822546,54.861686,69.755671,17.247835" />
<polygon fill="#000000" fill-opacity="0.501961" points="-16.000000,63.807037,32.531227,71.753695,45.545254,53.761583,-1.362140,-16.000000" />
<polygon fill="#474747" fill-opacity="0.501961" points="100.297107,64.820300,70.756701,99.608165,61.773358,111.323277,120.338518,105.715956" />
<polygon fill="#878787" fill-opacity="0.501961" points="45.463994,106.294447,42.248146,77.358142,55.427215,86.882759,48.800906,105.342359" />
<polygon fill="#000000" fill-opacity="0.501961" points="75.812305,28.942100,96.635407,38.944539,87.761758,49.791321,84.637878,12.087732" />
<polygon fill="#6a6a6a" fill-opacity="0.501961" points="195.653277,85.497417,130.049665,55.890945,216.512100,67.949235,271.000000,128.810793" />
<polygon fill="#5e5e5e" fill-opacity="0.501961" points="151.721517,112.718094,164.362813,91.074527,228.243308,115.545902,271.000000,207.435927" />
<polygon fill="#7f7f7f" fill-opacity="0.501961" points="66.843956,65.970569,86.827060,37.150550,50.807796,15.874027,41.898116,36.397296" />
<polygon fill="#9f9f9f" fill-opacity="0.501961" points="93.120035,106.397188,83.921202,112.159364,137.441325,165.709156,189.995692,158.980507" />
<polygon fill="#000000" fill-opacity="0.501961" points="53.037959,116.396413,47.623710,108.467226,-16.000000,135.986347,-16.000000,208.195913" />
<polygon fill="#7d7d7d" fill-opacity="0.501961" points="86.172163,11.215241,72.790692,5.336271,62.217979,41.814981,65.619588,31.514493" />
<polygon fill="#949494" fill-opacity="0.501961" points="105.037286,187.807533,61.273273,204.061998,114.078504,171.828464,163.524160,216.652184" />
<polygon fill="#161616" fill-opacity="0.501961" points="2.458746,226.000000,45.582490,216.571509,49.418469,175.307212,31.903031,159.414599" />
<polygon fill="#020202" fill-opacity="0.501961" points="79.765682,80.634489,73.679181,87.723651,42.714534,79.297676,60.314558,60.692111" />
<polygon fill="#545454" fill-opacity="0.501961" points="9.635030,111.714261,22.017353,119.312315,18.665720,118.397840,57.971490,37.122092" />
<polygon fill="#0c0c0c" fill-opacity="0.501961" points="157.100803,51.210289,164.394949,7.062054,137.983302,17.353851,136.254542,56.649690" />
<polygon fill="#282828" fill-opacity="0.501961" points="271.000000,64.963499,258.465433,-16.000000,237.452590,62.139043,223.423279,85.024524" />
<polygon fill="#b7b7b7" fill-opacity="0.501961" points="204.768454,94.766439,145.812384,81.934595,122.708198,59.072274,190.911163,81.790016" />
<polygon fill="#2f2f2f" fill-opacity="0.501961" points="180.943476,66.082069,179.528438,47.010692,141.529686,32.190585,135.161803,48.039691" />
<polygon fill="#919191" fill-opacity="0.501961" points="198.070802,100.351277,234.000177,97.246153,204.377372,78.193355,213.543149,90.427641" />
<polygon fill="#424242" fill-opacity="0.501961" points="105.818843,207.508412,97.956313,209.283863,38.751496,216.968921,98.965997,191.218908" />
<polygon fill="#777777" fill-opacity="0.501961" points="94.362487,109.142344,123.707542,158.423559,94.521852,138.229950,82.421360,116.105928" />
<polygon fill="#000000" fill-opacity="0.501961" points="87.305132,-16.000000,-7.810988,-16.000000,-16.000000,129.316095,46.630532,24.556320" />
<polygon fill="#707070" fill-opacity="0.501961" points="50.756188,49.393365,30.959525,77.476171,69.709069,51.481119,47.721508,25.366394" />
<polygon fill="#bdbdbd" fill-opacity="0.501961" points="139.958687,194.339501,74.244000,129.287316,154.113335,183.111138,141.366638,191.868211" />
<polygon fill="#6e6e6e" fill-opacity="0.501961" points="145.212049,8.854871,154.922404,5.730771,141.075913,-4.717879,127.165457,-16.000000" />
<polygon fill="#000000" fill-opacity="0.501961" points="-16.000000,74.270280,12.331788,214.349174,8.454674,101.309388,53.084858,127.637933" />
<polygon fill="#212121" fill-opacity="0.501961" points="76.142637,60.001867,100.834482,65.471348,94.630164,75.162545,54.521131,104.798093" />
<polygon fill="#909090" fill-opacity="0.501961" points="69.912970,23.698736,85.625366,36.134454,71.594776,65.988484,66.305557,64.890865" />
<polygon fill="#949494" fill-opacity="0.501961" points="163.157138,116.885286,184.110018,157.110436,118.307027,124.945257,125.389454,89.281637" />
<polygon fill="#484848" fill-opacity="0.501961" points="159.692070,-12.571726,187.082253,41.718170,246.332275,65.947000,219.580000,15.399579" />
<polygon fill="#515151" fill-opacity="0.501961" points="143.785626,41.876670,101.008429,43.923504,130.420931,10.261983,104.627144,7.205303" />
<polygon fill="#0a0a0a" fill-opacity="0.501961" points="101.185609,48.045514,85.568907,46.355420,86.040689,6.832657,81.292739,25.894710" />
<polygon fill="#5e5e5e" fill-opacity="0.501961" points="158.620273,53.099090,178.444813,76.905321,131.969401,58.645543,166.867377,52.180264" />
<polygon fill="#3c3c3c" fill-opacity="0.501961" points="67.895664,148.583641,17.339888,173.965072,39.475953,150.765472,65.013945,207.208209" />
<polygon fill="#000000" fill-opacity="0.501961" points="153.425851,30.303270,170.231561,15.313861,155.338304,9.091501,134.816516,24.939992" />
<polygon fill="#8c8c8c" fill-opacity="0.501961" points="182.345637,226.000000,253.232102,218.144240,271.000000,198.793085,217.430119,191.914901" />
<polygon fill="#4e4e4e" fill-opacity="0.501961" points="4.762063,95.992955,47.804419,82.626083,14.213123,116.979756,21.993788,68.746638" />
<polygon fill="#666666" fill-opacity="0.501961" points="52.547567,201.247512,105.741766,181.661600,96.002396,151.227788,77.315538,202.880676" />
<polygon fill="#6e6e6e" fill-opacity="0.501961" points="58.028179,91.475181,48.492336,81.276568,39.461355,115.550945,28.768373,105.644134" />
<polygon fill="#727272" fill-opacity="0.501961" points="175.201079,92.666629,188.446510,170.385196,159.333189,109.146726,148.950397,80.891818" />
<polygon fill="#3a3a3a" fill-opacity="0.501961" points="78.278686,121.776562,93.383527,72.579127,64.873106,92.580111,66.985101,112.977259" />
<polygon fill="#000000" fill-opacity="0.501961" points="7.967019,190.082986,8.442975,57.855245,-16.000000,198.647340,14.249391,224.078008" />
<polygon fill="#b7b7b7" fill-opacity="0.501961" points="146.495285,179.674225,108.160124,112.069011,149.290163,157.475651,104.712005,190.698788" />
<polygon fill="#3e3e3e" fill-opacity="0.501961" points="116.834896,13.884312,85.123982,27.981016,161.230779,62.901042,90.830695,47.742092" />
<polygon fill="#000000" fill-opacity="0.501961" points="-11.255566,50.656186,34.163775,75.092885,45.741029,48.861096,-8.292674,35.939109" />
<polygon fill="#585858" fill-opacity="0.501961" points="190.190519,99.969974,271.000000,161.978741,196.014776,136.536119,171.611858,88.337113" />
<polygon fill="#262626" fill-opacity="0.501961" points="23.654259,213.120503,26.046447,157.509982,13.490925,180.112202,14.852312,216.400639" />
<polygon fill="#979797" fill-opacity="0.501961" points="145.064534,165.900057,164.159335,226.000000,125.640120,201.635887,156.091645,181.983143" />
<polygon fill="#6a6a6a" fill-opacity="0.501961" points="137.547310,80.806297,93.088948,60.569994,120.724000,85.079113,102.380361,119.003385" />
<polygon fill="#6f6f6f" fill-opacity="0.501961" points="234.491361,138.700754,221.415540,118.240564,188.984827,92.445164,271.000000,123.634517" />
<polygon fill="#000000" fill-opacity="0.501961" points="86.557827,-16.000000,8.570184,60.249761,49.559917,-16.000000,61.551351,25.177285" />
<polygon fill="#7e7e7e" fill-opacity="0.501961" points="111.273221,117.749602,142.482945,121.181627,134.564516,110.475211,91.114783,104.728881" />
<polygon fill="#5c5c5c" fill-opacity="0.501961" points="173.619298,5.623812,198.142724,22.877619,180.557881,20.932962,165.570088,12.096750" />
<polygon fill="#000000" fill-opacity="0.501961" points="46.795882,75.554960,55.527277,86.752518,59.252307,101.373845,58.403553,59.224859" />
<polygon fill="#030303" fill-opacity="0.501961" points="82.789445,10.724558,93.761054,44.739638,87.330870,33.890105,77.256698,28.396905" />
<polygon fill="#707070" fill-opacity="0.501961" points="186.811034,52.348071,196.413529,51.929601,204.899047,49.302031,170.650293,38.673160" />
<polygon fill="#727272" fill-opacity="0.501961" points="247.094493,208.764337,216.455778,226.000000,271.000000,202.375281,199.382807,146.761402" />
<polygon fill="#717171" fill-opacity="0.501961" points="177.263102,153.797588,192.521317,188.658915,150.910303,155.721918,155.284282,179.239632" />
<polygon fill="#2b2b2b" fill-opacity="0.501961" points="73.123967,201.048305,72.101508,218.923012,74.909775,215.336718,27.831101,226.000000" />
<polygon fill="#848484" fill-opacity="0.501961" points="236.053058,61.144924,204.392346,55.248745,230.594289,64.001584,238.903897,64.368053" />
<polygon fill="#696969" fill-opacity="0.501961" points="67.826554,20.611615,41.004606,32.073072,50.406675,68.450477,33.200326,86.253999" />
<polygon fill="#a9a9a9" fill-opacity="0.501961" points="134.097831,96.683689,128.730117,98.877058,142.183987,117.981839,156.694081,124.968996" />
<polygon fill="#959595" fill-opacity="0.501961" points="96.294714,62.199391,139.743131,78.700527,104.740083,48.887525,91.185789,53.099101" />
<polygon fill="#4e4e4e" fill-opacity="0.501961" points="70.584094,136.967771,102.785363,164.348732,79.048209,187.062101,74.380640,189.541209" />
<polygon fill="#666666" fill-opacity="0.501961" points="75.613900,59.928133,105.101031,49.624088,94.338509,49.261420,87.789513,44.059023" />
<polygon fill="#757575" fill-opacity="0.501961" points="63.595687,109.465022,46.378089,93.938260,41.787947,100.578055,71.188887,131.628564" />
<polygon fill="#2c2c2c" fill-opacity="0.501961" points="256.012757,57.207380,223.519005,71.142824,252.610398,83.519627,246.571798,77.310344" />
<polygon fill="#6f6f6f" fill-opacity="0.501961" points="79.826709,189.431797,92.930146,179.593389,123.018326,226.000000,121.499776,189.632782" />
<polygon fill="#292929" fill-opacity="0.501961" points="185.901282,33.576709,165.476080,37.001927,167.587435,12.583890,185.206939,26.059406" />
<polygon fill="#4a4a4a" fill-opacity="0.501961" points="82.662794,123.384483,71.232079,98.020654,107.329208,110.657313,95.101019,71.064642" />
<polygon fill="#2b2b2b" fill-opacity="0.501961" points="65.864704,124.674378,12.313016,187.288084,44.282212,121.842216,64.779232,175.473752" />
<polygon fill="#7a7a7a" fill-opacity="0.501961" points="208.059019,103.441387,209.335594,112.556293,243.610729,84.525678,231.946089,84.458390" />
<polygon fill="#272727" fill-opacity="0.501961" points="209.437733,-14.877550,189.873183,6.231234,209.682061,13.332323,211.297135,16.417454" />
<polygon fill="#141414" fill-opacity="0.501961" points="41.591236,173.563637,23.631213,212.986326,24.667607,176.294400,36.369537,156.793177" />
<polygon fill="#1f1f1f" fill-opacity="0.501961" points="107.496181,-16.000000,96.366444,5.392903,141.256911,3.702843,130.446275,10.473776" />
<polygon fill="#000000" fill-opacity="0.501961" points="49.010050,110.109961,55.621234,119.526346,-16.000000,112.805389,6.416483,134.402946" />
<polygon fill="#191919" fill-opacity="0.501961" points="153.943928,46.680833,135.094518,49.418493,140.495693,61.098451,147.921172,52.602267" />
<polygon fill="#828282" fill-opacity="0.501961" points="57.565503,31.863299,63.476378,62.985059,77.577378,20.830224,69.655704,18.170842" />
<polygon fill="#4d4d4d" fill-opacity="0.501961" points="146.546055,9.318376,102.362096,48.517575,115.991706,19.905663,142.066501,5.879922" />
<polygon fill="#797979" fill-opacity="0.501961" points="75.553232,203.203238,134.300568,145.626432,83.069120,196.173272,59.889139,181.635506" />
<polygon fill="#121212" fill-opacity="0.501961" points="32.816340,119.584887,10.046532,155.546334,-16.000000,189.794892,14.200781,138.944441" />
<polygon fill="#747474" fill-opacity="0.501961" points="169.753824,147.319412,205.638707,183.197444,146.006169,192.296019,174.990978,200.555922" />
<polygon fill="#6f6f6f" fill-opacity="0.501961" points="53.924734,29.213558,47.078410,77.021170,76.546220,3.886111,84.578421,12.351317" />
<polygon fill="#808080" fill-opacity="0.501961" points="152.349665,87.941168,145.304951,104.653775,169.719682,136.333494,162.621945,103.480212" />
<polygon fill="#000000" fill-opacity="0.501961" points="24.287759,48.584618,-4.968664,51.697579,49.345970,48.450746,29.792781,75.532478" />
<polygon fill="#666666" fill-opacity="0.501961" points="28.997851,80.754916,58.032334,121.500922,114.971810,171.674276,99.522253,166.318554" />
<polygon fill="#a7a7a7" fill-opacity="0.501961" points="135.027437,65.722749,144.921759,100.858763,140.596487,74.253769,84.699665,50.488717" />
<polygon fill="#464646" fill-opacity="0.501961" points="219.001805,-6.430609,240.170877,33.425714,263.983564,-16.000000,203.617176,38.110609" />
<polygon fill="#434343" fill-opacity="0.501961" points="82.935827,182.792883,30.619825,212.852750,65.652683,197.585316,50.378531,164.013242" />
<polygon fill="#c2c2c2" fill-opacity="0.501961" points="131.009417,164.826115,128.629015,166.686179,123.781958,178.199649,159.775009,191.118051" />
<polygon fill="#9c9c9c" fill-opacity="0.501961" points="90.578229,150.291772,57.075759,109.601999,82.269232,129.040245,110.824421,152.694770" />
<polygon fill="#424242" fill-opacity="0.501961" points="146.832699,28.484588,129.187053,45.427992,92.122272,52.824682,143.235501,46.120034" />
<polygon fill="#5b5b5b" fill-opacity="0.501961" points="51.610064,82.777264,58.077303,87.846526,23.579151,77.611063,18.447942,69.967061" />
<polygon fill="#333333" fill-opacity="0.501961" points="93.984267,5.059764,163.383698,-2.346544,90.373229,12.950989,73.058538,4.989757" />
<polygon fill="#5f5f5f" fill-opacity="0.501961" points="264.833371,99.998237,156.096368,32.780754,206.818340,52.436153,175.172160,68.805261" />
<polygon fill="#080808" fill-opacity="0.501961" points="82.010778,73.819949,46.406370,80.689720,56.103863,59.939404,88.484037,76.932966" />
<polygon fill="#232323" fill-opacity="0.501961" points="96.155518,62.820868,86.406106,75.588660,71.627499,102.530903,73.247952,65.907130" />
<polygon fill="#939393" fill-opacity="0.501961" points="131.709292,187.053000,84.524447,192.106102,121.777059,180.138105,129.988855,206.544588" />
<polygon fill="#595959" fill-opacity="0.501961" points="38.534942,112.825843,40.516586,61.054448,28.638994,83.131267,31.398347,111.345503" />
<polygon fill="#727272" fill-opacity="0.501961" points="147.102300,56.097811,139.912045,61.140263,92.535912,50.994115,152.119397,60.822513" />
<polygon fill="#616161" fill-opacity="0.501961" points="51.926334,35.164613,36.438454,43.978181,60.493051,59.582407,51.282142,61.115597" />
<polygon fill="#b4b4b4" fill-opacity="0.501961" points="156.610560,69.668343,192.838296,90.290235,138.700668,77.515821,139.960618,63.676889" />
<polygon fill="#0c0c0c" fill-opacity="0.501961" points="53.253045,100.736224,61.870879,99.810589,58.859585,95.372765,60.641804,72.746020" />
<polygon fill="#aaaaaa" fill-opacity="0.501961" points="116.556570,161.751784,118.069907,126.065014,122.545686,115.972350,153.980999,162.144931" />
<polygon fill="#212121" fill-opacity="0.501961" points="157.914792,-8.990711,139.158393,-16.000000,158.287357,6.966716,169.299959,7.948333" />
<polygon fill="#6b6b6b" fill-opacity="0.501961" points="87.681622,118.786733,115.392046,148.702720,100.364026,141.115014,74.677966,116.864555" />
<polygon fill="#5c5c5c" fill-opacity="0.501961" points="128.860925,226.000000,112.157862,219.369660,104.458982,191.867616,63.287321,226.000000" />
<polygon fill="#151515" fill-opacity="0.501961" points="77.607893,6.776046,154.167074,-16.000000,95.296184,6.764592,49.308544,-16.000000" />
<polygon fill="#5a5a5a" fill-opacity="0.501961" points="122.772447,70.766104,101.298890,103.454225,136.814999,83.358205,131.603616,89.447458" />
<polygon fill="#747474" fill-opacity="0.501961" points="43.629314,92.323239,34.112055,77.508883,55.371414,85.812615,43.572493,108.029443" />
<polygon fill="#000000" fill-opacity="0.501961" points="44.996172,25.740491,38.777107,42.560104,-16.000000,5.887253,80.330674,-14.956561" />
<polygon fill="#010101" fill-opacity="0.501961" points="34.235672,112.232985,41.046959,123.273152,13.989060,133.569382,26.155311,106.494790" />
<polygon fill="#9c9c9c" fill-opacity="0.501961" points="133.591476,93.164586,170.188771,163.608834,95.278379,106.027629,181.001941,154.046639" />
<polygon fill="#8b8b8b" fill-opacity="0.501961" points="196.136469,98.851950,224.784232,93.001614,204.190568,79.689391,232.383130,100.797157" />
<polygon fill="#050505" fill-opacity="0.501961" points="79.894600,20.262832,90.589617,11.382364,92.586560,16.499132,77.417366,30.881098" />
<polygon fill="#292929" fill-opacity="0.501961" points="134.750200,30.567975,123.387068,31.776873,135.011862,19.859338,138.247709,38.465459" />
<polygon fill="#090909" fill-opacity="0.501961" points="89.596119,35.123333,95.461986,45.502863,97.933750,46.173049,83.063656,43.513470" />
<polygon fill="#888888" fill-opacity="0.501961" points="142.213028,187.786754,147.785757,187.871303,185.997688,213.656558,171.892251,226.000000" />
<polygon fill="#4e4e4e" fill-opacity="0.501961" points="242.634075,87.965867,228.452067,80.797289,188.548992,51.743880,230.087990,71.378442" />
<polygon fill="#040404" fill-opacity="0.501961" points="161.021328,25.535004,136.199655,28.732883,142.662507,10.183019,170.119856,15.944917" />
<polygon fill="#8d8d8d" fill-opacity="0.501961" points="124.111369,155.946985,99.823767,124.726539,93.299493,122.528503,94.590593,102.942112" />
<polygon fill="#161616" fill-opacity="0.501961" points="58.252131,118.395263,48.871279,121.485805,15.209620,178.583385,46.470687,107.753007" />
<polygon fill="#787878" fill-opacity="0.501961" points="157.850011,58.284495,172.868227,72.123117,181.619064,82.153650,174.636743,66.378372" />
<polygon fill="#323232" fill-opacity="0.501961" points="165.434577,28.528695,151.153010,52.529628,183.411309,68.933810,157.420662,30.232228" />
<polygon fill="#606060" fill-opacity="0.501961" points="101.000686,108.556991,106.645427,97.880997,100.477961,73.602006,124.420239,109.067449" />
<polygon fill="#5c5c5c" fill-opacity="0.501961" points="170.135821,72.133758,189.425687,80.254438,148.707449,52.745793,146.894881,62.832925" />
<polygon fill="#757575" fill-opacity="0.501961" points="183.982326,41.875058,184.188249,48.760594,216.993514,61.875878,241.109717,65.662337" />
<polygon fill="#767676" fill-opacity="0.501961" points="66.487895,36.292507,52.148105,19.370705,40.434522,36.463124,60.091134,50.265354" />
<polygon fill="#000000" fill-opacity="0.501961" points="-16.000000,152.181866,15.294670,67.026750,-16.000000,86.224098,18.546759,98.519628" />
<polygon fill="#373737" fill-opacity="0.501961" points="234.843587,-16.000000,232.486857,14.732234,184.937936,5.993147,215.284526,17.842259" />
<polygon fill="#818181" fill-opacity="0.501961" points="72.743986,15.759565,70.224257,65.831168,59.741307,61.093765,58.689885,34.088582" />
<polygon fill="#787878" fill-opacity="0.501961" points="229.492463,176.212823,220.227184,180.780727,185.154027,215.401931,152.758184,178.266813" />
<polygon fill="#929292" fill-opacity="0.501961" points="70.803987,35.781049,81.518051,32.025038,84.396574,34.477648,79.326885,56.397857" />
<polygon fill="#858585" fill-opacity="0.501961" points="114.670778,69.138663,103.792030,75.568802,115.948183,77.732863,87.850987,48.922737" />
<polygon fill="#333333" fill-opacity="0.501961" points="38.427598,216.851885,43.527875,216.767126,60.106900,195.901033,44.836768,186.289513" />
<polygon fill="#646464" fill-opacity="0.501961" points="220.148141,116.238578,226.928703,88.133947,271.000000,107.794558,235.598666,118.861761" />
<polygon fill="#464646" fill-opacity="0.501961" points="226.267802,59.923780,241.609046,59.084242,241.491876,42.230254,213.656004,38.412801" />
<polygon fill="#a3a3a3" fill-opacity="0.501961" points="139.916769,189.805868,170.371788,226.000000,134.919864,200.196212,124.758211,183.719006" />
<polygon fill="#000000" fill-opacity="0.501961" points="64.777669,-16.000000,70.941397,7.348039,64.697744,21.904775,21.335517,0.098984" />
<polygon fill="#757575" fill-opacity="0.501961" points="107.535648,180.868136,113.866455,174.465460,107.654808,167.384375,86.124074,187.990281" />
<polygon fill="#262626" fill-opacity="0.501961" points="128.217577,-16.000000,140.507811,-16.000000,134.606500,56.468854,140.112561,44.271934" />
<polygon fill="#515151" fill-opacity="0.501961" points="187.612104,71.378932,161.850005,58.910672,218.162179,64.519773,186.886438,51.077859" />
<polygon fill="#5d5d5d" fill-opacity="0.501961" points="89.940846,61.520022,77.062609,54.938894,87.391300,53.366097,94.125876,59.407048" />
<polygon fill="#b7b7b7" fill-opacity="0.501961" points="182.685809,90.600701,210.253171,96.518788,192.911702,85.546805,115.829586,61.120001" />
<polygon fill="#707070" fill-opacity="0.501961" points="220.860511,70.046467,152.676489,68.431122,218.064273,81.938574,222.861595,71.754881" />
<polygon fill="#565656" fill-opacity="0.501961" points="130.851825,30.853590,130.246346,43.025643,103.111097,35.269981,107.087627,44.954426" />
<polygon fill="#3a3a3a" fill-opacity="0.501961" points="95.419175,34.959366,97.050596,41.448833,119.387673,16.073331,96.554536,8.440793" />
<polygon fill="#929292" fill-opacity="0.501961" points="240.450822,214.970923,196.281898,226.000000,214.997532,201.610527,233.707381,200.553842" />
<polygon fill="#909090" fill-opacity="0.501961" points="105.320462,54.736363,71.860049,46.889711,140.239695,77.455815,103.203288,66.421781" />
<polygon fill="#000000" fill-opacity="0.501961" points="28.957408,149.876335,-16.000000,189.244703,13.506682,226.000000,4.815365,191.941951" />
<polygon fill="#525252" fill-opacity="0.501961" points="75.730008,121.904980,71.211871,117.847685,71.432221,101.726458,96.918531,103.465275" />
<polygon fill="#181818" fill-opacity="0.501961" points="236.442193,71.890632,240.304816,67.863578,252.814984,70.083656,245.243049,63.367484" />
<polygon fill="#585858" fill-opacity="0.501961" points="125.932734,11.850494,112.998506,6.896894,105.231857,13.262009,124.028848,11.632778" />
<polygon fill="#4e4e4e" fill-opacity="0.501961" points="8.055833,93.022404,33.842268,99.159165,29.681930,99.039717,15.363458,76.884147" />
<polygon fill="#b0b0b0" fill-opacity="0.501961" points="149.391054,164.368424,143.013633,146.374020,118.940091,123.002028,151.454090,190.465791" />
<polygon fill="#3c3c3c" fill-opacity="0.501961" points="22.753637,104.964889,10.978615,109.726832,22.321382,115.636272,26.822110,97.634813" />
<polygon fill="#6b6b6b" fill-opacity="0.501961" points="59.222296,206.813033,40.919919,226.000000,53.980813,207.769483,115.884543,171.955725" />
<polygon fill="#848484" fill-opacity="0.501961" points="81.954411,226.000000,129.328096,203.429968,143.573304,208.248042,143.129054,223.650699" />
<polygon fill="#030303" fill-opacity="0.501961" points="48.497025,81.515351,60.683918,60.878855,54.070664,63.241337,45.149006,78.837179" />
<polygon fill="#535353" fill-opacity="0.501961" points="98.114254,85.668662,98.555806,61.065845,106.631438,74.694004,132.487139,92.034092" />
<polygon fill="#aaaaaa" fill-opacity="0.501961" points="131.650245,193.905672,83.417935,132.812537,132.564060,166.167127,111.411770,155.358666" />
<polygon fill="#111111" fill-opacity="0.501961" points="55.692925,102.733707,55.514977,98.048081,58.315287,77.655090,84.005754,56.261715" />
<polygon fill="#373737" fill-opacity="0.501961" points="70.188328,182.831702,66.917246,153.965223,69.494452,132.302797,50.667227,138.745260" />
<polygon fill="#1f1f1f" fill-opacity="0.501961" points="164.138046,25.829375,170.158187,14.419782,175.274293,40.623126,157.249298,29.991246" />
<polygon fill="#5b5b5b" fill-opacity="0.501961" points="184.583146,167.893263,243.070905,91.683447,244.417213,110.782181,210.556176,117.192654" />
<polygon fill="#2c2c2c" fill-opacity="0.501961" points="64.247063,111.585917,60.139237,100.695169,91.637301,93.842641,77.659289,90.388385" />
<polygon fill="#5f5f5f" fill-opacity="0.501961" points="74.299399,33.228010,78.021007,23.282296,78.203508,12.998084,76.065850,18.245853" />
<polygon fill="#898989" fill-opacity="0.501961" points="53.389564,111.444601,67.458459,113.234599,89.540995,148.435034,64.480717,122.529806" />
<polygon fill="#424242" fill-opacity="0.501961" points="100.715661,94.723196,112.734460,100.348675,80.075804,106.746489,97.862491,69.489845" />
<polygon fill="#848484" fill-opacity="0.501961" points="124.560026,110.057615,119.580802,90.734135,135.755055,98.790345,115.314669,105.469150" />
<polygon fill="#646464" fill-opacity="0.501961" points="167.919449,122.096456,208.845246,186.543414,177.461766,94.854803,173.695101,114.600561" />
<polygon fill="#494949" fill-opacity="0.501961" points="209.648553,45.381567,174.346413,34.876376,262.514345,1.168436,251.704792,-10.215025" />
<polygon fill="#747474" fill-opacity="0.501961" points="152.314197,177.972283,181.016163,226.000000,192.571556,170.681329,152.571408,163.475294" />
<polygon fill="#5f5f5f" fill-opacity="0.501961" points="249.983362,145.367032,243.198292,188.995940,216.550736,119.304287,262.309684,150.166423" />
<polygon fill="#2b2b2b" fill-opacity="0.501961" points="248.422876,64.102993,250.636451,50.410540,252.643818,13.022084,239.436730,48.563662" />
<polygon fill="#323232" fill-opacity="0.501961" points="53.399326,162.199219,36.794766,145.998635,18.915746,187.061869,24.798254,162.820960" />
<polygon fill="#585858" fill-opacity="0.501961" points="67.131110,204.147944,72.685171,189.697860,60.623973,171.150411,64.177255,182.067948" />
<polygon fill="#545454" fill-opacity="0.501961" points="187.164674,22.668553,156.117428,6.326761,203.697103,15.146218,202.842906,32.277002" />
<polygon fill="#676767" fill-opacity="0.501961" points="131.653386,72.741472,133.732301,93.680552,106.200172,92.778373,122.433234,91.535448" />
<polygon fill="#686868" fill-opacity="0.501961" points="151.228823,6.649224,141.177033,9.199455,152.225853,-16.000000,125.181832,-16.000000" />
<polygon fill="#626262" fill-opacity="0.501961" points="232.543834,63.622676,235.943199,55.809337,240.799729,58.610440,241.071635,64.770056" />
<polygon fill="#6b6b6b" fill-opacity="0.501961" points="184.723562,80.551466,177.093413,72.382652,213.080050,87.626498,204.252787,86.079094" />
<polygon fill="#bebebe" fill-opacity="0.501961" points="128.550995,183.938151,146.752811,194.875066,136.097151,165.367164,120.970418,159.179015" />
<polygon fill="#3a3a3a" fill-opacity="0.501961" points="130.198582,10.540760,118.025630,-16.000000,130.751782,24.175062,147.758934,9.333962" />
<polygon fill="#464646" fill-opacity="0.501961" points="227.774640,75.191113,242.095106,66.751330,215.675684,85.574833,244.373250,83.932969" />
<polygon fill="#606060" fill-opacity="0.501961" points="43.782195,74.652729,43.591493,95.812548,23.649268,70.510335,16.470504,78.218081" />
<polygon fill="#242424" fill-opacity="0.501961" points="91.559662,20.254481,103.944630,10.524294,89.190553,11.176570,85.306766,41.235242" />
<polygon fill="#989898" fill-opacity="0.501961" points="150.560442,55.930550,140.800036,63.300072,176.348737,79.513578,141.057149,66.471533" />
<polygon fill="#0b0b0b" fill-opacity="0.501961" points="93.649546,35.864379,93.122408,43.258921,83.087625,40.867243,93.267050,32.414635" />
<polygon fill="#767676" fill-opacity="0.501961" points="174.761865,106.832963,160.725984,82.356497,150.253996,89.154365,162.088708,109.324530" />
<polygon fill="#3c3c3c" fill-opacity="0.501961" points="119.971976,18.321377,80.692167,7.003091,108.098104,3.649952,100.917640,45.675989" />
<polygon fill="#6c6c6c" fill-opacity="0.501961" points="136.970040,61.219740,137.166648,57.330811,133.843915,53.060548,124.787048,58.033839" />
<polygon fill="#6d6d6d" fill-opacity="0.501961" points="45.740492,54.832975,61.422258,47.719427,47.876364,71.459785,38.397574,72.127262" />
<polygon fill="#696969" fill-opacity="0.501961" points="31.355556,105.216139,25.801211,96.756545,40.413894,114.518087,49.998316,99.434758" />
<polygon fill="#888888" fill-opacity="0.501961" points="172.928603,163.981698,165.168213,117.707006,188.413067,167.018833,162.985198,141.622683" />
<polygon fill="#707070" fill-opacity="0.501961" points="217.224593,139.588051,181.245499,182.412560,168.886263,149.934363,204.469955,187.290036" />
<polygon fill="#9d9d9d" fill-opacity="0.501961" points="99.676390,110.987017,98.670688,122.197184,137.293733,131.536797,132.400797,126.320740" />
<polygon fill="#7c7c7c" fill-opacity="0.501961" points="51.800205,102.295186,52.594407,85.325357,40.073217,84.558675,45.001734,82.544818" />
<polygon fill="#7e7e7e" fill-opacity="0.501961" points="103.813354,47.272605,98.417704,65.952992,101.761790,53.504781,93.817383,51.948801" />
<polygon fill="#828282" fill-opacity="0.501961" points="152.854442,180.209153,164.566491,179.303885,179.313252,143.645566,161.888987,189.148452" />
<polygon fill="#252525" fill-opacity="0.501961" points="45.506946,141.016352,67.628842,130.267245,59.386259,122.895655,54.415127,131.600535" />
<polygon fill="#636363" fill-opacity="0.501961" points="168.460204,13.624128,183.388714,18.027163,177.759878,17.895754,170.449249,6.244150" />
<polygon fill="#2f2f2f" fill-opacity="0.501961" points="67.332400,204.291748,72.719641,226.000000,50.035072,226.000000,60.752843,206.461936" />
<polygon fill="#3a3a3a" fill-opacity="0.501961" points="29.650728,106.905487,30.803174,105.609889,14.168710,104.458381,12.060278,113.687942" />
<polygon fill="#686868" fill-opacity="0.501961" points="94.179131,136.603939,100.842419,130.334292,76.936978,119.651119,50.158174,99.425933" />
<polygon fill="#4e4e4e" fill-opacity="0.501961" points="90.016734,192.214281,81.604322,195.688028,79.305596,214.445499,95.956114,192.701626" />
<polygon fill="#939393" fill-opacity="0.501961" points="140.415893,79.419485,124.178395,108.529708,146.888332,84.835798,148.777995,78.000713" />
<polygon fill="#7b7b7b" fill-opacity="0.501961" points="220.932558,56.918175,216.511650,53.760399,214.239436,59.546517,232.299625,66.117026" />
<polygon fill="#373737" fill-opacity="0.501961" points="78.600925,79.681311,74.112844,84.907769,105.447520,63.399038,77.385795,93.912410" />
<polygon fill="#3b3b3b" fill-opacity="0.501961" points="41.727833,139.671329,52.174336,133.050111,51.332980,122.801630,41.602916,142.361747" />
<polygon fill="#000000" fill-opacity="0.501961" points="62.353545,63.607903,49.000123,79.127918,55.866205,84.747464,54.322228,60.056642" />
<polygon fill="#424242" fill-opacity="0.501961" points="119.557262,54.972604,103.764971,48.349596,105.291234,52.758731,120.628398,35.346922" />
<polygon fill="#909090" fill-opacity="0.501961" points="98.338549,182.814184,117.071725,177.375922,120.733545,181.200207,100.139093,184.882487" />
<polygon fill="#8b8b8b" fill-opacity="0.501961" points="117.551514,182.896818,96.155341,153.162811,120.235109,178.410028,99.233529,182.811991" />
<polygon fill="#878787" fill-opacity="0.501961" points="222.142334,102.690755,222.615049,88.306917,212.958269,85.026360,214.831242,106.220031" />
<polygon fill="#4d4d4d" fill-opacity="0.501961" points="150.540531,66.400554,165.033790,33.924479,152.919917,61.038773,167.444129,65.004968" />
<polygon fill="#383838" fill-opacity="0.501961" points="189.811785,42.328851,164.955496,5.870525,174.645883,23.001072,175.420939,38.279672" />
<polygon fill="#575757" fill-opacity="0.501961" points="271.000000,161.750636,247.681058,180.162117,240.867678,149.275666,247.393762,137.302951" />
<polygon fill="#373737" fill-opacity="0.501961" points="238.394232,85.326010,224.234065,67.272764,263.605375,60.352216,240.562433,63.333947" />
<polygon fill="#4b4b4b" fill-opacity="0.501961" points="14.312918,91.685778,37.471618,88.100341,11.725064,84.791888,5.840116,91.753365" />
<polygon fill="#a8a8a8" fill-opacity="0.501961" points="146.072260,64.595281,109.967315,59.094064,143.675815,81.713648,130.280117,60.819358" />
<polygon fill="#383838" fill-opacity="0.501961" points="234.361312,17.805036,240.159723,24.265008,238.123268,40.276554,227.649781,29.637735" />
<polygon fill="#161616" fill-opacity="0.501961" points="12.212967,182.121444,4.273645,186.708843,32.960199,200.392275,39.528781,188.985507" />
<polygon fill="#020202" fill-opacity="0.501961" points="80.158724,31.311350,84.254781,32.576816,86.669650,25.260252,79.578505,21.270795" />
</g>
</svg>