<svg xmlns="http://www.w3.org/2000/svg" version="1.1" width="1280" height="1150">
<rect x="0" y="0" width="1280" height="1150" fill="#5db284" />
<g transform="scale(5.000000) translate(0.5 0.5)">
<polygon fill="#ffffff" fill-opacity="0.501961" points="226.847673,215.095277,182.362352,215.349642,184.913182,128.111484,230.226522,132.992158" />
<polygon fill="#ffffff" fill-opacity="0.501961" points="26.735806,101.954576,73.473246,96.348972,71.702913,13.470104,28.862870,14.423477" />
<polygon fill="#ffffff" fill-opacity="0.501961" points="193.796100,70.551478,154.997361,28.989504,157.335065,9.631643,220.078097,74.740026" />
<polygon fill="#007e2b" fill-opacity="0.501961" points="251.034355,4.840546,250.241808,228.971295,199.221956,30.236490,47.386424,5.069153" />
<polygon fill="#008539" fill-opacity="0.501961" points="203.107142,226.528472,142.157014,174.232699,172.811687,74.522600,22.686536,221.281005" />
<polygon fill="#ffffff" fill-opacity="0.501961" points="36.386488,185.966537,99.516032,127.967053,82.361615,221.967058,75.198031,186.341067" />
<polygon fill="#007016" fill-opacity="0.501961" points="74.296393,121.823382,61.830905,118.753308,4.194569,118.020012,6.355498,229.769234" />
<polygon fill="#ffffff" fill-opacity="0.501961" points="271.000000,119.321610,271.000000,109.841193,93.834605,111.519404,87.209072,117.817910" />
<polygon fill="#008935" fill-opacity="0.501961" points="147.624972,4.919054,-16.000000,3.428461,68.516969,15.450381,177.076330,115.282937" />
<polygon fill="#ffffff" fill-opacity="0.501961" points="-4.643417,-16.000000,-0.283115,245.000000,4.716528,221.992100,4.331765,-16.000000" />
<polygon fill="#ffffff" fill-opacity="0.501961" points="74.107125,100.408454,26.419665,99.232892,28.241627,29.765447,69.721428,8.670036" />
<polygon fill="#ffffff" fill-opacity="0.501961" points="220.600409,214.711694,231.140716,125.654288,182.640778,133.333881,184.696576,212.240916" />
<polygon fill="#ffffff" fill-opacity="0.501961" points="143.980123,168.072659,170.354564,161.468161,158.879156,185.139637,102.278877,168.802992" />
<polygon fill="#008139" fill-opacity="0.501961" points="72.540345,71.934002,76.944360,112.628668,251.835726,105.315226,161.694681,61.741250" />
<polygon fill="#ffffff" fill-opacity="0.501961" points="108.194760,50.869522,153.685599,58.940551,83.863138,63.437282,109.529584,32.920544" />
<polygon fill="#ffffff" fill-opacity="0.501961" points="270.977223,225.894253,131.352542,225.748444,-16.000000,225.756849,129.672240,245.000000" />
<polygon fill="#ffffff" fill-opacity="0.501961" points="252.188237,19.847295,253.734822,-16.000000,271.000000,198.061444,248.907633,245.000000" />
<polygon fill="#00852c" fill-opacity="0.501961" points="182.792801,117.757935,75.876247,120.178389,159.657432,159.524269,182.800376,226.376951" />
<polygon fill="#ffffff" fill-opacity="0.501961" points="252.063708,3.650060,265.637399,-16.000000,-14.904698,2.632132,131.973188,4.154236" />
<polygon fill="#ffffff" fill-opacity="0.501961" points="181.850659,106.222927,162.734432,83.646481,202.685540,59.789805,157.224103,8.372422" />
<polygon fill="#ffffff" fill-opacity="0.501961" points="119.927831,110.110204,157.728705,116.204300,-11.486806,119.150120,-16.000000,111.751631" />
<polygon fill="#00813b" fill-opacity="0.501961" points="3.985152,107.672252,29.080622,110.360775,26.457545,16.589778,8.165949,-3.110384" />
<polygon fill="#ffffff" fill-opacity="0.501961" points="148.264016,150.853955,149.679345,194.482044,151.634724,190.145214,169.507711,170.333909" />
<polygon fill="#ffffff" fill-opacity="0.501961" points="12.088840,186.500499,55.195481,171.693801,99.329466,120.910321,74.664253,182.886212" />
<polygon fill="#007d33" fill-opacity="0.501961" points="5.044586,181.341133,16.485083,226.278703,71.320234,224.002453,79.400269,191.998218" />
<polygon fill="#ffffff" fill-opacity="0.501961" points="177.451108,61.484111,230.265037,63.563656,222.751590,71.506606,201.730261,71.519191" />
<polygon fill="#008d3c" fill-opacity="0.501961" points="89.953889,54.931028,134.532724,3.239428,73.672494,12.995140,72.143039,114.346567" />
<polygon fill="#ffffff" fill-opacity="0.501961" points="70.079766,99.493994,26.981474,90.799364,34.968885,13.972177,73.960911,18.320160" />
<polygon fill="#ffffff" fill-opacity="0.501961" points="83.473124,53.048523,80.696577,56.062891,106.164067,43.438888,108.078618,79.621535" />
<polygon fill="#03863d" fill-opacity="0.501961" points="119.058010,124.166585,118.268115,120.390338,73.236978,176.377507,112.077520,212.011487" />
<polygon fill="#ffffff" fill-opacity="0.501961" points="227.543414,204.622891,227.999839,129.705899,187.712938,130.222453,183.931465,213.441360" />
<polygon fill="#ffffff" fill-opacity="0.501961" points="51.329286,156.771351,62.336382,143.736584,73.701993,143.226638,108.677920,138.476218" />
<polygon fill="#008239" fill-opacity="0.501961" points="172.600957,111.186003,183.934395,68.921864,252.093786,76.666592,217.163048,110.772010" />
<polygon fill="#ffffff" fill-opacity="0.501961" points="251.015927,66.242959,252.918633,245.000000,271.000000,71.128144,252.261202,-16.000000" />
<polygon fill="#00893e" fill-opacity="0.501961" points="110.021516,119.842678,50.199358,152.592981,9.007774,211.614641,8.664333,119.180044" />
<polygon fill="#168c4f" fill-opacity="0.501961" points="250.871366,227.230590,231.453992,219.637839,227.486235,149.936051,251.933813,119.939211" />
<polygon fill="#ffffff" fill-opacity="0.501961" points="3.231737,4.602128,-16.000000,-1.449987,146.151325,-0.832238,111.616725,2.581253" />
<polygon fill="#ffffff" fill-opacity="0.501961" points="153.758625,30.989148,190.685142,27.427479,211.314331,48.666030,153.744068,15.859667" />
<polygon fill="#ffffff" fill-opacity="0.501961" points="183.073961,225.892652,38.801588,225.686520,-16.000000,245.000000,271.000000,226.643877" />
<polygon fill="#0a8b45" fill-opacity="0.501961" points="110.527563,5.526062,159.632848,89.899446,180.958102,60.584031,155.427952,26.096512" />
<polygon fill="#ffffff" fill-opacity="0.501961" points="179.614782,69.347670,198.782386,59.568077,168.564922,70.962194,172.080610,107.366307" />
<polygon fill="#00a04d" fill-opacity="0.501961" points="249.338818,129.751647,252.378077,117.940307,183.654440,118.100659,123.352197,127.272728" />
<polygon fill="#ffffff" fill-opacity="0.501961" points="-16.000000,223.100115,2.627292,102.034224,4.570949,220.590986,34.289734,245.000000" />
<polygon fill="#00883e" fill-opacity="0.501961" points="67.299340,3.744829,251.910921,5.631827,251.456282,91.813856,179.718802,17.241240" />
<polygon fill="#007f2b" fill-opacity="0.501961" points="46.172510,178.080093,74.526099,151.596454,70.600363,150.416922,26.681503,176.343795" />
<polygon fill="#118846" fill-opacity="0.501961" points="105.854687,174.756276,153.034721,176.295373,69.291238,225.976815,206.224682,222.888474" />
<polygon fill="#ffffff" fill-opacity="0.501961" points="186.406758,48.956772,162.018280,7.315825,173.743673,48.016411,157.007476,68.371936" />
<polygon fill="#ffffff" fill-opacity="0.501961" points="3.238772,-16.000000,4.773992,88.712274,3.567950,232.192959,-16.000000,113.311952" />
<polygon fill="#ffffff" fill-opacity="0.501961" points="72.926737,165.000868,91.339712,179.372339,93.380553,175.303093,73.162329,152.598578" />
<polygon fill="#ffffff" fill-opacity="0.501961" points="105.084552,59.848625,107.008734,54.403536,143.042990,53.552365,138.929600,62.150993" />
<polygon fill="#ffffff" fill-opacity="0.501961" points="48.026094,188.083807,102.160935,141.198200,101.120473,132.315683,90.259787,130.209649" />
<polygon fill="#0d8d48" fill-opacity="0.501961" points="183.170589,208.122665,67.948109,170.192238,127.880215,217.135973,180.208245,158.023138" />
<polygon fill="#0f8a47" fill-opacity="0.501961" points="-0.239497,110.188823,102.713560,94.173605,70.601035,7.988261,85.553664,109.308854" />
<polygon fill="#ffffff" fill-opacity="0.501961" points="163.565011,174.846573,167.124761,167.123350,113.893198,170.833137,116.662348,175.384776" />
<polygon fill="#198d4c" fill-opacity="0.501961" points="183.287684,54.770863,50.772702,108.418520,171.863516,105.405621,168.958846,77.307073" />
<polygon fill="#ffffff" fill-opacity="0.501961" points="88.635017,216.324764,80.906874,209.671490,76.320804,178.464670,82.599117,182.452454" />
<polygon fill="#00a455" fill-opacity="0.501961" points="36.113933,14.908486,139.020473,15.638991,9.373109,4.096298,5.938544,15.889560" />
<polygon fill="#ffffff" fill-opacity="0.501961" points="72.464856,16.051323,26.237278,13.495792,32.563934,77.444158,67.989732,94.972414" />
<polygon fill="#ffffff" fill-opacity="0.501961" points="225.442245,210.693682,220.239352,129.258391,185.433900,128.691523,184.845467,214.170394" />
<polygon fill="#ffffff" fill-opacity="0.501961" points="96.316104,-16.000000,-16.000000,4.076250,118.390878,3.483726,271.000000,3.126462" />
<polygon fill="#ffffff" fill-opacity="0.501961" points="174.326267,48.585190,231.906810,70.236093,195.325078,71.947185,190.167751,61.877735" />
<polygon fill="#028b40" fill-opacity="0.501961" points="106.131388,36.133992,127.588785,13.449407,173.589117,48.325404,108.075723,54.570848" />
<polygon fill="#fff2ff" fill-opacity="0.501961" points="260.882844,118.507127,235.084673,109.769450,151.602796,118.283693,221.591928,116.630355" />
<polygon fill="#008a3d" fill-opacity="0.501961" points="181.257259,34.329147,180.990564,36.548733,210.061097,64.717184,220.675801,55.600187" />
<polygon fill="#fcebf3" fill-opacity="0.501961" points="58.701696,110.985556,127.213572,111.515526,214.826269,111.062347,146.192867,119.063558" />
<polygon fill="#008533" fill-opacity="0.501961" points="87.182610,142.728362,50.108396,143.199006,58.951974,144.380930,78.692489,115.993426" />
<polygon fill="#ffffff" fill-opacity="0.501961" points="167.466794,226.723125,271.000000,245.000000,-16.000000,228.079898,30.061344,225.386474" />
<polygon fill="#078b43" fill-opacity="0.501961" points="74.960608,189.703204,66.917576,179.343358,9.757186,226.011405,14.780266,184.368800" />
<polygon fill="#1e894e" fill-opacity="0.501961" points="227.151770,214.870958,233.861452,131.610206,234.115731,225.138607,121.402605,212.078119" />
<polygon fill="#ffffff" fill-opacity="0.501961" points="106.225915,78.616084,87.380501,57.592586,103.975839,38.751121,107.483048,55.895368" />
<polygon fill="#fff8ff" fill-opacity="0.501961" points="-15.802123,120.121224,109.216767,112.420123,5.170022,110.653203,1.079495,11.170784" />
<polygon fill="#ffffff" fill-opacity="0.501961" points="149.833763,172.326072,151.175109,152.936989,168.580899,173.838834,149.224567,190.795325" />
<polygon fill="#ffffff" fill-opacity="0.501961" points="175.621882,80.266231,169.740899,104.812882,169.049457,72.725598,197.950302,52.312875" />
<polygon fill="#039349" fill-opacity="0.501961" points="93.559864,182.059923,203.610438,119.334472,161.685180,118.358641,92.986846,147.189795" />
<polygon fill="#ffffff" fill-opacity="0.501961" points="78.155111,178.758616,30.043743,177.222584,31.660589,189.817475,33.980570,185.273972" />
<polygon fill="#ffffff" fill-opacity="0.501961" points="250.992913,224.519390,254.228086,122.871338,271.000000,245.000000,165.266181,226.187639" />
<polygon fill="#11914b" fill-opacity="0.501961" points="107.945777,59.669683,105.600609,91.100982,169.795539,88.440887,171.067194,63.045320" />
<polygon fill="#128b49" fill-opacity="0.501961" points="224.287719,111.282930,228.129716,13.119858,251.687321,94.316723,251.941216,110.627042" />
<polygon fill="#ffffff" fill-opacity="0.501961" points="178.310497,35.869859,159.191098,14.074011,152.981346,24.755694,192.694145,30.870005" />
<polygon fill="#f8ffff" fill-opacity="0.501961" points="71.072868,147.946658,56.368005,158.832625,48.375678,159.421320,67.394853,141.695874" />
<polygon fill="#0d8f45" fill-opacity="0.501961" points="184.430595,3.703370,244.050881,4.160061,172.909293,29.100467,168.142427,26.375591" />
<polygon fill="#188e4e" fill-opacity="0.501961" points="6.173771,175.258944,102.646128,223.641260,38.879127,225.530001,3.789838,225.547806" />
<polygon fill="#07974f" fill-opacity="0.501961" points="157.580252,157.735981,87.327152,117.785465,182.654502,119.428680,179.704723,185.034027" />
<polygon fill="#f7ffff" fill-opacity="0.501961" points="190.350363,27.966286,209.357906,45.859998,188.667183,35.186781,156.377997,31.616070" />
<polygon fill="#ffffff" fill-opacity="0.501961" points="84.611830,188.796454,79.404564,223.351796,80.077887,193.120529,57.155587,168.305515" />
<polygon fill="#ffffff" fill-opacity="0.501961" points="271.000000,46.368700,252.231255,167.884741,252.179575,47.617252,250.132601,-16.000000" />
<polygon fill="#ffffff" fill-opacity="0.501961" points="101.987733,114.754923,55.180354,116.411951,26.803180,117.904876,105.748872,117.709134" />
<polygon fill="#0c8e43" fill-opacity="0.501961" points="147.972898,148.899158,96.675263,122.848413,118.472998,166.398911,149.513751,167.861461" />
<polygon fill="#0b8a43" fill-opacity="0.501961" points="100.847237,208.829027,93.600856,185.028091,77.994093,166.903087,73.684616,172.419496" />
<polygon fill="#128f49" fill-opacity="0.501961" points="151.024830,180.268846,87.254931,210.713602,86.153450,183.189690,145.405033,173.924611" />
<polygon fill="#249a5d" fill-opacity="0.501961" points="250.937334,215.080190,250.309741,129.688797,228.802997,124.924525,228.555914,197.394498" />
<polygon fill="#ffffff" fill-opacity="0.501961" points="102.714191,138.228541,95.270015,128.514092,82.467823,166.271390,31.090958,189.041540" />
<polygon fill="#ffffff" fill-opacity="0.501961" points="178.149557,35.817098,222.538531,74.216481,179.246549,52.187327,162.311381,65.358195" />
<polygon fill="#05a55a" fill-opacity="0.501961" points="1.956141,17.001452,23.467739,3.811098,132.214769,4.764831,75.254804,12.698856" />
<polygon fill="#198f4d" fill-opacity="0.501961" points="249.285038,109.966327,187.898207,63.533461,173.477515,105.388487,195.823568,111.550714" />
<polygon fill="#3b9260" fill-opacity="0.501961" points="17.611787,97.561188,113.647896,110.902338,23.780738,111.133272,4.101991,101.682397" />
<polygon fill="#fbfbff" fill-opacity="0.501961" points="217.037095,213.227077,183.471205,214.354437,184.743825,128.537580,231.039633,212.883599" />
<polygon fill="#0c964e" fill-opacity="0.501961" points="84.086768,3.715993,184.738096,5.507682,104.042504,38.900932,73.119614,70.609478" />
<polygon fill="#ffffff" fill-opacity="0.501961" points="143.574029,168.545737,146.989069,174.630805,121.905354,173.079418,110.577862,168.242325" />
<polygon fill="#008739" fill-opacity="0.501961" points="165.938466,67.292251,171.134885,71.442316,181.527363,61.372338,178.865769,52.131341" />
<polygon fill="#ffffff" fill-opacity="0.501961" points="167.534002,16.354498,160.222733,14.296200,154.157013,22.086427,175.433838,47.673013" />
<polygon fill="#fffeff" fill-opacity="0.501961" points="72.638274,15.909227,69.782721,99.827988,29.456224,97.663367,28.255108,15.085213" />
<polygon fill="#ffffff" fill-opacity="0.501961" points="175.793317,101.144132,167.614836,97.595318,169.417825,96.967096,176.127520,70.190562" />
<polygon fill="#ffffff" fill-opacity="0.501961" points="68.379240,142.595637,78.753006,144.321224,83.992632,173.887806,93.417855,176.169767" />
<polygon fill="#0e8e4a" fill-opacity="0.501961" points="49.171261,176.709848,6.648247,181.179833,5.379562,117.259316,59.491679,119.885088" />
<polygon fill="#f1f9fc" fill-opacity="0.501961" points="203.765928,43.138711,181.680102,27.886631,200.229350,45.396434,184.592040,54.662022" />
<polygon fill="#fcffff" fill-opacity="0.501961" points="135.415319,60.494553,143.473112,53.552151,133.183040,53.795400,106.642144,58.365752" />
<polygon fill="#ffffff" fill-opacity="0.501961" points="219.982583,3.297370,265.650652,-0.152835,2.859958,0.110044,128.849230,3.224194" />
<polygon fill="#158d49" fill-opacity="0.501961" points="114.110538,35.287486,161.580044,30.451108,164.112491,35.140819,163.596363,73.043179" />
<polygon fill="#10914a" fill-opacity="0.501961" points="65.783362,179.295296,80.340530,193.218486,77.275576,224.944893,61.407085,183.578764" />
<polygon fill="#149550" fill-opacity="0.501961" points="85.838941,57.344456,121.322037,90.908285,75.219574,87.029878,71.685694,19.682991" />
<polygon fill="#ffffff" fill-opacity="0.501961" points="217.406052,229.172399,-16.000000,237.634139,10.095812,225.784775,136.829817,226.227394" />
<polygon fill="#fffdfe" fill-opacity="0.501961" points="253.266362,111.812719,196.930431,112.037251,271.000000,119.006303,183.315848,116.668345" />
<polygon fill="#ffffff" fill-opacity="0.501961" points="4.094662,39.017818,3.903376,-16.000000,-16.000000,83.163263,2.624198,175.528389" />
<polygon fill="#ffffff" fill-opacity="0.501961" points="149.077386,152.666024,168.203244,172.398935,149.063145,185.145718,149.266953,137.718162" />
<polygon fill="#00a151" fill-opacity="0.501961" points="232.483914,128.300260,234.314773,119.915970,183.735896,118.192323,186.519126,128.647959" />
<polygon fill="#ffffff" fill-opacity="0.501961" points="221.980092,71.089544,182.050016,63.821076,224.572993,64.269522,226.975404,68.604603" />
<polygon fill="#ffffff" fill-opacity="0.501961" points="84.824371,196.997652,69.595821,165.912056,100.955962,129.074932,57.270071,170.171088" />
<polygon fill="#158b45" fill-opacity="0.501961" points="100.448222,148.245949,83.321991,162.304077,119.087535,198.914699,106.538671,127.666278" />
<polygon fill="#229152" fill-opacity="0.501961" points="68.664029,222.665414,125.536308,189.126402,141.297138,225.426956,32.408288,225.974988" />
<polygon fill="#3f8f60" fill-opacity="0.501961" points="251.756208,226.201435,251.626702,175.922507,223.225372,215.812088,213.289896,224.643661" />
<polygon fill="#1f9c5a" fill-opacity="0.501961" points="28.444374,9.933223,24.459995,71.300181,5.009986,71.481653,4.961255,5.810923" />
<polygon fill="#138d47" fill-opacity="0.501961" points="168.234099,54.255010,140.866360,75.533489,141.542857,33.709953,173.107456,47.840302" />
<polygon fill="#219152" fill-opacity="0.501961" points="162.815340,56.880287,173.310678,110.956142,137.001943,110.671076,50.590784,111.246919" />
<polygon fill="#ffffff" fill-opacity="0.501961" points="268.260206,224.495203,148.677103,229.827478,251.408477,245.000000,252.048914,107.079860" />
<polygon fill="#ffffff" fill-opacity="0.501961" points="185.894064,129.513056,228.325902,131.184008,225.806665,214.894071,183.801241,177.330071" />
<polygon fill="#ffffff" fill-opacity="0.501961" points="89.901645,60.415458,107.008036,36.340906,106.986095,72.997192,103.534685,72.930057" />
<polygon fill="#ffffff" fill-opacity="0.501961" points="9.878931,118.093584,66.366200,117.245513,28.620899,114.899674,-9.610997,115.848965" />
<polygon fill="#ffffff" fill-opacity="0.501961" points="34.820079,185.154328,26.840221,176.459568,57.725043,185.531176,94.998541,149.112561" />
<polygon fill="#098840" fill-opacity="0.501961" points="186.250095,40.147537,201.140823,54.777862,212.349552,12.543272,231.700790,60.336680" />
<polygon fill="#ffffff" fill-opacity="0.501961" points="96.646951,147.736669,102.425230,138.504564,90.459531,129.057737,85.943917,135.123159" />
<polygon fill="#32272d" fill-opacity="0.501961" points="84.717940,114.350804,102.076217,114.954083,129.775514,114.785683,121.900967,114.046369" />
<polygon fill="#0b9046" fill-opacity="0.501961" points="34.220895,118.105517,174.756255,120.849371,82.804593,129.480761,86.282347,143.675714" />
<polygon fill="#138d48" fill-opacity="0.501961" points="29.510813,186.289516,70.874303,186.068059,5.900236,225.426237,32.243916,152.249967" />
<polygon fill="#389661" fill-opacity="0.501961" points="216.640133,213.420260,116.413946,222.260387,237.744557,226.086984,237.476314,215.613524" />
<polygon fill="#ffffff" fill-opacity="0.501961" points="162.676072,69.233868,173.940579,48.429391,211.744293,73.083057,184.972156,41.648429" />
<polygon fill="#159450" fill-opacity="0.501961" points="181.546617,146.213978,169.117098,172.349040,143.679313,198.762795,183.886402,207.994551" />
<polygon fill="#0f904a" fill-opacity="0.501961" points="45.613548,179.176015,19.728983,160.076126,55.350227,161.227478,77.107317,148.747635" />
<polygon fill="#fdffff" fill-opacity="0.501961" points="79.630650,198.836674,83.435582,183.761436,86.400262,218.702483,81.981781,210.055877" />
<polygon fill="#14924a" fill-opacity="0.501961" points="162.945666,14.213202,203.386461,35.590006,206.763574,4.263102,123.475078,3.450836" />
<polygon fill="#feffff" fill-opacity="0.501961" points="61.855349,142.539231,96.607106,144.892933,91.565774,138.231009,90.098802,157.558409" />
<polygon fill="#feffff" fill-opacity="0.501961" points="191.077673,54.325123,174.745333,70.059631,169.198042,84.032010,192.227148,62.341771" />
<polygon fill="#099147" fill-opacity="0.501961" points="65.246149,151.564946,48.405487,168.923934,76.219808,149.958451,66.052530,149.956308" />
<polygon fill="#98868e" fill-opacity="0.501961" points="51.700530,114.986332,20.624098,114.689582,83.190598,113.490106,34.986349,115.844368" />
<polygon fill="#ffffff" fill-opacity="0.501961" points="4.006828,86.209643,4.011007,245.000000,33.648957,226.098864,-16.000000,225.205143" />
<polygon fill="#1b904e" fill-opacity="0.501961" points="158.508875,68.186717,182.853440,55.379281,183.045710,61.379954,116.172061,112.448652" />
<polygon fill="#ffffff" fill-opacity="0.501961" points="128.566537,117.427007,209.300144,117.955617,161.771129,115.362582,96.406526,116.170325" />
<polygon fill="#21894e" fill-opacity="0.501961" points="54.011214,100.329795,12.235312,99.596259,32.122950,104.288530,76.111087,100.002189" />
<polygon fill="#0f8e46" fill-opacity="0.501961" points="171.705017,22.207038,169.285490,29.289106,249.578624,18.223992,161.191495,3.534941" />
<polygon fill="#209053" fill-opacity="0.501961" points="229.370042,182.758003,228.031644,221.724977,244.850899,216.970055,228.792158,124.933157" />
<polygon fill="#f5fafd" fill-opacity="0.501961" points="153.441259,26.609447,158.200336,15.894136,164.547789,41.686345,187.103766,52.244790" />
<polygon fill="#ffffff" fill-opacity="0.501961" points="54.700912,160.624497,53.398004,157.810195,54.615327,153.301066,70.346678,145.610462" />
<polygon fill="#988890" fill-opacity="0.501961" points="169.116647,115.622851,207.085843,114.070951,180.009907,114.347194,156.871013,113.515259" />
<polygon fill="#fffffd" fill-opacity="0.501961" points="154.528891,116.748338,69.999584,115.596359,2.702775,115.279699,70.871762,118.535653" />
<polygon fill="#188e4a" fill-opacity="0.501961" points="123.583327,149.973007,89.792755,225.456812,93.042626,156.164463,92.193884,146.242684" />
<polygon fill="#108e47" fill-opacity="0.501961" points="185.206499,71.843383,177.858163,77.130688,176.611887,107.265180,224.814969,72.111858" />
<polygon fill="#f6fefe" fill-opacity="0.501961" points="186.507397,30.522061,203.852734,38.481587,201.433744,45.928347,194.156805,40.111428" />
<polygon fill="#ffffff" fill-opacity="0.501961" points="252.602798,111.725028,242.680860,112.250394,271.000000,120.370528,252.722345,17.316086" />
<polygon fill="#ffffff" fill-opacity="0.501961" points="2.883480,56.935985,4.826116,3.457307,97.654565,1.586068,-16.000000,-16.000000" />
<polygon fill="#039342" fill-opacity="0.501961" points="187.930554,42.605996,181.803605,36.459003,188.816348,35.674146,209.069851,62.734533" />
<polygon fill="#ffffff" fill-opacity="0.501961" points="252.399692,3.954252,196.314527,2.497159,271.000000,-16.000000,251.727907,127.119890" />
<polygon fill="#eff0fe" fill-opacity="0.501961" points="227.488751,214.325363,203.200599,211.745100,225.099979,154.935366,228.215162,186.267610" />
<polygon fill="#13944c" fill-opacity="0.501961" points="174.479274,3.525399,106.896527,53.839944,107.796973,27.968039,101.762962,5.340627" />
<polygon fill="#ffffff" fill-opacity="0.501961" points="69.226923,156.660034,58.953306,186.016281,30.631599,185.815832,82.206379,165.619389" />
<polygon fill="#ffffff" fill-opacity="0.501961" points="29.373552,49.819044,71.678934,51.963925,72.892221,14.208998,28.079990,22.071352" />
<polygon fill="#16914d" fill-opacity="0.501961" points="148.817757,177.895264,110.399119,174.845946,79.683073,222.475236,147.494621,204.999862" />
<polygon fill="#10974e" fill-opacity="0.501961" points="181.392390,162.548309,183.803426,155.641149,182.970343,129.978995,67.026632,117.229759" />
<polygon fill="#218f52" fill-opacity="0.501961" points="179.085630,98.640956,137.510589,109.632572,191.133007,110.780642,256.907262,110.823423" />
<polygon fill="#f6fcff" fill-opacity="0.501961" points="92.155285,173.051616,94.963966,174.432743,84.717735,174.351154,71.756240,155.653137" />
<polygon fill="#11924b" fill-opacity="0.501961" points="118.744358,61.685090,106.961415,61.793772,107.581883,99.521954,160.462987,60.393268" />
<polygon fill="#feffff" fill-opacity="0.501961" points="135.732743,60.163530,115.993739,55.593458,95.469664,50.916240,96.874136,60.345322" />
<polygon fill="#32905a" fill-opacity="0.501961" points="4.592068,96.365027,5.310158,32.505776,27.559267,81.523483,27.774410,98.919945" />
<polygon fill="#0b984f" fill-opacity="0.501961" points="120.721710,11.690267,59.066501,7.906951,72.772929,16.106202,75.530188,71.614078" />
<polygon fill="#f0f9fd" fill-opacity="0.501961" points="81.789659,217.791984,78.379517,180.869914,85.833914,186.501100,85.348412,199.423266" />
<polygon fill="#609c7a" fill-opacity="0.501961" points="224.656623,115.321728,203.384096,114.800187,242.715366,91.797305,206.078561,112.325194" />
<polygon fill="#14934b" fill-opacity="0.501961" points="147.261191,168.177459,153.764804,117.496324,118.958679,122.789150,84.451565,163.736935" />
<polygon fill="#138d47" fill-opacity="0.501961" points="248.572795,83.257008,245.054002,3.826275,172.052561,4.424812,207.864741,45.598715" />
<polygon fill="#f9ffff" fill-opacity="0.501961" points="148.857180,192.824133,150.425760,151.963721,156.261999,160.733961,164.330356,173.135397" />
<polygon fill="#ebf7f9" fill-opacity="0.501961" points="162.307402,59.782933,166.468680,63.918937,185.821496,45.366701,173.480361,48.722384" />
<polygon fill="#178d4c" fill-opacity="0.501961" points="41.266717,211.442441,6.078582,225.944843,4.174449,197.505368,6.016314,127.762864" />
<polygon fill="#8a9d92" fill-opacity="0.501961" points="-12.272120,114.471948,56.116431,113.943861,-16.000000,117.153867,26.689676,81.489447" />
<polygon fill="#168d4a" fill-opacity="0.501961" points="250.618524,101.012315,177.163923,102.996712,177.393592,75.982706,192.382614,69.270742" />
<polygon fill="#ffffff" fill-opacity="0.501961" points="172.318905,113.895404,217.186300,111.686616,118.625049,111.758550,126.512693,113.595354" />
<polygon fill="#14924c" fill-opacity="0.501961" points="136.616277,6.124101,108.286281,20.219169,106.855892,54.066123,173.804301,51.451118" />
<polygon fill="#9fb3a9" fill-opacity="0.501961" points="127.322693,115.159915,150.894691,115.748016,126.531680,122.409223,161.854683,112.891233" />
<polygon fill="#ffffff" fill-opacity="0.501961" points="217.068495,72.718430,177.377577,53.629245,158.358570,21.872187,176.773396,33.513959" />
<polygon fill="#f7fefd" fill-opacity="0.501961" points="170.600445,17.823034,155.484241,15.839895,155.890329,32.192451,157.382727,29.687755" />
<polygon fill="#25a262" fill-opacity="0.501961" points="227.377094,145.820276,250.068349,186.780031,251.584696,120.259208,230.667842,119.584820" />
<polygon fill="#ebf8fc" fill-opacity="0.501961" points="130.886560,169.667079,173.148851,171.668059,120.706825,175.851103,110.095922,174.391135" />
<polygon fill="#ffffff" fill-opacity="0.501961" points="228.260210,157.742621,227.148477,128.813429,183.050144,131.734813,190.230852,192.441932" />
<polygon fill="#18904c" fill-opacity="0.501961" points="209.694878,88.239946,187.695064,99.615045,179.347544,76.790909,190.254802,64.543583" />
<polygon fill="#138f48" fill-opacity="0.501961" points="69.732020,118.295926,22.075843,121.277462,64.759658,139.034321,122.013247,119.099016" />
<polygon fill="#168f4a" fill-opacity="0.501961" points="112.894478,122.219054,115.185136,176.293027,106.682445,192.615982,87.564736,166.455962" />
<polygon fill="#1e9050" fill-opacity="0.501961" points="115.415435,213.897073,71.910383,174.591920,74.967365,169.684064,155.564815,221.180847" />
<polygon fill="#ffffff" fill-opacity="0.501961" points="235.163220,-0.151737,164.609413,3.837142,81.781054,-0.654765,207.957683,-1.354553" />
<polygon fill="#108b46" fill-opacity="0.501961" points="232.767996,62.220572,211.845427,63.426752,196.984569,50.188509,209.976274,37.800488" />
<polygon fill="#ffffff" fill-opacity="0.501961" points="247.589746,245.000000,108.340037,226.993328,173.361681,225.612087,258.173545,227.232990" />
<polygon fill="#1c9452" fill-opacity="0.501961" points="82.327101,51.468330,73.249634,28.825067,72.751056,107.881067,110.782645,87.542665" />
<polygon fill="#158f49" fill-opacity="0.501961" points="127.884596,29.094582,161.075088,91.880529,163.482995,31.905993,78.231945,38.335217" />
<polygon fill="#a28f99" fill-opacity="0.501961" points="236.801682,113.645127,219.840267,115.428446,214.378013,113.908354,253.831577,115.404960" />
<polygon fill="#12914a" fill-opacity="0.501961" points="183.042733,37.308560,187.858374,33.996047,214.301718,63.087877,209.158107,61.240014" />
<polygon fill="#ffffff" fill-opacity="0.501961" points="12.855733,116.980050,3.610299,114.028767,3.743525,5.138861,-16.000000,121.141571" />
<polygon fill="#f7feff" fill-opacity="0.501961" points="169.609510,75.195178,193.563401,52.116472,200.794462,55.469110,170.573501,81.887383" />
<polygon fill="#fefffc" fill-opacity="0.501961" points="63.689305,110.614557,71.545324,113.605094,28.329042,112.960165,10.067978,112.965004" />
<polygon fill="#ffffff" fill-opacity="0.501961" points="83.235447,151.140259,90.218967,129.945261,96.288161,130.483650,103.579121,136.916589" />
<polygon fill="#fefdfd" fill-opacity="0.501961" points="251.400644,114.790354,234.445857,115.172740,271.000000,122.125020,253.977495,203.123349" />
<polygon fill="#5ca37a" fill-opacity="0.501961" points="57.664603,111.127081,4.320631,110.563378,4.354588,71.848156,8.006313,104.648895" />
<polygon fill="#eafbfb" fill-opacity="0.501961" points="224.112033,63.489553,215.540404,65.453210,200.729999,66.707579,228.131167,73.206798" />
<polygon fill="#188d4c" fill-opacity="0.501961" points="250.807283,45.507670,251.547922,100.734608,209.414726,110.298057,237.028819,44.043028" />
<polygon fill="#158f4a" fill-opacity="0.501961" points="57.352164,150.041100,4.938359,172.172627,4.579375,124.098022,64.992907,142.032097" />
<polygon fill="#fafffe" fill-opacity="0.501961" points="160.968502,25.471613,167.375736,39.417155,192.481737,29.649946,200.683800,37.298405" />
<polygon fill="#eaf7fd" fill-opacity="0.501961" points="109.840241,61.157571,104.601910,53.504655,123.178594,54.258214,142.299083,58.523099" />
<polygon fill="#ffffff" fill-opacity="0.501961" points="210.034536,111.847737,256.214088,113.752626,208.512867,114.031469,128.344234,112.204596" />
<polygon fill="#0ea35a" fill-opacity="0.501961" points="227.226350,129.015134,244.656067,144.788525,242.315375,118.338222,114.792684,118.752849" />
<polygon fill="#1b9c59" fill-opacity="0.501961" points="4.174464,4.916948,19.916761,3.362708,27.631837,9.424335,25.144199,86.614191" />
<polygon fill="#06a357" fill-opacity="0.501961" points="22.402824,13.161260,95.174012,4.295145,73.265241,35.106335,72.329141,14.095079" />
<polygon fill="#128b46" fill-opacity="0.501961" points="5.312669,188.368578,60.858810,165.129202,55.395176,161.626370,30.352145,133.476425" />
<polygon fill="#0e9851" fill-opacity="0.501961" points="183.159111,130.678207,182.845849,158.564230,167.629856,170.350437,126.200774,120.995973" />
<polygon fill="#f9feff" fill-opacity="0.501961" points="31.481712,179.620495,29.188720,187.733312,87.541434,158.166783,67.337746,176.987263" />
<polygon fill="#0b9148" fill-opacity="0.501961" points="79.112023,138.576573,89.216966,121.379602,83.103557,143.512444,53.260430,137.935131" />
<polygon fill="#139650" fill-opacity="0.501961" points="99.046561,175.004164,155.711248,201.186862,150.070459,200.310040,147.605542,175.615610" />
<polygon fill="#ffffff" fill-opacity="0.501961" points="243.770212,110.987168,270.311314,114.658612,215.680176,116.806981,263.185540,118.533619" />
<polygon fill="#ffffff" fill-opacity="0.501961" points="71.004917,100.820869,34.559902,18.172608,71.971933,19.193923,71.645625,100.039735" />
<polygon fill="#e9f9f4" fill-opacity="0.501961" points="91.270184,178.609883,89.141523,178.715753,67.646780,155.352409,82.802273,163.883781" />
<polygon fill="#f1f2ff" fill-opacity="0.501961" points="27.909536,99.545296,72.437014,97.406797,42.776177,66.751008,30.899301,39.320731" />
<polygon fill="#2f945b" fill-opacity="0.501961" points="79.436040,110.930659,3.948413,102.851778,86.681270,98.902471,177.771924,111.000503" />
<polygon fill="#fcffff" fill-opacity="0.501961" points="157.093692,30.719080,170.236849,20.107035,168.849696,43.758726,170.789529,33.459570" />
<polygon fill="#ffffff" fill-opacity="0.501961" points="63.716244,143.777786,79.112003,147.747111,56.956803,149.516172,56.069946,160.334646" />
<polygon fill="#fdfeff" fill-opacity="0.501961" points="197.458408,71.664168,203.812676,68.050093,158.636397,17.940351,175.925116,51.186217" />
<polygon fill="#fdfeff" fill-opacity="0.501961" points="146.295503,174.803887,170.858226,171.618290,122.068100,168.805894,115.141986,172.972675" />
<polygon fill="#799c8a" fill-opacity="0.501961" points="118.594856,116.284878,173.016668,95.927515,124.333007,114.385273,171.706323,114.049888" />
<polygon fill="#1a8d4d" fill-opacity="0.501961" points="86.255884,202.161136,86.909886,223.050070,30.839189,204.143870,94.417985,217.266901" />
<polygon fill="#12904a" fill-opacity="0.501961" points="78.878270,214.483848,78.309244,192.181057,67.102021,181.569603,58.918076,184.818203" />
<polygon fill="#158d49" fill-opacity="0.501961" points="226.692929,60.271337,251.653299,1.980203,249.420080,89.102092,224.844780,87.897643" />
<polygon fill="#1a9350" fill-opacity="0.501961" points="183.048063,160.108333,126.599050,214.944388,171.619905,204.150176,182.425573,221.256952" />
<polygon fill="#259156" fill-opacity="0.501961" points="12.203879,46.670396,20.306018,107.605367,28.184058,89.718349,24.851103,36.472257" />
<polygon fill="#fbfefe" fill-opacity="0.501961" points="63.859575,180.714348,50.726221,173.934629,85.008580,144.813482,88.796853,156.616292" />
<polygon fill="#f3f9ff" fill-opacity="0.501961" points="168.736855,95.491152,175.716140,100.881857,175.960724,96.961592,174.204876,74.532989" />
<polygon fill="#f9fffd" fill-opacity="0.501961" points="187.812341,132.136831,183.584808,153.151849,203.966022,204.276217,182.644910,127.931217" />
<polygon fill="#e5f7f4" fill-opacity="0.501961" points="54.874105,162.173099,66.031165,144.380411,50.131084,157.075772,59.490145,156.238239" />
<polygon fill="#f5fbfc" fill-opacity="0.501961" points="79.287266,150.263055,97.344720,129.067345,102.585171,137.105426,100.725172,144.757582" />
<polygon fill="#188f4c" fill-opacity="0.501961" points="119.656199,111.818379,146.208824,47.951884,170.348449,67.076279,168.221043,88.205297" />
<polygon fill="#418960" fill-opacity="0.501961" points="55.106186,114.998709,69.527999,141.950894,54.539028,113.822611,68.313014,114.980397" />
<polygon fill="#f8fdff" fill-opacity="0.501961" points="103.466485,42.220579,85.971437,58.158483,105.370866,64.403582,106.566925,38.704507" />
<polygon fill="#128f48" fill-opacity="0.501961" points="179.398875,27.775449,215.248833,31.279963,220.834417,4.025496,156.018557,4.811174" />
<polygon fill="#ffffff" fill-opacity="0.501961" points="219.509610,226.423943,34.564598,226.266045,-16.000000,227.690071,109.003819,245.000000" />
<polygon fill="#ffffff" fill-opacity="0.501961" points="-1.187805,6.671492,3.495709,157.661108,4.402299,196.650040,0.756658,245.000000" />
<polygon fill="#17904d" fill-opacity="0.501961" points="169.484718,97.655008,167.370016,64.553433,105.825211,60.937439,158.172520,103.664071" />
<polygon fill="#ffffff" fill-opacity="0.501961" points="157.407644,15.627528,166.086314,36.242119,168.367878,40.519608,169.663150,18.507345" />
<polygon fill="#ffffff" fill-opacity="0.501961" points="90.228521,112.070362,61.588414,114.071926,11.841302,112.874128,77.949924,111.603516" />
<polygon fill="#1b9450" fill-opacity="0.501961" points="148.263954,86.808390,184.585759,59.304439,172.883750,56.982742,179.808958,52.085426" />
<polygon fill="#389761" fill-opacity="0.501961" points="235.917384,187.801890,250.966310,135.674793,250.524973,162.319134,251.703124,222.692071" />
<polygon fill="#198e4c" fill-opacity="0.501961" points="87.871622,221.899159,14.526105,175.762375,6.803391,130.936258,4.973648,225.759905" />
<polygon fill="#1e8f50" fill-opacity="0.501961" points="159.006841,98.875621,252.832587,108.002074,73.025031,101.689515,73.639456,77.398995" />
<polygon fill="#ffffff" fill-opacity="0.501961" points="136.858423,3.666177,92.570978,2.373878,12.999791,1.184365,211.611764,-0.342128" />
<polygon fill="#ffffff" fill-opacity="0.501961" points="173.174389,118.896940,159.718207,115.143114,202.142719,116.109252,170.450078,118.728498" />
</g>
</svg>